<svg width="200" height="120" viewBox="0 0 200 120" fill="none" xmlns="http://www.w3.org/2000/svg">
<g clip-path="url(#clip0_34091_184671)">
<path d="M69.5211 10.6709C69.3171 10.6709 69.1421 10.6126 68.9672 10.496C68.5008 10.1754 68.355 9.56316 68.6757 9.09672L69.6377 7.63911C69.9584 7.17267 70.5706 7.02691 71.037 7.34759C71.5035 7.66826 71.6492 8.28046 71.3286 8.7469L70.3665 10.2045C70.1625 10.496 69.8418 10.6709 69.5211 10.6709Z" fill="#B2E6ED"/>
<path d="M4.39717 67.0223C4.16395 67.0223 3.93073 66.9348 3.75581 66.7891C3.31853 66.4392 3.26022 65.7979 3.61005 65.3606L5.88393 62.6203C6.23375 62.183 6.87511 62.1247 7.31239 62.4745C7.74968 62.8243 7.80798 63.4657 7.45816 63.903L5.18428 66.6433C4.98022 66.8765 4.68869 67.0223 4.39717 67.0223ZM8.94492 61.5416C8.7117 61.5416 8.47848 61.4542 8.30356 61.3084C7.86628 60.9586 7.80797 60.3173 8.1578 59.88L9.2656 58.5681C9.70289 58.0142 10.2276 57.5186 10.8107 57.1105C11.2771 56.7898 11.9184 56.9064 12.2391 57.3729C12.5598 57.8393 12.4432 58.4807 11.9768 58.8013C11.5686 59.0929 11.1896 59.4427 10.8981 59.8217L10.869 59.8508L9.73203 61.1918C9.52796 61.425 9.23644 61.5416 8.94492 61.5416ZM14.7171 57.9559C14.1632 57.9559 13.6967 57.5186 13.6967 56.9647C13.6967 56.4108 14.134 55.9444 14.6879 55.9153L18.2445 55.8569C18.8275 55.8569 19.2648 56.2942 19.294 56.8481C19.294 57.402 18.8567 57.8685 18.3028 57.8976L14.7171 57.9559ZM21.8011 57.8393C21.2472 57.8393 20.7808 57.402 20.7808 56.8481C20.7808 56.2942 21.218 55.8278 21.7719 55.7986H22.2675C23.1129 55.7986 23.9292 55.5654 24.658 55.1281C25.1536 54.8366 25.7658 55.0115 26.0573 55.478C26.3488 55.9736 26.1739 56.5858 25.7075 56.8773C24.6871 57.4895 23.4919 57.8102 22.2967 57.8393H21.8011ZM27.6315 54.4868C27.4275 54.4868 27.2234 54.4285 27.0485 54.2827C26.5821 53.9621 26.4946 53.3207 26.8153 52.8543L28.8851 49.9682C29.2058 49.5018 29.8471 49.4143 30.3135 49.735C30.78 50.0556 30.8674 50.697 30.5468 51.1634L28.4769 54.0495C28.2729 54.341 27.9522 54.4868 27.6315 54.4868ZM31.7711 48.6855C31.5671 48.6855 31.363 48.6272 31.1881 48.4814C30.7217 48.1607 30.6342 47.5194 30.9549 47.053L33.0247 44.1669C33.3454 43.7004 33.9867 43.613 34.4532 43.9337C34.9196 44.2543 35.0071 44.8957 34.6864 45.3621L32.6166 48.2482C32.4125 48.5397 32.0918 48.6855 31.7711 48.6855ZM35.9108 42.9133C35.7067 42.9133 35.5026 42.855 35.3277 42.7093C34.8613 42.3886 34.7738 41.7472 35.0945 41.2808L35.6193 40.552C36.2315 39.7066 37.0477 38.9778 37.9806 38.5113C38.4762 38.249 39.0884 38.4239 39.3507 38.9486C39.6131 39.4442 39.4382 40.0564 38.9135 40.3188C38.2721 40.6686 37.6891 41.1642 37.2809 41.7472L36.7562 42.4761C36.523 42.7676 36.2315 42.9133 35.9108 42.9133ZM45.4144 39.8232L41.8578 39.794C41.304 39.794 40.8375 39.3276 40.8375 38.7737C40.8375 38.2198 41.304 37.7534 41.8578 37.7534L45.4144 37.7825C45.9683 37.7825 46.4348 38.249 46.4348 38.8029C46.4056 39.3568 45.9683 39.8232 45.4144 39.8232ZM48.8835 39.3859C48.4754 39.3859 48.0964 39.1527 47.9507 38.7737C47.7466 38.249 47.9798 37.6659 48.5046 37.4327C49.3791 37.0537 50.1663 36.4124 50.8076 35.567C51.1574 35.1297 51.7988 35.0131 52.2361 35.3629C52.6733 35.7127 52.79 36.3541 52.4401 36.7914C51.5656 37.9283 50.4869 38.8029 49.2917 39.3276C49.1751 39.3859 49.0293 39.3859 48.8835 39.3859ZM53.6645 34.2843C53.4605 34.2843 53.2564 34.226 53.0815 34.1093C52.615 33.7887 52.4984 33.1473 52.8191 32.6809C53.4313 31.7772 54.1018 30.8151 54.8306 29.7657C55.1513 29.2992 55.7926 29.1826 56.2591 29.5033C56.7255 29.824 56.8421 30.4653 56.5214 30.9317C55.7926 31.9812 55.1221 32.9724 54.5099 33.8761C54.3059 34.1385 54.0143 34.2843 53.6645 34.2843ZM57.6875 28.4246C57.4835 28.4246 57.2794 28.3663 57.1045 28.2497C56.6381 27.9291 56.5214 27.2877 56.8421 26.8213C57.4835 25.8592 58.154 24.8681 58.8245 23.8769C59.1452 23.4105 59.7865 23.2938 60.2529 23.5854C60.7194 23.906 60.836 24.5474 60.5445 25.0138C59.874 26.005 59.2035 26.9962 58.5621 27.9582C58.3289 28.2497 58.0082 28.4246 57.6875 28.4246ZM61.6522 22.5067C61.4482 22.5067 61.2733 22.4484 61.0984 22.3318C60.6319 22.0111 60.5153 21.3989 60.8068 20.9034C61.4773 19.9122 62.1478 18.921 62.7892 17.959C63.1099 17.4925 63.7221 17.3759 64.2177 17.6675C64.6841 17.9881 64.8007 18.6003 64.5092 19.0959C63.8678 20.0579 63.1973 21.0491 62.5268 22.0403C62.2936 22.361 61.9729 22.5067 61.6522 22.5067ZM65.5878 16.5888C65.3837 16.5888 65.2088 16.5305 65.0339 16.4139C64.5675 16.0932 64.4509 15.481 64.7424 14.9854C65.442 13.9068 66.1126 12.9156 66.6956 12.0119C67.0163 11.5455 67.6285 11.3997 68.124 11.7204C68.5905 12.0411 68.7362 12.6533 68.4156 13.1489C67.8325 14.0526 67.162 15.0437 66.4624 16.1224C66.2583 16.4431 65.9085 16.5888 65.5878 16.5888Z" fill="#B2E6ED"/>
<path d="M1.01434 71.0744C0.781117 71.0744 0.547913 70.987 0.373 70.8412C-0.0642846 70.4914 -0.122589 69.85 0.227238 69.4127L1.33502 68.0717C1.68485 67.6344 2.32619 67.5761 2.76347 67.926C3.20076 68.2758 3.25906 68.9171 2.90923 69.3544L1.80145 70.6954C1.59738 70.9578 1.30586 71.0744 1.01434 71.0744Z" fill="#B2E6ED"/>
<path d="M71.3013 15.3935L72.5257 5.39423C72.5548 5.16101 72.2924 5.01525 72.1175 5.13186L63.6925 10.6125C63.4884 10.7583 63.5759 11.0789 63.8091 11.1081L68.2403 11.3704C68.3277 11.3704 68.4152 11.4288 68.4443 11.5162L70.7765 15.5101C70.9223 15.7141 71.2721 15.6267 71.3013 15.3935Z" fill="#B2E6ED"/>
<path d="M121.063 98.7983C121.063 98.7983 125.903 80.6364 123.949 73.2609C121.996 65.8854 118.265 66.002 120.014 59.9092C121.763 53.8163 124.882 49.3852 122.346 42.4761C119.81 35.567 119.926 34.9839 121.996 31.6897C124.066 28.4247 124.882 26.6464 123.046 22.9149C121.209 19.1543 119.577 18.2214 119.577 13.6736C119.577 9.12587 120.043 6.2981 120.043 6.2981C120.043 6.2981 113.367 10.7001 112.901 15.1604C112.434 19.6207 114.067 21.982 110.947 25.0139C107.828 28.0457 108.761 30.407 108.761 33.7887C108.761 37.1704 105.642 38.4822 105.525 41.5141C105.408 44.5459 106.225 46.7906 107.945 51.2218C109.665 55.6821 108.586 58.5973 105.992 63.2908C103.397 67.9843 101.823 67.8094 103.222 76.6134C104.621 85.4174 110.627 98.7691 110.627 98.7691H121.063V98.7983Z" fill="#0D1E7A"/>
<path d="M116.312 19.1544C117.216 22.332 118.994 23.7896 118.149 26.1801C117.391 28.3956 113.747 27.696 113.514 30.757C113.251 33.7888 115.292 35.6837 114.592 40.1148C114.009 43.7589 111.298 43.9338 112.406 48.1026C113.864 53.5541 115.992 56.1778 114.009 62.2414C112.027 68.3051 109.957 75.2434 109.841 82.0358C109.782 86.2921 113.077 93.7842 115.525 98.7692H121.035C121.035 98.7692 125.874 80.6074 123.921 73.2318C121.968 65.8563 118.236 65.9729 119.986 59.8801C121.735 53.7873 124.854 49.3561 122.318 42.447C119.782 35.5379 119.898 34.9549 121.968 31.6607C124.038 28.3956 124.854 26.6173 123.017 22.8858C121.181 19.1252 119.548 18.1923 119.548 13.6446C119.548 9.06766 120.015 6.26904 120.015 6.26904C120.015 6.26904 115.205 15.2188 116.312 19.1544Z" fill="url(#paint0_linear_34091_184671)"/>
<path d="M116.605 114.628C116.605 114.628 116.109 105.853 120.803 97.8654C125.496 89.8777 125.73 84.9801 129.17 71.3077C132.61 57.6353 135.816 50.9303 142.492 46.5574C149.168 42.1846 149.401 40.6395 150.626 35.7419C151.85 30.8443 154.328 30.3196 157.039 29.0369C159.75 27.7542 160.246 23.8769 163.453 21.3115C166.659 18.7461 168.379 20.7868 167.884 24.9264C167.388 29.066 165.668 30.0864 164.677 31.3691C163.686 32.6518 163.948 35.5087 163.948 38.0741C163.948 40.6395 164.181 40.6395 160.246 44.2544C156.31 47.8693 155.319 49.4143 154.824 53.5248C154.328 57.6644 153.104 60.7546 149.168 63.8447C145.232 66.9349 144.737 68.2176 144.241 73.1151C143.746 78.0127 139.548 81.1029 136.108 87.0499C132.668 92.9679 132.405 93.755 132.172 100.985C131.939 108.214 126.021 114.657 126.021 114.657H116.605V114.628Z" fill="#02C8DC"/>
<path d="M163.92 38.074C163.92 35.5086 163.686 32.6517 164.648 31.369C165.61 30.0863 167.36 29.0368 167.855 24.9263C168.059 23.1189 167.855 21.6904 167.272 20.9033C165.435 22.944 162.229 25.8884 161.704 29.066C160.946 33.5554 159.78 34.8381 156.865 36.5289C153.775 38.3364 154.678 40.8435 153.57 43.234C151.413 47.84 147.244 48.5105 143.921 52.8834C140.598 57.2271 143.717 60.4047 137.303 67.4304C130.89 74.4561 130.394 75.7388 130.394 81.6567C130.394 87.5746 132.61 91.7142 126.459 97.8945C120.308 104.075 120.803 105.124 121.037 113.374C121.037 113.812 121.066 114.249 121.066 114.657H125.992C125.992 114.657 131.91 108.214 132.144 100.985C132.377 93.7549 132.639 92.9969 136.079 87.0499C139.519 81.1319 143.717 78.0126 144.213 73.1151C144.708 68.2175 145.204 66.9348 149.139 63.8446C153.075 60.7545 154.328 57.6644 154.795 53.5247C155.29 49.3851 156.282 47.84 160.217 44.2543C164.182 40.6394 163.92 40.6394 163.92 38.074Z" fill="url(#paint1_linear_34091_184671)"/>
<path d="M134.418 114.599C134.418 114.599 134.593 108.914 138.033 105.212C141.473 101.48 143.193 101.364 145 95.1252C146.779 88.9158 148.324 86.7877 152.376 83.0562C156.428 79.3247 157.857 75.2142 158.206 72.4739C158.556 69.7336 159.518 65.3899 159.518 65.3899C159.518 65.3899 156.078 66.4102 155.233 69.0631C154.388 71.7159 153.338 73.4651 147.857 75.7098C142.377 77.9545 136.459 84.0765 133.398 89.0032C130.687 93.3469 130.803 98.0113 130.279 101.684C129.608 106.495 127.101 110.226 125.789 112.092C124.477 113.958 123.836 114.599 123.836 114.599H134.418Z" fill="#6245DD"/>
<path d="M156.165 72.4739C155.465 76.7009 153.774 77.6921 148.906 79.1789C144.037 80.6657 141.763 84.2805 140.451 88.6242C139.14 92.9679 139.606 95.2709 135.35 99.5563C132.26 102.676 131.356 107.457 130.977 112.996C130.948 113.549 130.977 114.074 131.006 114.57L134.417 114.541C134.417 114.541 134.592 108.856 138.032 105.154C141.472 101.422 143.192 101.305 144.999 95.0669C146.777 88.8574 148.323 86.7293 152.375 82.9978C156.427 79.2663 157.855 75.1559 158.205 72.4156C158.555 69.6752 159.517 65.3315 159.517 65.3315C159.517 65.3315 156.952 67.9261 156.165 72.4739Z" fill="url(#paint2_linear_34091_184671)"/>
<path d="M153.103 114.628C153.103 114.628 155.348 110.663 155.931 108.943C156.514 107.223 157.185 105.183 156.602 101.13C156.019 97.0782 156.981 95.4457 158.147 92.9969C159.313 90.5481 160.187 90.344 159.808 86.7C159.429 83.0559 160.012 82.2397 160.974 80.4905C161.936 78.7414 160.974 75.8262 160.974 75.8262C160.974 75.8262 160.391 77.2546 159.517 78.1584C158.642 79.0621 157.826 78.7414 157.243 81.0153C156.602 83.6681 156.077 85.0383 153.686 87.6037C151.121 90.344 151.121 93.6965 150.392 96.6409C149.43 100.431 147.506 100.402 144.27 105.591C141.034 110.78 140.859 114.628 140.859 114.628H153.103Z" fill="#0F43C1"/>
<path d="M158.351 82.9394C157.681 85.2716 158.06 86.0879 157.476 88.0119C156.893 89.936 154.561 90.4607 154.27 94.1048C153.978 97.7488 153.191 99.702 149.401 104.862C147.04 108.098 146.049 112.092 145.641 114.599H153.104C153.104 114.599 155.348 110.634 155.931 108.914C156.514 107.194 157.185 105.153 156.602 101.101C156.019 97.0491 156.981 95.4166 158.147 92.9678C159.313 90.519 160.188 90.315 159.809 86.6709C159.43 83.0269 160.013 82.2106 160.975 80.4615C161.937 78.7415 160.975 75.7971 160.975 75.7971C160.975 75.7971 160.421 78.2459 160.217 79.2371C159.954 80.3157 159.022 80.6072 158.351 82.9394Z" fill="url(#paint3_linear_34091_184671)"/>
<path d="M121.76 114.628C121.76 114.628 121.76 109.468 118.757 103.2C115.755 96.9326 114.355 96.3787 113.452 89.5571C112.577 82.7354 111.673 79.587 109.399 76.0887C107.096 72.5905 108.875 71.8325 106.921 68.8881C104.968 65.9437 103.744 63.9031 103.744 63.9031C103.744 63.9031 103.336 66.9641 103.744 68.8298C104.123 70.6664 104.939 70.4915 104.735 73.1152C104.531 75.7389 104.006 76.4386 104.065 79.7036C104.123 82.9687 105.114 84.4846 106.309 87.05C107.505 89.6154 107.505 90.7232 107.709 97.7197C107.913 104.716 108.117 106.291 109.108 109.497C110.099 112.704 111.09 114.686 111.09 114.686H121.76V114.628Z" fill="url(#paint4_linear_34091_184671)"/>
<path d="M118.76 103.2C115.757 96.9326 114.358 96.3787 113.454 89.5571C112.579 82.7354 111.676 79.587 109.402 76.0887C107.099 72.5905 108.877 71.8325 106.924 68.8881C104.97 65.9437 103.746 63.9031 103.746 63.9031C103.746 63.9031 103.746 63.9322 103.746 63.9614C103.834 64.5444 103.95 65.3315 104.067 66.2353C104.329 68.2468 105.379 68.7424 106.282 70.4915C107.069 72.0074 106.69 74.3687 106.341 76.1762C105.728 79.587 106.749 80.1117 108.002 82.269C109.256 84.4263 109.168 84.3388 110.043 89.6737C111.501 98.3611 116.515 103.317 117.069 111.071C117.156 112.558 117.273 113.753 117.389 114.657H121.762C121.762 114.628 121.762 109.468 118.76 103.2Z" fill="#3F69CB"/>
<path d="M149.708 0.908243C151.351 1.16775 151.524 6.90567 149.708 10.3369C147.891 13.7681 146.911 16.0748 147.632 20.3999C148.352 24.7249 148.064 27.147 146.075 30.8665C144.085 34.5573 145.729 35.7106 146.075 38.767C146.421 41.8234 145.296 46.8116 141.519 50.1275C137.742 53.4434 136.646 60.3347 136.646 64.1407C136.646 67.9468 139.558 75.7319 136.646 80.3453C133.734 84.9587 129.092 91.7058 128.226 96.5499C127.361 101.394 122.863 114.658 122.863 114.658L115.482 114.629C115.482 114.629 118.106 109.121 115.972 102.23C114.675 98.0781 112.973 91.0715 115.799 87.1212C118.596 83.171 120.586 82.3925 119.144 76.6834C117.616 70.5418 115.799 65.5824 118.711 60.9978C121.624 56.4133 124.19 53.8471 123.469 48.5128C122.748 43.1786 121.768 39.7185 126.15 35.6241C130.533 31.5297 129.553 29.5114 129.668 25.936C129.784 22.3606 132.234 18.7852 134.801 17.6607C137.367 16.5073 138.664 13.5951 139.039 9.1547C139.472 4.07996 147.401 0.50457 149.708 0.908243Z" fill="#0A40CF"/>
<path d="M146.104 38.7668C145.758 35.7105 144.114 34.5571 146.104 30.8664C148.094 27.1757 148.382 24.7536 147.661 20.3997C146.94 16.0458 147.892 13.768 149.737 10.3367C151.554 6.90552 151.381 1.1676 149.737 0.9081C149.535 0.879266 149.276 0.879266 148.959 0.9081C147.488 2.14795 145.671 4.05098 144.979 6.27118C143.768 10.2214 145.96 13.7968 142.067 18.6409C138.175 23.4849 136.329 24.7536 136.82 31.9044C137.31 39.0552 135.724 40.4392 131.456 46.1771C127.189 51.915 127.449 53.4432 128.4 60.075C129.38 66.7068 129.611 70.7723 124.998 77.1734C120.355 83.5457 118.164 89.399 119.144 96.5497C119.808 101.365 120.413 105.344 118.741 111.226C118.625 111.659 118.481 112.12 118.337 112.581C118.251 113.821 118.164 114.657 118.164 114.657L122.922 114.686C122.922 114.686 127.449 101.423 128.285 96.5786C129.121 91.7345 133.763 84.9874 136.704 80.374C139.645 75.7606 136.704 68.0043 136.704 64.1694C136.704 60.3345 137.8 53.4721 141.577 50.1562C145.326 46.8115 146.421 41.8232 146.104 38.7668Z" fill="url(#paint5_linear_34091_184671)"/>
<path d="M30.3398 5.65674H55.1776V76.6426L106.719 5.65674H130.186V114.628H105.494V43.7879L53.9532 114.628H30.3398V5.65674Z" fill="#59CEE7"/>
<path d="M114.366 116.909C114.366 116.909 114.256 114.596 113.981 113.165C113.705 111.705 113.072 110.466 113.072 110.466L106.711 110.962C106.711 110.962 106.711 111.127 105.142 112.394C103.6 113.633 102.499 114.514 100.819 115.064C99.1118 115.615 97.8176 115.808 97.1292 116.111C96.7162 116.304 96.7162 117.405 97.2394 117.708C97.735 118.011 101.122 118.396 104.454 118.396C107.785 118.396 108.666 118.203 109.024 117.625C109.382 117.074 109.74 116.964 110.126 117.019C110.511 117.074 111.172 117.598 111.172 117.598C111.172 117.598 112.053 117.543 112.879 117.405C113.705 117.267 114.394 117.267 114.366 116.909Z" fill="black"/>
<path d="M122.96 110.989C122.96 110.989 124.75 114.018 125.383 115.505C126.044 116.992 125.686 118.121 124.805 119.029C123.924 119.938 122.216 120.241 120.619 119.8C119.022 119.36 117.508 118.203 117.508 117.185C117.508 116.166 118.059 115.67 117.591 115.285C117.122 114.899 116.737 114.459 116.902 113.137C117.067 111.815 117.453 110.218 117.453 110.218L122.96 110.989Z" fill="black"/>
<path d="M113.044 62.9957C113.044 62.9957 112.961 96.506 112.879 98.1581C112.796 99.7826 113.044 101.022 113.484 102.894C113.925 104.766 114.338 104.822 114.228 106.584C114.09 108.346 113.484 111.237 113.457 111.017C113.429 110.797 110.868 112.146 108.666 112.091C106.463 112.036 105.114 111.375 105.114 111.375C105.114 111.375 101.672 59.4712 101.451 56.8554C101.231 54.2671 101.066 51.1006 101.231 50.4122C101.396 49.7238 101.809 49.1731 101.809 49.1731L121.745 49.8064C121.745 49.8064 125.049 55.4236 124.636 58.6176C124.223 61.8392 123.562 82.2152 123.342 86.0977C123.149 89.9801 124.636 102.454 124.856 105.675C125.104 108.924 124.609 110.824 124.609 110.824L119.652 111.871L116.458 111.072C116.458 111.072 116.265 106.777 116.045 102.894C115.852 99.0117 115.604 90.283 115.219 84.6934C114.861 79.1313 113.044 62.9957 113.044 62.9957Z" fill="#0F43C1"/>
<path d="M102.135 46.7498L101.805 49.1453C101.805 49.1453 106.238 50.3569 107.807 50.6322C109.349 50.9076 115.077 50.7974 117.224 50.6047C120.005 50.3569 121.768 49.7786 121.768 49.7786L121.355 47.1628C121.355 47.1628 112.323 48.3743 108.468 47.741C104.613 47.1352 102.135 46.7498 102.135 46.7498Z" fill="#4C3ECE"/>
<path d="M111.226 17.4524C111.226 17.4524 106.435 18.3336 103.296 19.3248C100.157 20.2886 101.754 23.0421 101.836 28.2187C101.919 33.3953 102.828 41.6283 102.167 42.8949C101.506 44.1615 99.7711 46.0614 102.552 47.3005C105.333 48.5396 111.171 48.7323 116.485 48.8149C121.772 48.8975 123.341 45.1803 124.828 39.2052C126.315 33.2301 128.38 22.574 127.554 21.8305C126.728 21.1146 119.183 18.7191 117.724 17.893C116.265 17.0394 111.226 17.4524 111.226 17.4524Z" fill="white"/>
<path d="M95.0885 36.617C95.0885 36.617 98.2275 26.7043 98.8333 24.4189C99.439 22.1335 100.733 20.4539 101.972 19.9858C103.211 19.5177 108.553 24.2262 107.424 27.2826C106.268 30.3665 103.239 43.6935 101.752 44.8225C100.265 45.9514 98.9709 46.5572 96.8783 46.447C93.3262 46.2267 92.0321 45.7586 91.1785 45.0152C90.0496 43.9689 90.8756 41.7661 90.9032 39.3705C90.9307 37.8836 91.6741 37.3604 95.0885 36.617Z" fill="white"/>
<path d="M118.523 18.251C118.523 18.251 118.413 18.6915 118.441 19.848C118.468 20.5364 117.009 22.216 117.009 22.216C117.009 22.216 115.577 22.7117 115.137 21.7479C114.668 20.7842 111.392 21.5552 111.116 21.6103C110.841 21.6653 109.602 20.1509 108.39 20.3712C107.151 20.5639 105.609 20.8943 105.609 20.8943L106.821 18.3611L107.261 18.251H118.523Z" fill="#D2EBFF"/>
<path d="M111.058 21.2247C111.058 21.2247 113.371 21.2798 113.508 20.674C113.618 20.0683 114.224 18.6364 114.83 19.2697C115.436 19.903 116.84 21.858 116.84 21.858C116.84 21.858 117.859 20.3161 117.914 19.2697C117.969 18.1959 118.74 18.719 118.299 18.0031C117.886 17.2872 117.859 17.1771 117.694 16.2133C117.556 15.2496 117.17 14.6163 116.923 14.4786C116.647 14.3409 111.085 14.5612 109.626 15.3322C108.166 16.1032 107.974 16.3235 107.726 17.0945C107.478 17.8654 107.065 18.6364 106.817 19.1321C106.569 19.6002 105.578 20.9494 105.578 20.9494C105.578 20.9494 106.597 20.2335 107.203 19.4074C107.808 18.6089 108.111 18.5814 108.111 18.5814L111.058 21.2247Z" fill="white"/>
<path d="M107.952 8.14561C107.952 8.14561 107.043 8.64124 106.823 6.90653C106.603 5.17182 106.658 5.03414 106.603 4.56604C106.492 3.46464 107.319 -0.61056 114.147 0.077818C115.249 0.187959 115.992 1.59225 115.992 1.59225C115.992 1.59225 117.121 1.06908 117.672 2.50091C118.691 5.14428 117.396 8.28328 117.396 8.28328C117.396 8.28328 117.424 8.25575 116.13 8.58617C114.836 8.91659 108.585 8.31082 107.952 8.14561Z" fill="#0D42C8"/>
<path d="M116.571 11.4773C116.571 11.4773 116.571 11.9729 116.599 13.8729C116.626 15.0293 117.342 15.4424 114.781 17.8654C114.451 18.1959 110.926 20.5363 110.926 20.5363C110.926 20.5363 108.861 17.8654 109.192 16.5713C109.247 16.3235 109.274 16.351 109.357 15.2771C109.44 14.1482 108.586 13.57 108.586 13.57L116.571 11.4773Z" fill="#F28B7A"/>
<path d="M116.57 7.20951C116.57 7.20951 117.286 6.19071 117.92 6.90662C118.553 7.65007 118.58 8.50366 118.112 10.0456C117.782 11.147 116.598 11.4774 116.598 11.4774L116.57 7.20951Z" fill="#F68A84"/>
<path d="M107.211 5.14427C107.211 5.80511 107.294 10.2658 107.762 11.5324C108.23 12.7715 110.873 15.7453 113.186 14.341C115.499 12.9367 116.215 10.6238 116.27 8.6963C116.325 6.76884 116.353 6.46595 116.325 5.22687C116.298 3.96026 115.361 2.96899 115.361 2.96899C115.361 2.96899 114.012 2.14294 111.314 2.28062C108.285 2.41829 107.211 4.04286 107.211 5.14427Z" fill="#EEA281"/>
<path d="M111.283 10.6238C110.154 10.7064 109.466 11.2846 109.246 11.5049C108.86 11.9179 108.612 11.6426 108.227 11.3672C107.841 11.0919 107.621 11.0368 107.621 11.0368C107.621 11.0368 107.731 11.6976 107.841 12.6338C107.979 13.6802 108.199 14.1758 109.769 15.0018C111.338 15.8279 113.156 15.8554 114.835 14.4787C116.432 13.1845 116.57 12.3309 116.57 11.4498C116.57 10.5687 116.598 8.44849 116.598 8.44849L116.267 8.53109C116.267 8.53109 116.212 9.74264 115.716 10.4861C115.221 11.2295 114.973 11.6976 114.257 11.4223C113.541 11.1469 112.522 10.5136 111.283 10.6238Z" fill="#B087A7"/>
<path d="M111.753 6.85133C112.276 6.3557 112.497 5.99774 113.02 6.02527C113.378 6.05281 113.818 5.86006 114.314 6.24556C114.837 6.63105 114.892 6.9064 114.424 6.74119C113.956 6.57598 113.736 6.71365 113.02 6.76872C112.304 6.82379 111.973 7.09914 111.836 7.01654C111.698 6.93393 111.753 6.85133 111.753 6.85133Z" fill="#0D42C8"/>
<path d="M110.54 6.85139C110.237 6.52097 109.852 6.13548 109.301 6.16302C108.75 6.19055 108.145 6.52097 107.842 6.71372C107.539 6.90646 107.649 7.0166 107.979 6.934C108.337 6.87893 108.695 6.85139 109.273 6.85139C109.852 6.85139 110.21 7.04414 110.402 7.12674C110.595 7.20935 110.54 6.85139 110.54 6.85139Z" fill="#0D42C8"/>
<path d="M109.08 8.00801H109.19C109.328 7.98048 109.438 7.8428 109.438 7.70512V7.59498C109.411 7.45731 109.273 7.34717 109.135 7.34717H109.025C108.887 7.3747 108.777 7.51238 108.777 7.65005V7.76019C108.805 7.92541 108.943 8.03555 109.08 8.00801Z" fill="black"/>
<path d="M113.486 7.95283H113.597C113.734 7.9253 113.844 7.78762 113.844 7.64995V7.53981C113.817 7.40213 113.679 7.29199 113.542 7.29199H113.431C113.294 7.31953 113.184 7.4572 113.184 7.59488V7.70502C113.184 7.84269 113.321 7.95283 113.486 7.95283Z" fill="black"/>
<path d="M111.091 7.29199C111.091 7.29199 110.843 8.14558 110.43 9.05424C110.017 9.9629 109.824 10.1281 110.375 10.1832C110.926 10.2382 111.449 10.1281 111.449 10.1281L111.091 7.29199Z" fill="#E5897D"/>
<path d="M113.737 10.5687C114.285 10.5687 114.729 10.1249 114.729 9.57745C114.729 9.02999 114.285 8.58618 113.737 8.58618C113.19 8.58618 112.746 9.02999 112.746 9.57745C112.746 10.1249 113.19 10.5687 113.737 10.5687Z" fill="#F28B7A"/>
<path d="M108.558 10.6512C109.105 10.6512 109.549 10.2074 109.549 9.65996C109.549 9.1125 109.105 8.6687 108.558 8.6687C108.01 8.6687 107.566 9.1125 107.566 9.65996C107.566 10.2074 108.01 10.6512 108.558 10.6512Z" fill="#F28B7A"/>
<path d="M116.57 7.87034C116.57 7.87034 117.121 7.12689 117.534 7.62252C117.975 8.14569 117.947 8.69639 117.644 9.74273C117.424 10.4862 116.598 10.8166 116.598 10.8166L116.57 7.87034Z" fill="#DD623D"/>
<path d="M112.661 11.7252C112.192 11.8904 111.642 12.1107 110.981 12.0281C110.458 11.9455 109.879 11.6701 109.797 11.973C109.714 12.2759 110.293 12.8817 111.229 12.9092C111.945 12.9367 112.385 12.744 112.771 12.4962C113.184 12.2759 113.211 11.5324 112.661 11.7252Z" fill="white"/>
<path d="M108.825 9.08183C107.751 9.08183 107.476 8.64127 107.256 8.09057C107.008 7.51233 106.98 7.04424 106.98 7.0167C106.98 6.96163 107.008 6.87902 107.063 6.85149C107.091 6.82395 107.586 6.466 108.66 6.41093C109.679 6.35586 110.45 6.466 110.505 6.466C110.588 6.466 110.643 6.5486 110.67 6.63121C110.67 6.65874 110.78 7.29205 110.67 7.87029C110.588 8.33839 110.477 8.99923 109.073 9.08183C108.963 9.08183 108.88 9.08183 108.825 9.08183ZM107.366 7.12684C107.393 7.29205 107.449 7.59494 107.614 7.95289C107.807 8.39346 107.944 8.75141 109.018 8.69634C110.119 8.64127 110.202 8.22825 110.257 7.84275C110.312 7.45726 110.285 7.04424 110.285 6.85149C110.009 6.82395 109.404 6.76888 108.688 6.82395C107.944 6.82395 107.531 7.0167 107.366 7.12684Z" fill="#0D42C8"/>
<path d="M113.367 8.97163C111.991 8.97163 111.77 8.44847 111.633 7.89777V7.8427C111.495 7.26446 111.55 6.63115 111.55 6.60361C111.55 6.52101 111.633 6.4384 111.715 6.4384C111.743 6.4384 112.596 6.27319 113.725 6.27319C114.882 6.27319 115.46 6.63115 115.487 6.63115C115.543 6.65869 115.57 6.74129 115.57 6.79636C115.57 6.8239 115.543 7.23692 115.405 7.89777V7.95284C115.267 8.61368 115.047 8.88903 113.56 8.9441C113.477 8.97163 113.422 8.97163 113.367 8.97163ZM111.908 6.79636C111.908 7.01664 111.908 7.42967 111.991 7.78762V7.8427C112.073 8.22819 112.183 8.66875 113.505 8.61368C114.854 8.55861 114.909 8.3934 114.992 7.9253V7.87023C115.074 7.4572 115.13 7.12678 115.157 6.96157C114.964 6.87897 114.469 6.71376 113.67 6.68622C112.899 6.65868 112.211 6.74129 111.908 6.79636Z" fill="#0D42C8"/>
<path d="M110.477 6.87893C110.394 6.87893 110.312 6.82386 110.284 6.74126C110.257 6.63112 110.312 6.52098 110.422 6.49344C110.45 6.49344 110.808 6.3833 111.055 6.3833C111.303 6.3833 111.716 6.41084 111.744 6.43837C111.854 6.43837 111.936 6.54851 111.909 6.65865C111.909 6.76879 111.799 6.8514 111.689 6.82386C111.689 6.82386 111.276 6.76879 111.055 6.79633C110.89 6.79633 110.615 6.87893 110.505 6.90647C110.532 6.87893 110.505 6.87893 110.477 6.87893Z" fill="#0D42C8"/>
<path d="M115.408 7.01659C115.297 7.01659 115.215 6.93399 115.215 6.82385C115.215 6.71371 115.297 6.6311 115.408 6.6311C115.793 6.60357 116.867 6.5485 117.032 6.52096C117.142 6.49343 117.225 6.57603 117.252 6.68617C117.28 6.79631 117.197 6.87892 117.087 6.90645C116.839 6.93399 115.463 7.01659 115.408 7.01659Z" fill="#0D42C8"/>
<path d="M108.143 48.567L107.757 48.0438C107.702 48.0714 107.675 48.1265 107.675 48.1265C107.675 48.0989 107.867 47.6308 107.289 45.2353C106.738 42.9498 107.206 42.289 107.895 41.3528C108.115 41.0499 108.363 40.7195 108.611 40.2514C109.217 39.1775 109.051 35.4328 108.914 32.459C108.831 30.6692 108.748 28.962 108.831 27.9432C109.051 25.2172 110.676 21.2797 110.731 21.1145L111.337 21.3623C111.309 21.3899 109.685 25.3824 109.464 28.0258C109.382 28.9895 109.464 30.6692 109.547 32.459C109.685 35.8458 109.85 39.3703 109.161 40.6094C108.886 41.105 108.638 41.463 108.391 41.7658C107.757 42.647 107.399 43.1151 107.895 45.0976C108.693 48.154 108.28 48.4569 108.143 48.567Z" fill="#D2EBFF"/>
<path d="M124.604 110.797C124.604 110.797 125.072 108.869 124.852 105.647C124.632 102.426 123.145 89.9249 123.337 86.07C123.53 82.1875 124.219 61.8115 124.632 58.5899C125.045 55.3683 121.74 49.7787 121.74 49.7787L120.061 49.7236C120.309 50.8801 120.859 52.1467 120.859 52.1467C120.859 52.1467 119.951 64.1245 119.951 69.4112C119.951 74.698 120.336 81.6644 119.951 85.8497C119.565 90.035 120.859 103.059 120.859 106.666C120.859 109.062 120.419 110.852 120.143 111.815L124.604 110.797Z" fill="url(#paint6_linear_34091_184671)"/>
<path d="M112.793 48.7323C114.032 48.7874 115.299 48.7874 116.51 48.8149C121.797 48.8975 123.366 45.1803 124.853 39.2052C126.34 33.2301 128.405 22.574 127.579 21.8305C127.166 21.445 127.276 22.3537 125.019 21.5552C124.413 21.9407 122.623 23.8957 122.458 25.2449C122.458 25.2449 120.971 27.8883 122.54 35.1851C123.201 38.2139 121.962 41.408 119.897 43.6934C118.658 45.0426 114.803 47.4382 112.793 48.7323Z" fill="#D2EBFF"/>
<path d="M115.687 41.9037C115.466 41.6558 115.081 41.6283 114.833 41.8486L107.564 48.1817C107.316 48.4019 107.288 48.7874 107.509 49.0628L116.54 58.9204C116.871 59.2783 117.421 59.3058 117.779 58.9754L124.498 52.9728C124.856 52.6423 124.883 52.0916 124.553 51.7062L115.687 41.9037Z" fill="#FFC701"/>
<path d="M112.464 46.9151C112.707 46.9151 112.905 46.7178 112.905 46.4745C112.905 46.2312 112.707 46.0339 112.464 46.0339C112.221 46.0339 112.023 46.2312 112.023 46.4745C112.023 46.7178 112.221 46.9151 112.464 46.9151Z" fill="#302A28"/>
<path d="M120.089 46.9426C120.089 46.9426 118.961 48.7875 117.859 48.7599C116.785 48.7324 115.904 48.6773 115.408 48.6498C114.913 48.6223 114.335 48.7875 113.701 49.3382C113.068 49.8889 112.682 50.3845 112.187 50.4947C111.691 50.6048 111.113 50.3294 111.058 50.5222C111.003 50.7149 110.975 51.5685 111.884 51.6511C112.793 51.7337 113.619 51.5961 113.619 51.5961C113.619 51.5961 112.71 52.4772 112.104 52.8627C111.499 53.2482 111.498 53.2482 111.498 53.2482L110.59 52.5598C110.59 52.5598 110.7 53.8815 110.865 54.4046C111.003 54.9278 111.251 55.2582 111.581 55.451C111.856 55.6162 111.912 55.864 111.912 56.0568C111.884 56.3596 112.132 56.6625 112.545 56.7451C112.93 56.8277 113.316 56.7176 113.454 56.9654C113.564 57.2132 113.729 57.5987 114.087 57.7639C114.472 57.9016 115.546 57.6538 116.4 56.9929C117.253 56.3046 118.134 55.7814 118.134 55.3133C118.107 54.8177 118.3 54.2394 118.465 53.9916C118.63 53.7438 122.265 51.9265 122.265 51.9265L120.089 46.9426Z" fill="#EEA281"/>
<path d="M101.697 25.658C101.697 25.658 101.56 30.2288 101.367 32.4591C101.174 34.6895 100.513 38.3241 99.6872 40.582C97.7322 46.0339 101.202 46.1992 101.202 46.1992L101.009 45.0427C101.009 45.0427 100.293 43.9963 100.431 41.2153C100.623 36.9749 102.468 33.8359 102.331 30.8896C102.22 27.9434 101.697 25.658 101.697 25.658Z" fill="#D2EBFF"/>
<path d="M108.666 112.063C110.868 112.118 113.429 110.769 113.457 110.989C113.484 111.209 114.09 108.318 114.228 106.556C114.365 104.794 113.925 104.739 113.484 102.866C113.044 100.994 112.823 99.7824 112.878 98.1303C112.961 96.6158 113.016 67.8141 113.016 63.5186L109.051 57.7913L106.766 56.8C106.766 56.8 107.069 60.71 107.537 74.1472C107.95 86.18 107.619 107.657 107.537 111.98C107.922 112.035 108.28 112.063 108.666 112.063Z" fill="url(#paint7_linear_34091_184671)"/>
<path d="M113.125 63.6838C113.153 64.0143 113.208 64.4273 113.263 64.9505C113.235 64.2345 113.208 63.849 113.208 63.849L113.125 63.6838Z" fill="#4C3ECE"/>
<path d="M122.983 22.106C123.782 21.0597 125.186 20.6742 126.398 21.1698C127.747 21.7481 129.426 22.7669 129.95 24.4741C130.721 26.9522 132.676 34.0287 133.667 41.1879C134.245 45.4558 133.199 46.6398 128.683 49.2281C125.627 50.9904 121.717 52.8352 119.954 53.6613C119.459 53.8816 118.881 53.6613 118.688 53.1381L117.146 49.0354C116.981 48.5948 117.146 48.0992 117.531 47.8238C118.963 46.8601 122.322 44.5747 124.388 43.4733C125.654 42.7849 125.847 41.8212 125.517 39.9763C125.186 38.159 124.773 36.4243 122.791 32.7621C120.009 27.6131 121.551 24.006 122.983 22.106Z" fill="white"/>
<path d="M91.1798 45.0152C92.0059 45.7587 93.3275 46.2268 96.8796 46.447C98.6418 46.5572 99.8534 46.1442 101.065 45.3181C98.2563 46.034 96.2738 45.5935 95.3376 45.5384C92.7768 45.4007 91.4552 44.9877 90.6016 43.5283C90.6291 44.1341 90.7943 44.6573 91.1798 45.0152Z" fill="#D2EBFF"/>
<path d="M91.9528 38.8196C91.1268 38.737 87.9602 38.6544 87.5197 38.4892C87.0791 38.324 86.8313 37.9385 85.427 37.3878C83.9952 36.8371 83.2793 36.1212 82.8387 35.7357C82.3981 35.3502 82.0402 36.5066 82.3981 37.0298C82.7836 37.553 83.6923 37.8008 83.8575 38.4892C84.0227 39.1776 83.1691 39.3703 82.2329 39.5906C81.2967 39.8109 81.2141 39.8384 79.4794 40.0587C77.7447 40.279 77.4143 40.5543 77.2491 40.692C76.8911 40.9673 77.1665 41.5456 77.4969 41.518C79.1765 41.3804 77.194 41.518 77.0013 42.0412C76.8911 42.3716 77.0288 42.7571 77.4418 42.7296C78.736 42.647 77.7998 42.8948 77.4693 43.06C77.3041 43.1426 77.194 43.8585 77.6896 43.831C78.2403 43.8035 80.9663 43.3904 81.0489 43.5006C81.104 43.5832 78.4331 44.1339 78.1027 44.244C77.8549 44.3266 77.8548 44.9049 78.1577 45.0425C78.4881 45.1802 79.7548 45.0976 81.517 44.8223C83.2793 44.5194 82.7286 44.7396 84.2705 44.4092C85.8125 44.0788 86.5284 43.6382 87.024 43.3354C87.8501 42.8397 88.7863 43.2803 89.1442 43.5006C89.5022 43.6933 90.3833 43.9962 91.2369 44.2165C92.063 44.4092 93.3571 43.5832 93.4948 41.7659C93.6875 39.9761 92.6412 38.8747 91.9528 38.8196Z" fill="#EEA281"/>
<path d="M88.9532 38.4892C88.9257 38.324 89.2286 38.4066 89.3938 38.4066C90.1372 38.4342 91.927 38.4617 92.4777 38.5443C93.1661 38.6269 93.6893 39.6733 93.882 40.8297C94.0748 41.9862 93.6067 43.1977 93.2487 43.8861C92.9183 44.547 92.3401 44.4919 91.0734 44.2716C90.4677 44.189 89.3663 43.8861 88.788 43.6934C88.2649 43.5006 88.2924 43.3079 88.4576 43.1977C88.6228 43.0876 89.559 43.3905 89.5865 41.1877C89.6416 38.7646 88.9808 38.9023 88.9532 38.4892Z" fill="white"/>
<path d="M96.544 80.2571H73.3679C73.0181 80.2571 72.7266 79.9656 72.7266 79.6157V77.1086C72.7266 76.7588 73.0181 76.4673 73.3679 76.4673H96.544C96.8938 76.4673 97.1853 76.7588 97.1853 77.1086V79.6157C97.2145 79.9656 96.8938 80.2571 96.544 80.2571Z" fill="#FFC701"/>
<path d="M79.3715 80.2571H73.3953C73.0454 80.2571 72.7539 79.9656 72.7539 79.6157V77.1086C72.7539 76.7588 73.0454 76.4673 73.3953 76.4673H79.3715V80.2571Z" fill="#FFDD50"/>
<path d="M96.5454 80.2572H91.9102V76.4382H96.5454C96.8952 76.4382 97.1867 76.7298 97.1867 77.0796V79.5867C97.2159 79.9657 96.8952 80.2572 96.5454 80.2572Z" fill="#F2A700"/>
<path d="M96.544 80.2572H73.3679C73.0181 80.2572 72.7266 79.9657 72.7266 79.6159V79.4993H97.2145V79.6159C97.2145 79.9657 96.8938 80.2572 96.544 80.2572Z" fill="#EA8500"/>
<path d="M84.6495 76.38C91.0574 76.38 96.2521 71.1854 96.2521 64.7774C96.2521 58.3695 91.0574 53.1748 84.6495 53.1748C78.2415 53.1748 73.0469 58.3695 73.0469 64.7774C73.0469 71.1854 78.2415 76.38 84.6495 76.38Z" fill="#FFDD50"/>
<path d="M84.6479 74.3395C89.9288 74.3395 94.2098 70.0584 94.2098 64.7775C94.2098 59.4966 89.9288 55.2156 84.6479 55.2156C79.367 55.2156 75.0859 59.4966 75.0859 64.7775C75.0859 70.0584 79.367 74.3395 84.6479 74.3395Z" fill="#E79829"/>
<path d="M83.5428 66.5266V67.4012H86.8371V68.6839H83.5428V70.0541H81.0649V68.6839H79.5781V67.4012H81.0649V59.2969H85.671C87.1286 59.2969 88.2655 59.6175 89.0818 60.2297C89.898 60.8419 90.3062 61.7457 90.3062 62.9409C90.3062 64.107 89.898 65.0107 89.0818 65.6229C88.2655 66.2351 87.1286 66.5558 85.671 66.5558H83.5428V66.5266ZM87.2743 61.7457C86.8954 61.4833 86.3706 61.3375 85.671 61.3375H83.5428V64.6026H85.671C86.3706 64.6026 86.8954 64.4568 87.2743 64.1653C87.6533 63.8738 87.8282 63.4657 87.8282 62.9409C87.8282 62.4162 87.6533 62.008 87.2743 61.7457Z" fill="#FFDD50"/>
<path d="M93.5713 84.0762H70.3952C70.0454 84.0762 69.7539 83.7846 69.7539 83.4348V80.9277C69.7539 80.5779 70.0454 80.2864 70.3952 80.2864H93.5713C93.9211 80.2864 94.2127 80.5779 94.2127 80.9277V83.4348C94.2127 83.7846 93.9211 84.0762 93.5713 84.0762Z" fill="#FFC701"/>
<path d="M76.3715 84.0762H70.3952C70.0454 84.0762 69.7539 83.7846 69.7539 83.4348V80.9277C69.7539 80.5779 70.0454 80.2864 70.3952 80.2864H76.3715V84.0762Z" fill="#FFDD50"/>
<path d="M93.5727 84.0763H88.9375V80.2573H93.5727C93.9225 80.2573 94.2141 80.5489 94.2141 80.8987V83.4058C94.2141 83.7848 93.9225 84.0763 93.5727 84.0763Z" fill="#F2A700"/>
<path d="M93.5713 84.0763H70.3952C70.0454 84.0763 69.7539 83.7848 69.7539 83.435V83.3184H94.2418V83.435C94.2127 83.7848 93.9211 84.0763 93.5713 84.0763Z" fill="#EA8500"/>
<path d="M96.544 87.8953H73.3679C73.0181 87.8953 72.7266 87.6037 72.7266 87.2539V84.7468C72.7266 84.397 73.0181 84.1055 73.3679 84.1055H96.544C96.8938 84.1055 97.1853 84.397 97.1853 84.7468V87.2539C97.2145 87.6037 96.8938 87.8953 96.544 87.8953Z" fill="#FFC701"/>
<path d="M79.3715 87.8953H73.3953C73.0454 87.8953 72.7539 87.6037 72.7539 87.2539V84.7468C72.7539 84.397 73.0454 84.1055 73.3953 84.1055H79.3715V87.8953Z" fill="#FFDD50"/>
<path d="M96.5454 87.8954H91.9102V84.0764H96.5454C96.8952 84.0764 97.1867 84.3679 97.1867 84.7178V87.2249C97.2159 87.6038 96.8952 87.8954 96.5454 87.8954Z" fill="#F2A700"/>
<path d="M96.544 87.8954H73.3679C73.0181 87.8954 72.7266 87.6039 72.7266 87.2541V87.1375H97.2145V87.2541C97.2145 87.6039 96.8938 87.8954 96.544 87.8954Z" fill="#EA8500"/>
<path d="M93.5713 91.7141H70.3952C70.0454 91.7141 69.7539 91.4226 69.7539 91.0728V88.5657C69.7539 88.2158 70.0454 87.9243 70.3952 87.9243H93.5713C93.9211 87.9243 94.2127 88.2158 94.2127 88.5657V91.0728C94.2127 91.4226 93.9211 91.7141 93.5713 91.7141Z" fill="#FFC701"/>
<path d="M76.3715 91.7141H70.3952C70.0454 91.7141 69.7539 91.4226 69.7539 91.0728V88.5657C69.7539 88.2158 70.0454 87.9243 70.3952 87.9243H76.3715V91.7141Z" fill="#FFDD50"/>
<path d="M93.5727 91.7142H88.9375V87.8953H93.5727C93.9225 87.8953 94.2141 88.1868 94.2141 88.5366V91.0437C94.2141 91.4227 93.9225 91.7142 93.5727 91.7142Z" fill="#F2A700"/>
<path d="M93.5713 91.7141H70.3952C70.0454 91.7141 69.7539 91.4226 69.7539 91.0728V90.927H94.2418V91.0436C94.2127 91.4226 93.9211 91.7141 93.5713 91.7141Z" fill="#EA8500"/>
<path d="M96.544 95.533H73.3679C73.0181 95.533 72.7266 95.2414 72.7266 94.8916V92.3845C72.7266 92.0347 73.0181 91.7432 73.3679 91.7432H96.544C96.8938 91.7432 97.1853 92.0347 97.1853 92.3845V94.8916C97.2145 95.2414 96.8938 95.533 96.544 95.533Z" fill="#FFC701"/>
<path d="M79.3715 95.533H73.3953C73.0454 95.533 72.7539 95.2414 72.7539 94.8916V92.3845C72.7539 92.0347 73.0454 91.7432 73.3953 91.7432H79.3715V95.533Z" fill="#FFDD50"/>
<path d="M96.5454 95.5331H91.9102V91.7141H96.5454C96.8952 91.7141 97.1867 92.0056 97.1867 92.3555V94.8626C97.2159 95.2415 96.8952 95.5331 96.5454 95.5331Z" fill="#F2A700"/>
<path d="M96.544 95.5331H73.3679C73.0181 95.5331 72.7266 95.2416 72.7266 94.8918V94.7751H97.2145V94.8918C97.2145 95.2416 96.8938 95.5331 96.544 95.5331Z" fill="#EA8500"/>
<path d="M93.5713 99.3521H70.3952C70.0454 99.3521 69.7539 99.0605 69.7539 98.7107V96.2036C69.7539 95.8538 70.0454 95.5623 70.3952 95.5623H93.5713C93.9211 95.5623 94.2127 95.8538 94.2127 96.2036V98.7107C94.2127 99.0605 93.9211 99.3521 93.5713 99.3521Z" fill="#FFC701"/>
<path d="M76.3715 99.3521H70.3952C70.0454 99.3521 69.7539 99.0605 69.7539 98.7107V96.2036C69.7539 95.8538 70.0454 95.5623 70.3952 95.5623H76.3715V99.3521Z" fill="#FFDD50"/>
<path d="M93.5727 99.3522H88.9375V95.5332H93.5727C93.9225 95.5332 94.2141 95.8247 94.2141 96.1746V98.6817C94.2141 99.0606 93.9225 99.3522 93.5727 99.3522Z" fill="#F2A700"/>
<path d="M93.5713 99.3522H70.3952C70.0454 99.3522 69.7539 99.0607 69.7539 98.7109V98.5942H94.2418V98.7109C94.2127 99.0607 93.9211 99.3522 93.5713 99.3522Z" fill="#EA8500"/>
<path d="M96.544 103.171H73.3679C73.0181 103.171 72.7266 102.879 72.7266 102.53V100.022C72.7266 99.6726 73.0181 99.3811 73.3679 99.3811H96.544C96.8938 99.3811 97.1853 99.6726 97.1853 100.022V102.53C97.2145 102.879 96.8938 103.171 96.544 103.171Z" fill="#FFC701"/>
<path d="M79.3715 103.171H73.3953C73.0454 103.171 72.7539 102.879 72.7539 102.53V100.022C72.7539 99.6726 73.0454 99.3811 73.3953 99.3811H79.3715V103.171Z" fill="#FFDD50"/>
<path d="M96.5454 103.171H91.9102V99.3521H96.5454C96.8952 99.3521 97.1867 99.6436 97.1867 99.9934V102.501C97.2159 102.879 96.8952 103.171 96.5454 103.171Z" fill="#F2A700"/>
<path d="M96.544 103.171H73.3679C73.0181 103.171 72.7266 102.88 72.7266 102.53V102.413H97.2145V102.53C97.2145 102.88 96.8938 103.171 96.544 103.171Z" fill="#EA8500"/>
<path d="M93.5713 106.99H70.3952C70.0454 106.99 69.7539 106.698 69.7539 106.348V103.841C69.7539 103.491 70.0454 103.2 70.3952 103.2H93.5713C93.9211 103.2 94.2127 103.491 94.2127 103.841V106.348C94.2127 106.698 93.9211 106.99 93.5713 106.99Z" fill="#FFC701"/>
<path d="M76.3715 106.99H70.3952C70.0454 106.99 69.7539 106.698 69.7539 106.348V103.841C69.7539 103.491 70.0454 103.2 70.3952 103.2H76.3715V106.99Z" fill="#FFDD50"/>
<path d="M93.5727 106.99H88.9375V103.171H93.5727C93.9225 103.171 94.2141 103.462 94.2141 103.812V106.319C94.2141 106.698 93.9225 106.99 93.5727 106.99Z" fill="#F2A700"/>
<path d="M93.5713 106.99H70.3952C70.0454 106.99 69.7539 106.698 69.7539 106.349V106.232H94.2418V106.349C94.2127 106.698 93.9211 106.99 93.5713 106.99Z" fill="#EA8500"/>
<path d="M96.544 110.809H73.3679C73.0181 110.809 72.7266 110.517 72.7266 110.167V107.66C72.7266 107.311 73.0181 107.019 73.3679 107.019H96.544C96.8938 107.019 97.1853 107.311 97.1853 107.66V110.167C97.2145 110.517 96.8938 110.809 96.544 110.809Z" fill="#FFC701"/>
<path d="M79.3715 110.809H73.3953C73.0454 110.809 72.7539 110.517 72.7539 110.167V107.66C72.7539 107.311 73.0454 107.019 73.3953 107.019H79.3715V110.809Z" fill="#FFDD50"/>
<path d="M96.5454 110.809H91.9102V106.99H96.5454C96.8952 106.99 97.1867 107.282 97.1867 107.631V110.138C97.2159 110.517 96.8952 110.809 96.5454 110.809Z" fill="#F2A700"/>
<path d="M96.544 110.809H73.3679C73.0181 110.809 72.7266 110.517 72.7266 110.168V110.051H97.2145V110.168C97.2145 110.517 96.8938 110.809 96.544 110.809Z" fill="#EA8500"/>
<path d="M93.5713 114.628H70.3952C70.0454 114.628 69.7539 114.336 69.7539 113.986V111.479C69.7539 111.129 70.0454 110.838 70.3952 110.838H93.5713C93.9211 110.838 94.2127 111.129 94.2127 111.479V113.986C94.2127 114.336 93.9211 114.628 93.5713 114.628Z" fill="#FFC701"/>
<path d="M76.3715 114.628H70.3952C70.0454 114.628 69.7539 114.336 69.7539 113.986V111.479C69.7539 111.129 70.0454 110.838 70.3952 110.838H76.3715V114.628Z" fill="#FFDD50"/>
<path d="M93.5727 114.628H88.9375V110.809H93.5727C93.9225 110.809 94.2141 111.1 94.2141 111.45V113.957C94.2141 114.336 93.9225 114.628 93.5727 114.628Z" fill="#F2A700"/>
<path d="M93.5713 114.628H70.3952C70.0454 114.628 69.7539 114.336 69.7539 113.986V113.87H94.2418V113.986C94.2127 114.336 93.9211 114.628 93.5713 114.628Z" fill="#EA8500"/>
<path d="M62.7002 91.7141H39.5242C39.1743 91.7141 38.8828 91.4226 38.8828 91.0728V88.5657C38.8828 88.2158 39.1743 87.9243 39.5242 87.9243H62.7002C63.0501 87.9243 63.3416 88.2158 63.3416 88.5657V91.0728C63.3707 91.4226 63.0792 91.7141 62.7002 91.7141Z" fill="#FFC701"/>
<path d="M45.5277 91.7141H39.5515C39.2017 91.7141 38.9102 91.4226 38.9102 91.0728V88.5657C38.9102 88.2158 39.2017 87.9243 39.5515 87.9243H45.5277V91.7141Z" fill="#FFDD50"/>
<path d="M62.7016 91.7142H58.0664V87.8953H62.7016C63.0515 87.8953 63.343 88.1868 63.343 88.5366V91.0437C63.3721 91.4227 63.0806 91.7142 62.7016 91.7142Z" fill="#F2A700"/>
<path d="M62.7002 91.7141H39.5242C39.1743 91.7141 38.8828 91.4226 38.8828 91.0728V90.927H63.3707V91.0436C63.3707 91.4226 63.0792 91.7141 62.7002 91.7141Z" fill="#EA8500"/>
<path d="M65.7041 95.533H42.5281C42.1782 95.533 41.8867 95.2414 41.8867 94.8916V92.3845C41.8867 92.0347 42.1782 91.7432 42.5281 91.7432H65.7041C66.054 91.7432 66.3455 92.0347 66.3455 92.3845V94.8916C66.3455 95.2414 66.054 95.533 65.7041 95.533Z" fill="#FFC701"/>
<path d="M48.5043 95.533H42.5281C42.1782 95.533 41.8867 95.2414 41.8867 94.8916V92.3845C41.8867 92.0347 42.1782 91.7432 42.5281 91.7432H48.5043V95.533Z" fill="#FFDD50"/>
<path d="M65.7034 95.5331H61.0391V91.7141H65.7034C66.0533 91.7141 66.3448 92.0056 66.3448 92.3555V94.8626C66.3448 95.2415 66.0533 95.5331 65.7034 95.5331Z" fill="#F2A700"/>
<path d="M65.7041 95.5331H42.5281C42.1782 95.5331 41.8867 95.2416 41.8867 94.8918V94.7751H66.3746V94.8918C66.3455 95.2416 66.054 95.5331 65.7041 95.5331Z" fill="#EA8500"/>
<path d="M62.7002 99.3518H39.5242C39.1743 99.3518 38.8828 99.0603 38.8828 98.7105V96.2034C38.8828 95.8535 39.1743 95.562 39.5242 95.562H62.7002C63.0501 95.562 63.3416 95.8535 63.3416 96.2034V98.7105C63.3707 99.0603 63.0792 99.3518 62.7002 99.3518Z" fill="#FFC701"/>
<path d="M45.5277 99.3518H39.5515C39.2017 99.3518 38.9102 99.0603 38.9102 98.7105V96.2034C38.9102 95.8535 39.2017 95.562 39.5515 95.562H45.5277V99.3518Z" fill="#FFDD50"/>
<path d="M62.7016 99.3519H58.0664V95.533H62.7016C63.0515 95.533 63.343 95.8245 63.343 96.1743V98.6814C63.3721 99.0604 63.0806 99.3519 62.7016 99.3519Z" fill="#F2A700"/>
<path d="M62.7002 99.352H39.5242C39.1743 99.352 38.8828 99.0604 38.8828 98.7106V98.594H63.3707V98.7106C63.3707 99.0604 63.0792 99.352 62.7002 99.352Z" fill="#EA8500"/>
<path d="M65.7041 103.171H42.5281C42.1782 103.171 41.8867 102.879 41.8867 102.53V100.022C41.8867 99.6726 42.1782 99.3811 42.5281 99.3811H65.7041C66.054 99.3811 66.3455 99.6726 66.3455 100.022V102.53C66.3455 102.879 66.054 103.171 65.7041 103.171Z" fill="#FFC701"/>
<path d="M48.5043 103.171H42.5281C42.1782 103.171 41.8867 102.879 41.8867 102.53V100.022C41.8867 99.6726 42.1782 99.3811 42.5281 99.3811H48.5043V103.171Z" fill="#FFDD50"/>
<path d="M65.7034 103.171H61.0391V99.3521H65.7034C66.0533 99.3521 66.3448 99.6436 66.3448 99.9934V102.501C66.3448 102.879 66.0533 103.171 65.7034 103.171Z" fill="#F2A700"/>
<path d="M65.7041 103.171H42.5281C42.1782 103.171 41.8867 102.88 41.8867 102.53V102.413H66.3746V102.53C66.3455 102.88 66.054 103.171 65.7041 103.171Z" fill="#EA8500"/>
<path d="M62.7002 106.99H39.5242C39.1743 106.99 38.8828 106.698 38.8828 106.348V103.841C38.8828 103.491 39.1743 103.2 39.5242 103.2H62.7002C63.0501 103.2 63.3416 103.491 63.3416 103.841V106.348C63.3707 106.698 63.0792 106.99 62.7002 106.99Z" fill="#FFC701"/>
<path d="M45.5277 106.99H39.5515C39.2017 106.99 38.9102 106.698 38.9102 106.348V103.841C38.9102 103.491 39.2017 103.2 39.5515 103.2H45.5277V106.99Z" fill="#FFDD50"/>
<path d="M62.7016 106.99H58.0664V103.171H62.7016C63.0515 103.171 63.343 103.462 63.343 103.812V106.319C63.3721 106.698 63.0806 106.99 62.7016 106.99Z" fill="#F2A700"/>
<path d="M62.7002 106.99H39.5242C39.1743 106.99 38.8828 106.698 38.8828 106.349V106.232H63.3707V106.349C63.3707 106.698 63.0792 106.99 62.7002 106.99Z" fill="#EA8500"/>
<path d="M65.7041 110.809H42.5281C42.1782 110.809 41.8867 110.517 41.8867 110.167V107.66C41.8867 107.311 42.1782 107.019 42.5281 107.019H65.7041C66.054 107.019 66.3455 107.311 66.3455 107.66V110.167C66.3455 110.517 66.054 110.809 65.7041 110.809Z" fill="#FFC701"/>
<path d="M48.5043 110.809H42.5281C42.1782 110.809 41.8867 110.517 41.8867 110.167V107.66C41.8867 107.311 42.1782 107.019 42.5281 107.019H48.5043V110.809Z" fill="#FFDD50"/>
<path d="M65.7034 110.809H61.0391V106.99H65.7034C66.0533 106.99 66.3448 107.282 66.3448 107.631V110.138C66.3448 110.517 66.0533 110.809 65.7034 110.809Z" fill="#F2A700"/>
<path d="M65.7041 110.809H42.5281C42.1782 110.809 41.8867 110.517 41.8867 110.168V110.051H66.3746V110.168C66.3455 110.517 66.054 110.809 65.7041 110.809Z" fill="#EA8500"/>
<path d="M62.7002 114.628H39.5242C39.1743 114.628 38.8828 114.336 38.8828 113.986V111.479C38.8828 111.129 39.1743 110.838 39.5242 110.838H62.7002C63.0501 110.838 63.3416 111.129 63.3416 111.479V113.986C63.3707 114.336 63.0792 114.628 62.7002 114.628Z" fill="#FFC701"/>
<path d="M45.5277 114.628H39.5515C39.2017 114.628 38.9102 114.336 38.9102 113.986V111.479C38.9102 111.129 39.2017 110.838 39.5515 110.838H45.5277V114.628Z" fill="#FFDD50"/>
<path d="M62.7016 114.628H58.0664V110.809H62.7016C63.0515 110.809 63.343 111.1 63.343 111.45V113.957C63.3721 114.336 63.0806 114.628 62.7016 114.628Z" fill="#F2A700"/>
<path d="M62.7002 114.628H39.5242C39.1743 114.628 38.8828 114.336 38.8828 113.986V113.87H63.3707V113.986C63.3707 114.336 63.0792 114.628 62.7002 114.628Z" fill="#EA8500"/>
<path d="M33.8995 103.171H10.7234C10.3736 103.171 10.082 102.88 10.082 102.53V100.023C10.082 99.6729 10.3736 99.3813 10.7234 99.3813H33.8995C34.2493 99.3813 34.5408 99.6729 34.5408 100.023V102.53C34.5408 102.88 34.2493 103.171 33.8995 103.171Z" fill="#FFC701"/>
<path d="M16.7269 103.171H10.7507C10.4009 103.171 10.1094 102.88 10.1094 102.53V100.023C10.1094 99.6729 10.4009 99.3813 10.7507 99.3813H16.7269V103.171Z" fill="#FFDD50"/>
<path d="M33.9008 103.171H29.2656V99.3521H33.9008C34.2507 99.3521 34.5422 99.6436 34.5422 99.9934V102.501C34.5422 102.879 34.2507 103.171 33.9008 103.171Z" fill="#F2A700"/>
<path d="M33.8995 103.171H10.7234C10.3736 103.171 10.082 102.88 10.082 102.53V102.413H34.5699V102.53C34.5408 102.88 34.2493 103.171 33.8995 103.171Z" fill="#EA8500"/>
<path d="M30.9268 106.99H7.75073C7.4009 106.99 7.10938 106.698 7.10938 106.348V103.841C7.10938 103.491 7.4009 103.2 7.75073 103.2H30.9268C31.2766 103.2 31.5682 103.491 31.5682 103.841V106.348C31.5682 106.698 31.2766 106.99 30.9268 106.99Z" fill="#FFC701"/>
<path d="M13.7269 106.99H7.75073C7.4009 106.99 7.10938 106.698 7.10938 106.348V103.841C7.10938 103.491 7.4009 103.2 7.75073 103.2H13.7269V106.99Z" fill="#FFDD50"/>
<path d="M30.9282 106.99H26.293V103.171H30.9282C31.278 103.171 31.5695 103.462 31.5695 103.812V106.319C31.5695 106.698 31.278 106.99 30.9282 106.99Z" fill="#F2A700"/>
<path d="M30.9268 106.99H7.75073C7.4009 106.99 7.10938 106.698 7.10938 106.349V106.232H31.5973V106.349C31.5681 106.698 31.2766 106.99 30.9268 106.99Z" fill="#EA8500"/>
<path d="M33.8995 110.809H10.7234C10.3736 110.809 10.082 110.518 10.082 110.168V107.661C10.082 107.311 10.3736 107.019 10.7234 107.019H33.8995C34.2493 107.019 34.5408 107.311 34.5408 107.661V110.168C34.5408 110.518 34.2493 110.809 33.8995 110.809Z" fill="#FFC701"/>
<path d="M16.7269 110.809H10.7507C10.4009 110.809 10.1094 110.518 10.1094 110.168V107.661C10.1094 107.311 10.4009 107.019 10.7507 107.019H16.7269V110.809Z" fill="#FFDD50"/>
<path d="M33.9008 110.809H29.2656V106.99H33.9008C34.2507 106.99 34.5422 107.282 34.5422 107.631V110.138C34.5422 110.517 34.2507 110.809 33.9008 110.809Z" fill="#F2A700"/>
<path d="M33.8995 110.809H10.7234C10.3736 110.809 10.082 110.517 10.082 110.168V110.051H34.5699V110.168C34.5408 110.517 34.2493 110.809 33.8995 110.809Z" fill="#EA8500"/>
<path d="M30.9268 114.628H7.75073C7.4009 114.628 7.10938 114.336 7.10938 113.986V111.479C7.10938 111.129 7.4009 110.838 7.75073 110.838H30.9268C31.2766 110.838 31.5682 111.129 31.5682 111.479V113.986C31.5682 114.336 31.2766 114.628 30.9268 114.628Z" fill="#FFC701"/>
<path d="M13.7269 114.628H7.75073C7.4009 114.628 7.10938 114.336 7.10938 113.986V111.479C7.10938 111.129 7.4009 110.838 7.75073 110.838H13.7269V114.628Z" fill="#FFDD50"/>
<path d="M30.9282 114.628H26.293V110.809H30.9282C31.278 110.809 31.5695 111.1 31.5695 111.45V113.957C31.5695 114.336 31.278 114.628 30.9282 114.628Z" fill="#F2A700"/>
<path d="M30.9268 114.628H7.75073C7.4009 114.628 7.10938 114.336 7.10938 113.986V113.87H31.5973V113.986C31.5681 114.336 31.2766 114.628 30.9268 114.628Z" fill="#EA8500"/>
<path d="M2.61571 90.0234C2.26589 90.0234 1.88691 89.9068 1.59538 89.6444C0.92488 89.0905 0.808286 88.0702 1.39133 87.3997L11.7404 74.9517C13.2855 72.9401 15.6468 71.7741 18.183 71.7449L27.0453 71.6283C28.6487 71.6283 30.1646 70.8412 31.0975 69.5293L41.9713 54.341C43.5164 52.1837 46.0235 50.901 48.6763 50.901H48.7055L55.1773 50.9302C56.8098 50.9302 58.4132 50.0264 59.5501 48.4231C64.9142 40.9601 80.8896 16.7054 81.0645 16.4722C81.5601 15.7434 82.5513 15.5393 83.2801 16.0057C84.0089 16.5013 84.213 17.4925 83.7465 18.2213C83.5716 18.4545 67.567 42.7675 62.1738 50.2888C60.4247 52.7376 57.8885 54.1078 55.2064 54.1078H55.1773L48.7055 54.0786H48.6763C47.0438 54.0786 45.5279 54.8657 44.595 56.1776L33.7212 71.3659C32.2053 73.494 29.7273 74.7767 27.1036 74.8059L18.2413 74.9225C16.6671 74.9225 15.2387 75.6513 14.2766 76.9049C14.2766 76.934 14.2475 76.934 14.2475 76.9632L3.86928 89.4403C3.51945 89.8193 3.08215 90.0234 2.61571 90.0234Z" fill="#E63891"/>
<path d="M83.7445 26.0342L85.3187 13.2072C85.3479 12.9448 85.0563 12.7407 84.8231 12.8865L74.0368 19.9122C73.7744 20.0871 73.891 20.4952 74.1825 20.5244L79.8672 20.8742C79.9839 20.8742 80.0713 20.9325 80.1296 21.0491L83.1032 26.1799C83.3072 26.4132 83.7154 26.3257 83.7445 26.0342Z" fill="#E63891"/>
</g>
<defs>
<linearGradient id="paint0_linear_34091_184671" x1="109.842" y1="52.5333" x2="124.409" y2="52.5333" gradientUnits="userSpaceOnUse">
<stop offset="0.3508" stop-color="#030C67"/>
<stop offset="0.7154" stop-color="#0D1E7A"/>
</linearGradient>
<linearGradient id="paint1_linear_34091_184671" x1="136.689" y1="64.268" x2="149.318" y2="70.1567" gradientUnits="userSpaceOnUse">
<stop offset="0.0652654" stop-color="#0784C0"/>
<stop offset="0.7036" stop-color="#02C8DC"/>
</linearGradient>
<linearGradient id="paint2_linear_34091_184671" x1="140.214" y1="87.6425" x2="149.806" y2="92.1156" gradientUnits="userSpaceOnUse">
<stop offset="0.0704572" stop-color="#2E34C9"/>
<stop offset="0.7154" stop-color="#6245DD"/>
</linearGradient>
<linearGradient id="paint3_linear_34091_184671" x1="145.643" y1="95.2366" x2="161.395" y2="95.2366" gradientUnits="userSpaceOnUse">
<stop offset="0.3508" stop-color="#0A31A9"/>
<stop offset="0.7154" stop-color="#0F3FCE"/>
</linearGradient>
<linearGradient id="paint4_linear_34091_184671" x1="101.687" y1="94.4275" x2="115.875" y2="87.8115" gradientUnits="userSpaceOnUse">
<stop offset="0.3508" stop-color="#3F69CB"/>
<stop offset="0.7154" stop-color="#2A48B4"/>
</linearGradient>
<linearGradient id="paint5_linear_34091_184671" x1="127.08" y1="55.9129" x2="142.466" y2="60.0357" gradientUnits="userSpaceOnUse">
<stop offset="0.0704572" stop-color="#0A31A9"/>
<stop offset="0.7154" stop-color="#0F3FCE"/>
</linearGradient>
<linearGradient id="paint6_linear_34091_184671" x1="119.869" y1="80.7381" x2="124.924" y2="80.7381" gradientUnits="userSpaceOnUse">
<stop offset="0.531" stop-color="#002E93"/>
<stop offset="1" stop-color="#0F3FCE"/>
</linearGradient>
<linearGradient id="paint7_linear_34091_184671" x1="106.794" y1="84.4456" x2="114.243" y2="84.4456" gradientUnits="userSpaceOnUse">
<stop offset="0.531" stop-color="#002E93"/>
<stop offset="1" stop-color="#0F3FCE"/>
</linearGradient>
<clipPath id="clip0_34091_184671">
<rect width="200" height="120" fill="white"/>
</clipPath>
</defs>
</svg>
