<svg width="451" height="320" viewBox="0 0 451 320" fill="none" xmlns="http://www.w3.org/2000/svg">
<path d="M194.476 258.017H198.381L198.381 -0.000274658H194.476L194.476 258.017Z" fill="#D2EBFF"/>
<path d="M357.144 258.017H361.049L361.049 -0.000274658H357.144L357.144 258.017Z" fill="#D2EBFF"/>
<path d="M31.8077 258.017H35.713L35.713 -0.000274658H31.8077L31.8077 258.017Z" fill="#D2EBFF"/>
<path d="M0.365692 91.0401L0.365692 94.9453L440.386 94.9453V91.0401L0.365692 91.0401Z" fill="#D2EBFF"/>
<path d="M214.468 264.557C214.468 264.557 208.363 256.802 206.713 253.392C205.007 249.982 203.028 246.022 203.853 238.046C204.678 230.071 202.037 226.881 198.792 222.095C195.547 217.31 193.402 216.925 193.787 209.72C194.172 202.515 192.632 200.919 189.992 197.564C187.352 194.154 189.277 188.379 189.277 188.379C189.277 188.379 190.927 191.184 193.182 192.944C195.492 194.759 197.472 194.099 199.177 198.554C201.157 203.725 202.642 206.42 208.913 211.535C215.568 216.925 216.118 223.526 218.373 229.301C221.343 236.726 226.018 236.671 234.764 246.847C243.509 257.022 244.499 264.612 244.499 264.612L214.468 264.557Z" fill="#0F43C1"/>
<path d="M196.757 202.295C198.792 206.86 197.967 208.455 199.672 212.25C201.377 216.045 207.208 217.036 208.473 224.241C209.738 231.446 211.938 235.241 222.003 245.362C228.329 251.742 231.354 259.552 232.729 264.503H214.413C214.413 264.503 208.308 256.747 206.658 253.337C204.953 249.927 202.973 245.967 203.798 237.992C204.623 230.016 201.982 226.826 198.737 222.041C195.492 217.256 193.347 216.871 193.732 209.665C194.117 202.46 192.577 200.865 189.937 197.51C187.297 194.099 189.222 188.324 189.222 188.324C189.222 188.324 190.927 193.109 191.642 195.09C192.357 197.125 194.722 197.73 196.757 202.295Z" fill="url(#paint0_linear_15015_287507)"/>
<path d="M188.617 4.28521C184.217 4.89024 184.657 17.8708 190.267 25.6812C195.877 33.4916 198.902 38.6618 197.692 48.5072C196.427 58.3527 197.692 63.8529 203.743 72.2133C209.793 80.5737 205.503 83.2138 205.118 90.1442C204.733 97.0745 208.583 108.35 219.473 115.885C230.364 123.421 234.544 138.986 235.204 147.677C235.864 156.367 239.054 174.298 247.8 184.693C256.6 195.089 268.261 199.379 263.75 221.105C261.495 232.106 281.516 262.137 281.516 262.137L304.562 262.027C304.562 262.027 293.507 249.541 298.127 233.921C300.932 224.515 304.342 208.62 295.982 199.654C287.621 190.689 286.411 190.744 289.271 177.818C292.352 163.903 292.242 150.812 283.496 140.361C274.751 129.911 267.27 124.191 268.371 112.035C269.471 99.8796 271.506 92.0692 258.8 82.8288C246.095 73.5884 248.46 68.9682 247.525 60.8278C246.59 52.6874 239.274 44.6571 232.069 42.0719C224.864 39.4868 220.793 32.8865 219.033 22.7661C217.108 11.4905 194.887 3.40517 188.617 4.28521Z" fill="#9CCEFF"/>
<path d="M205.063 90.1443C205.448 83.214 209.738 80.6289 203.688 72.2135C197.637 63.8531 196.427 58.3529 197.637 48.5074C198.847 38.662 195.822 33.4917 190.212 25.6814C184.602 17.871 184.162 4.89042 188.562 4.28539C189.112 4.23039 189.827 4.23039 190.652 4.28539C194.887 7.09052 200.223 11.3807 202.478 16.441C206.493 25.4064 201.103 33.4917 212.598 44.4922C224.094 55.4927 229.264 58.3529 229.209 74.5786C229.099 90.7494 233.664 93.9395 246.314 106.975C258.965 119.956 258.525 123.476 257.04 138.492C255.5 153.507 251.21 163.628 264.961 178.093C278.711 192.559 283.331 200.754 279.866 220.885C278.051 231.666 297.027 242.171 302.582 255.427C303.022 256.417 304.067 260.212 304.507 261.202C304.947 264.007 294.442 262.137 294.442 262.137L281.461 262.192C281.461 262.192 256.82 238.871 259.35 221.875C262.65 199.379 256.49 195.144 247.745 184.749C238.944 174.353 235.809 156.422 235.149 147.732C234.489 139.042 230.309 123.476 219.418 115.941C208.528 108.35 204.678 97.0747 205.063 90.1443Z" fill="url(#paint1_linear_15015_287507)"/>
<path d="M312.703 262.963C312.703 262.963 284.541 214.12 287.071 194.649C289.601 175.179 299.117 175.839 292.627 159.393C286.136 142.947 282.671 139.097 286.851 120.891C291.032 102.685 286.686 100.98 280.306 91.9597C273.926 82.9393 277.446 81.0692 280.911 71.2788C284.376 61.4333 283.001 60.1133 281.461 47.9027C279.921 35.6921 273.981 25.8467 273.981 25.8467C273.981 25.8467 294.332 31.5119 298.952 52.6329C301.592 64.6785 297.302 66.8236 306.267 75.3489C315.233 83.8743 313.638 89.9796 314.738 99.1101C315.838 108.24 325.903 106.095 327.223 114.291C328.543 122.486 327.333 125.786 324.418 137.502C321.503 149.217 321.338 157.248 329.533 170.118C337.729 182.989 341.579 182.659 340.974 206.09C340.369 229.521 341.029 264.118 341.029 264.118L312.703 262.963Z" fill="url(#paint2_linear_15015_287507)"/>
<path d="M291.527 62.863C290.317 71.2784 285.311 71.0584 288.226 77.5487C290.867 83.544 299.887 82.1139 301.537 90.3093C303.187 98.5047 298.402 107.14 301.647 119.131C304.342 128.921 310.668 128.591 309.238 139.592C307.367 154.002 301.702 149.767 308.688 166.268C315.673 182.769 323.263 201.524 325.793 219.675C327.388 231.116 323.153 250.642 318.588 263.677L304.617 263.072C304.617 263.072 283.826 204.33 286.411 184.804C288.942 165.278 294.607 165.278 288.282 156.697C277.776 142.452 278.986 138.877 283.111 120.671C287.292 102.465 288.832 103.345 280.856 95.6995C274.091 89.2642 272.826 80.0788 276.786 70.6184C281.241 60.0029 283.111 60.0029 281.571 47.7923C280.031 35.5818 274.091 25.7363 274.091 25.7363C274.091 25.7363 293.012 52.4676 291.527 62.863Z" fill="#0A40CF"/>
<path d="M259.405 262.468C259.405 262.468 257.92 243.767 245.985 231.446C234.049 219.126 228.329 218.741 221.508 198.225C214.633 177.709 209.243 170.724 195.327 158.403C181.412 146.082 176.076 132.552 174.481 123.531C172.886 114.511 169.036 100.155 169.036 100.155C169.036 100.155 180.531 103.51 183.722 112.311C186.857 121.111 190.652 126.831 209.023 134.202C227.394 141.572 247.855 161.813 258.745 178.094C268.37 192.45 271.176 206.805 273.486 218.961C276.511 234.801 287.016 247.012 291.637 253.172C296.257 259.333 298.237 262.138 298.237 262.138L259.405 262.468Z" fill="url(#paint3_linear_15015_287507)"/>
<path d="M181.136 123.531C184.162 137.502 189.772 140.747 206.053 145.697C222.333 150.592 230.364 162.528 235.314 176.883C240.319 191.239 239.164 198.829 253.85 213.02C264.52 223.306 268.206 239.091 270.351 257.407C270.571 259.277 270.571 260.982 270.571 262.577L259.35 262.522C259.35 262.522 257.865 243.822 245.93 231.501C233.994 219.18 228.274 218.795 221.453 198.279C214.578 177.764 209.188 170.778 195.272 158.458C181.357 146.137 176.021 132.606 174.426 123.586C172.831 114.566 168.981 100.21 168.981 100.21C168.981 100.21 177.891 108.515 181.136 123.531Z" fill="#0A40CF"/>
<path d="M419.793 272.093H5.84351C2.81838 272.093 0.343262 269.618 0.343262 266.593V262.907C0.343262 259.882 2.81838 257.407 5.84351 257.407H419.793C422.818 257.407 425.293 259.882 425.293 262.907V266.593C425.293 269.618 422.818 272.093 419.793 272.093Z" fill="#9CCEFF"/>
<path d="M344.219 257.407H314.463V272.093H344.219V257.407Z" fill="#69ABF9"/>
<path d="M347.409 272.093H330.908V319.78H347.409V272.093Z" fill="#398AFF"/>
<path d="M330.964 272.092H200.992V319.779H330.964V272.092Z" fill="#398AFF"/>
<path d="M324.528 278.472H211.553V313.453H324.528V278.472Z" fill="#9CCEFF"/>
<path d="M285.861 293.434H250.275V298.494H285.861V293.434Z" fill="white"/>
<path d="M50.2855 272.093H33.7847V319.78H50.2855V272.093Z" fill="#398AFF"/>
<path d="M445.369 272.588C445.369 272.588 449.219 292.389 444.819 307.239C440.419 322.09 441.078 319.78 441.078 319.78H344.439L347.464 273.688L445.369 272.588Z" fill="#9CCEFF"/>
<path d="M446.634 282.928L445.369 272.588L386.791 272.093C386.791 272.093 386.351 279.628 388.881 280.453C391.356 281.278 416.382 282.653 426.558 282.928C436.733 283.203 446.634 282.928 446.634 282.928Z" fill="#80BDFF"/>
<path d="M374.305 273.853C374.305 273.853 377.331 281.828 371.555 281.828C365.78 281.828 346.859 281.828 346.859 281.828L347.794 272.093L374.305 273.853Z" fill="#80BDFF"/>
<path d="M229.264 249.982C227.504 250.092 226.899 249.322 226.899 249.322C226.899 249.322 228.109 247.232 228.989 243.656C230.694 236.781 229.979 236.231 233.224 234.471C236.469 232.711 245.27 228.146 246.755 227.431C248.24 226.716 253.96 228.971 257.755 230.346C261.495 231.776 263.42 232.051 264.465 231.721C265.51 231.391 284.981 225.286 289.766 228.256C294.552 231.226 281.406 240.246 278.271 245.637C276.071 249.432 272.056 250.587 269.14 250.532C266.225 250.477 253.08 245.087 252.145 244.647C251.265 244.206 249.45 240.576 248.185 249.047C247.855 251.192 244.774 251.247 244.774 251.247C244.774 251.247 244.005 244.316 243.509 243.876C243.179 243.601 243.619 249.102 243.509 249.542C243.234 250.697 242.519 252.402 241.199 252.567C240.594 252.622 239.879 252.842 239.879 252.842C239.879 252.842 239.329 250.917 239.109 250.312C238.614 248.992 238.229 246.902 238.229 246.902C238.229 246.902 238.064 250.477 236.909 251.907C235.479 253.612 233.059 253.172 233.059 253.172C233.059 253.172 232.949 251.522 232.729 250.092C232.564 248.717 232.069 248.332 232.069 248.332C232.069 248.332 230.364 249.927 229.264 249.982Z" fill="#EEA281"/>
<path d="M255.61 217.201C253.85 219.511 231.189 249.872 230.089 251.137C228.989 252.402 228.549 257.023 228.549 257.023C228.549 257.023 233.279 255.593 234.159 254.382C235.039 253.172 258.91 221.931 260.065 220.391C261.22 218.796 257.15 215.111 255.61 217.201Z" fill="#FF0653"/>
<path d="M270.076 245.747C270.076 245.747 269.251 249.488 264.575 250.423C259.9 251.358 250.66 245.912 247.58 245.197C244.499 244.482 237.899 248.883 234.874 248.168C232.839 247.673 232.399 246.022 232.399 246.022C232.399 246.022 232.839 245.692 233.719 245.142C235.864 243.767 242.574 239.807 245.049 239.257C247.25 238.762 251.925 237.937 254.51 237.442C255.665 237.222 261.66 236.012 265.18 237.772C268.591 239.367 270.736 241.732 270.076 245.747Z" fill="#EEA281"/>
<path d="M325.078 126.226L317.708 186.728C316.333 201.854 313.528 215.165 301.372 219.4L267.106 227.045C265.456 227.43 264.3 228.97 264.465 230.675L266.665 254.326C266.83 256.142 268.426 257.517 270.241 257.407C278.986 256.967 303.187 256.527 318.203 253.171C340.809 248.111 349.279 236.616 346.474 213.735L340.699 166.872L325.078 126.226Z" fill="#FFC701"/>
<path d="M321.503 252.347C341.634 246.901 349.114 235.461 346.474 213.735L344.549 198.114C335.529 180.788 327.113 170.008 327.113 170.008C327.113 170.008 325.243 179.578 330.468 191.789C338.389 210.49 327.058 248.001 321.503 252.347Z" fill="#FFBC00"/>
<path d="M450.814 273.578C450.814 273.578 442.784 246.517 441.519 241.237C439.593 233.206 438.548 223.306 438.548 223.306C438.548 223.306 436.128 187.774 440.638 171.053C444.324 157.303 444.874 146.632 446.084 132.057C447.294 117.481 443.663 111.651 438.383 110.221C433.103 108.791 401.421 98.2852 401.421 98.2852L359.015 101.31C359.015 101.31 335.034 110.606 333.383 111.211C322.658 115.226 330.688 141.407 327.058 166.708C324.968 181.394 335.749 186.674 337.564 201.8C339.489 217.696 340.919 270.278 340.919 270.278C340.919 272.918 343.009 275.118 345.649 275.228L368.035 276.218L366.165 256.142H385.251V275.393C385.251 275.393 383.711 276.493 401.367 276.878C415.447 277.153 439.318 276.988 448.339 276.933C450.154 276.988 451.364 275.228 450.814 273.578Z" fill="#FFC701"/>
<path d="M360.115 201.855L368.09 273.304L385.031 272.589L385.306 209.226L360.115 201.855Z" fill="white"/>
<path d="M385.306 218.465L385.361 234.856C385.361 234.856 403.457 245.472 410.992 242.006C416.437 239.476 427.658 221.325 432.773 209.225C437.888 197.124 436.623 174.738 436.623 174.738L385.306 218.465Z" fill="#FFBC00"/>
<path d="M346.694 137.997C346.694 137.997 345.264 131.672 342.349 126.556C339.434 121.441 336.629 117.206 335.914 113.081C335.199 108.956 335.749 106.315 334.043 107.91C332.338 109.506 332.669 114.291 333.164 117.976C333.659 121.661 334.098 125.126 334.098 125.126C334.098 125.126 331.678 123.696 328.103 122.596C324.528 121.551 322.603 122.266 323.153 121.551C323.703 120.836 322.713 113.301 321.393 109.231C320.073 105.16 319.248 103.895 318.808 105.655C318.368 107.415 320.073 118.031 319.468 119.791C318.863 121.606 319.798 127.326 318.478 119.901C317.158 112.476 311.713 109.121 311.163 108.846C310.613 108.571 310.337 110.331 311.878 114.236C313.418 118.141 315.343 123.696 315.343 123.696C315.343 123.696 311.163 116.876 308.632 114.621C306.102 112.366 303.792 113.191 304.507 113.466C305.222 113.741 307.147 116.546 308.412 119.461C309.678 122.376 311.988 127.051 311.988 127.051L310.392 126.556C310.392 126.556 308.082 122.046 306.267 119.901C304.452 117.756 302.637 118.471 302.637 118.471C302.637 118.471 305.552 123.751 306.487 126.721C307.367 129.691 309.073 130.682 315.013 133.982C320.953 137.282 327.003 140.032 331.568 144.817C336.134 149.602 338.609 151.252 338.609 151.252L346.914 139.427L346.694 137.997Z" fill="#F4A078"/>
<path d="M391.961 90.0345C389.761 87.2294 387.451 82.0591 388.441 72.9287C386.186 74.4138 384.261 75.7888 384.261 75.7888C384.261 75.7888 373.811 82.7192 366.715 85.6343C366.385 87.7244 365.89 90.1995 365.12 92.8396C363.085 99.7149 359.07 101.31 359.07 101.31C359.07 101.31 357.86 114.841 357.255 128.591C356.65 142.342 358.85 158.678 358.85 158.678L383.106 161.043C383.106 161.043 385.141 147.567 390.971 130.186C396.801 112.806 401.477 98.2849 401.477 98.2849C401.477 98.2849 394.546 93.3347 391.961 90.0345Z" fill="#E48E72"/>
<path d="M331.568 144.927C331.568 144.927 328.488 150.757 324.803 154.992C321.118 159.227 325.628 164.123 331.568 174.023C337.509 183.924 360.94 209.225 360.94 209.225C360.94 209.225 358.52 178.423 357.695 170.723C356.925 163.023 331.568 144.927 331.568 144.927Z" fill="#FFBC00"/>
<path d="M394.271 120.176C390.036 120.561 384.481 120.891 379.201 120.891C371.72 120.891 362.48 119.461 357.694 118.581C357.474 121.771 357.309 125.181 357.144 128.647C356.539 142.397 358.74 158.733 358.74 158.733L382.996 161.098C382.996 161.098 385.031 147.622 390.861 130.242C392.071 126.721 393.226 123.366 394.271 120.176Z" fill="white"/>
<path d="M415.777 130.241C415.777 130.241 407.692 159.337 404.887 165.993C402.082 172.648 400.267 178.698 400.267 178.698C400.267 178.698 363.03 146.412 357.31 140.527C351.589 134.641 350.159 133.046 350.159 133.046C350.159 133.046 345.539 137.171 336.849 144.487C328.158 151.802 327.168 153.012 327.168 154.442C327.168 155.872 345.814 189.204 367.375 209.005C388.936 228.806 402.302 231.831 406.317 231.831C410.332 231.831 419.462 229.026 427.548 214.065C435.633 199.104 441.024 181.118 443.444 168.303C445.589 156.972 447.239 134.256 446.359 125.456C445.149 113.465 439.098 106.59 429.363 110.825C419.573 115.115 415.777 130.241 415.777 130.241Z" fill="#FFC701"/>
<path d="M337.234 73.8086C337.234 73.8086 333.493 83.269 333.768 89.6493C334.043 96.0296 337.894 102.08 337.894 102.08C337.894 102.08 347.794 99.9898 352.799 97.0747C357.86 94.2145 337.234 73.8086 337.234 73.8086Z" fill="#0D42C8"/>
<path d="M335.859 50.3226C335.859 50.3226 336.739 54.6128 337.234 58.793C337.509 61.1581 337.729 63.5232 337.564 65.0633C336.849 71.6636 332.393 77.1638 334.594 78.2639C336.794 79.3639 339.599 79.3639 339.599 79.3639C339.599 79.3639 342.239 90.8045 344.989 95.5347C347.409 99.7149 350.379 102.025 362.645 96.0847C374.965 90.1444 381.566 86.5143 381.566 86.5143C381.566 86.5143 396.472 77.3838 395.812 66.9884C395.152 56.5929 393.006 22.7663 372.16 27.8816C351.314 32.9968 336.079 31.3467 335.859 50.3226Z" fill="#EEA281"/>
<path d="M414.402 72.1586C415.942 69.7935 415.502 66.6583 413.412 64.8432C411.212 62.8631 408.077 59.068 404.502 51.7526C397.296 37.122 393.006 27.9915 384.536 23.3713C370.895 15.946 361.325 26.3415 353.24 29.7516C328.213 40.4221 343.284 42.4022 343.284 42.4022C343.284 42.4022 353.075 41.4122 356.815 48.3975C361.875 57.9129 358.025 66.8233 354.394 75.0187C349.994 84.9742 351.204 94.0496 355.33 99.7148C359.95 106.04 365.505 105.27 365.505 105.27C365.505 105.27 362.865 98.8348 362.645 97.5697C362.15 94.8196 362.7 89.2644 362.7 89.2644C362.7 89.2644 363.855 95.7547 364.46 97.2947C365.01 98.7798 367.1 101.475 367.1 101.475C367.1 101.475 374.58 104.61 389.266 94.9846C398.012 89.3744 409.122 80.2439 414.402 72.1586Z" fill="#0D42C8"/>
<path d="M342.074 57.2528C346.144 56.2627 349.004 60.0029 349.004 60.0029C349.004 60.0029 345.869 58.6828 343.724 59.3979C341.579 60.1129 337.179 61.928 337.124 61.2129C337.069 60.4979 335.914 59.7829 337.289 58.7928C338.554 57.8578 342.074 57.2528 342.074 57.2528Z" fill="#0D42C8"/>
<path d="M343.284 69.0235C344.109 68.7485 344.549 67.8685 344.274 66.9884L343.999 66.2184C343.724 65.3933 342.844 64.9533 341.964 65.2283C341.139 65.5033 340.699 66.3834 340.974 67.2634L341.249 68.0335C341.524 68.8035 342.404 69.2985 343.284 69.0235Z" fill="black"/>
<path d="M340.974 84.7541C340.974 84.7541 340.754 83.379 342.734 83.654C346.364 84.2591 348.234 82.334 348.234 82.334C348.234 82.334 348.069 84.5891 346.089 86.6792C344.824 87.9992 342.294 88.9343 342.294 88.9343L340.974 84.7541Z" fill="#FF0653"/>
<path d="M348.674 27.2766C339.049 31.1817 332.613 40.2572 332.283 45.7574C332.063 49.1676 332.613 51.9727 333.053 53.5678C333.273 54.4478 334.209 54.9428 335.089 54.7228C337.619 54.0628 342.624 52.7427 345.099 52.0827C348.509 51.1477 362.975 48.6175 362.975 48.6175L369.795 21.4463C369.74 21.5013 353.514 25.2965 348.674 27.2766Z" fill="#0D42C8"/>
<path d="M347.519 79.3088C349.645 79.3088 351.369 77.585 351.369 75.4586C351.369 73.3322 349.645 71.6084 347.519 71.6084C345.393 71.6084 343.669 73.3322 343.669 75.4586C343.669 77.585 345.393 79.3088 347.519 79.3088Z" fill="#ED8C7D"/>
<path d="M127.564 248.496C127.564 248.496 129.929 277.592 129.929 290.958C129.929 305.424 128.279 319.449 128.279 319.449L44.1253 319.999C44.1253 319.999 36.81 285.073 47.4255 255.426C49.0206 251.026 52.1007 245.251 52.1007 245.251L127.564 248.496Z" fill="#0F43C1"/>
<path d="M52.9806 236.561C52.9806 236.561 49.6256 247.451 53.9708 249.432C58.371 251.412 64.3661 256.857 90.9874 258.287C100.668 258.782 117.719 256.747 125.419 253.997C128.499 252.897 127.564 250.202 126.794 247.011L126.959 235.296C126.959 235.296 93.7924 237.001 77.1817 236.561C60.5709 236.121 52.9806 236.561 52.9806 236.561Z" fill="url(#paint4_linear_15015_287507)"/>
<path d="M113.098 90.0342C113.098 90.0342 115.683 97.0745 116.343 98.4496C117.278 100.32 118.874 102.41 118.874 102.41C118.874 102.41 116.344 102.245 112.053 102.41C107.763 102.575 113.098 90.0342 113.098 90.0342Z" fill="#0353E2"/>
<path d="M265.84 199.929L201.322 209.224L185.262 111.87L249.78 102.574L265.84 199.929Z" fill="white"/>
<path d="M265.84 199.929L201.322 209.225L185.262 111.87C185.262 111.87 198.792 137.336 220.298 161.812C239.384 183.593 265.84 199.929 265.84 199.929Z" fill="white"/>
<path d="M237.569 129.415L204.898 134.146C203.688 134.311 202.533 133.376 202.313 132C202.093 130.625 202.863 129.36 204.073 129.195L236.744 124.465C237.954 124.3 239.109 125.235 239.329 126.61C239.549 127.985 238.779 129.25 237.569 129.415Z" fill="#246AFD"/>
<path d="M238.999 137.995L206.328 142.726C205.118 142.891 203.963 141.956 203.743 140.581C203.523 139.206 204.293 137.94 205.503 137.775L238.174 133.045C239.384 132.88 240.54 133.815 240.76 135.19C240.98 136.565 240.154 137.83 238.999 137.995Z" fill="#246AFD"/>
<path d="M240.374 146.577L207.703 151.307C206.493 151.472 205.338 150.537 205.118 149.162C204.898 147.787 205.668 146.522 206.878 146.356L239.549 141.626C240.759 141.461 241.915 142.396 242.135 143.771C242.41 145.146 241.584 146.411 240.374 146.577Z" fill="#246AFD"/>
<path d="M241.805 155.157L209.133 159.887C207.923 160.052 206.768 159.117 206.548 157.742C206.328 156.367 207.098 155.102 208.308 154.937L240.979 150.206C242.19 150.041 243.344 150.976 243.564 152.351C243.784 153.727 243.015 154.937 241.805 155.157Z" fill="#246AFD"/>
<path d="M225.249 166.268L210.508 168.413C209.298 168.578 208.143 167.643 207.923 166.268C207.703 164.893 208.473 163.628 209.683 163.463L224.424 161.318C225.634 161.153 226.789 162.088 227.009 163.463C227.284 164.893 226.459 166.103 225.249 166.268Z" fill="#246AFD"/>
<path d="M241.639 191.734C241.474 191.734 241.364 191.734 241.199 191.734C236.524 191.459 232.729 187.003 232.674 181.833C232.674 179.138 233.664 176.608 235.424 174.903C236.964 173.418 238.944 172.703 241.034 172.813C245.71 173.088 249.505 177.543 249.56 182.713C249.56 185.408 248.57 187.938 246.81 189.644C245.435 191.019 243.619 191.734 241.639 191.734ZM240.704 173.418C238.944 173.418 237.239 174.078 235.919 175.343C234.269 176.938 233.334 179.248 233.334 181.778C233.389 186.673 236.909 190.799 241.254 191.019C243.179 191.129 244.994 190.414 246.369 189.094C248.02 187.498 248.955 185.188 248.955 182.658C248.9 177.763 245.38 173.638 241.034 173.418C240.924 173.418 240.814 173.418 240.704 173.418Z" fill="#246AFD"/>
<path d="M242.312 187.062C244.679 186.508 246.081 183.854 245.444 181.132C244.807 178.411 242.373 176.654 240.007 177.208C237.641 177.761 236.239 180.416 236.875 183.137C237.512 185.858 239.946 187.615 242.312 187.062Z" fill="#246AFD"/>
<path d="M194.337 168.358C193.457 162.747 191.972 160.272 199.177 161.867C202.808 162.637 208.088 159.447 205.558 158.017C203.083 156.587 192.907 153.892 191.862 154.057C187.297 154.827 183.392 156.037 178.276 158.622C173.161 161.207 169.421 164.508 169.201 166.708C168.926 168.963 169.586 180.843 169.586 180.843C169.586 180.843 176.461 181.668 184.327 181.338C189.882 181.118 196.042 178.588 196.042 178.588L194.337 168.358Z" fill="#F4A17D"/>
<path d="M169.201 159.943C171.291 159.338 173.491 159.558 175.416 160.493C176.736 161.153 178.221 161.923 179.267 162.748C183.887 166.323 187.682 171.493 188.617 175.179C188.617 175.179 191.202 185.519 182.512 188.599C175.581 191.019 145 203.835 124.869 211.48C104.738 219.126 84.3871 191.239 71.7366 165.993C59.086 140.747 55.511 113.136 71.3517 104.885C87.1924 96.6351 92.5826 110.276 102.043 124.411C108.753 134.422 117.334 154.498 121.734 165.333C123.439 169.513 127.949 171.714 132.294 170.448L169.201 159.943Z" fill="#0353E2"/>
<path d="M115.574 79.1989C115.574 79.1989 114.419 80.4089 113.098 90.0344C111.778 99.6048 113.704 110.11 113.704 110.11C113.704 110.11 114.693 112.585 115.243 114.676C115.794 116.766 104.738 113.63 94.3976 109.615C84.0571 105.6 72.3965 95.4796 71.4614 92.7295C70.5264 89.9244 76.8518 84.4791 79.602 77.3288C82.3521 70.2335 85.1022 56.9229 85.1022 56.9229C85.1022 56.9229 102.978 61.158 107.708 66.4933C112.438 71.7735 115.904 73.8636 115.574 79.1989Z" fill="#F28B7A"/>
<path d="M121.349 110.33C130.149 124.191 139.555 156.917 137.409 173.143C135.264 189.369 134.714 195.419 133.119 215.165C131.524 234.911 131.634 239.971 128.334 242.446C114.583 252.787 104.628 249.047 88.6224 248.552C72.5616 248.057 61.176 246.957 53.0356 237.441C42.6952 225.341 55.6758 175.508 53.8607 152.242C51.0556 116.051 58.701 95.0396 72.6166 88.9344C86.5322 82.8291 112.658 96.6347 121.349 110.33Z" fill="#246AFD"/>
<path d="M126.849 27.7162C127.839 35.8566 127.344 38.1117 128.719 42.2919C130.094 46.4721 135.319 49.8273 135.484 52.7424C135.649 55.6575 129.819 54.6125 129.819 54.6125C129.819 54.6125 130.039 62.9729 131.579 68.8031C133.065 74.6334 131.799 78.4286 125.364 79.3086C118.929 80.1887 109.248 76.6135 101.658 70.2332C94.0675 63.8529 83.0121 63.7429 76.6868 48.5072C70.3615 33.2715 80.042 14.0206 96.8178 10.9955C113.539 8.02533 125.859 19.5759 126.849 27.7162Z" fill="#F4A17D"/>
<path d="M120.304 56.4823C122.795 56.4823 124.814 54.463 124.814 51.9721C124.814 49.4812 122.795 47.4619 120.304 47.4619C117.813 47.4619 115.794 49.4812 115.794 51.9721C115.794 54.463 117.813 56.4823 120.304 56.4823Z" fill="#F28B7A"/>
<path d="M131.469 68.0337C131.469 68.0337 130.094 68.3637 126.684 66.8786C123.549 65.5036 123.329 63.8535 123.329 63.8535C123.329 63.8535 127.289 63.1385 128.609 62.5884C129.984 62.0934 130.424 61.9834 130.424 61.9834L131.469 68.0337Z" fill="white"/>
<path d="M106.388 7.36546C106.388 7.36546 113.978 8.90553 120.139 6.0454C125.584 3.46028 128.059 0.710157 128.554 0.105129C128.609 0.0501265 128.719 -0.00487598 128.829 0.0501266C129.159 0.270137 129.929 1.15018 130.039 4.12031C130.149 7.91549 129.544 16.7709 128.389 19.136C127.234 21.5011 124.429 25.6263 117.389 27.0564C114.528 27.6614 109.028 26.4513 109.853 31.5116C110.678 36.5718 111.613 38.2769 112.163 50.7625C112.713 63.248 109.688 65.1181 115.464 66.2732C121.239 67.4832 119.259 61.0479 123.329 59.4529C127.124 57.9678 128.994 56.1527 129.599 55.4377C129.709 55.3277 129.874 55.3827 129.929 55.4927C130.204 56.7577 131.194 60.9929 131.249 61.873C131.304 62.918 130.259 63.633 128.224 63.9631C126.354 64.2381 124.594 63.9631 123.824 63.7981C123.659 63.7431 123.549 63.9631 123.659 64.0731C124.209 64.7881 125.474 66.3282 127.729 67.1532C128.719 67.5382 131.029 67.8132 131.524 67.9232C132.569 68.1433 135.045 76.8337 134.55 78.9238C134.054 81.0138 128.169 82.4439 124.649 82.6089C121.129 82.7739 111.228 80.3538 105.233 77.1637C99.2377 73.9185 100.558 70.4534 101.053 67.4832C101.548 64.5131 104.298 59.2328 103.198 52.2475C102.098 45.3172 100.063 42.8971 97.9178 42.6771C90.7124 41.9071 90.3273 48.9474 91.2074 53.0176C92.0874 57.0877 92.3624 58.2428 91.7574 61.983C90.8773 67.4832 83.232 68.3083 82.4069 68.3633C82.3519 68.3633 82.2971 68.3633 82.2971 68.3083C81.5821 67.7582 74.4316 62.038 67.8863 41.467C61.011 19.796 76.9618 10.4456 83.5621 7.97049C90.1624 5.49538 98.0827 5.38537 106.388 7.36546Z" fill="#4169CC"/>
<path d="M125.419 44.4371C124.649 44.7121 123.824 44.2721 123.604 43.502L123.329 42.622C123.054 41.852 123.494 41.0269 124.264 40.8069C125.034 40.5319 125.859 40.9719 126.079 41.742L126.354 42.622C126.574 43.392 126.189 44.2171 125.419 44.4371Z" fill="black"/>
<path d="M118.104 39.9267C118.104 39.9267 120.414 35.8015 122.889 34.8665C125.309 33.9314 126.079 33.6014 127.454 33.8214C128.829 34.0414 128.389 36.7916 127.674 36.9016C126.959 37.0116 124.594 36.9566 122.944 38.3316C121.294 39.7067 118.324 41.2468 117.884 41.1918C117.444 41.1368 118.104 39.9267 118.104 39.9267Z" fill="#4169CC"/>
<path d="M100.173 50.8726C100.283 49.0025 99.403 47.1324 97.7529 46.2524C96.8729 45.7574 95.8827 45.6474 95.1677 46.5824C93.1876 49.0025 92.8025 49.8826 94.2876 54.7228C94.7826 56.3729 97.0377 58.408 98.9078 59.398C99.8978 59.948 100.338 58.023 100.393 56.9229L100.173 50.8726Z" fill="#DD623D"/>
<path d="M75.7519 80.2443C75.7519 80.2443 115.684 91.6849 112.769 94.05C109.853 96.4151 114.419 106.811 114.419 106.811C114.419 106.811 96.8177 99.2202 84.6622 97.0201C74.8717 95.205 62.7713 96.8551 64.9714 94.93C67.1165 92.8949 73.2768 79.4193 75.7519 80.2443Z" fill="#0353E2"/>
<path d="M77.1269 77.8233C77.1269 77.8233 117.059 89.2638 114.143 91.6289C111.228 93.994 114.419 106.755 114.419 106.755C114.419 106.755 95.6626 97.1292 86.0371 94.5441C73.5516 91.2439 63.8712 95.5891 66.0713 93.609C68.2714 91.6839 74.6518 77.0532 77.1269 77.8233Z" fill="#246AFD"/>
<path d="M71.5714 118.746C71.5714 118.746 69.2062 136.622 68.7112 145.312C67.8862 159.063 66.9511 168.853 67.8862 185.629C69.3162 210.71 78.3916 223.581 88.182 231.006C97.9725 238.432 122.009 255.592 122.009 255.592C122.009 255.592 126.849 253.832 128.169 245.032C129.489 236.286 99.7876 207.41 92.0873 177.709C84.3869 148.007 71.5714 118.746 71.5714 118.746Z" fill="#0353E2"/>
<path d="M196.042 267.528C196.042 267.528 154.295 272.094 149.18 272.974C144.065 273.799 145.22 278.419 148.63 278.309C151.6 278.199 196.372 272.314 196.372 272.314L200.992 269.288L196.042 267.528Z" fill="#FF0653"/>
<path d="M177.286 257.573C177.286 257.573 184.987 262.633 188.837 264.449C191.862 265.879 191.862 267.694 189.497 268.189C188.287 268.464 185.097 269.289 183.007 268.849C180.917 268.409 173.986 265.439 173.986 265.439L177.286 257.573Z" fill="#F28B7A"/>
<path d="M140.38 246.352C140.38 246.352 147.145 245.857 152.59 245.637C158.035 245.417 160.565 246.792 166.121 250.037C171.621 253.282 181.852 259.553 183.777 260.653C185.647 261.753 185.482 262.303 184.932 267.143C184.382 271.983 183.886 276.383 183.116 276.603C182.401 276.823 180.971 277.263 180.971 277.263C180.971 277.263 181.412 278.803 179.431 279.298C177.451 279.794 174.976 279.903 174.976 279.903C174.976 279.903 174.371 282.049 172.886 282.489C171.401 282.874 165.736 282.929 165.736 282.929C165.736 282.929 163.536 283.974 161.446 285.019C159.355 286.064 156.605 280.729 155.34 277.703C154.9 276.713 158.09 276.383 158.64 276.768C159.575 277.428 159.96 278.088 159.96 278.088C159.96 278.088 159.465 275.778 159.025 274.348C158.585 272.863 158.035 271.708 158.035 271.708C158.035 271.708 152.315 270.938 149.345 267.693C146.375 264.448 144.34 260.763 144.34 260.763L137.684 262.468C137.684 262.468 134.659 257.792 136.254 253.337C137.85 248.827 140.38 246.352 140.38 246.352Z" fill="#EEA281"/>
<path d="M161.776 240.026C163.261 241.676 164.141 243.821 164.196 246.021C164.251 247.507 164.196 249.212 163.921 250.587C162.821 256.472 155.945 263.787 152.975 266.317C152.975 266.317 144.725 273.303 137.85 266.647C132.404 261.367 106.443 238.816 89.9974 223.69C73.5516 208.565 71.6814 173.693 70.5813 144.707C69.4812 115.72 71.4616 105.435 89.7774 104.83C108.093 104.225 116.178 119.406 119.039 136.676C121.074 148.942 116.233 175.233 115.738 187.169C115.573 191.734 131.689 207.135 134.824 210.6L161.776 240.026Z" fill="#246AFD"/>
<defs>
<linearGradient id="paint0_linear_15015_287507" x1="230.04" y1="226.445" x2="190.869" y2="229.105" gradientUnits="userSpaceOnUse">
<stop offset="0.3508" stop-color="#0A31A9"/>
<stop offset="0.7154" stop-color="#0F3FCE"/>
</linearGradient>
<linearGradient id="paint1_linear_15015_287507" x1="262.214" y1="128.935" x2="220.34" y2="142.344" gradientUnits="userSpaceOnUse">
<stop offset="0.3471" stop-color="#4E8DEA"/>
<stop offset="0.7421" stop-color="#82BCFF"/>
</linearGradient>
<linearGradient id="paint2_linear_15015_287507" x1="276.276" y1="145.159" x2="331.175" y2="134.577" gradientUnits="userSpaceOnUse">
<stop offset="0.6851" stop-color="#0A31A9"/>
<stop offset="0.8793" stop-color="#0F3FCE"/>
</linearGradient>
<linearGradient id="paint3_linear_15015_287507" x1="206.508" y1="193.794" x2="257.351" y2="154.631" gradientUnits="userSpaceOnUse">
<stop offset="0.5623" stop-color="#0A31A9"/>
<stop offset="0.8535" stop-color="#0F3FCE"/>
</linearGradient>
<linearGradient id="paint4_linear_15015_287507" x1="51.7534" y1="246.841" x2="127.553" y2="246.841" gradientUnits="userSpaceOnUse">
<stop offset="0.531" stop-color="#002E93"/>
<stop offset="1" stop-color="#0F3FCE"/>
</linearGradient>
</defs>
</svg>
