<svg width="485" height="485" viewBox="0 0 485 485" fill="none" xmlns="http://www.w3.org/2000/svg">
<path d="M179.928 202.197C179.928 198.931 176.604 196.612 173.318 197.596C172.357 197.877 171.397 198.193 170.4 198.474C148.242 205.253 151.123 215.719 151.123 215.719V268.403C151.123 268.403 151.123 264.645 156.108 259.728C159.469 256.391 164.454 253.511 176.309 250.104C178.451 249.507 179.928 247.611 179.928 245.468V202.197Z" fill="#D0EFF4"/>
<path d="M218.151 187.375C210.617 188.429 203.527 189.623 194.885 191.695C192.485 192.257 190.749 194.33 190.749 196.718V240.06C190.749 243.361 193.962 245.82 197.36 245.082C197.803 244.977 198.246 244.906 198.689 244.801C218.779 240.621 233.477 238.83 240.605 238.128C243.374 237.847 245.479 235.634 245.479 233V189.869C245.479 186.778 242.636 184.39 239.423 184.741C234.142 185.303 226.091 186.251 218.151 187.375Z" fill="#D0EFF4"/>
<path d="M310.55 186.848C310.55 184.039 308.186 181.791 305.232 181.756C298.289 181.685 287.136 181.65 283.185 181.791C273.657 182.107 265.569 182.704 260.694 183.125C257.924 183.371 255.819 185.584 255.819 188.218V230.927C255.819 233.948 258.589 236.301 261.765 235.985C266.344 235.529 273.804 235.002 284.92 234.896C289.278 234.861 298.954 235.002 305.121 235.107C308.112 235.177 310.587 232.859 310.587 230.014V186.848H310.55Z" fill="#D0EFF4"/>
<path d="M321.407 186.638V231.7C321.407 233.948 323.253 235.774 325.58 235.915C341.792 236.793 360.22 238.128 368.751 238.76C371.336 238.935 373.515 237.004 373.515 234.545V190.747C373.515 188.675 371.964 186.919 369.822 186.602C363.47 185.584 348.957 183.617 326.06 182.458C323.512 182.282 321.407 184.214 321.407 186.638Z" fill="#D0EFF4"/>
<path d="M455.241 269.316C455.241 269.316 455.241 269.281 455.241 269.247C455.241 269.281 455.241 269.316 455.241 269.316Z" stroke="#E63891" stroke-miterlimit="10"/>
<path d="M426.806 194.154C409.892 190.466 395.895 188.991 388.989 188.394C386.478 188.183 384.336 190.08 384.336 192.468V237.109C384.336 239.252 386.072 241.043 388.324 241.183C394.972 241.605 409.153 243.08 424.479 247.997C427.286 248.91 430.166 246.944 430.166 244.134V198.123C430.166 196.226 428.763 194.575 426.806 194.154Z" fill="#D0EFF4"/>
<path d="M455.241 216.632C455.057 212.734 456.608 205.92 445.713 200.16C443.608 199.036 440.986 200.476 440.986 202.794V253.02C440.986 254.073 441.577 255.057 442.5 255.584C454.724 262.538 455.204 268.509 455.204 269.246C455.241 267.244 455.463 221.655 455.241 216.632Z" fill="#D0EFF4"/>
<path d="M411.332 282.277L410.556 242.659C410.483 239.427 412.809 236.582 416.133 235.845C422.337 234.475 432.345 231.946 439.473 228.715C450.552 223.692 455.242 216.668 455.242 216.668V269.352C455.242 269.352 455.5 274.269 447.856 278.589C440.211 282.909 430.129 286.211 423.223 288.072C422.226 288.353 421.303 288.599 420.38 288.81C415.874 289.969 411.406 286.738 411.332 282.277Z" fill="#59CEE7"/>
<path d="M151.123 215.72C151.123 215.72 151.123 215.684 151.123 215.72C151.123 215.684 151.123 215.684 151.123 215.72Z" stroke="#E63891" stroke-miterlimit="10"/>
<path d="M208.807 239.111C200.092 237.215 190.342 235.283 180.26 232.262C175.976 230.963 171.619 234.018 171.619 238.303V280.345C171.619 283.12 173.502 285.579 176.309 286.387C177.417 286.703 178.562 287.019 179.743 287.335C199.353 292.463 214.014 294.746 222.25 295.764C226.201 296.256 229.71 293.306 229.71 289.477V248.243C229.71 245.117 227.346 242.483 224.096 241.991C220.477 241.429 215.233 240.516 208.807 239.111Z" fill="#59CEE7"/>
<path d="M160.798 226.432C160.798 225.413 160.244 224.465 159.321 223.938C151.344 219.372 151.123 216 151.123 215.719C151.123 216.527 151.196 257.972 151.196 262.819C151.196 265.664 150.31 270.616 155.517 275.92C157.401 277.852 160.798 276.552 160.798 273.918V226.432Z" fill="#59CEE7"/>
<path d="M192.41 250.069L186.981 248.137L187.018 242.377L182.919 240.937L182.882 246.697L177.453 244.801V249.121L182.882 251.017L182.845 256.778L186.944 258.218L186.981 252.458L192.41 254.389V250.069Z" fill="white"/>
<path d="M212.131 272.126C212.094 273.707 210.58 274.901 208.955 274.585C206.333 274.093 201.902 273.25 195.143 271.775C187.314 270.054 182.993 268.684 180.852 267.911C179.817 267.525 179.116 266.541 179.153 265.488V265.453C179.19 263.697 181.036 262.502 182.772 263.099C185.32 263.977 189.456 265.207 195.66 266.577C202.529 268.087 207.293 268.895 209.879 269.316C211.208 269.527 212.168 270.616 212.131 271.88V272.126Z" fill="white"/>
<path d="M199.907 280.134C199.871 281.715 198.356 282.909 196.731 282.593C194.109 282.101 182.993 279.116 180.852 278.308C179.817 277.921 179.116 276.938 179.153 275.884V275.849C179.19 274.093 181.036 272.899 182.772 273.496C185.32 274.374 195.07 276.868 197.692 277.289C199.021 277.5 199.981 278.589 199.944 279.853L199.907 280.134Z" fill="white"/>
<path d="M433.416 244.871L428.8 245.995L428.726 240.165L425.254 241.008L425.365 246.838L420.749 247.997L420.786 252.388L425.402 251.229L425.476 257.094L428.948 256.251L428.874 250.386L433.49 249.262L433.416 244.871Z" fill="white"/>
<path d="M450.441 256.075C450.441 257.691 449.185 259.763 447.782 260.395C445.566 261.414 441.799 263.03 436.112 265.348C429.465 268.017 425.809 269.071 423.999 269.492C423.113 269.703 422.522 269.106 422.522 268.017V267.982C422.522 266.191 424.036 263.908 425.513 263.556C427.692 262.994 431.164 261.906 436.445 259.798C442.28 257.445 446.305 255.584 448.484 254.53C449.592 254.003 450.441 254.565 450.441 255.865V256.075Z" fill="white"/>
<path d="M440.286 271.108C440.286 272.723 439.03 274.796 437.627 275.428C435.411 276.446 425.994 279.643 424.184 280.064C423.298 280.275 422.707 279.678 422.707 278.589V278.554C422.707 276.763 424.221 274.48 425.698 274.128C427.877 273.566 436.15 270.581 438.328 269.527C439.436 269 440.286 269.562 440.286 270.862V271.108Z" fill="white"/>
<path d="M281.815 383.906C281.815 383.906 281.815 372.909 274.315 359.583C266.815 346.257 263.291 345.076 261.093 330.539C258.896 316.032 256.698 309.353 250.977 301.898C245.255 294.443 249.651 292.89 244.802 286.584C239.953 280.309 236.883 275.991 236.883 275.991C236.883 275.991 235.906 282.514 236.883 286.49C237.86 290.373 239.848 290.032 239.36 295.623C238.871 301.215 237.546 302.675 237.72 309.602C237.895 316.529 240.371 319.76 243.337 325.196C246.302 330.632 246.302 332.993 246.79 347.841C247.279 362.69 247.767 366.075 250.244 372.847C252.721 379.619 255.198 383.751 255.198 383.751L281.815 383.906Z" fill="url(#paint0_linear_7705_199611)"/>
<path d="M274.315 359.552C266.815 346.226 263.291 345.045 261.093 330.508C258.896 316.001 256.698 309.322 250.942 301.867C245.22 294.412 249.616 292.827 244.767 286.553C239.918 280.278 236.848 275.96 236.848 275.96C236.848 275.96 236.848 276.022 236.813 276.115C237.022 277.358 237.301 279.035 237.58 280.93C238.243 285.186 240.825 286.242 243.092 289.97C245.081 293.2 244.069 298.201 243.267 302.022C241.697 309.26 244.244 310.409 247.383 314.976C250.523 319.542 250.279 319.387 252.511 330.725C256.14 349.177 268.698 359.707 270.024 376.202C270.268 379.371 270.547 381.949 270.792 383.844H281.815C281.815 383.906 281.815 372.909 274.315 359.552Z" fill="#3F69CB"/>
<path d="M365.92 167.851C369.588 168.369 369.988 179.236 365.92 185.77C361.851 192.303 359.672 196.669 361.307 204.917C362.941 213.165 362.287 217.757 357.856 224.776C353.424 231.795 357.129 233.994 357.856 239.783C358.582 245.605 356.149 255.05 347.722 261.324C339.295 267.631 336.825 280.698 336.825 287.975C336.825 295.253 343.363 310.001 336.825 318.734C330.287 327.467 319.935 340.307 318.046 349.493C316.157 358.678 306.096 383.874 306.096 383.874L289.605 383.809C289.605 383.809 295.489 373.33 290.731 360.263C287.862 352.371 284.084 339.078 290.332 331.574C296.579 324.071 300.974 322.55 297.814 311.748C294.4 300.104 290.332 290.66 296.833 281.927C303.371 273.194 309.074 268.375 307.44 258.187C305.805 248.031 303.626 241.465 313.433 233.735C323.24 225.973 321.024 222.091 321.315 215.332C321.606 208.572 327.054 201.78 332.757 199.58C338.459 197.413 341.402 191.85 342.201 183.409C343.072 173.9 360.762 167.14 365.92 167.851Z" fill="#0A40CF"/>
<path d="M357.856 239.784C357.129 233.962 353.424 231.795 357.856 224.776C362.287 217.758 362.941 213.165 361.306 204.917C359.672 196.67 361.851 192.336 365.919 185.77C369.988 179.237 369.588 168.369 365.919 167.852C365.447 167.787 364.866 167.787 364.212 167.852C360.943 170.213 356.839 173.803 355.313 178.04C352.589 185.544 357.492 192.336 348.775 201.521C340.057 210.739 335.989 213.133 337.079 226.717C338.169 240.269 334.645 242.953 325.129 253.853C315.612 264.753 316.157 267.664 318.336 280.245C320.516 292.827 321.061 300.59 310.709 312.686C300.393 324.783 295.489 335.909 297.669 349.493C299.122 358.646 300.465 366.215 296.761 377.341C296.47 378.182 296.179 379.055 295.889 379.896C295.707 382.257 295.489 383.809 295.489 383.809L306.096 383.874C306.096 383.874 316.193 358.679 318.046 349.493C319.935 340.307 330.287 327.467 336.825 318.734C343.363 310.002 336.825 295.253 336.825 287.976C336.825 280.698 339.258 267.631 347.722 261.324C356.149 255.05 358.582 245.606 357.856 239.784Z" fill="url(#paint1_linear_7705_199611)"/>
<path d="M293.154 383.906C293.154 383.906 298.422 354.302 293.259 342.249C288.096 330.197 281.223 330.414 283.212 320.474C285.2 310.534 290.084 303.265 283.944 292.02C277.804 280.775 277.909 279.78 281.084 274.438C284.258 269.095 285.41 266.237 281.223 260.117C277.037 253.998 273.828 252.476 272.886 245.02C271.944 237.565 272.223 232.999 272.223 232.999C272.223 232.999 260.745 240.174 260.78 247.474C260.85 254.774 264.339 258.595 259.176 263.565C254.013 268.535 256.21 272.356 256.908 277.886C257.606 283.415 252.094 285.527 252.512 290.497C252.931 295.468 254.885 299.102 259.001 306.34C263.118 313.609 261.722 318.362 257.85 326.003C253.943 333.676 251.047 333.365 255.443 347.748C259.838 362.13 273.688 383.906 273.688 383.906H293.154Z" fill="#0D1E7A"/>
<path d="M268.035 253.998C270.338 259.186 273.931 261.546 272.919 265.46C271.977 269.064 265.105 267.945 265.244 272.916C265.384 277.886 269.535 280.93 269.151 288.199C268.837 294.132 263.814 294.443 266.709 301.215C270.547 310.099 275.012 314.355 272.605 324.295C270.198 334.235 267.791 345.511 268.942 356.57C269.675 363.528 277.35 375.736 282.931 383.875H293.153C293.153 383.875 298.42 354.271 293.257 342.219C288.094 330.197 281.222 330.383 283.21 320.443C285.199 310.503 290.083 303.234 283.943 291.989C277.803 280.713 277.908 279.75 281.082 274.407C284.257 269.064 285.408 266.206 281.222 260.086C277.036 253.967 273.826 252.445 272.884 244.989C271.942 237.534 272.221 232.968 272.221 232.968C272.221 232.968 265.175 247.599 268.035 253.998Z" fill="url(#paint2_linear_7705_199611)"/>
<path d="M298.795 383.906C298.795 383.906 297.705 367.444 308.057 352.436C318.409 337.429 318.954 328.211 326.545 302.53C334.137 276.849 341.22 264.268 355.931 256.02C370.605 247.772 371.15 244.894 373.874 235.676C376.598 226.458 382.047 225.52 388.004 223.094C393.997 220.669 395.087 213.391 402.133 208.572C409.216 203.721 413.03 207.602 411.941 215.364C410.851 223.127 407.037 225.067 404.858 227.461C402.678 229.886 403.223 235.223 403.223 240.042C403.223 244.862 403.768 244.894 395.05 251.654C386.333 258.413 384.154 261.357 383.1 269.087C382.047 276.817 379.323 282.671 370.605 288.461C361.888 294.25 360.798 296.708 359.708 305.894C358.619 315.112 349.356 320.901 341.765 332.06C334.137 343.186 333.592 344.641 333.047 358.226C332.502 371.81 319.462 383.906 319.462 383.906H298.795Z" fill="#02C8DC"/>
<path d="M403.26 240.042C403.26 235.19 402.715 229.854 404.894 227.46C407.074 225.035 410.887 223.094 411.977 215.364C412.449 211.936 411.977 209.283 410.706 207.796C406.674 211.612 399.591 217.143 398.392 223.126C396.685 231.536 394.143 233.961 387.713 237.163C380.848 240.56 382.882 245.282 380.449 249.745C375.691 258.413 366.501 259.675 359.164 267.857C351.826 276.04 358.691 282.024 344.562 295.188C330.432 308.352 329.342 310.777 329.342 321.936C329.342 333.062 334.246 340.824 320.625 352.436C307.004 364.047 308.13 365.988 308.675 381.513C308.711 382.321 308.711 383.13 308.711 383.938H319.572C319.572 383.938 332.612 371.842 333.156 358.258C333.701 344.706 334.246 343.25 341.874 332.092C349.502 320.966 358.728 315.144 359.817 305.926C360.907 296.708 361.997 294.314 370.714 288.493C379.432 282.671 382.12 276.881 383.209 269.119C384.299 261.356 386.478 258.478 395.16 251.686C403.841 244.894 403.26 244.861 403.26 240.042Z" fill="url(#paint3_linear_7705_199611)"/>
<path d="M342.092 383.648C342.092 383.648 342.491 372.619 350.373 365.341C358.255 358.064 362.215 357.838 366.283 345.709C370.351 333.58 373.911 329.472 383.137 322.227C392.399 314.95 395.632 306.961 396.467 301.657C397.266 296.32 399.446 287.846 399.446 287.846C399.446 287.846 391.563 289.819 389.638 295.026C387.75 300.201 385.28 303.597 372.785 307.964C360.289 312.33 346.741 324.265 339.694 333.871C333.483 342.345 333.737 351.401 332.539 358.581C330.977 367.929 325.274 375.238 322.296 378.861C319.317 382.483 317.864 383.842 317.864 383.842L342.092 383.648Z" fill="#6245DD"/>
<path d="M391.854 301.625C390.219 309.872 386.405 311.813 375.254 314.691C364.103 317.602 358.945 324.621 355.93 333.095C352.952 341.569 354.005 346.032 344.234 354.409C337.151 360.457 335.117 369.772 334.246 380.575C334.173 381.675 334.209 382.71 334.282 383.648L342.055 383.68C342.055 383.68 342.455 372.554 350.337 365.277C358.219 357.999 362.178 357.773 366.246 345.644C370.314 333.548 373.874 329.408 383.1 322.163C392.362 314.885 395.595 306.897 396.43 301.592C397.23 296.255 399.409 287.781 399.409 287.781C399.409 287.781 393.597 292.762 391.854 301.625Z" fill="url(#paint4_linear_7705_199611)"/>
<path d="M386.514 383.809C386.514 383.809 392.181 375.303 393.67 371.551C395.159 367.799 396.866 363.4 395.413 354.603C393.924 345.805 396.394 342.28 399.373 337.008C402.351 331.736 404.567 331.283 403.586 323.359C402.605 315.435 404.095 313.688 406.565 309.936C409.034 306.185 406.565 299.813 406.565 299.813C406.565 299.813 405.075 302.886 402.86 304.858C400.644 306.831 398.537 306.12 397.121 311.004C395.45 316.729 394.178 319.672 388.04 325.3C381.502 331.315 381.502 338.593 379.613 344.964C377.143 353.18 372.276 353.115 364.067 364.306C355.858 375.497 355.422 383.809 355.422 383.809H386.514Z" fill="#0F43C1"/>
<path d="M399.881 315.273C398.138 320.319 399.155 322.098 397.666 326.27C396.176 330.442 390.256 331.542 389.529 339.466C388.803 347.39 386.805 351.562 377.18 362.786C371.15 369.804 368.644 378.343 367.59 383.809H386.551C386.551 383.809 392.217 375.303 393.706 371.551C395.196 367.799 396.903 363.4 395.45 354.603C393.961 345.805 396.431 342.28 399.409 337.008C402.388 331.736 404.603 331.283 403.623 323.359C402.642 315.435 404.131 313.688 406.601 309.936C409.071 306.184 406.601 299.813 406.601 299.813C406.601 299.813 405.221 305.085 404.64 307.284C403.986 309.548 401.589 310.227 399.881 315.273Z" fill="url(#paint5_linear_7705_199611)"/>
<path d="M281.319 440.109C284.489 441.043 290.497 441.165 293.457 438.91C296.417 436.654 297.212 434.328 300.644 431.232C304.077 428.136 307.174 428.414 309.098 426.584C311.021 424.755 311.278 424.545 310.068 421.46C308.858 418.374 307.251 416.341 307.251 416.341C307.251 416.341 294.839 427.69 291.702 428.4C288.564 429.111 285.842 430.779 285.842 430.779C285.842 430.779 284.847 431.627 281.834 433.493C278.811 435.281 275.013 438.252 281.319 440.109Z" fill="#E63891"/>
<path d="M295.285 407.69C295.285 407.69 295.443 411.901 293.279 417.694C291.104 423.52 291.022 424.086 289.764 425.921C288.507 427.755 285.978 430.269 285.819 430.734C285.672 431.166 289.185 432.181 291.144 431.662C293.103 431.143 298.26 429.193 302.501 423.404C306.775 417.626 307.229 416.297 307.229 416.297C307.229 416.297 305.872 413.532 305.739 410.443C305.617 407.321 306.662 407.196 304.958 406.317C303.254 405.438 298.645 405.349 296.778 405.602C294.91 405.854 295.294 406.468 295.285 407.69Z" fill="#F4A17D"/>
<path d="M353.507 384.68C352.735 388.298 352.419 390.054 349.82 392.969C347.22 395.884 344.902 395.673 343.814 394.514C342.725 393.355 343.989 389.035 343.743 387.033C343.497 385.031 343.533 384.083 343.533 384.083C343.533 384.083 346.272 374.53 345.008 368.875C343.743 363.22 345.991 361.815 345.991 361.815C345.991 361.815 349.082 361.113 351.927 361.288C355.439 361.499 355.334 364.555 355.053 366.206C354.772 367.856 352.981 371.895 353.543 375.618C354.069 379.341 354.104 381.976 353.507 384.68Z" fill="#E63891"/>
<path d="M333.417 358.83C333.417 358.83 336.543 360.165 339.458 361.008C342.373 361.85 345.64 361.464 345.991 361.815C346.342 362.202 348.309 367.962 348.168 372.633C347.993 378.99 347.185 380.536 345.956 382.151C344.726 383.767 343.532 384.083 343.532 384.083C343.532 384.083 343.743 380.29 341.355 376.391C339.001 372.493 332.504 369.472 331.345 368.91C330.186 368.348 329.729 368.313 329.905 367.365C330.08 366.381 332.117 358.268 333.417 358.83Z" fill="#F4A17D"/>
<path d="M284.597 283.14C284.597 283.14 273.568 308.885 268.826 324.515C264.085 340.144 268.3 345.94 273.568 349.628C278.836 353.315 299.735 362.974 314.486 366.662C329.238 370.35 332.574 371.052 332.574 371.052C332.574 371.052 333.452 371.755 334.857 366.662C336.262 361.569 335.735 356.652 335.735 356.652C335.735 356.652 312.519 346.115 301.315 341.198C290.076 336.281 290.427 337.335 292.183 333.822C293.939 330.31 313.222 309.482 316.558 302.633C319.895 295.784 318.666 285.388 318.666 285.388L284.597 283.14Z" fill="#CE308E"/>
<path d="M300.999 283.14C300.999 283.14 283.543 343.024 282.313 352.683C281.084 362.342 292.675 407.475 293.201 409.758C293.728 412.041 296.011 411.689 298.997 411.338C301.982 410.987 306.021 409.231 306.021 407.123C306.021 405.016 306.724 390.265 304.968 373.23C303.211 356.195 299.172 358.127 307.426 346.185C315.68 334.244 329.202 315.453 333.417 306.146C337.632 296.838 336.402 284.369 336.402 284.369L300.999 283.14Z" fill="#E63891"/>
<path d="M293.552 188.133C293.552 188.133 296.714 186.342 308.304 185.675C319.895 185.007 319.087 185.675 322.704 185.675C333.663 185.675 339.107 232.037 338.966 261.891C338.931 271.725 336.402 284.369 336.402 284.369C336.402 284.369 325.128 288.233 308.304 288.233C288.706 288.233 284.596 283.14 284.596 283.14C284.596 283.14 289.619 275.624 288.706 250.581C287.792 225.539 288.6 210.366 288.706 200.812C288.811 191.259 293.552 188.133 293.552 188.133Z" fill="white"/>
<path d="M298.681 189.643C298.681 189.643 298.962 185.569 297.978 181.776C296.714 176.894 293.447 173.873 293.447 173.873L311.009 164.495L311.325 165.935C311.325 165.935 313.257 170.888 314.872 175.981C316.488 181.108 317.401 185.429 317.401 185.429C317.401 185.429 313.924 192.313 306.513 193.261C296.995 194.455 298.681 189.643 298.681 189.643Z" fill="#EE8E68"/>
<path d="M312.905 135.098C313.502 136.081 321.475 137.978 323.617 145.67C325.76 153.362 326.006 156.277 323.617 161.475C321.229 166.673 319.157 168.71 318.876 171.134C318.595 173.557 320.316 176.437 319.086 179.774C317.857 183.111 313.01 183.04 308.936 181.881C304.827 180.722 301.806 178.193 301.806 178.193C301.806 178.193 306.442 175.84 308.585 172.222C310.762 168.605 311.324 166.006 311.324 166.006C311.324 166.006 305.389 166.427 302.122 169.307C298.856 172.187 296.889 175.594 289.654 176.262C282.418 176.894 277.15 174.365 277.15 174.365C277.15 174.365 281.084 172.258 282.84 167.657C284.596 163.055 283.086 158.138 282.91 156.593C282.734 155.083 282.734 153.959 282.734 153.959C282.734 153.959 282.945 153.502 281.54 154.31C280.135 155.118 278.274 155.083 278.274 155.083C278.274 155.083 281.505 152.8 282.383 148.76C283.261 144.721 282.91 142.544 287.511 136.854C292.112 131.164 298.821 129.619 303.176 130.075C307.566 130.567 311.64 132.955 312.905 135.098Z" fill="#FCE3C4"/>
<path d="M307.883 139.383C307.883 139.383 304.687 145.494 307.357 149.814C310.026 154.134 311.817 156.663 311.817 156.663C311.817 156.663 312.274 153.397 314.697 153.748C317.121 154.099 318.842 156.909 318.561 159.087C318.28 161.264 317.331 164.601 314.767 165.233C312.203 165.865 310.026 166.076 310.026 166.076C310.026 166.076 308.726 169.834 304.406 172.89C300.086 175.946 297.347 176.648 294.185 176.613C291.024 176.578 287.688 173.592 286.458 169.413C285.229 165.233 285.054 160.597 285.651 156.628C286.248 152.659 287.056 150.236 287.056 150.236C287.056 150.236 290.814 150.517 293.869 148.55C296.925 146.618 300.121 143.422 302.369 142.122C304.547 140.893 307.883 139.383 307.883 139.383Z" fill="#F4A17D"/>
<path d="M300.964 150.446C303.282 150.868 304.476 151.921 304.476 151.921C305.073 152.589 304.195 152.483 303.492 152.167C302.79 151.851 300.964 151.254 299.91 151.113C298.821 150.973 297.803 151.149 297.381 151.359C296.995 151.57 296.363 151.043 297.03 150.797C296.995 150.832 298.61 150.025 300.964 150.446Z" fill="black"/>
<path d="M288.389 163.056C288.389 163.056 290.216 163.266 291.902 163.653C293.588 164.039 297.873 164.496 297.873 164.496C297.873 164.496 295.976 168.078 291.902 167.516C288.249 167.025 288.389 163.056 288.389 163.056Z" fill="#E63891"/>
<path d="M301.561 160.597C300.788 160.597 299.875 160.492 298.821 160.281C294.922 159.473 295.203 156.558 295.309 155.469C295.449 154.099 296.011 152.273 296.011 152.203C296.117 151.887 296.398 151.711 296.679 151.676C296.784 151.676 299.102 151.641 301.28 151.922C303.422 152.203 306.162 153.011 306.302 153.011C306.653 153.116 306.899 153.467 306.829 153.854C306.759 154.24 306.127 157.577 305.67 158.525C305.178 159.543 304.089 160.597 301.561 160.597ZM297.24 153.116C297.065 153.713 296.819 154.767 296.749 155.575C296.608 157.015 296.679 158.314 299.102 158.841C300.753 159.192 303.598 159.508 304.335 157.928C304.581 157.436 304.967 155.61 305.248 154.24C304.3 153.994 302.544 153.537 301.104 153.362C299.629 153.186 298.048 153.151 297.24 153.116Z" fill="white"/>
<path d="M289.303 158.454C288.671 158.454 288.004 158.384 287.406 158.279C285.861 158.033 284.702 157.401 284.035 156.452C283.438 155.609 283.192 154.521 283.402 153.361C283.683 151.676 284.105 150.165 284.105 150.095C284.175 149.849 284.351 149.674 284.597 149.603C284.667 149.603 286.037 149.217 288.53 149.568C291.024 149.919 293.412 151.465 293.483 151.535C293.729 151.676 293.834 151.992 293.799 152.273C293.799 152.378 293.412 154.696 292.921 156.206C292.359 157.998 290.884 158.454 289.303 158.454ZM285.369 150.938C285.229 151.5 284.983 152.519 284.807 153.607C284.702 154.134 284.702 154.942 285.194 155.609C285.65 156.242 286.458 156.663 287.617 156.874C290.743 157.365 291.27 156.558 291.516 155.785C291.832 154.766 292.113 153.291 292.253 152.554C291.516 152.132 289.9 151.289 288.284 151.078C286.88 150.798 285.861 150.868 285.369 150.938Z" fill="white"/>
<path d="M296.714 153.116C296.609 153.116 296.503 153.081 296.398 153.046C296.363 153.046 295.836 152.8 294.677 152.694C293.764 152.624 293.447 152.765 293.447 152.765C293.483 152.73 293.518 152.73 293.518 152.73L292.64 151.571C292.815 151.43 293.412 151.114 294.817 151.254C296.257 151.395 296.96 151.711 297.03 151.746C297.381 151.922 297.557 152.343 297.381 152.73C297.241 152.975 296.96 153.116 296.714 153.116Z" fill="white"/>
<path d="M316.944 155.68C316.804 155.68 316.628 155.645 316.523 155.539C316.523 155.539 315.574 154.872 313.397 154.661C311.008 154.415 305.705 154.38 305.635 154.38C305.248 154.38 304.897 154.064 304.897 153.643C304.897 153.256 305.213 152.905 305.635 152.905C305.845 152.905 311.079 152.94 313.537 153.186C316.101 153.467 317.225 154.24 317.366 154.345C317.682 154.591 317.752 155.047 317.506 155.364C317.401 155.574 317.155 155.68 316.944 155.68Z" fill="white"/>
<path d="M301.105 155.961L300.894 155.925C300.578 155.855 300.367 155.539 300.437 155.223L300.472 155.012C300.543 154.696 300.859 154.485 301.175 154.556L301.386 154.591C301.702 154.661 301.913 154.977 301.842 155.293L301.807 155.504C301.737 155.82 301.421 156.031 301.105 155.961Z" fill="black" stroke="black" stroke-width="0.5" stroke-miterlimit="10"/>
<path d="M289.724 154.239L289.513 154.204C289.197 154.134 288.986 153.818 289.057 153.502L289.092 153.291C289.162 152.975 289.478 152.764 289.794 152.835L290.005 152.87C290.321 152.94 290.532 153.256 290.461 153.572L290.426 153.783C290.356 154.099 290.04 154.31 289.724 154.239Z" fill="black" stroke="black" stroke-width="0.5" stroke-miterlimit="10"/>
<path d="M293.834 152.8C293.834 152.8 293.061 156.277 290.813 158.735C290.006 159.613 290.919 160.035 292.183 160.456C292.745 160.667 293.799 160.737 293.834 160.14V152.8Z" fill="#E67A76"/>
<path d="M288.39 163.056C288.39 163.056 289.619 165.655 292.042 166.076C294.501 166.498 297.873 164.496 297.873 164.496C297.873 164.496 295.765 165.198 292.604 164.742C289.162 164.285 288.39 163.056 288.39 163.056Z" fill="white"/>
<path d="M302.965 169.167C304.924 169.167 306.512 167.579 306.512 165.619C306.512 163.66 304.924 162.072 302.965 162.072C301.006 162.072 299.417 163.66 299.417 165.619C299.417 167.579 301.006 169.167 302.965 169.167Z" fill="#F08A7B"/>
<path d="M312.8 158.033C313.117 156.839 314.978 155.891 315.786 157.155C316.559 158.419 317.296 161.932 314.697 163.091C312.098 164.25 311.431 163.828 311.29 163.512C311.15 163.196 312.8 158.033 312.8 158.033Z" fill="#E67A76"/>
<path d="M293.553 188.133C288.636 190.24 281.611 197.265 280.909 207.099C280.206 216.934 280.557 251.354 280.909 258.73C281.26 266.106 274.586 295.96 273.884 300.526C273.182 305.092 273.884 308.955 273.884 308.955C273.884 308.955 285.826 285.072 290.04 273.481C294.255 261.891 296.925 247.877 294.044 229.121C290.919 208.961 289.619 203.763 290.813 196.563C291.586 191.856 293.553 188.133 293.553 188.133Z" fill="#E63891"/>
<path d="M322.705 185.674C322.705 185.674 332.363 184.972 338.334 194.28C344.305 203.587 347.993 229.402 352.383 245.208C356.774 261.013 365.027 303.16 365.379 305.619C365.73 308.077 362.92 310.712 355.896 314.399C348.871 318.087 341.495 321.424 334.471 321.951C327.446 322.478 328.851 321.951 328.675 317.56C328.5 313.17 321.651 259.081 318.314 245.383C314.978 231.685 315.329 218.69 317.085 209.558C318.841 200.426 322.705 185.674 322.705 185.674Z" fill="#E63891"/>
<path d="M181.582 221.675C182.6 221.008 186.709 217.215 187.342 216.793C187.974 216.372 192.083 215.002 192.61 215.072C193.172 215.142 190.397 217.636 188.992 218.655C187.588 219.673 185.305 221.535 184.005 222.167C182.741 222.834 181.582 221.675 181.582 221.675Z" fill="#EE8E68"/>
<path d="M272.584 217.425C266.543 218.795 258.957 218.901 244.205 219.182C228.857 219.463 212.103 214.721 207.958 214.124L208.099 206.818C208.275 206.854 227.065 203.482 240.904 203.236C261.731 202.85 272.76 199.232 272.865 199.197H272.83L278.555 215.81C278.38 215.915 276.343 216.583 272.584 217.425Z" fill="#F4A17D"/>
<path d="M178.279 218.303C180.703 217.285 192.223 210.857 196.438 209.453C200.688 208.013 204.551 207.17 208.099 206.853C211.646 206.537 212.032 211.49 210.803 212.473C209.574 213.457 205.675 215.107 202.128 217.355C198.58 219.603 195.841 220.2 192.258 221.535C188.676 222.869 187.271 224.555 187.06 223.958C186.849 223.361 187.552 221.324 189.062 220.376C190.572 219.427 193.136 218.936 193.944 218.023C194.717 217.109 195.244 216.618 194.576 215.985C193.874 215.353 192.118 215.388 189.062 216.688C186.006 217.987 182.775 219.182 181.054 219.463C179.333 219.744 178.279 218.303 178.279 218.303Z" fill="#F4A17D"/>
<path d="M288.775 191.294C288.775 191.294 280.627 195.298 275.99 197.055C268.088 200.075 264.611 199.548 264.4 200.953C264.154 202.358 266.507 220.095 266.507 222.202C266.507 224.31 265.805 226.417 271.424 225.258C277.044 224.099 280.521 223.151 280.521 223.151C280.521 223.151 284.912 212.017 288.775 203.939C292.639 195.86 288.775 191.294 288.775 191.294Z" fill="#E63891"/>
<path d="M330.185 226.487C330.185 226.663 329.377 243.1 325.338 255.85C321.299 268.564 317.892 283.421 309.393 292.448C309.393 292.448 310.236 296.978 312.483 298.91C315.012 301.053 316.206 301.228 317.26 301.228C318.314 301.228 319.824 299.718 319.824 299.718C330.185 288.725 337.21 276.502 342.092 261.153C346.833 246.191 347.712 228.068 347.747 227.295L330.185 226.487Z" fill="#F4A17D"/>
<path d="M330.607 187.396C330.607 187.396 345.64 191.294 349.363 205.097C352.243 215.669 352.77 228.63 352.875 234.144C352.91 235.689 351.716 236.954 350.206 237.059C347.255 237.27 342.233 237.445 336.543 236.813C329.94 236.076 326.357 232.037 326.357 232.037C326.357 232.037 325.269 222.308 325.269 207.732C325.269 195.298 327.06 188.449 330.607 187.396Z" fill="#E63891"/>
<defs>
<linearGradient id="paint0_linear_7705_199611" x1="232.772" y1="340.981" x2="264.801" y2="324.208" gradientUnits="userSpaceOnUse">
<stop offset="0.3508" stop-color="#3F69CB"/>
<stop offset="0.7154" stop-color="#2A48B4"/>
</linearGradient>
<linearGradient id="paint1_linear_7705_199611" x1="315.543" y1="272.222" x2="348.659" y2="282.188" gradientUnits="userSpaceOnUse">
<stop offset="0.0704572" stop-color="#0A31A9"/>
<stop offset="0.7154" stop-color="#0F3FCE"/>
</linearGradient>
<linearGradient id="paint2_linear_7705_199611" x1="262.885" y1="308.459" x2="289.467" y2="305.115" gradientUnits="userSpaceOnUse">
<stop offset="0.3508" stop-color="#030C67"/>
<stop offset="0.7154" stop-color="#0D1E7A"/>
</linearGradient>
<linearGradient id="paint3_linear_7705_199611" x1="342.88" y1="288.86" x2="370.677" y2="303.417" gradientUnits="userSpaceOnUse">
<stop offset="0.0652654" stop-color="#0784C0"/>
<stop offset="0.7036" stop-color="#02C8DC"/>
</linearGradient>
<linearGradient id="paint4_linear_7705_199611" x1="354.826" y1="330.74" x2="376.761" y2="342.226" gradientUnits="userSpaceOnUse">
<stop offset="0.0704572" stop-color="#2E34C9"/>
<stop offset="0.7154" stop-color="#6245DD"/>
</linearGradient>
<linearGradient id="paint5_linear_7705_199611" x1="367.562" y1="341.844" x2="407.63" y2="341.844" gradientUnits="userSpaceOnUse">
<stop offset="0.3508" stop-color="#0A31A9"/>
<stop offset="0.7154" stop-color="#0F3FCE"/>
</linearGradient>
</defs>
</svg>
