<svg width="200" height="120" viewBox="0 0 200 120" fill="none" xmlns="http://www.w3.org/2000/svg">
<g clip-path="url(#clip0_23956_431514)">
<path d="M114.792 16.2203L114.238 15.5493C114.822 15.0825 115.347 13.7112 115.843 12.3692C116.689 10.181 117.535 7.90528 119.227 8.22622C120.54 8.4888 120.657 9.33489 120.744 10.0059C120.832 10.7353 120.949 11.4355 122.495 11.9023C125.558 12.836 127.046 11.9607 127.046 11.9607L127.513 12.6901C127.455 12.7484 125.704 13.7988 122.232 12.7484C120.132 12.1066 119.986 10.9687 119.869 10.1226C119.782 9.48077 119.752 9.21819 119.052 9.07231C118.119 8.86808 117.36 10.8812 116.66 12.6609C116.105 14.178 115.551 15.6076 114.792 16.2203Z" fill="#6248DD"/>
<path d="M115.492 78.1018L112.925 77.5183L127.338 14.2655L110.562 19.167L109.832 16.6579L128.767 11.1145C129.205 10.9978 129.701 11.0854 130.022 11.4063C130.372 11.7272 130.518 12.194 130.401 12.6609L115.492 78.1018Z" fill="#E63891"/>
<path d="M114.151 20.4507L107.061 21.4718C106.069 21.6177 105.135 20.9175 104.989 19.9255L104.669 17.7957C104.523 16.8037 105.223 15.8701 106.215 15.7242L113.305 14.7031C114.296 14.5572 115.23 15.2574 115.376 16.2494L115.697 18.3792C115.843 19.3712 115.143 20.3048 114.151 20.4507Z" fill="#6248DD"/>
<path d="M100.467 12.3398C91.3933 12.3398 84.041 20.0714 84.041 29.6118H116.922C116.922 20.0714 109.57 12.3398 100.467 12.3398Z" fill="#E63891"/>
<path d="M125.587 11.2602C125.587 11.2602 126.666 10.6183 127.717 10.1515C128.534 9.8014 129.263 9.71388 129.876 10.2682C130.459 10.8226 131.014 11.2894 131.451 11.727C131.947 12.223 131.86 12.5731 131.597 13.2733C131.218 14.2361 130.576 15.5198 130.051 16.4826C129.613 17.2704 128.65 17.5038 128.213 17.0953C127.571 16.5118 125.295 14.2944 124.916 13.8276C124.041 12.7773 123.895 12.1355 125.587 11.2602Z" fill="#E63891"/>
<path d="M169.66 113.076C169.66 113.076 172.486 109.057 173.289 107.294C174.119 105.531 175.053 103.482 174.923 99.3598C174.793 95.2372 176.012 93.5778 177.516 91.1146C179.02 88.6514 179.979 88.444 180.005 84.7103C180.031 81.0025 180.731 80.1728 181.975 78.4097C183.22 76.6466 182.52 73.6648 182.52 73.6648C182.52 73.6648 181.742 75.1168 180.705 76.0243C179.668 76.9577 178.838 76.6206 177.983 78.9023C176.971 81.5729 176.297 82.9731 173.445 85.5918C170.437 88.3662 170.023 91.7887 168.882 94.7705C167.404 98.6079 165.407 98.582 161.388 103.845C157.369 109.109 156.747 113.024 156.747 113.024L169.66 113.076Z" fill="#0F43C1"/>
<path d="M178.968 80.899C177.983 83.2585 178.294 84.0882 177.438 86.0587C176.583 88.0293 174.093 88.5219 173.341 92.2556C172.59 95.9893 171.552 97.9339 166.937 103.197C164.059 106.49 162.555 110.535 161.803 113.102H169.66C169.66 113.102 172.486 109.083 173.29 107.32C174.119 105.557 175.053 103.509 174.923 99.3859C174.793 95.2633 176.012 93.6039 177.516 91.1407C179.02 88.6775 179.979 88.4701 180.005 84.7364C180.031 81.0286 180.731 80.1989 181.976 78.4358C183.194 76.6727 182.52 73.6909 182.52 73.6909C182.52 73.6909 181.664 76.1541 181.301 77.1912C180.99 78.2284 179.953 78.5395 178.968 80.899Z" fill="url(#paint0_linear_23956_431514)"/>
<path d="M154.778 113.024C154.778 113.024 155.763 106.075 159.548 101.512C163.334 96.9486 164.993 96.793 167.586 89.1701C170.179 81.5471 171.942 78.9543 176.298 74.3909C180.654 69.8275 182.599 64.7974 183.325 61.4267C184.051 58.082 185.58 52.7407 185.58 52.7407C185.58 52.7407 182.158 53.9853 180.991 57.2523C179.824 60.5192 178.554 62.6454 173.057 65.3938C167.56 68.1422 161.078 75.6614 157.448 81.7027C154.259 87.044 153.689 92.7482 152.677 97.2597C151.329 103.145 148.451 107.735 146.947 110.042C145.443 112.324 144.743 113.128 144.743 113.128L154.778 113.024Z" fill="url(#paint1_linear_23956_431514)"/>
<path d="M181.432 61.4268C180.162 66.6124 178.425 67.8311 173.602 69.6461C168.779 71.461 166.109 75.8948 164.242 81.236C162.375 86.5773 162.479 89.3775 157.837 94.641C154.467 98.4525 152.937 104.312 151.77 111.106C151.641 111.806 151.589 112.428 151.563 113.024L154.778 112.998C154.778 112.998 155.763 106.049 159.549 101.486C163.36 96.9227 164.994 96.7671 167.586 89.1442C170.179 81.5213 171.942 78.9284 176.298 74.365C180.654 69.8016 182.599 64.7715 183.325 61.4008C184.051 58.0561 185.581 52.7148 185.581 52.7148C185.581 52.7148 182.806 55.8522 181.432 61.4268Z" fill="#6245DD"/>
<path d="M190.896 5.3157C192.555 5.56185 191.933 11.0017 189.547 14.2509C187.162 17.5246 185.839 19.6907 185.969 23.8014C186.099 27.9121 185.451 30.2013 182.884 33.7212C180.317 37.2165 181.847 38.3241 181.743 41.2041C181.639 44.1086 179.798 48.8101 175.442 51.9607C171.086 55.1114 168.96 61.6344 168.416 65.2527C167.871 68.8711 166.056 76.3786 162.4 80.7354C158.718 85.0923 154.181 86.8645 155.14 95.9474C155.633 100.55 147.025 113.104 147.025 113.104L139.428 113.079C139.428 113.079 142.928 107.861 141.709 101.338C140.983 97.3997 140.232 90.7537 143.68 87.0122C147.128 83.2708 149.281 82.5077 148.632 77.1171C147.932 71.308 146.765 66.5819 150.421 62.2497C154.103 57.8929 157.085 55.4807 157.111 50.41C157.137 45.3394 156.618 42.0656 161.726 38.2011C166.834 34.3365 166.108 32.392 166.756 29.0198C167.404 25.6475 170.412 22.2507 173.238 21.1676C176.039 20.0846 177.802 17.3277 178.813 13.094C179.902 8.31871 188.562 4.94648 190.896 5.3157Z" fill="#02C8DC"/>
<path d="M181.743 41.2035C181.847 38.2989 180.291 37.2159 182.884 33.7206C185.451 30.2253 186.099 27.9115 185.969 23.8008C185.84 19.6901 187.162 17.524 189.547 14.2503C191.933 10.9765 192.555 5.56124 190.896 5.31509C190.688 5.29048 190.403 5.29048 190.118 5.31509C188.433 6.4966 186.281 8.29348 185.243 10.3857C183.428 14.1272 185.166 17.524 180.447 22.1024C175.728 26.7054 173.679 27.9115 173.161 34.6805C172.642 41.4496 170.801 42.7788 165.59 48.2187C160.378 53.6586 160.404 55.1108 160.456 61.3876C160.508 67.6644 160.171 71.5289 154.492 77.5841C148.814 83.6148 145.703 89.1777 145.703 95.9468C145.677 100.501 145.729 104.291 143.188 109.854C143.006 110.273 142.799 110.691 142.591 111.134C142.332 112.316 142.125 113.103 142.125 113.103L147.025 113.128C147.025 113.128 154.829 100.648 155.141 95.9714C155.789 86.4455 158.745 85.1163 162.4 80.7595C166.082 76.4026 167.871 68.9197 168.416 65.2767C168.96 61.6584 171.087 55.1354 175.442 51.9847C179.798 48.8094 181.639 44.0834 181.743 41.2035Z" fill="url(#paint2_linear_23956_431514)"/>
<path d="M145.935 112.636C145.935 112.636 152.936 92.101 151.769 84.0373C150.602 75.9477 146.791 76.2847 149.254 69.4397C151.717 62.5946 155.399 57.5126 153.584 49.9934C151.769 42.4742 151.951 41.8 154.44 38.0663C156.929 34.3326 157.94 32.3362 156.488 28.2913C155.036 24.2206 153.48 23.2872 153.999 18.2052C154.518 13.1492 156.825 9.05249 156.825 9.05249C156.825 9.05249 148.71 11.4379 147.024 20.2017C146.065 25.1799 147.439 27.695 143.913 31.2212C140.387 34.7475 141.087 37.3144 140.698 41.074C140.309 44.8336 135.512 47.4265 135.045 50.7972C134.579 54.1678 135.097 55.568 136.342 60.3906C137.612 65.2392 137.742 68.5581 134.553 73.8993C131.364 79.2406 129.782 79.1109 130.223 88.8341C130.638 98.5313 135.253 113.103 135.253 113.103L145.935 112.636Z" fill="url(#paint3_linear_23956_431514)"/>
<path d="M150.057 24.4533C150.602 27.9277 152.261 29.4574 151.146 32.154C150.135 34.6431 146.505 34.0727 145.909 37.4434C145.312 40.84 147.153 42.8105 145.935 47.7629C144.949 51.8336 142.149 52.1707 142.797 56.7081C143.679 62.6717 145.546 65.4719 142.849 72.317C140.179 79.1621 137.275 86.9406 136.393 94.4598C135.849 99.1788 138.338 107.45 140.282 112.869L145.909 112.584C145.909 112.584 152.909 92.1004 151.743 84.0107C150.576 75.9211 146.764 76.2581 149.228 69.413C151.691 62.568 155.373 57.486 153.558 49.9668C151.743 42.4475 153.454 42.7328 155.943 38.9991C158.432 35.2654 159.884 32.0762 158.225 28.161C156.358 23.7791 153.454 23.2346 153.973 18.1786C154.491 13.1226 156.799 9.02588 156.799 9.02588C156.799 9.02588 149.383 20.1491 150.057 24.4533Z" fill="#0A40CF"/>
<path d="M173.251 120H17.5314C15.6042 120 14.0624 118.444 14.0624 116.5C14.0624 114.555 15.6042 113 17.5314 113H173.251C175.178 113 176.72 114.555 176.72 116.5C176.72 118.444 175.178 120 173.251 120Z" fill="#E63891"/>
<path d="M148.683 112.999H90.6295C89.4628 112.999 88.659 111.573 89.0479 110.199L102.271 63.9949C102.842 62.0243 104.346 60.7019 106.005 60.7019L159.029 58.887C164.085 58.887 165.459 64.0726 164.525 67.2877L152.391 109.681C151.846 111.703 150.343 112.999 148.683 112.999Z" fill="white"/>
<path d="M145.909 112.999H85.7807C84.588 112.999 83.7324 111.521 84.1472 110.095L97.8374 62.2575C98.4337 60.2091 99.9635 58.8608 101.701 58.8608H158.432C161.284 58.8608 163.255 62.3612 162.295 65.7059L149.72 109.603C149.176 111.651 147.62 112.999 145.909 112.999Z" fill="#6248DD"/>
<path d="M146.064 105.065H90.2147C89.0997 105.065 88.0107 104.624 88.6849 102.368L99.7044 63.8906C100.327 61.3236 101.13 60.7273 103.308 60.7273H156.047C158.691 60.7273 161.414 61.5311 159.651 67.0797L149.694 101.902C148.787 105.065 147.698 105.065 146.064 105.065Z" fill="white"/>
<path d="M135.925 112.999H68.9524V112.506C68.9524 110.147 70.8452 108.254 73.2046 108.254H131.673C134.033 108.254 135.925 110.147 135.925 112.506V112.999Z" fill="#AADDE5"/>
<path d="M125.942 112.999H148.707C149.693 112.999 150.471 112.195 150.471 111.236V110.743C150.471 109.369 149.356 108.254 147.981 108.254H130.169C127.809 108.254 125.916 110.147 125.916 112.506V112.999H125.942Z" fill="white"/>
<path d="M144.637 103.172H91.2248C89.5654 103.172 90.2655 101.824 90.7322 100.19L100.663 65.1351C101.129 63.4757 101.57 62.1533 103.23 62.1533H156.279C157.938 62.1533 158.924 63.5016 158.457 65.1351L148.526 100.19C148.008 101.85 146.297 103.172 144.637 103.172Z" fill="#AADDE5"/>
<path d="M144.636 103.172H113.729L125.371 62.1533H156.252C157.911 62.1533 158.897 63.5016 158.482 65.1351L148.292 101.072C147.592 103.172 146.296 103.172 144.636 103.172Z" fill="white"/>
<path d="M137.3 73.3545H127.032C126.358 73.3545 125.943 72.81 126.151 72.1099L126.384 71.2802C126.566 70.6061 127.292 70.0356 127.966 70.0356H138.233C138.907 70.0356 139.322 70.5801 139.115 71.2802L138.882 72.1099C138.7 72.7841 137.974 73.3545 137.3 73.3545Z" fill="#D0EFF4"/>
<path d="M149.331 67.0022H128.406C127.966 67.0022 127.706 66.6392 127.836 66.1984L127.862 66.1466C127.991 65.7058 128.458 65.3428 128.899 65.3428H149.823C150.264 65.3428 150.523 65.7058 150.394 66.1466L150.368 66.1984C150.238 66.6392 149.771 67.0022 149.331 67.0022Z" fill="#6248DD"/>
<path d="M151.274 73.3545H141.006C140.332 73.3545 139.917 72.81 140.125 72.1099L140.358 71.2802C140.539 70.6061 141.265 70.0356 141.94 70.0356H152.207C152.881 70.0356 153.296 70.5801 153.089 71.2802L152.855 72.1099C152.674 72.7841 151.974 73.3545 151.274 73.3545Z" fill="#D0EFF4"/>
<path d="M143.729 100.009H133.462C132.787 100.009 132.373 99.464 132.58 98.764L132.813 97.9343C132.995 97.2601 133.721 96.6897 134.395 96.6897H144.663C145.337 96.6897 145.752 97.2342 145.544 97.9343L145.311 98.764C145.129 99.464 144.403 100.009 143.729 100.009Z" fill="#246AFD"/>
<path d="M135.95 78.0732H125.683C125.009 78.0732 124.594 77.5287 124.801 76.8287L125.035 75.999C125.216 75.3248 125.942 74.7544 126.616 74.7544H136.884C137.558 74.7544 137.973 75.2989 137.765 75.999L137.532 76.8287C137.351 77.5028 136.65 78.0732 135.95 78.0732Z" fill="#D0EFF4"/>
<path d="M148.604 82.7666H124.336C123.661 82.7666 123.247 82.2221 123.454 81.522L123.687 80.6923C123.869 80.0182 124.595 79.4478 125.269 79.4478H149.538C150.212 79.4478 150.627 79.9923 150.419 80.6923L150.186 81.522C150.005 82.2221 149.305 82.7666 148.604 82.7666Z" fill="#D0EFF4"/>
<path d="M145.493 93.7084H121.224C120.55 93.7084 120.135 93.1639 120.342 92.4638L122.339 85.4113C122.52 84.7372 123.246 84.1667 123.92 84.1667H148.189C148.863 84.1667 149.278 84.7112 149.071 85.4113L147.074 92.4638C146.893 93.1639 146.193 93.7084 145.493 93.7084Z" fill="#D0EFF4"/>
<path d="M149.952 78.0732H139.684C139.01 78.0732 138.595 77.5287 138.803 76.8287L139.036 75.999C139.218 75.3248 139.944 74.7544 140.618 74.7544H150.885C151.559 74.7544 151.974 75.2989 151.767 75.999L151.534 76.8287C151.352 77.5028 150.626 78.0732 149.952 78.0732Z" fill="#D0EFF4"/>
<path d="M93.7487 96.4054C93.7487 96.4054 110.887 96.7165 116.592 96.4054C123.644 96.0164 124.163 94.7719 125.926 94.9274C129.582 95.2386 124.552 103.613 123.748 103.639C123.255 103.665 121.388 103.795 121.388 103.795C121.388 103.795 113.48 106.932 112.676 107.192L98.5455 111.651C98.5455 111.651 88.4334 111.262 88.8482 106.466C89.2631 101.643 93.7487 96.4054 93.7487 96.4054Z" fill="#F1A17E"/>
<path d="M34.9177 43.3561C35.7215 33.3996 35.7215 29.5363 34.9177 25.3618C34.1139 21.1874 32.3508 15.5609 34.9177 12.0346C37.4846 8.50839 41.5035 5.1377 48.0893 5.29327C54.6751 5.44884 55.79 8.50839 57.0864 11.7235C58.3828 14.9386 57.8902 24.4025 57.8902 27.9547C57.8902 31.4809 57.3976 36.9518 55.9715 37.4444C54.5195 37.9371 54.2084 37.6 54.364 39.7002C54.5195 41.8004 54.5195 43.382 54.5195 43.382H34.9177V43.3561Z" fill="#F1A17E"/>
<path d="M46.481 35.0068C47.4922 33.114 49.2035 28.421 49.5406 26.969C49.8517 25.517 49.2294 25.8541 48.0108 23.1057C46.7922 20.3573 47.6219 18.7757 49.6184 17.9719C51.6148 17.1681 53.2224 19.0868 53.715 21.3426C54.2077 23.5983 54.2077 24.5577 53.715 27.2802C53.2224 30.0026 53.0668 33.14 54.078 35.3957C55.0892 37.6515 56.3079 38.7664 57.9932 37.4959C59.6786 36.1995 59.3415 34.4364 59.0304 32.5955C58.7192 30.7546 58.3821 31.7139 58.8748 30.4175C59.3674 29.1211 58.8748 28.2136 58.3821 27.9024C57.8895 27.5913 57.8117 29.8471 56.9302 29.0433C56.0486 28.2395 55.2448 27.2802 55.0892 25.517C54.9337 23.7539 54.7781 21.4981 54.8559 19.6572C54.9337 17.8163 55.6597 18.9312 56.0486 16.6755C56.4375 14.4197 56.1264 13.4603 56.0486 11.8528C55.9708 10.2452 57.0857 11.6972 57.0857 11.6972C57.0857 11.6972 59.5489 9.38958 59.5489 6.58932C59.5489 3.94463 58.6933 2 58.6933 2C58.6933 2 56.9042 2.64821 53.9225 2.93342C51.5889 3.16678 46.6885 1.84443 43.2918 2.363C34.9429 3.65942 32.6094 7.41903 32.9205 8.71545C33.2316 10.0119 32.7649 8.71545 32.2723 11.2046C31.7797 13.6937 30.8981 19.4757 32.9983 25.3355C35.0985 31.1953 35.5133 33.9178 35.4874 34.4882C35.4356 35.9662 45.8847 36.1217 46.481 35.0068Z" fill="#4169CC"/>
<path d="M70.9833 49.7856C63.1011 46.9853 59.523 46.4149 57.9673 45.1185C56.4116 43.8221 56.8265 41.4367 55.6338 41.2552C54.4411 41.0737 33.9836 40.607 33.5687 41.2552C33.1539 41.9034 33.465 45.0926 32.3501 45.7408C31.7019 46.1038 26.5421 48.1003 21.5898 49.993C18.0117 51.3672 14.4854 52.3266 13.0853 54.4009C9.71462 59.3791 7.43293 73.3026 4.14003 85.9557C1.02862 97.8568 -3.04213 115.592 3.49182 117.485C11.2444 119.74 12.9557 117.329 12.9557 117.329C13.215 118.859 14.5632 119.948 16.093 119.948H64.9939C66.9644 119.922 73.7318 120.337 73.6021 115.54L73.7836 106.672C73.7577 105.921 76.1172 112.532 76.3765 113.025C79.0989 118.392 91.8038 114.762 95.1227 113.621C98.986 112.273 100.075 111.314 100.594 108.617C101.786 102.524 99.4527 97.4938 98.4674 96.4048C95.7709 93.4749 93.5151 95.601 93.0225 94.8491C92.5298 94.0972 84.8032 61.9201 83.1178 58.7828C81.4325 55.7232 79.1767 52.7155 70.9833 49.7856Z" fill="#02C5DB"/>
<path d="M52.4962 21.3166C52.3925 20.3572 51.5628 18.8274 50.2145 19.346C48.9181 19.8646 48.6588 20.6424 49.7478 22.9241C50.0849 23.6242 51.0183 24.2465 52.0554 24.402C52.6518 24.4798 52.7036 23.702 52.6777 23.1575C52.6518 22.6908 52.574 22.0426 52.4962 21.3166Z" fill="#DD623D"/>
<path d="M111.409 96.7934C111.409 96.7934 117.865 95.9119 119.239 95.3933C120.639 94.8488 123.024 94.3302 124.321 93.7598C128.132 92.0745 128.599 92.4375 129.455 92.5153C130.284 92.5671 136.559 93.2672 138.763 93.9672C140.448 94.5117 138.322 95.5229 135.989 95.2896C134.537 95.1599 130.207 95.0044 130.207 95.0044C130.207 95.0044 138.115 99.0492 139.152 99.7493C140.189 100.475 140.371 101.072 139.904 101.383C139.437 101.694 138.426 102.083 137.285 101.512C136.118 100.968 131.27 98.5306 130.907 98.1936C130.544 97.8565 129.895 97.8824 130.725 98.3751C131.555 98.8936 136.741 101.227 137.415 101.979C137.622 102.212 136.507 103.301 135.392 103.042C134.744 102.887 130.596 101.227 129.532 100.735C128.132 100.086 127.562 100.579 126.862 101.409C126.395 101.979 125.903 103.535 122.532 104.52C120.172 105.22 118.331 104.494 117.191 104.546C116.05 104.624 111.953 105.557 111.953 105.557L111.409 96.7934Z" fill="#F1A17E"/>
</g>
<defs>
<linearGradient id="paint0_linear_23956_431514" x1="164.239" y1="93.3801" x2="180.639" y2="95.2853" gradientUnits="userSpaceOnUse">
<stop offset="0.3508" stop-color="#0A31A9"/>
<stop offset="0.7154" stop-color="#0F3FCE"/>
</linearGradient>
<linearGradient id="paint1_linear_23956_431514" x1="165.162" y1="82.9343" x2="151.137" y2="79.3765" gradientUnits="userSpaceOnUse">
<stop offset="0.0704572" stop-color="#2E34C9"/>
<stop offset="0.7154" stop-color="#6245DD"/>
</linearGradient>
<linearGradient id="paint2_linear_23956_431514" x1="163.725" y1="46.7416" x2="179.797" y2="53.2493" gradientUnits="userSpaceOnUse">
<stop offset="0.0652654" stop-color="#0784C0"/>
<stop offset="0.7036" stop-color="#02C8DC"/>
</linearGradient>
<linearGradient id="paint3_linear_23956_431514" x1="157.432" y1="61.1163" x2="133.884" y2="56.4853" gradientUnits="userSpaceOnUse">
<stop offset="0.6851" stop-color="#0A31A9"/>
<stop offset="0.8793" stop-color="#0F3FCE"/>
</linearGradient>
<clipPath id="clip0_23956_431514">
<rect width="200" height="120" fill="white"/>
</clipPath>
</defs>
</svg>
