<svg width="191" height="175" viewBox="0 0 191 175" fill="none" xmlns="http://www.w3.org/2000/svg">
<path d="M134.973 45.4414C134.143 38.1814 131.349 31.2854 126.891 25.4954C119.543 16.1864 102.571 8.82642 102.571 8.82642C102.571 8.82642 100.851 11.9904 103.236 18.8064C105.62 25.6214 112.688 39.2114 113.398 41.8884C114.109 44.5644 129.379 80.6124 129.379 80.6124L134.973 45.4414Z" fill="#0D1E7A"/>
<path d="M114.105 65.4104C114.105 65.4104 107.267 60.5384 100.836 58.6234C97.1524 57.4844 93.2784 57.0944 89.4414 57.4774C89.4414 57.4774 92.3644 67.0154 93.6144 69.5484C94.2724 70.9274 95.0094 72.2664 95.8214 73.5604L101.352 72.0874L97.8324 76.1004C97.8324 76.1004 98.4064 80.5254 104.057 85.1394C109.709 89.7534 116.988 91.9314 124.938 94.6714C129.793 96.3694 134.205 99.1324 137.852 102.758C137.852 102.758 132.321 88.6294 126.016 79.2584C119.711 69.8864 114.105 65.4104 114.105 65.4104Z" fill="#59CEE7"/>
<path d="M131.834 89.6054C131.834 89.6054 139.286 74.4444 137.727 66.5464C136.793 61.7644 134.992 57.1934 132.413 53.0594L130.034 60.0005C130.034 60.0005 124.303 44.1924 113.034 34.3504C99.0999 22.2044 93.8548 20.7714 86.6668 18.8404C79.4798 16.9084 76.0009 17.8314 76.0009 17.8314C76.0009 17.8314 75.9029 23.2365 77.7949 27.3065C79.2589 30.4355 81.0858 33.3804 83.2398 36.0814L89.9919 36.8435L84.2599 38.9474L95.3908 51.7465C95.3908 51.7465 98.1309 49.4885 100.923 50.6515C101.775 51.0465 102.534 51.6175 103.151 52.3255C103.769 53.0335 104.23 53.8635 104.505 54.7615L100.395 55.4785C100.395 55.4785 101.949 59.1695 105.084 64.8265C108.219 70.4845 110.93 76.7375 116.02 81.8735C121.11 87.0085 130.464 89.4904 131.834 89.6054Z" fill="#0A40CF"/>
<path d="M135.609 99.4864C135.609 99.4864 150.047 73.0054 152.202 69.2744L154.363 65.5484L151.629 63.8924L158.949 60.9174L158.376 58.8654L160.869 58.2004C160.869 58.2004 166.727 45.7564 167.976 42.5584C169.226 39.3594 169.048 38.3564 169.048 38.3564L161.161 39.2164C161.161 39.2164 165.964 37.5254 168.039 36.6544C169.263 36.1364 170.554 35.7924 171.874 35.6344C171.874 35.6344 178.294 25.9534 178.609 17.4474C178.924 8.94039 178.575 4.75639 178.213 1.97139C177.852 -0.814607 176.884 -0.161596 174.035 0.979404C171.186 2.1204 168.876 3.7764 164.91 5.7994C162.015 7.2844 158.507 8.93539 155.796 11.2104C150.867 15.3604 149.95 18.4784 147.84 21.3274C145.731 24.1764 143.295 25.4084 143.255 26.3714C143.215 27.3344 143.163 32.1034 143.163 32.1034L141.644 28.2054C138.399 31.6944 136.018 35.8954 134.692 40.4714C132.399 48.2494 127.292 54.2854 128.163 70.0994C129.034 85.9134 135.609 99.4864 135.609 99.4864Z" fill="url(#paint0_linear_598_174)"/>
<path d="M109.838 58.6865C114.424 58.0335 116.378 58.8525 116.378 58.8525C115.45 57.0335 114.744 55.1095 114.275 53.1215C113.799 50.7025 110.836 36.7055 109.277 31.1965C110.423 32.1655 111.684 33.2145 113.002 34.3605C116.806 37.7745 120.121 41.6955 122.855 46.0135C122.672 48.1345 122.466 51.1035 122.385 54.3705C122.225 60.7215 126.77 74.4325 126.77 74.4325L109.965 73.8075C108.193 70.8155 106.686 67.7435 105.075 64.8255C103.74 62.4185 102.697 60.3715 101.934 58.8125C104.567 59.0335 107.214 58.9915 109.838 58.6865Z" fill="url(#paint1_linear_598_174)"/>
<path d="M130.146 75.6996L130.324 52.0556C131.763 47.7226 133.562 44.3236 134.697 40.5116C135.245 38.6826 135.955 36.9066 136.818 35.2036L139.243 44.2946C139.243 44.2946 142.269 39.1356 144.802 35.0436C147.336 30.9506 154.042 27.4256 160.892 24.4506C165.609 22.4106 173.937 17.9506 178.66 15.3716C178.66 16.0366 178.62 16.7186 178.592 17.4406C178.294 25.3906 172.665 34.3666 171.948 35.4846L170.905 35.7486C170.348 35.8596 169.797 36.0016 169.254 36.1726C164.761 37.3186 159.51 38.7406 155.997 39.8296C148.763 42.0706 140.062 48.8516 140.062 48.8516L137.615 57.5866C142.002 54.7236 146.549 52.1126 151.234 49.7686C155.487 47.6536 161.648 47.0346 166.136 46.9026C164.927 49.5906 163.448 52.7946 162.37 55.0986C157.172 57.2366 147.6 63.0896 143.862 65.1186C138.99 67.7316 130.146 75.6996 130.146 75.6996Z" fill="#6245DD"/>
<path d="M190.944 61.4494C190.944 61.4494 180.781 58.4235 170.091 62.0235C159.401 65.6225 149.457 72.5235 144.258 79.7915C135.706 91.8285 133.941 104.129 134.313 108.422C134.686 112.715 136.852 113.666 136.852 113.666C136.852 113.666 134.938 108.634 142.716 101.979C150.494 95.3245 160.095 93.3414 165.827 90.4754C171.559 87.6094 171.45 86.4924 171.45 86.4924L165.861 84.5095L167.581 84.0565L175.095 82.8585C175.095 82.8585 182.988 78.0775 184.025 75.5105C185.063 72.9425 185.051 72.1855 185.051 72.1855L182.65 70.3394L186.57 69.2964L190.944 61.4494Z" fill="#0A40CF"/>
<path d="M181.705 78.1575C179.99 79.5835 178.185 80.8964 176.3 82.0894C174.205 80.5444 171.751 79.5585 169.17 79.2235C163.438 78.4555 160.75 79.1714 150.857 82.1864C146.954 83.3874 143.229 85.1015 139.777 87.2825C141.084 84.6885 142.586 82.1975 144.271 79.8315C145.667 77.9075 147.244 76.1225 148.982 74.5005C156.044 71.5195 165.605 67.7545 170.844 66.8485C176.212 65.9355 181.731 66.8095 186.554 69.3365L182.634 70.3795C178.787 69.9045 174.893 69.9585 171.061 70.5395C165.215 71.5255 157.569 75.0905 157.569 75.0905C162.089 74.1445 166.726 73.8775 171.325 74.2995C175.041 74.7485 178.598 76.0705 181.705 78.1575Z" fill="url(#paint2_linear_598_174)"/>
<path d="M134.308 108.434C134.197 105.855 134.435 103.274 135.013 100.759C137.194 97.8696 139.882 95.4006 142.946 93.4736C152.805 87.0826 159.379 84.3536 165.874 84.5196L171.462 86.5036C171.462 86.5036 171.571 87.6206 165.839 90.4866C160.107 93.3526 150.507 95.3356 142.728 101.991C134.95 108.646 136.865 113.678 136.865 113.678C136.865 113.678 134.687 112.727 134.308 108.434Z" fill="url(#paint3_linear_598_174)"/>
<path d="M167.907 95.1996L161.264 155.338C160.724 160.231 158.386 164.748 154.703 168.013C151.02 171.278 146.256 173.059 141.334 173.01L126.173 172.855C121.265 172.805 116.549 170.939 112.936 167.616C109.323 164.293 107.07 159.75 106.611 154.863L100.936 94.5176L167.907 95.1996Z" fill="white"/>
<mask id="mask0_598_174" style="mask-type:alpha" maskUnits="userSpaceOnUse" x="100" y="94" width="68" height="80">
<path d="M167.907 95.1996L161.264 155.338C160.724 160.231 158.386 164.748 154.703 168.013C151.02 171.278 146.256 173.059 141.334 173.01L126.173 172.855C121.265 172.805 116.549 170.939 112.936 167.616C109.323 164.293 107.07 159.75 106.611 154.863L100.936 94.5176L167.907 95.1996Z" fill="white"/>
</mask>
<g mask="url(#mask0_598_174)">
<path d="M182.866 113.677H87.0645V118.027H182.866V113.677Z" fill="#E63891"/>
<path d="M182.866 124.367H87.0645V128.718H182.866V124.367Z" fill="#E63891"/>
<path d="M182.866 135.057H87.0645V139.407H182.866V135.057Z" fill="#E63891"/>
<path d="M182.866 145.748H87.0645V150.098H182.866V145.748Z" fill="#E63891"/>
<path d="M182.866 156.438H87.0645V160.788H182.866V156.438Z" fill="#E63891"/>
<path d="M182.866 167.133H87.0645V171.484H182.866V167.133Z" fill="#E63891"/>
</g>
<path d="M16.2775 63.9949C23.5795 63.5429 28.8585 66.0069 34.3955 76.6049C39.9325 87.2039 47.8365 90.4019 55.6895 95.1589C63.5415 99.9169 80.7605 110.572 81.8725 135.855C82.8695 158.582 78.7485 165.884 76.5185 169.192C74.1055 172.763 70.0995 173.926 66.5225 173.989C60.8995 174.087 36.5335 174.104 29.9305 174.018C25.1095 173.955 20.2955 173.577 17.1825 168.813C15.3595 166.112 14.6175 162.825 15.1025 159.602C15.8305 155.361 22.2895 154.983 22.5995 160.399C22.7775 163.603 24.0385 163.878 24.0385 163.878C24.0385 163.878 23.5965 146.683 23.4135 140.985C23.2295 135.288 19.8365 129.378 15.1135 119.692C10.3905 110.005 6.81348 103.396 3.24848 94.0529C-0.316524 84.7099 -1.21651 76.8579 1.90749 71.9859C3.87349 68.9019 7.35248 64.5399 16.2775 63.9949Z" fill="#6248DD"/>
<path d="M29.0047 72.359C29.0047 72.359 29.3547 67.693 28.3057 64.168C27.2567 60.643 25.6227 60.156 25.6227 60.156C25.6227 60.156 24.0467 60.391 22.7577 62.907C21.9677 64.486 21.4357 66.181 21.1807 67.928C22.4617 68.16 23.7007 68.583 24.8547 69.183C26.3657 70.064 27.7597 71.131 29.0047 72.359Z" fill="#6248DD"/>
<path d="M27.3522 69.7632C27.4582 68.1832 27.3222 66.5962 26.9512 65.0572C26.3432 63.0332 25.4093 62.7642 25.4093 62.7642C25.4093 62.7642 24.5032 62.9022 23.7702 64.3462C23.3162 65.2472 23.0113 66.2142 22.8643 67.2122C23.5993 67.3462 24.3103 67.5892 24.9733 67.9342C25.8423 68.4382 26.6412 69.0532 27.3522 69.7632Z" fill="white"/>
<path d="M3.71231 72.209C3.71231 72.209 3.36232 67.543 4.41132 64.012C5.46032 60.482 7.09432 60 7.09432 60C7.09432 60 8.66431 60.241 9.96031 62.752C10.7493 64.333 11.2813 66.03 11.5363 67.778C10.2543 68.007 9.01532 68.43 7.86232 69.034C6.34832 69.91 4.95431 70.978 3.71231 72.209Z" fill="#6248DD"/>
<path d="M5.35923 69.613C5.25323 68.033 5.38823 66.446 5.76023 64.907C6.36223 62.878 7.30222 62.614 7.30222 62.614C7.30222 62.614 8.20223 62.752 8.94123 64.196C9.39023 65.098 9.69422 66.066 9.84122 67.062C9.10622 67.196 8.39523 67.439 7.73223 67.785C6.86723 68.291 6.06923 68.906 5.35923 69.613Z" fill="white"/>
<path d="M23.5089 83.4271C26.0669 83.4271 28.1399 81.2991 28.1399 78.6751C28.1399 76.0511 26.0669 73.9231 23.5089 73.9231C20.9509 73.9231 18.8779 76.0511 18.8779 78.6751C18.8779 81.2991 20.9509 83.4271 23.5089 83.4271Z" fill="white"/>
<path d="M23.085 82.1831C23.639 82.1831 24.088 81.1611 24.088 79.9021C24.088 78.6421 23.639 77.6201 23.085 77.6201C22.531 77.6201 22.082 78.6421 22.082 79.9021C22.082 81.1611 22.531 82.1831 23.085 82.1831Z" fill="#2782EE"/>
<path d="M8.85954 83.4271C11.4165 83.4271 13.4905 81.2991 13.4905 78.6751C13.4905 76.0511 11.4165 73.9231 8.85954 73.9231C6.30154 73.9231 4.22754 76.0511 4.22754 78.6751C4.22754 81.2991 6.30154 83.4271 8.85954 83.4271Z" fill="white"/>
<path d="M8.43758 82.1831C8.99158 82.1831 9.44057 81.1611 9.44057 79.9021C9.44057 78.6421 8.99158 77.6201 8.43758 77.6201C7.88358 77.6201 7.43457 78.6421 7.43457 79.9021C7.43457 81.1611 7.88358 82.1831 8.43758 82.1831Z" fill="#2782EE"/>
<path d="M16.2363 81.2891C18.7463 81.2891 18.8783 81.8621 18.1453 82.3551C17.4113 82.8481 16.7403 83.2321 16.7693 83.4101C16.7983 83.5881 17.3763 84.1031 17.7783 84.7221C18.1793 85.3411 17.6292 85.6511 17.3882 85.4101C17.1472 85.1691 16.4023 84.4131 16.4023 84.4131C16.4023 84.4131 16.0013 84.9861 15.7033 85.3411C15.4053 85.6971 14.5563 85.4791 14.8663 84.9291C15.1753 84.3781 15.8293 83.8451 15.8293 83.5821C15.8293 83.3181 15.6453 83.1001 14.7863 82.4811C13.9263 81.8621 13.7943 81.2891 16.2363 81.2891Z" fill="white"/>
<path d="M34.3711 102.359C34.2801 102.357 34.1891 102.344 34.1011 102.319C33.8471 102.248 33.6301 102.079 33.4991 101.849C33.3691 101.62 33.3341 101.347 33.4021 101.092C33.9381 99.5369 34.8201 98.1239 35.9821 96.9589C37.0301 95.7939 38.2381 94.7829 39.5701 93.9559C39.6831 93.8639 39.8141 93.7979 39.9551 93.7619C40.0971 93.7269 40.2441 93.7219 40.3871 93.7489C40.5301 93.7759 40.6651 93.8329 40.7841 93.9179C40.9021 94.0019 41.0011 94.1119 41.0731 94.2379C41.1451 94.3639 41.1891 94.5049 41.2011 94.6499C41.2141 94.7949 41.1941 94.9409 41.1441 95.0779C41.0951 95.2149 41.0161 95.3389 40.9131 95.4419C40.8101 95.5449 40.6861 95.6249 40.5501 95.6759C39.4031 96.4119 38.3581 97.2959 37.4431 98.3059C36.5121 99.2389 35.7921 100.361 35.3341 101.597C35.2801 101.812 35.1561 102.003 34.9821 102.141C34.8081 102.279 34.5931 102.355 34.3711 102.359Z" fill="white"/>
<path d="M23.2272 140.023C22.9692 140.023 22.7222 139.923 22.5362 139.745C22.3502 139.566 22.2402 139.323 22.2302 139.065C22.0532 134.11 22.3602 129.15 23.1472 124.254C24.5572 116.419 26.3512 114.797 26.6952 114.55C26.9072 114.401 27.1702 114.339 27.4272 114.379C27.6842 114.419 27.9162 114.558 28.0732 114.765C28.2302 114.973 28.3002 115.233 28.2682 115.492C28.2372 115.75 28.1062 115.986 27.9042 116.15C27.8132 116.241 26.3512 117.783 25.1192 124.61C24.3732 129.359 24.0762 134.169 24.2302 138.974C24.2362 139.106 24.2162 139.237 24.1722 139.361C24.1272 139.485 24.0582 139.599 23.9692 139.697C23.8802 139.794 23.7732 139.873 23.6532 139.929C23.5342 139.985 23.4052 140.017 23.2732 140.023H23.2272Z" fill="white"/>
<path d="M37.5243 165.954C32.8993 165.954 29.2763 165.954 28.4113 165.954C28.1013 165.954 27.8373 165.954 27.5393 165.954C25.8663 165.954 24.4213 165.988 23.2633 164.538C23.0933 164.33 23.0123 164.064 23.0393 163.797C23.0653 163.53 23.1963 163.284 23.4043 163.114C23.6113 162.943 23.8783 162.862 24.1453 162.889C24.4123 162.915 24.6583 163.046 24.8283 163.254C25.3503 163.902 25.9293 163.93 27.5223 163.913C27.8093 163.913 28.0953 163.913 28.4283 163.913C31.0533 163.913 59.0703 163.913 63.3403 163.862C66.3613 163.81 67.1183 162.807 68.0003 161.638C68.2413 161.322 68.4883 160.996 68.7803 160.68C68.9613 160.485 69.2123 160.37 69.4783 160.359C69.7443 160.349 70.0033 160.445 70.1993 160.626C70.3943 160.807 70.5093 161.058 70.5203 161.324C70.5303 161.59 70.4343 161.849 70.2533 162.045C70.0303 162.285 69.8173 162.56 69.6003 162.847C68.6083 164.165 67.3703 165.805 63.3753 165.868C60.5033 165.936 46.9363 165.954 37.5243 165.954Z" fill="white"/>
<defs>
<linearGradient id="paint0_linear_598_174" x1="149.355" y1="14.5954" x2="95.6703" y2="107.607" gradientUnits="userSpaceOnUse">
<stop offset="0.6" stop-color="#2E34C9"/>
<stop offset="0.99" stop-color="#6245DD"/>
</linearGradient>
<linearGradient id="paint1_linear_598_174" x1="97.2246" y1="66.6525" x2="74.4236" y2="72.7645" gradientUnits="userSpaceOnUse">
<stop offset="0.07" stop-color="#0A31A9"/>
<stop offset="0.72" stop-color="#0F3FCE"/>
</linearGradient>
<linearGradient id="paint2_linear_598_174" x1="160.251" y1="86.3025" x2="111.919" y2="99.2574" gradientUnits="userSpaceOnUse">
<stop offset="0.07" stop-color="#0A31A9"/>
<stop offset="0.72" stop-color="#0F3FCE"/>
</linearGradient>
<linearGradient id="paint3_linear_598_174" x1="146.404" y1="108.41" x2="105.95" y2="119.253" gradientUnits="userSpaceOnUse">
<stop offset="0.07" stop-color="#0A31A9"/>
<stop offset="0.72" stop-color="#0F3FCE"/>
</linearGradient>
</defs>
</svg>
