<svg width="200" height="120" viewBox="0 0 200 120" fill="none" xmlns="http://www.w3.org/2000/svg">
<g clip-path="url(#clip0_23956_431265)">
<path d="M164.526 0.0266452C166.191 0.288023 166.385 5.85039 164.526 9.19838C162.667 12.5464 161.674 14.7784 162.42 18.9898C163.166 23.2012 162.861 25.5595 160.843 29.1542C158.826 32.7489 160.506 33.8531 160.843 36.8399C161.181 39.8266 160.065 44.6489 156.221 47.8736C152.376 51.0982 151.263 57.7883 151.263 61.5093C151.263 65.2303 154.238 72.7867 151.263 77.2507C148.288 81.7147 143.569 88.2932 142.711 92.9921C141.854 97.6911 137.255 110.596 137.255 110.596L129.745 110.563C131.371 106.739 131.551 102.455 130.253 98.5075C128.946 94.4782 127.217 87.6618 130.065 83.8233C132.914 79.9849 134.923 79.2125 133.481 73.6737C131.927 67.7089 130.065 62.8749 133.04 58.4021C136.015 53.9293 138.62 51.4624 137.874 46.2554C137.128 41.0484 136.142 37.7033 140.603 33.7356C145.064 29.768 144.062 27.7885 144.18 24.329C144.297 20.8694 146.791 17.3921 149.396 16.2762C152.001 15.1602 153.328 12.3261 153.695 7.99721C154.115 3.12501 162.171 -0.340459 164.526 0.0266452Z" fill="#0A40CF"/>
<path d="M160.843 36.8401C160.506 33.8651 158.826 32.7491 160.843 29.1544C162.861 25.5597 163.163 23.2044 162.42 18.99C161.677 14.7757 162.667 12.5466 164.526 9.19861C166.385 5.85062 166.206 0.288253 164.526 0.0268743C164.267 -0.00472631 164.004 -0.00472631 163.745 0.0268743C162.25 1.23098 160.388 3.07824 159.692 5.23976C158.453 9.08407 160.685 12.5554 156.717 17.2808C152.749 22.0061 150.89 23.2279 151.387 30.1705C151.883 37.1132 150.271 38.4759 145.933 44.053C141.595 49.63 141.842 51.119 142.835 57.5624C143.827 64.0058 144.068 67.9735 139.36 74.1731C134.653 80.3728 132.432 86.035 133.413 92.9924C134.08 97.6707 134.688 101.547 132.996 107.248C132.87 107.682 132.735 108.129 132.6 108.555C132.515 109.768 132.421 110.563 132.421 110.563L137.255 110.596C137.255 110.596 141.851 97.6942 142.711 92.9924C143.572 88.2905 148.291 81.712 151.263 77.2509C154.235 72.7899 151.263 65.2275 151.263 61.5095C151.263 57.7915 152.379 51.0955 156.221 47.8738C160.062 44.6521 161.181 39.8151 160.843 36.8401Z" fill="url(#paint0_linear_23956_431265)"/>
<path d="M130.366 110.596C130.366 110.596 136.244 88.8972 133.865 80.0811C131.487 71.265 126.97 71.401 129.089 64.1205C131.209 56.8401 134.983 51.5166 131.905 43.2611C128.827 35.0055 128.966 34.3057 131.484 30.3819C134.001 26.4581 134.983 24.3619 132.744 19.8808C130.505 15.3998 128.532 14.2821 128.539 8.82259C128.51 5.87338 128.694 2.92595 129.089 0.00317383C129.089 0.00317383 120.986 5.26364 120.426 10.617C119.865 15.9703 121.825 18.7664 118.044 22.4049C114.263 26.0435 115.391 28.8462 115.391 32.906C115.391 36.9658 111.613 38.5048 111.474 42.1433C111.334 45.7819 112.313 48.4453 114.412 53.7522C116.512 59.0591 115.208 62.555 112.031 68.1704C108.853 73.7857 106.993 73.5569 108.671 84.0911C110.349 94.6253 117.626 110.586 117.626 110.586L130.366 110.596Z" fill="#0D1E7A"/>
<path d="M124.625 15.4001C125.709 19.1978 127.862 20.9292 126.864 23.7983C125.948 26.4517 121.557 25.6192 121.225 29.2577C120.893 32.8963 123.371 35.1418 122.519 40.4586C121.819 44.8169 118.512 45.0259 119.865 49.9978C121.633 56.5186 124.204 59.6364 121.825 66.9135C119.447 74.1906 116.926 82.4528 116.784 90.5724C116.698 95.6703 120.691 104.629 123.68 110.593H130.366C130.366 110.593 136.244 88.8941 133.865 80.078C131.487 71.2619 126.97 71.4012 129.089 64.1208C131.209 56.8404 134.983 51.5169 131.905 43.2613C128.827 35.0058 128.967 34.3059 131.484 30.3821C134.001 26.4583 134.983 24.3621 132.744 19.8811C130.506 15.4001 128.532 14.2823 128.539 8.82283C128.51 5.87362 128.694 2.9262 129.089 0.00341797C129.089 0.00341797 123.281 10.6968 124.625 15.4001Z" fill="url(#paint1_linear_23956_431265)"/>
<path d="M136.087 110.596C136.087 110.596 135.591 102.167 140.302 94.4814C145.012 86.7957 145.259 82.085 148.731 68.9309C152.202 55.7769 155.424 49.3452 162.117 45.1426C168.81 40.94 169.059 39.4422 170.299 34.7315C171.538 30.0208 174.017 29.5245 176.745 28.2705C179.473 27.0164 179.975 23.3131 183.206 20.8344C186.437 18.3557 188.149 20.3557 187.652 24.3292C187.156 28.3028 185.42 29.2895 184.422 30.5289C183.423 31.7682 183.676 34.4936 183.676 36.9899C183.676 39.4862 183.926 39.4686 179.958 42.937C175.99 46.4054 175 47.8973 174.504 51.8621C174.008 55.8268 172.768 58.8047 168.801 61.7797C164.833 64.7548 164.34 65.9941 163.843 70.7048C163.347 75.4155 159.145 78.3905 155.661 84.0909C152.178 89.7913 151.952 90.5137 151.703 97.4564C151.453 104.399 145.503 110.596 145.503 110.596H136.087Z" fill="#02C8DC"/>
<path d="M183.685 36.9575C183.685 34.4759 183.438 31.7505 184.431 30.4964C185.423 29.2424 187.156 28.2645 187.661 24.2968C187.882 22.5347 187.661 21.1837 187.074 20.4202C185.236 22.3673 182.011 25.2101 181.462 28.2645C180.686 32.5728 179.529 33.8151 176.595 35.4538C173.474 37.1954 174.402 39.6065 173.28 41.9149C171.109 46.3465 166.916 46.9956 163.588 51.1806C160.261 55.3656 163.371 58.4228 156.927 65.1687C150.484 71.9146 149.985 73.151 149.985 78.8544C149.985 84.5577 152.217 88.5224 146.017 94.4725C139.817 100.422 140.302 101.421 140.543 109.356C140.557 109.773 140.56 110.185 140.557 110.596H145.503C145.503 110.596 151.456 104.396 151.703 97.4563C151.949 90.5165 152.199 89.7706 155.67 84.0673C159.142 78.3639 163.353 75.3918 163.849 70.6812C164.346 65.9705 164.842 64.7311 168.807 61.7561C172.772 58.7811 174.014 55.8061 174.51 51.8384C175.007 47.8708 175.996 46.3847 179.964 42.9134C183.932 39.442 183.685 39.445 183.685 36.9575Z" fill="url(#paint2_linear_23956_431265)"/>
<path d="M156.308 110.546C156.308 110.546 156.496 104.892 160.091 101.174C163.685 97.4561 165.483 97.3328 167.342 91.1331C169.201 84.9335 170.813 82.8278 175.027 79.1097C179.242 75.3917 180.728 71.3007 181.101 68.5724C181.474 65.844 182.463 61.5093 182.463 61.5093C182.463 61.5093 178.869 62.5225 178.002 65.1744C177.136 67.8264 176.017 69.565 170.317 71.797C164.616 74.029 158.44 80.1435 155.227 85.0598C152.396 89.3975 152.513 94.0347 151.967 97.6881C151.254 102.475 148.66 106.205 147.298 108.076C146.682 108.956 146.006 109.793 145.274 110.581L156.308 110.546Z" fill="#6245DD"/>
<path d="M178.992 68.5724C178.249 72.7867 176.513 73.7794 171.432 75.2683C166.352 76.7573 163.993 80.3491 162.622 84.6868C161.25 89.0245 161.741 91.3182 157.291 95.5971C154.061 98.6984 153.139 103.468 152.739 108.995C152.708 109.517 152.714 110.042 152.757 110.563L156.299 110.546C156.299 110.546 156.487 104.892 160.081 101.174C163.676 97.4561 165.473 97.3328 167.332 91.1331C169.192 84.9335 170.804 82.8278 175.018 79.1097C179.233 75.3917 180.719 71.3007 181.092 68.5724C181.465 65.844 182.454 61.5093 182.454 61.5093C182.454 61.5093 179.791 64.0438 178.992 68.5724Z" fill="url(#paint3_linear_23956_431265)"/>
<path d="M123.134 110.596C123.134 110.596 123.134 103.653 118.919 95.2245C114.705 86.7957 112.722 86.0527 111.48 76.878C110.238 67.7034 109.001 63.492 105.78 58.7813C102.558 54.0706 105.037 53.0779 102.308 49.1132C99.5801 45.1485 97.8474 42.4202 97.8474 42.4202C97.8474 42.4202 97.2894 46.5317 97.8474 49.0515C98.3907 51.5038 99.5184 51.2806 99.2394 54.8136C98.9604 58.3466 98.2057 59.2776 98.3114 63.6476C98.4171 68.0176 99.7974 70.0617 101.471 73.5007C103.145 76.9397 103.145 78.4287 103.424 87.8178C103.703 97.2068 103.982 99.3448 105.377 103.624C106.136 106.013 107.067 108.343 108.164 110.596H123.134Z" fill="url(#paint4_linear_23956_431265)"/>
<path d="M118.919 95.2242C114.705 86.7955 112.723 86.0525 111.48 76.8778C110.238 67.7031 109.002 63.4917 105.78 58.781C102.558 54.0703 105.037 53.0777 102.309 49.113C99.5803 45.1482 97.8475 42.4199 97.8475 42.4199V42.5139C97.965 43.3068 98.1177 44.3524 98.2851 45.5623C98.6581 48.2583 100.109 48.925 101.395 51.2804C102.508 53.3361 101.95 56.4874 101.486 58.9161C100.605 63.4829 102.044 64.2171 103.812 67.0981C105.58 69.9792 105.439 69.894 106.693 77.0452C108.749 88.7132 115.797 95.3593 116.546 105.773C116.69 107.773 116.84 109.394 116.987 110.607H123.154C123.154 110.607 123.134 103.653 118.919 95.2242Z" fill="#3F69CB"/>
<path d="M26.6029 82.494C36.2695 82.494 44.1059 79.7 44.1059 76.2534C44.1059 72.8069 36.2695 70.0129 26.6029 70.0129C16.9362 70.0129 9.09985 72.8069 9.09985 76.2534C9.09985 79.7 16.9362 82.494 26.6029 82.494Z" fill="white"/>
<path d="M15.6333 58.0001C15.6333 58.0001 17.3853 56.4477 18.2734 49.7391C18.5384 47.7633 18.6933 41.9324 17.0446 32.6181C16.5799 29.9918 16.6659 26.6013 19.1098 29.4411C21.5537 32.2808 25.6498 37.9499 27.3364 44.5863C29.023 51.2226 29.2743 59.907 29.2743 59.907L25.9527 71.4036L15.6333 58.0001Z" fill="url(#paint5_linear_23956_431265)"/>
<path d="M30.4755 50.8129C30.4755 50.8129 31.4221 47.7425 34.73 40.6243C38.0378 33.506 41.917 31.0484 41.2011 33.6024C40.344 36.6556 39.869 39.7534 39.363 45.6119C38.8501 51.6011 39.3114 60.7571 39.3114 60.7571L35.4046 77.6715C35.4046 77.6715 30.5857 62.5263 29.5806 58.475C28.5755 54.4236 30.4755 50.8129 30.4755 50.8129Z" fill="url(#paint6_linear_23956_431265)"/>
<path d="M23.7602 58.5675C23.7602 58.5675 22.7275 56.0134 17.5197 50.5302C12.3118 45.047 8.25012 42.2933 6.73561 41.357C5.22109 40.4208 4.8459 41.7357 5.88541 43.4223C6.92492 45.1089 8.3465 46.176 10.0469 50.6094C11.7473 55.0428 13.1689 64.0335 13.1689 64.0335L22.9513 80.2113C22.9513 80.2113 26.2522 71.5028 25.9528 68.8524C25.6533 66.202 23.7602 58.5675 23.7602 58.5675Z" fill="url(#paint7_linear_23956_431265)"/>
<path d="M23.76 64.244C23.76 64.244 27.0816 55.2292 27.1642 49.6358C27.2744 42.1665 26.524 40.473 28.4137 41.0306C30.3034 41.5882 32.3652 45.7256 33.7833 52.4101C35.2015 59.0947 35.2049 63.0014 35.3908 69.0561C35.5767 75.1107 33.267 78.2292 33.267 78.2292C33.267 78.2292 27.4499 69.149 25.5567 67.5415C23.6636 65.9341 23.76 64.244 23.76 64.244Z" fill="url(#paint8_linear_23956_431265)"/>
<path d="M9.10005 64.7152C6.17083 58.9462 2.38798 53.3322 0.684147 51.6008C-1.01969 49.8694 0.780525 49.0158 2.57729 50.1517C4.37406 51.2876 10.9037 55.0291 15.9119 62.2575C22.5311 71.8093 23.247 82.5899 23.247 82.5899H12.3769C12.3769 82.5899 11.8847 70.195 9.10005 64.7152Z" fill="url(#paint9_linear_23956_431265)"/>
<path d="M31.6081 82.5904C31.6081 82.5904 30.7579 71.9027 32.744 66.5124C34.7301 61.1221 40.974 54.1209 46.9289 52.2311C52.8837 50.3414 50.9974 53.1777 49.2006 54.4065C47.4039 55.6354 44.0926 58.0001 42.9601 62.6366C41.8277 67.2731 41.1462 72.5636 41.2012 75.5926C41.2563 78.6216 41.2012 81.9295 41.2012 81.9295L31.6081 82.5904Z" fill="url(#paint10_linear_23956_431265)"/>
<path d="M32.7437 87.8847C32.7437 87.8847 34.6369 77.2934 31.2327 69.349C27.8284 61.4047 24.0421 57.6218 21.3952 55.7184C18.7482 53.8149 17.7087 55.0575 19.5984 60.3514C21.4881 65.6453 21.8358 71.8962 21.6637 76.1472C21.3676 84.0984 20.2421 87.8709 20.2421 87.8709L32.7437 87.8847Z" fill="url(#paint11_linear_23956_431265)"/>
<path d="M26.6031 81.8778C35.5835 81.8778 42.9771 79.7402 43.9822 76.9866L39.4352 109.452L15.3578 109.504L9.31348 77.1484C10.563 79.8125 17.8154 81.8778 26.6031 81.8778Z" fill="#E7338E"/>
<mask id="mask0_23956_431265" style="mask-type:alpha" maskUnits="userSpaceOnUse" x="9" y="76" width="35" height="34">
<path d="M26.6031 81.8778C35.5835 81.8778 42.9771 79.7402 43.9822 76.9866L39.4352 109.452L15.3578 109.504L9.31348 77.1484C10.563 79.8125 17.8154 81.8778 26.6031 81.8778Z" fill="#59CEE7"/>
</mask>
<g mask="url(#mask0_23956_431265)">
<path d="M45.0462 81.5335C45.7115 81.5335 46.2509 80.9941 46.2509 80.3288C46.2509 79.6634 45.7115 79.124 45.0462 79.124C44.3808 79.124 43.8414 79.6634 43.8414 80.3288C43.8414 80.9941 44.3808 81.5335 45.0462 81.5335Z" fill="white"/>
<path d="M37.5495 80.2635C38.2148 80.2635 38.7542 79.7241 38.7542 79.0587C38.7542 78.3934 38.2148 77.854 37.5495 77.854C36.8841 77.854 36.3447 78.3934 36.3447 79.0587C36.3447 79.7241 36.8841 80.2635 37.5495 80.2635Z" fill="white"/>
<path d="M30.0524 78.9895C30.7177 78.9895 31.2571 78.4502 31.2571 77.7848C31.2571 77.1195 30.7177 76.5801 30.0524 76.5801C29.387 76.5801 28.8477 77.1195 28.8477 77.7848C28.8477 78.4502 29.387 78.9895 30.0524 78.9895Z" fill="white"/>
<path d="M22.5558 77.7166C23.2212 77.7166 23.7605 77.1772 23.7605 76.5119C23.7605 75.8465 23.2212 75.3071 22.5558 75.3071C21.8905 75.3071 21.3511 75.8465 21.3511 76.5119C21.3511 77.1772 21.8905 77.7166 22.5558 77.7166Z" fill="white"/>
<path d="M40.3031 87.2715C40.9685 87.2715 41.5078 86.7321 41.5078 86.0668C41.5078 85.4014 40.9685 84.8621 40.3031 84.8621C39.6378 84.8621 39.0984 85.4014 39.0984 86.0668C39.0984 86.7321 39.6378 87.2715 40.3031 87.2715Z" fill="white"/>
<path d="M32.806 85.9981C33.4714 85.9981 34.0108 85.4587 34.0108 84.7934C34.0108 84.128 33.4714 83.5886 32.806 83.5886C32.1407 83.5886 31.6013 84.128 31.6013 84.7934C31.6013 85.4587 32.1407 85.9981 32.806 85.9981Z" fill="white"/>
<path d="M25.3093 84.7244C25.9747 84.7244 26.5141 84.185 26.5141 83.5197C26.5141 82.8543 25.9747 82.3149 25.3093 82.3149C24.644 82.3149 24.1046 82.8543 24.1046 83.5197C24.1046 84.185 24.644 84.7244 25.3093 84.7244Z" fill="white"/>
<path d="M17.8125 83.4505C18.4779 83.4505 19.0172 82.9111 19.0172 82.2457C19.0172 81.5804 18.4779 81.041 17.8125 81.041C17.1472 81.041 16.6078 81.5804 16.6078 82.2457C16.6078 82.9111 17.1472 83.4505 17.8125 83.4505Z" fill="white"/>
<path d="M10.312 82.1805C10.9774 82.1805 11.5168 81.6411 11.5168 80.9757C11.5168 80.3104 10.9774 79.771 10.312 79.771C9.64668 79.771 9.1073 80.3104 9.1073 80.9757C9.1073 81.6411 9.64668 82.1805 10.312 82.1805Z" fill="white"/>
<path d="M43.0568 93.2642C43.7221 93.2642 44.2615 92.7248 44.2615 92.0595C44.2615 91.3941 43.7221 90.8547 43.0568 90.8547C42.3914 90.8547 41.8521 91.3941 41.8521 92.0595C41.8521 92.7248 42.3914 93.2642 43.0568 93.2642Z" fill="white"/>
<path d="M35.5565 91.9905C36.2219 91.9905 36.7613 91.4511 36.7613 90.7858C36.7613 90.1204 36.2219 89.5811 35.5565 89.5811C34.8912 89.5811 34.3518 90.1204 34.3518 90.7858C34.3518 91.4511 34.8912 91.9905 35.5565 91.9905Z" fill="white"/>
<path d="M28.0595 90.7171C28.7248 90.7171 29.2642 90.1777 29.2642 89.5123C29.2642 88.847 28.7248 88.3076 28.0595 88.3076C27.3941 88.3076 26.8547 88.847 26.8547 89.5123C26.8547 90.1777 27.3941 90.7171 28.0595 90.7171Z" fill="white"/>
<path d="M20.5625 89.4436C21.2279 89.4436 21.7672 88.9043 21.7672 88.2389C21.7672 87.5736 21.2279 87.0342 20.5625 87.0342C19.8972 87.0342 19.3578 87.5736 19.3578 88.2389C19.3578 88.9043 19.8972 89.4436 20.5625 89.4436Z" fill="white"/>
<path d="M13.0659 88.1731C13.7313 88.1731 14.2707 87.6338 14.2707 86.9684C14.2707 86.303 13.7313 85.7637 13.0659 85.7637C12.4006 85.7637 11.8612 86.303 11.8612 86.9684C11.8612 87.6338 12.4006 88.1731 13.0659 88.1731Z" fill="white"/>
<path d="M38.3102 98.9991C38.9756 98.9991 39.5149 98.4597 39.5149 97.7943C39.5149 97.129 38.9756 96.5896 38.3102 96.5896C37.6448 96.5896 37.1055 97.129 37.1055 97.7943C37.1055 98.4597 37.6448 98.9991 38.3102 98.9991Z" fill="white"/>
<path d="M30.8133 97.7249C31.4786 97.7249 32.018 97.1855 32.018 96.5202C32.018 95.8548 31.4786 95.3154 30.8133 95.3154C30.1479 95.3154 29.6085 95.8548 29.6085 96.5202C29.6085 97.1855 30.1479 97.7249 30.8133 97.7249Z" fill="white"/>
<path d="M23.3162 96.4546C23.9815 96.4546 24.5209 95.9153 24.5209 95.2499C24.5209 94.5845 23.9815 94.0452 23.3162 94.0452C22.6508 94.0452 22.1115 94.5845 22.1115 95.2499C22.1115 95.9153 22.6508 96.4546 23.3162 96.4546Z" fill="white"/>
<path d="M15.8196 95.1812C16.485 95.1812 17.0243 94.6418 17.0243 93.9765C17.0243 93.3111 16.485 92.7717 15.8196 92.7717C15.1542 92.7717 14.6149 93.3111 14.6149 93.9765C14.6149 94.6418 15.1542 95.1812 15.8196 95.1812Z" fill="white"/>
<path d="M8.32241 93.908C8.98776 93.908 9.52714 93.3686 9.52714 92.7033C9.52714 92.0379 8.98776 91.4985 8.32241 91.4985C7.65705 91.4985 7.11768 92.0379 7.11768 92.7033C7.11768 93.3686 7.65705 93.908 8.32241 93.908Z" fill="white"/>
<path d="M41.0639 104.992C41.7292 104.992 42.2686 104.452 42.2686 103.787C42.2686 103.122 41.7292 102.582 41.0639 102.582C40.3985 102.582 39.8591 103.122 39.8591 103.787C39.8591 104.452 40.3985 104.992 41.0639 104.992Z" fill="white"/>
<path d="M33.5669 103.718C34.2323 103.718 34.7716 103.178 34.7716 102.513C34.7716 101.847 34.2323 101.308 33.5669 101.308C32.9016 101.308 32.3622 101.847 32.3622 102.513C32.3622 103.178 32.9016 103.718 33.5669 103.718Z" fill="white"/>
<path d="M26.0698 102.445C26.7352 102.445 27.2746 101.905 27.2746 101.24C27.2746 100.575 26.7352 100.035 26.0698 100.035C25.4045 100.035 24.8651 100.575 24.8651 101.24C24.8651 101.905 25.4045 102.445 26.0698 102.445Z" fill="white"/>
<path d="M18.5731 101.174C19.2385 101.174 19.7779 100.635 19.7779 99.9696C19.7779 99.3043 19.2385 98.7649 18.5731 98.7649C17.9078 98.7649 17.3684 99.3043 17.3684 99.9696C17.3684 100.635 17.9078 101.174 18.5731 101.174Z" fill="white"/>
<path d="M11.0761 99.9007C11.7414 99.9007 12.2808 99.3613 12.2808 98.6959C12.2808 98.0306 11.7414 97.4912 11.0761 97.4912C10.4107 97.4912 9.87134 98.0306 9.87134 98.6959C9.87134 99.3613 10.4107 99.9007 11.0761 99.9007Z" fill="white"/>
<path d="M36.3206 110.726C36.9859 110.726 37.5253 110.186 37.5253 109.521C37.5253 108.856 36.9859 108.316 36.3206 108.316C35.6552 108.316 35.1158 108.856 35.1158 109.521C35.1158 110.186 35.6552 110.726 36.3206 110.726Z" fill="white"/>
<path d="M28.8235 109.456C29.4889 109.456 30.0282 108.916 30.0282 108.251C30.0282 107.586 29.4889 107.046 28.8235 107.046C28.1582 107.046 27.6188 107.586 27.6188 108.251C27.6188 108.916 28.1582 109.456 28.8235 109.456Z" fill="white"/>
<path d="M21.3268 108.182C21.9922 108.182 22.5315 107.643 22.5315 106.977C22.5315 106.312 21.9922 105.773 21.3268 105.773C20.6614 105.773 20.1221 106.312 20.1221 106.977C20.1221 107.643 20.6614 108.182 21.3268 108.182Z" fill="white"/>
<path d="M13.8297 106.909C14.4951 106.909 15.0345 106.369 15.0345 105.704C15.0345 105.039 14.4951 104.499 13.8297 104.499C13.1644 104.499 12.625 105.039 12.625 105.704C12.625 106.369 13.1644 106.909 13.8297 106.909Z" fill="white"/>
<path d="M9.08339 111.627C9.74875 111.627 10.2881 111.088 10.2881 110.423C10.2881 109.757 9.74875 109.218 9.08339 109.218C8.41804 109.218 7.87866 109.757 7.87866 110.423C7.87866 111.088 8.41804 111.627 9.08339 111.627Z" fill="white"/>
</g>
<path d="M94.3823 88.946H77.9027V104.978H94.3823V88.946Z" fill="#39AADA"/>
<path d="M87.4099 91.5261H84.8748C83.4906 91.5261 82.3685 92.6482 82.3685 94.0324V99.7451C82.3685 101.129 83.4906 102.251 84.8748 102.251H87.4099C88.7941 102.251 89.9162 101.129 89.9162 99.7451V94.0324C89.9162 92.6482 88.7941 91.5261 87.4099 91.5261Z" fill="white"/>
<path d="M104.97 104.838H67.3178C66.1667 104.838 65.2335 105.771 65.2335 106.922V108.032C65.2335 109.183 66.1667 110.116 67.3178 110.116H104.97C106.121 110.116 107.054 109.183 107.054 108.032V106.922C107.054 105.771 106.121 104.838 104.97 104.838Z" fill="#59CEE7"/>
<path d="M30.1997 25.0549L30.1997 81.2357C30.1997 85.4077 33.5818 88.7898 37.7538 88.7898H134.534C138.706 88.7898 142.088 85.4077 142.088 81.2357V25.0549C142.088 20.8829 138.706 17.5009 134.534 17.5009H37.7538C33.5818 17.5009 30.1997 20.8829 30.1997 25.0549Z" fill="#59CEE7"/>
<path d="M34.7521 24.9783L34.7521 81.3157C34.7521 83.0195 36.1332 84.4006 37.837 84.4006H134.454C136.158 84.4006 137.539 83.0195 137.539 81.3157V24.9783C137.539 23.2745 136.158 21.8933 134.454 21.8933L37.837 21.8933C36.1332 21.8933 34.7521 23.2745 34.7521 24.9783Z" fill="white"/>
<mask id="mask1_23956_431265" style="mask-type:alpha" maskUnits="userSpaceOnUse" x="34" y="21" width="104" height="64">
<path d="M34.7522 24.978L34.7522 81.3155C34.7522 83.0192 36.1334 84.4004 37.8371 84.4004H134.454C136.158 84.4004 137.539 83.0192 137.539 81.3155V24.978C137.539 23.2743 136.158 21.8931 134.454 21.8931L37.8371 21.8931C36.1334 21.8931 34.7522 23.2743 34.7522 24.978Z" fill="white"/>
</mask>
<g mask="url(#mask1_23956_431265)">
<path d="M74.9907 50.7942C74.9907 50.7942 76.6435 52.5092 78.2404 56.7282C79.8373 60.9473 79.3215 60.8354 80.8066 61.7488C82.2917 62.6622 89.3069 65.7442 92.8424 68.8199C96.378 71.8957 99.404 77.3823 99.578 80.4021C99.752 83.422 99.578 90.5552 99.578 90.5552H41.8409C41.8409 90.5552 45.2087 78.8052 46.408 74.6421C47.6072 70.479 52.0375 67.223 55.3804 65.943C58.7234 64.663 61.9793 63.4576 62.6069 63.091C63.2345 62.7244 63.3525 62.5193 63.4084 61.3822C63.4644 60.2451 63.3525 57.1445 63.5886 56.3678C63.8248 55.5911 72.5363 49.8808 74.9907 50.7942Z" fill="#6245DD"/>
<path d="M54.0943 54.0623C54.552 54.3951 55.0386 54.6862 55.5483 54.9322C56.2316 55.1566 56.948 55.2637 57.6671 55.2491L56.5052 55.9512C57.4378 56.3695 58.4672 56.5242 59.4815 56.3986C61.3456 56.237 63.3961 54.5718 63.3961 54.5718L76.3142 50.1352C76.3142 50.1352 77.3333 50.4211 79.0669 49.371C80.8005 48.3209 82.6646 44.8599 82.59 41.6474C82.5154 38.435 81.5834 33.7561 75.929 29.7794C73.7977 28.2757 71.9523 27.7413 67.8513 26.9149C63.7503 26.0885 56.9464 28.1576 53.8706 34.8249C50.7949 41.4921 51.8387 45.2141 53.2492 47.7927C54.6597 50.3714 55.8217 50.8995 55.5172 52.3846C55.4577 52.7682 55.2933 53.1279 55.0422 53.4239C54.7911 53.72 54.463 53.9409 54.0943 54.0623V54.0623Z" fill="#FF0653"/>
<path d="M79.4027 42.4483C79.5615 42.919 79.6031 43.4214 79.5241 43.9118C79.4451 44.4023 79.2477 44.8661 78.9491 45.2631C78.5114 45.8915 77.8777 46.3569 77.1471 46.5866C77.1471 46.5866 76.0535 52.8002 74.1584 55.6088C72.2632 58.4173 70.2127 59.2686 68.7463 59.1071C67.2799 58.9455 64.9684 58.4111 62.5886 55.4597C61.2255 53.8172 60.104 51.9885 59.2581 50.0289C58.5547 50.2235 57.8116 50.2235 57.1082 50.0289C56.478 49.8108 55.9047 49.454 55.4305 48.9851C55.4305 48.9851 55.3808 47.6864 56.8224 46.2386C58.2639 44.7909 62.0977 42.9703 64.0923 39.4037C65.4013 36.8867 66.3867 34.2144 67.0251 31.4502C68.7158 33.8738 70.6184 36.1424 72.7106 38.2293C74.6486 40.0537 76.921 41.4863 79.4027 42.4483V42.4483Z" fill="#F4A17D"/>
<path d="M70.8983 43.0122L70.8923 43.0137C70.5065 43.1119 70.2733 43.5042 70.3714 43.8899L70.3729 43.896C70.471 44.2818 70.8633 44.515 71.2491 44.4169L71.2552 44.4153C71.641 44.3172 71.8742 43.9249 71.776 43.5391L71.7745 43.5331C71.6764 43.1473 71.2841 42.9141 70.8983 43.0122Z" fill="black"/>
<path d="M62.724 44.4966L62.718 44.4981C62.3322 44.5962 62.0989 44.9885 62.1971 45.3743L62.1986 45.3803C62.2967 45.7661 62.689 45.9993 63.0748 45.9012L63.0808 45.8997C63.4666 45.8016 63.6998 45.4093 63.6017 45.0235L63.6002 45.0174C63.5021 44.6316 63.1098 44.3985 62.724 44.4966Z" fill="black"/>
<path d="M64.5327 51.4583C64.9652 52.0932 65.5291 52.6276 66.1863 53.0254C66.8435 53.4231 67.5786 53.6749 68.3417 53.7635C70.7836 53.9313 71.7654 50.0664 71.7654 50.0664C70.4446 50.1076 69.1293 50.2552 67.8322 50.5076C66.7066 50.7269 65.6025 51.0451 64.5327 51.4583V51.4583Z" fill="#FF0653"/>
<path d="M73.2136 41.7284C72.5163 41.3987 71.7685 41.1887 71.0015 41.107C70.2698 41.0796 69.5449 41.256 68.9076 41.6165C68.6031 41.747 68.7833 41.9583 69.3487 41.7719C69.8784 41.5941 70.4379 41.5223 70.9953 41.5606C71.6736 41.6169 72.3408 41.7674 72.9775 42.008C73.5554 42.1944 73.6672 42.0577 73.2136 41.7284Z" fill="black"/>
<path d="M59.6493 44.3006C60.0143 43.6539 60.5643 43.131 61.2285 42.7989C61.8927 42.4667 62.641 42.3406 63.3774 42.4365C63.9988 42.5049 63.7316 42.6478 63.3774 42.7223C62.7748 42.7786 62.1829 42.9187 61.619 43.1386C60.9917 43.4112 60.4364 43.826 59.9972 44.3503C59.612 44.7977 59.4318 44.6237 59.6493 44.3006Z" fill="black"/>
<path d="M58.7234 48.7865C57.9691 48.786 57.2235 48.625 56.5362 48.3143C55.716 47.842 55.7533 47.7426 55.7533 47.7426C55.9209 47.338 56.1609 46.9674 56.4617 46.649C56.7457 46.2428 57.1228 45.9104 57.5615 45.6797L58.7234 48.7865Z" fill="#E67A76"/>
<path d="M77.1964 45.2887C77.747 45.0159 78.1718 44.5421 78.3832 43.9652C78.5225 43.66 78.5946 43.3283 78.5946 42.9928C78.5946 42.6573 78.5225 42.3256 78.3832 42.0204L76.7677 41.1877L77.0473 45.2887" fill="#E67A76"/>
<path d="M66.0805 44.9157C65.9362 45.973 65.6886 47.0136 65.3411 48.0225C65.1609 48.5569 65.8257 48.8303 66.5838 48.7371C66.9285 48.7068 67.2709 48.6549 67.6091 48.5817C67.9881 48.4823 67.8576 48.0722 67.7147 47.7118L66.4036 43.5176C66.4036 43.5176 66.1923 42.5856 66.1302 43.4368C66.1053 43.9277 66.1302 44.4994 66.0805 44.9157Z" fill="#E67A76"/>
<path d="M64.5327 51.4583C65.8365 51.586 67.151 51.5547 68.4473 51.3651C69.6156 51.1123 70.7358 50.6738 71.7654 50.0664C71.7654 50.0664 70.6034 52.0237 68.7642 52.4524C66.6143 52.9495 64.5327 51.4583 64.5327 51.4583Z" fill="white"/>
<path d="M73.5428 49.3646C74.7199 49.3646 75.6741 48.4104 75.6741 47.2333C75.6741 46.0563 74.7199 45.1021 73.5428 45.1021C72.3657 45.1021 71.4115 46.0563 71.4115 47.2333C71.4115 48.4104 72.3657 49.3646 73.5428 49.3646Z" fill="#F08A7B"/>
<path d="M62.1632 51.463C63.1742 51.2059 63.7689 50.1131 63.4914 49.0222C63.214 47.9314 62.1695 47.2555 61.1584 47.5127C60.1474 47.7698 59.5527 48.8626 59.8301 49.9535C60.1076 51.0443 61.1521 51.7202 62.1632 51.463Z" fill="#F08A7B"/>
</g>
<path opacity="0.8" d="M92.1539 84.4006V21.8933H135.487C135.756 21.8933 136.022 21.9463 136.271 22.0493C136.52 22.1523 136.745 22.3032 136.936 22.4935C137.126 22.6838 137.277 22.9097 137.38 23.1583C137.483 23.4069 137.536 23.6734 137.536 23.9425V82.3483C137.536 82.6174 137.483 82.8838 137.38 83.1325C137.277 83.3811 137.126 83.607 136.936 83.7973C136.745 83.9875 136.52 84.1385 136.271 84.2415C136.022 84.3444 135.756 84.3974 135.487 84.3974H92.1539V84.4006Z" fill="white"/>
<path d="M102.934 66.7598H124.448C126.207 66.7598 127.632 65.3342 127.632 63.5757V62.6583C127.632 60.8998 126.207 59.4742 124.448 59.4742H102.934C101.175 59.4742 99.7495 60.8998 99.7495 62.6583V63.5757C99.7495 65.3342 101.175 66.7598 102.934 66.7598Z" fill="#D0EFF4"/>
<path d="M124.844 66.7625H132.251L124.844 64.4512V66.7625Z" fill="#D0EFF4"/>
<path d="M129.067 70.0715H107.553C105.794 70.0715 104.369 71.4971 104.369 73.2556V74.173C104.369 75.9315 105.794 77.3571 107.553 77.3571H129.067C130.826 77.3571 132.251 75.9315 132.251 74.173V73.2556C132.251 71.4971 130.826 70.0715 129.067 70.0715Z" fill="#59CEE7"/>
<path d="M107.157 70.0715H99.7496L107.157 72.3796V70.0715Z" fill="#59CEE7"/>
<path d="M129.067 48.8826H107.553C105.794 48.8826 104.369 50.3081 104.369 52.0666V52.9841C104.369 54.7426 105.794 56.1681 107.553 56.1681H129.067C130.826 56.1681 132.251 54.7426 132.251 52.9841V52.0666C132.251 50.3081 130.826 48.8826 129.067 48.8826Z" fill="#59CEE7"/>
<path d="M107.157 48.8828H99.7496L107.157 51.1909V48.8828Z" fill="#59CEE7"/>
<path d="M118.547 33.9996C120.434 33.9996 121.964 32.4696 121.964 30.5822C121.964 28.6948 120.434 27.1648 118.547 27.1648C116.66 27.1648 115.13 28.6948 115.13 30.5822C115.13 32.4696 116.66 33.9996 118.547 33.9996Z" fill="#246AFD"/>
<path d="M117.655 29.0959V32.0274L120.085 30.5633L117.655 29.0959Z" fill="white"/>
<path d="M128.835 33.9805C130.722 33.9805 132.252 32.4505 132.252 30.5631C132.252 28.6758 130.722 27.1458 128.835 27.1458C126.947 27.1458 125.417 28.6758 125.417 30.5631C125.417 32.4505 126.947 33.9805 128.835 33.9805Z" fill="#FF0653"/>
<path d="M129.982 29.5051H127.741V31.7461H129.982V29.5051Z" fill="white"/>
<path d="M175.377 109.724H8.6935C6.1205 109.724 4.03467 112.024 4.03467 114.862C4.03467 117.7 6.1205 120 8.6935 120H175.377C177.95 120 180.036 117.7 180.036 114.862C180.036 112.024 177.95 109.724 175.377 109.724Z" fill="#246AFD"/>
</g>
<defs>
<linearGradient id="paint0_linear_23956_431265" x1="141.563" y1="53.442" x2="156.92" y2="57.5565" gradientUnits="userSpaceOnUse">
<stop offset="0.07" stop-color="#0A31A9"/>
<stop offset="0.72" stop-color="#0F3FCE"/>
</linearGradient>
<linearGradient id="paint1_linear_23956_431265" x1="116.784" y1="55.2981" x2="134.429" y2="55.2981" gradientUnits="userSpaceOnUse">
<stop offset="0.35" stop-color="#030C67"/>
<stop offset="0.72" stop-color="#0D1E7A"/>
</linearGradient>
<linearGradient id="paint2_linear_23956_431265" x1="156.176" y1="61.9558" x2="169.435" y2="68.1408" gradientUnits="userSpaceOnUse">
<stop offset="0.07" stop-color="#0784C0"/>
<stop offset="0.7" stop-color="#02C8DC"/>
</linearGradient>
<linearGradient id="paint3_linear_23956_431265" x1="162.117" y1="83.4739" x2="172.578" y2="88.3519" gradientUnits="userSpaceOnUse">
<stop offset="0.07" stop-color="#2E34C9"/>
<stop offset="0.72" stop-color="#6245DD"/>
</linearGradient>
<linearGradient id="paint4_linear_23956_431265" x1="95.5126" y1="83.4918" x2="114.396" y2="74.6842" gradientUnits="userSpaceOnUse">
<stop offset="0.35" stop-color="#3F69CB"/>
<stop offset="0.72" stop-color="#2A48B4"/>
</linearGradient>
<linearGradient id="paint5_linear_23956_431265" x1="22.4624" y1="71.3898" x2="22.4624" y2="28.3671" gradientUnits="userSpaceOnUse">
<stop offset="0.48" stop-color="#0A31A9"/>
<stop offset="0.72" stop-color="#0F3FCE"/>
</linearGradient>
<linearGradient id="paint6_linear_23956_431265" x1="40.8844" y1="76.7043" x2="33.3462" y2="33.9466" gradientUnits="userSpaceOnUse">
<stop offset="0.55" stop-color="#0A31A9"/>
<stop offset="0.83" stop-color="#0F3FCE"/>
</linearGradient>
<linearGradient id="paint7_linear_23956_431265" x1="7.94034" y1="71.5682" x2="20.7243" y2="49.4287" gradientUnits="userSpaceOnUse">
<stop offset="0.54" stop-color="#0A31A9"/>
<stop offset="0.78" stop-color="#0F3FCE"/>
</linearGradient>
<linearGradient id="paint8_linear_23956_431265" x1="24.8236" y1="75.1658" x2="36.2135" y2="43.8737" gradientUnits="userSpaceOnUse">
<stop offset="0.43" stop-color="#2E34C9"/>
<stop offset="0.67" stop-color="#6245DD"/>
</linearGradient>
<linearGradient id="paint9_linear_23956_431265" x1="4.794" y1="78.2116" x2="16.3938" y2="58.1236" gradientUnits="userSpaceOnUse">
<stop offset="0.39" stop-color="#2E34C9"/>
<stop offset="0.72" stop-color="#6245DD"/>
</linearGradient>
<linearGradient id="paint10_linear_23956_431265" x1="45.9444" y1="68.9012" x2="33.5219" y2="64.3817" gradientUnits="userSpaceOnUse">
<stop offset="0.36" stop-color="#2E34C9"/>
<stop offset="0.75" stop-color="#6245DD"/>
</linearGradient>
<linearGradient id="paint11_linear_23956_431265" x1="31.6629" y1="88.5111" x2="14.0119" y2="57.942" gradientUnits="userSpaceOnUse">
<stop offset="0.32" stop-color="#2E34C9"/>
<stop offset="0.64" stop-color="#6245DD"/>
</linearGradient>
<clipPath id="clip0_23956_431265">
<rect width="200" height="120" fill="white"/>
</clipPath>
</defs>
</svg>
