<svg width="558" height="320" viewBox="0 0 558 320" fill="none" xmlns="http://www.w3.org/2000/svg">
<path d="M150.048 95.832C153.343 82.6494 157.156 61.5186 149.143 41.4863C141.13 21.454 115.346 0 115.346 0C115.346 0 110.694 4.65267 111.34 17.7706C111.986 30.8885 117.22 58.2229 117.091 63.2633C116.962 66.8175 124.07 103.651 128.271 124.911C129.24 129.758 138.48 140.485 140.613 135.961C145.201 126.397 148.044 104.039 150.048 95.832Z" fill="#0D1E7A"/>
<path d="M104.813 78.1263C104.813 78.1263 94.8616 70.2426 85.4271 66.947C75.9925 63.6513 68.5612 64.556 68.5612 64.556C68.5612 64.556 72.503 79.4187 74.2477 83.4252C75.9925 87.4316 77.3495 89.6933 77.3495 89.6933L85.6209 87.6901L80.2574 93.6998C80.2574 93.6998 80.9682 100.55 89.1104 107.981C97.2525 115.412 105.201 120.13 116.897 124.782C124.328 127.755 130.338 131.89 133.698 134.475C134.603 135.186 135.896 134.281 135.573 133.118C133.505 126.139 128.593 111.147 121.938 100.097C112.891 85.2345 104.813 78.1263 104.813 78.1263Z" fill="#0D1E7A"/>
<path d="M139.514 165.104C140.354 165.686 141.518 165.298 141.97 164.329C144.684 158.061 153.731 136.348 153.925 125.169C154.054 116.768 152.503 109.595 151.34 105.46C150.952 103.973 149.013 103.715 148.238 105.007L146.493 108.044C145.718 109.401 143.715 109.014 143.391 107.463C141.711 98.8684 137.059 79.87 126.461 65.1365C109.013 40.9039 101.453 36.7682 90.9845 31.1462C83.747 27.269 78.8357 26.2351 76.5094 25.912C75.6047 25.7827 74.8293 26.4289 74.6355 27.3336C74.1831 30.1123 73.4076 36.2512 74.5708 41.5501C76.1863 48.9168 78.8357 54.8619 79.7404 56.8005C79.9343 57.2528 80.322 57.5759 80.7097 57.7052L83.4884 58.6745C85.1686 59.2561 84.9747 61.8409 83.1653 62.0994C82.0022 62.2932 81.356 63.5856 81.9376 64.6842L92.9876 85.4273C93.3753 86.1382 94.2155 86.5259 94.9909 86.2674C96.7356 85.6858 99.902 85.0396 102.551 86.9782C104.749 88.5291 105.782 90.7908 106.235 92.4709C106.558 93.6341 105.718 94.7327 104.555 94.7327L102.293 94.6034C101.194 94.5388 100.354 95.6373 100.548 96.7359C101.13 99.4499 102.293 104.49 104.232 111.082C107.204 121.227 109.337 132.148 115.476 142.164C120.71 150.629 134.474 161.744 139.514 165.104Z" fill="#0A40CF"/>
<path d="M153.214 187.334C155.863 179.838 166.332 157.609 167.818 148.82C170.274 134.022 174.41 130.21 182.487 118.643C188.174 110.436 193.473 98.481 193.473 98.481L176.542 99.7087L191.405 89.0464L184.103 87.3663L191.922 83.9414C191.922 83.9414 197.35 65.7831 198.384 61.195C199.418 56.607 199.03 55.2499 199.03 55.2499L188.949 57.8994C188.949 57.8994 194.894 54.6684 197.414 53.1175C199.935 51.5666 202.196 50.985 202.196 50.985C202.196 50.985 208.788 36.5747 207.754 24.8784C206.72 13.1821 205.492 7.49549 204.523 3.81213C203.553 0.128772 202.455 1.1627 198.965 3.23055C195.476 5.2984 192.762 8.01246 187.98 11.5666C184.49 14.1514 180.225 17.0593 177.124 20.678C171.437 27.2693 170.791 31.7281 168.594 35.9931C166.397 40.3226 163.424 42.4551 163.553 43.7475C163.683 45.0399 164.458 51.6312 164.458 51.6312L161.809 46.5908C161.809 46.5908 156.574 53.5698 154.959 64.6845C153.343 75.7992 150.177 86.0739 148.497 107.916C146.041 137.835 153.214 187.334 153.214 187.334Z" fill="url(#paint0_linear_15015_287758)"/>
<path d="M231.081 49.8223C231.081 49.8223 207.818 55.832 193.602 67.1405C179.385 78.4491 167.883 94.7334 163.812 109.015C157.027 132.666 157.22 144.039 156.962 153.99C156.897 157.157 158.125 162.391 159.611 167.237C160.516 170.21 164.523 170.016 165.104 166.979C166.332 160.452 172.988 154.313 177.059 147.205C185.395 132.536 194.377 122.326 201.55 114.766C208.723 107.205 208.012 105.46 208.012 105.46L198.642 105.202L200.968 103.586L211.631 97.706C211.631 97.706 221.065 85.945 221.324 81.2924C221.582 76.6397 221.195 75.4765 221.195 75.4765L216.671 73.7964L222.035 70.0484L231.081 49.8223Z" fill="#0A40CF"/>
<path d="M79.8696 135.769L90.7259 212.731C92.5353 225.72 107.075 235.413 124.393 235.155L150.112 234.832C167.366 234.638 181.711 224.557 183.392 211.633L193.408 134.282L79.8696 135.769Z" fill="#FF0653"/>
<path d="M210.661 56.3494V113.28C210.661 122.004 217.705 129.112 226.493 129.112H311.146C313.214 129.112 314.571 131.18 313.86 133.118L305.524 154.185L337.382 133.312C341.518 130.598 346.3 129.177 351.211 129.177H353.86C362.584 129.177 369.692 122.133 369.692 113.345V56.414C369.692 47.6903 362.648 40.582 353.86 40.582H226.493C217.705 40.582 210.661 47.6257 210.661 56.3494Z" fill="#D2EBFF"/>
<path d="M323.295 65.2031H245.169V111.536H323.295V65.2031Z" fill="#82BCFF"/>
<path d="M284.264 94.3469L245.169 65.2031H323.295L284.264 94.3469Z" fill="#97D0FF"/>
<path d="M323.295 89.5646C332.895 89.5646 340.678 81.782 340.678 72.1817C340.678 62.5814 332.895 54.7988 323.295 54.7988C313.695 54.7988 305.912 62.5814 305.912 72.1817C305.912 81.782 313.695 89.5646 323.295 89.5646Z" fill="white"/>
<path d="M323.295 83.232C329.398 83.232 334.345 78.2847 334.345 72.1819C334.345 66.0791 329.398 61.1318 323.295 61.1318C317.192 61.1318 312.245 66.0791 312.245 72.1819C312.245 78.2847 317.192 83.232 323.295 83.232Z" fill="#FF0653"/>
<path d="M95.3142 319.936H328.917L283.166 169.048C281.098 162.198 275.54 157.61 269.337 157.61L73.4079 151.342C54.7973 151.342 49.6276 169.436 53.0525 180.679L95.3142 319.936Z" fill="white"/>
<path d="M105.201 319.936H347.14L299.515 162.973C297.382 155.865 291.631 151.147 285.169 151.147H75.5403C65.0072 151.147 57.7051 163.361 61.1946 174.992L105.201 319.936Z" fill="#246AFD"/>
<path d="M121.291 312.117H327.689C331.825 312.117 335.831 310.63 333.311 302.747L292.665 168.595C290.338 159.677 287.431 157.609 279.353 157.609H84.5226C74.7649 157.609 64.684 160.388 71.2107 179.774L107.98 301.131C111.34 312.117 115.346 312.117 121.291 312.117Z" fill="white"/>
<path d="M126.655 305.591H324.006C330.145 305.591 327.56 300.938 325.88 295.187L289.175 173.054C287.431 167.303 285.815 162.65 279.676 162.65H83.6826C77.5436 162.65 73.9249 167.303 75.6696 173.054L112.374 295.187C114.119 300.938 120.516 305.591 126.655 305.591Z" fill="#82BCFF"/>
<path d="M242.842 305.591H324.006C330.144 305.591 327.56 300.938 325.88 295.187L289.175 173.054C287.43 167.303 285.815 162.65 279.676 162.65H195.799L242.842 305.591Z" fill="#D2EBFF"/>
<path d="M213.117 179.388H267.269C268.884 179.388 269.854 178.16 269.401 176.609L269.337 176.415C268.885 174.865 267.14 173.637 265.524 173.637H211.372C209.757 173.637 208.788 174.865 209.24 176.415L209.304 176.609C209.757 178.16 211.502 179.388 213.117 179.388Z" fill="white"/>
<path d="M253.698 294.476H291.631C294.151 294.476 295.637 292.538 294.926 290.147L294.086 287.239C293.375 284.848 290.726 282.909 288.206 282.909H250.274C247.754 282.909 246.267 284.848 246.978 287.239L247.818 290.147C248.529 292.602 251.178 294.476 253.698 294.476Z" fill="white"/>
<path d="M227.075 216.997H290.08C292.6 216.997 294.086 215.058 293.376 212.667L292.535 209.759C291.825 207.368 289.175 205.43 286.655 205.43H223.65C221.13 205.43 219.644 207.368 220.355 209.759L221.195 212.667C221.905 215.058 224.555 216.997 227.075 216.997Z" fill="white"/>
<path d="M221.453 199.421H284.458C286.978 199.421 288.464 197.482 287.754 195.091L286.913 192.183C286.203 189.792 283.553 187.854 281.033 187.854H218.028C215.508 187.854 214.022 189.792 214.733 192.183L215.573 195.091C216.283 197.547 218.868 199.421 221.453 199.421Z" fill="white"/>
<path d="M233.02 234.444H295.573C298.093 234.444 299.579 232.505 298.868 230.114L298.028 227.207C297.317 224.816 294.668 222.877 292.148 222.877H229.531C227.01 222.877 225.524 224.816 226.235 227.207L227.075 230.114C227.85 232.505 230.435 234.444 233.02 234.444Z" fill="white"/>
<path d="M355.023 138.224C355.023 138.224 348.367 158.385 347.915 161.422C347.398 164.524 355.863 168.66 355.863 168.66L355.023 138.224Z" fill="#E5897D"/>
<path d="M443.036 227.786C439.999 190.5 438.254 176.025 441.227 160.387C444.264 144.749 459.579 123.618 449.951 110.371C440.322 97.1237 416.542 84.5873 391.857 85.1689C367.172 85.7505 362.972 97.1883 358.125 109.272C353.279 121.292 355.088 156.833 355.088 170.08C355.088 183.327 356.38 207.624 362.067 206.978C372.212 205.815 374.862 209.434 375.96 215.25C377.059 220.742 376.154 227.851 376.154 227.851H443.036V227.786Z" fill="#F1A17E"/>
<path d="M404.135 196.51C400.322 189.402 393.925 171.825 392.697 166.397C391.469 160.969 393.925 162.197 398.384 151.922C402.907 141.712 399.87 135.702 392.374 132.665C384.878 129.628 378.868 136.865 377.059 145.331C375.25 153.731 375.25 157.35 377.059 167.625C378.868 177.835 379.514 189.531 375.702 197.996C371.889 206.462 361.615 210.662 355.282 205.815C349.014 200.969 351.211 195.605 352.891 187.98C353.989 182.81 355.282 172.665 355.67 170.016C356.187 166.009 361.744 177.253 365.04 174.216C368.335 171.179 371.372 167.625 371.954 160.969C372.535 154.378 373.182 145.912 372.859 138.998C372.536 132.084 369.434 130.985 371.372 113.15C372.019 107.14 361.421 109.854 358.707 109.208C353.537 107.915 345.912 98.9333 345.912 88.4001C345.912 78.4486 349.466 68.4971 349.466 68.4971C349.466 68.4971 356.574 77.6085 367.754 78.7071C376.542 79.5471 397.608 73.1497 410.468 74.3129C447.883 77.7378 459.256 93.182 458.028 98.0286C456.801 102.875 458.61 98.0286 460.419 107.334C462.229 116.639 467.463 135.056 457.705 160.323C449.305 182.1 444.652 181.647 440.71 194.701C439.095 199.87 406.397 200.646 404.135 196.51Z" fill="#4169CC"/>
<path d="M381.195 145.201C381.582 141.647 384.684 135.831 389.789 137.834C394.636 139.773 395.605 142.681 391.534 151.275C390.241 153.925 386.752 156.251 382.939 156.832C380.742 157.156 380.548 154.183 380.548 152.18C380.548 150.37 380.936 147.979 381.195 145.201Z" fill="#DD623D"/>
<path d="M355.023 132.02C355.023 132.02 356.833 132.343 359.87 134.346C362.907 136.349 362.132 138.805 359.676 137.835C357.22 136.931 356.187 137.9 354.959 137.189C353.731 136.478 353.408 132.666 355.023 132.02Z" fill="#4169CC"/>
<path d="M540.548 319.936C535.12 297.642 529.628 278.967 523.101 269.338C517.802 261.519 504.619 257.965 491.178 252.796C472.632 245.687 459.967 238.256 457.511 236.834C453.311 234.443 454.474 222.424 452.923 219.968C451.372 217.513 374.733 219.322 370.274 219.968C365.815 220.615 367.237 229.597 361.485 234.443C355.734 239.225 335.637 241.358 306.106 251.891C275.476 262.812 266.946 274.185 260.613 285.881C258.739 289.435 254.733 302.876 250.08 319.936H540.548Z" fill="#246AFD"/>
<path d="M458.998 238.644C458.998 238.644 451.243 246.915 411.695 248.207C372.794 249.5 355.863 238.644 355.863 238.644C355.863 238.644 372.794 253.894 410.403 253.894C454.409 253.959 458.998 238.644 458.998 238.644Z" fill="#0353E2"/>
<path d="M206.978 290.598H64.361C63.6502 290.598 62.8747 290.016 62.6162 289.305L0.77453 92.6655C0.516048 91.9546 0.968406 91.373 1.67923 91.373H144.296C145.007 91.373 145.783 91.9546 146.041 92.6655L207.883 289.305C208.141 290.016 207.754 290.598 206.978 290.598Z" fill="#D2EBFF"/>
<path d="M146.041 92.6655C145.783 91.9546 145.072 91.373 144.296 91.373H6.07336L65.7826 281.228C66.0411 281.938 66.7519 282.52 67.5274 282.52H205.75L146.041 92.6655Z" fill="#D2EBFF"/>
<path d="M215.702 275.994H73.0847C72.3739 275.994 71.5984 275.413 71.3399 274.702L9.49828 78.0619C9.2398 77.3511 9.69216 76.7695 10.403 76.7695H153.02C153.731 76.7695 154.506 77.3511 154.765 78.0619L216.607 274.702C216.865 275.413 216.477 275.994 215.702 275.994Z" fill="white"/>
<path d="M78.4481 106.624H59.579C57.3172 106.624 54.8616 104.75 54.1508 102.488C53.44 100.227 54.7324 98.3525 56.9941 98.3525H75.8633C78.125 98.3525 80.5806 100.227 81.2915 102.488C82.0023 104.75 80.7098 106.624 78.4481 106.624Z" fill="#5396F9"/>
<path d="M125.621 106.624H90.7907C88.529 106.624 86.0733 104.75 85.3625 102.488C84.6517 100.227 85.9442 98.3525 88.2059 98.3525H123.036C125.298 98.3525 127.754 100.227 128.464 102.488C129.175 104.75 127.883 106.624 125.621 106.624Z" fill="#5396F9"/>
<path d="M149.53 127.366H48.7227C46.9133 127.366 45.0394 125.945 44.4578 124.135C43.8762 122.326 44.9101 120.904 46.6549 120.904H147.463C149.272 120.904 151.146 122.326 151.728 124.135C152.309 125.945 151.275 127.366 149.53 127.366Z" fill="#5396F9"/>
<path d="M153.925 141.39H53.117C51.3076 141.39 49.4337 139.968 48.8521 138.159C48.2705 136.349 49.3044 134.928 51.0492 134.928H151.857C153.666 134.928 155.54 136.349 156.122 138.159C156.703 139.968 155.734 141.39 153.925 141.39Z" fill="#5396F9"/>
<path d="M129.757 155.412H57.5111C55.7018 155.412 53.8277 153.991 53.2461 152.181C52.6645 150.372 53.6985 148.95 55.4432 148.95H127.689C129.498 148.95 131.372 150.372 131.954 152.181C132.535 153.991 131.566 155.412 129.757 155.412Z" fill="#5396F9"/>
<path d="M162.713 169.434H61.9053C60.096 169.434 58.222 168.012 57.6404 166.203C57.0588 164.393 58.0928 162.972 59.8375 162.972H160.645C162.455 162.972 164.329 164.393 164.91 166.203C165.492 167.947 164.523 169.434 162.713 169.434Z" fill="#5396F9"/>
<path d="M167.172 183.457H66.3641C64.5547 183.457 62.6807 182.036 62.0991 180.226C61.5176 178.417 62.5515 176.995 64.2963 176.995H165.104C166.913 176.995 168.787 178.417 169.369 180.226C169.95 181.971 168.917 183.457 167.172 183.457Z" fill="#5396F9"/>
<path d="M103.65 197.48H70.7583C68.9489 197.48 67.0749 196.058 66.4933 194.249C65.9117 192.439 66.9457 191.018 68.6904 191.018H101.582C103.392 191.018 105.266 192.439 105.847 194.249C106.429 195.993 105.459 197.48 103.65 197.48Z" fill="#5396F9"/>
<path d="M179.127 221.519H78.3189C76.5095 221.519 74.6356 220.097 74.054 218.288C73.4724 216.478 74.5063 215.057 76.2511 215.057H177.059C178.868 215.057 180.742 216.478 181.324 218.288C181.905 220.032 180.871 221.519 179.127 221.519Z" fill="#5396F9"/>
<path d="M183.521 235.541H82.713C80.9037 235.541 79.0296 234.119 78.448 232.31C77.8664 230.501 78.9005 229.079 80.6452 229.079H181.453C183.262 229.079 185.136 230.501 185.718 232.31C186.299 234.055 185.33 235.541 183.521 235.541Z" fill="#5396F9"/>
<path d="M159.353 249.564H87.1072C85.2978 249.564 83.4238 248.142 82.8422 246.333C82.2606 244.523 83.2945 243.102 85.0392 243.102H157.285C159.094 243.102 160.968 244.523 161.55 246.333C162.131 248.077 161.162 249.564 159.353 249.564Z" fill="#5396F9"/>
<path d="M553.473 319.935L557.156 300.162C562.326 272.569 533.893 247.884 496.93 247.884H373.763C343.456 247.884 317.802 264.685 313.537 287.367L307.398 320H553.473V319.935Z" fill="#FFC701"/>
<defs>
<linearGradient id="paint0_linear_15015_287758" x1="119.056" y1="128.155" x2="237.263" y2="59.9087" gradientUnits="userSpaceOnUse">
<stop offset="0.5088" stop-color="#0A31A9"/>
<stop offset="0.8379" stop-color="#0F3FCE"/>
</linearGradient>
</defs>
</svg>
