<svg width="452" height="320" viewBox="0 0 452 320" fill="none" xmlns="http://www.w3.org/2000/svg">
<path d="M259.119 265.01C259.119 265.01 272.602 269.249 277.136 272.605C281.61 275.961 290.265 278.257 288.735 284.616C287.263 290.974 283.082 301.866 280.845 301.866C278.608 301.866 262.358 301.866 262.358 301.866L258.06 275.137L259.119 265.01Z" fill="#F28B7A"/>
<path d="M311.814 137.247C300.686 139.072 296.153 139.543 286.791 146.373C272.896 156.441 271.837 173.515 267.303 195.005C264.006 210.607 255.587 256.354 254.88 268.424C254.527 274.723 258.001 269.542 265.831 271.78C270.541 273.134 274.663 274.9 282.493 283.496C286.261 287.617 284.495 295.978 288.734 286.263C306.397 245.874 318.761 136.128 311.814 137.247Z" fill="url(#paint0_linear_15015_287436)"/>
<path d="M284.731 147.962C277.371 155.793 291.443 165.095 287.38 175.693C274.839 208.546 268.187 225.562 276.959 235.158C283.553 242.341 286.792 248.936 288.735 261.771C290.736 274.547 294.74 309.225 294.74 309.225C294.74 309.225 317.643 321.118 375.283 315.76C383.82 314.995 398.657 313.817 388.589 283.437C383.584 268.365 392.887 244.579 400.305 229.153C407.724 213.727 419.676 216.612 420.147 206.957C420.618 197.301 431.863 171.69 408.96 156.676C390.473 144.548 344.255 136.01 311.755 137.247C304.101 137.541 290.206 142.134 284.731 147.962Z" fill="#246AFD"/>
<path d="M406.723 155.264C396.243 150.436 383.172 157.737 383.172 157.737C398.716 185.879 379.757 221.912 381.288 235.453C382.466 246.169 398.362 286.617 398.539 287.088C401.13 296.214 404.662 301.277 414.436 302.573C424.975 304.045 430.156 297.333 435.16 291.151C441.519 283.261 441.519 267.482 437.986 264.126C436.927 248.053 426.741 199.715 425.092 187.293C423.149 173.162 417.203 160.092 406.723 155.264Z" fill="#246AFD"/>
<path d="M370.219 98.3887C370.219 98.3887 361.27 131.477 371.279 138.66C380.111 145.019 383.525 145.961 385.35 146.55C390.767 148.316 383.29 159.856 356.442 164.86C331.655 169.453 320.822 162.741 314.11 156.912C303.689 147.904 303.512 138.071 311.814 137.247C319.998 136.423 330.301 135.304 331.832 130.712C333.304 126.119 332.833 126.944 334.364 122.94C335.894 118.937 370.219 98.3887 370.219 98.3887Z" fill="#F28B7A"/>
<path d="M326.71 53.3482C322.706 60.5312 318.879 76.4278 316.76 90.7937C314.699 105.16 320.41 120.762 327.887 126.649C335.365 132.537 346.021 129.829 355.029 122.234C364.037 114.639 368.924 108.221 373.811 100.744C378.698 93.3254 388.353 79.7838 384.468 63.6516C380.582 47.5783 366.157 38.688 354.146 38.9235C342.135 39.2768 333.069 41.9262 326.71 53.3482Z" fill="#EEA281"/>
<path d="M353.086 31.564C362.801 30.622 377.52 31.8584 386.822 41.2786C395.006 49.5802 395.124 61.6499 394.123 66.831C391.474 79.9605 383.584 94.0908 380.758 99.0365C377.991 104.041 372.162 109.693 372.162 109.693C372.162 109.693 369.218 102.51 370.631 94.0908C372.044 85.6715 373.575 80.3137 371.338 70.8346C369.101 61.3555 358.444 50.1101 358.444 50.1101C358.444 50.1101 357.031 56.5865 358.915 62.1209C362.036 71.3645 366.981 76.0158 367.217 76.4279C367.217 76.4279 361.152 77.0166 352.792 75.0148C344.961 73.1308 339.015 69.3627 337.131 59.2948C336.071 53.5838 337.308 49.1681 337.308 49.1681C337.308 49.1681 332.951 53.7016 333.186 60.9434C333.363 66.0656 339.545 73.2486 339.545 73.2486C339.545 73.2486 332.009 72.7187 327.887 69.3627C322.059 64.5937 324.885 57.4696 324.885 57.4696C324.885 57.4696 322.176 65.6535 321.411 68.4207C320.763 70.7757 319.056 77.782 319.056 77.782C319.056 77.782 313.345 59.9425 325.002 46.9308C332.362 38.6292 345.727 32.2705 353.086 31.564Z" fill="#FCE3C4"/>
<path d="M391.238 52.5241C391.238 52.5241 396.655 52.1119 403.485 49.5803C410.727 46.8719 425.387 39.0414 422.679 21.2607C419.97 3.47996 405.016 0.536131 400.364 0.0651191C395.713 -0.405893 388.177 1.65478 384.232 7.01255C380.287 12.3703 379.463 15.844 379.463 15.844C379.463 15.844 378.521 6.18827 371.103 5.1285C362.684 3.89209 356.266 8.48446 354.558 15.4908C352.91 22.4971 359.445 32.2117 359.445 32.2117C359.445 32.2117 361.035 33.6836 371.986 39.5712C382.937 45.4589 391.238 52.5241 391.238 52.5241Z" fill="#FCE3C4"/>
<path d="M370.396 94.0321C370.396 94.0321 372.28 87.7323 376.872 86.8492C382.525 85.7305 386.764 88.6155 386.234 94.6209C385.704 100.626 381.582 104.748 378.344 107.22C374.871 109.87 370.396 108.162 369.454 106.808C368.865 105.925 370.396 94.0321 370.396 94.0321Z" fill="#F68A84"/>
<path d="M369.925 97.5053C369.925 97.5053 372.103 93.9727 374.576 92.383C377.991 90.2634 381.524 91.7942 381.17 95.6212C380.817 99.4482 378.698 102.628 376.637 104.217C374.458 105.866 369.984 105.277 369.395 104.394C369.101 103.805 369.925 97.5053 369.925 97.5053Z" fill="#DD623D"/>
<path d="M352.439 86.3785L352.203 86.3196C350.967 85.9664 350.26 84.6711 350.613 83.4347L350.672 83.1992C351.026 81.9628 352.321 81.2562 353.557 81.6095L353.793 81.6684C355.029 82.0216 355.736 83.3169 355.382 84.5533L355.324 84.7888C354.911 86.0252 353.616 86.7317 352.439 86.3785Z" fill="black"/>
<path d="M327.298 83.1982L327.063 83.1394C325.885 82.845 325.12 81.7263 325.414 80.5488L325.473 80.3133C325.768 79.1358 326.886 78.3704 328.064 78.6647L328.299 78.7236C329.477 79.018 330.242 80.1367 329.948 81.3142L329.889 81.5497C329.653 82.7272 328.476 83.4926 327.298 83.1982Z" fill="black"/>
<path d="M333.834 87.6733C331.714 91.6181 329.712 93.5021 328.712 95.6217C327.711 97.6824 331.832 98.2711 334.776 98.0945C337.72 97.9179 339.957 98.2711 339.898 94.4441C339.839 90.3817 338.426 79.8428 338.426 79.8428C338.426 79.8428 335.659 84.3174 333.834 87.6733Z" fill="#E5897D"/>
<path d="M323.766 105.042C324.708 105.395 328.535 103.629 329.771 104.218C330.949 104.807 332.244 104.748 333.598 104.336C334.952 103.924 336.306 104.453 339.486 105.395C342.606 106.337 346.433 106.337 346.433 106.337C346.433 106.337 342.253 113.697 335.188 114.109C328.005 114.521 323.766 105.042 323.766 105.042Z" fill="#FF0653"/>
<path d="M332.421 109.988C339.25 111.224 346.374 106.279 346.374 106.279C346.374 106.279 337.778 107.574 333.422 107.044C329.065 106.573 323.707 104.983 323.707 104.983C323.707 104.983 327.357 109.105 332.421 109.988Z" fill="white"/>
<path d="M356.442 107.633C360.702 107.633 364.155 104.18 364.155 99.9199C364.155 95.6602 360.702 92.207 356.442 92.207C352.183 92.207 348.729 95.6602 348.729 99.9199C348.729 104.18 352.183 107.633 356.442 107.633Z" fill="#F28B7A"/>
<path d="M321.116 100.744C323.75 100.744 325.885 97.7391 325.885 94.0322C325.885 90.3253 323.75 87.3203 321.116 87.3203C318.483 87.3203 316.347 90.3253 316.347 94.0322C316.347 97.7391 318.483 100.744 321.116 100.744Z" fill="#F28B7A"/>
<path d="M429.096 152.203C426.858 152.144 426.152 156.03 426.034 158.561C425.916 161.093 426.034 163.448 423.326 168.453C420.617 173.398 415.554 180.228 415.495 184.585C415.436 188.942 416.084 191.65 416.025 193.593C415.966 195.536 413.964 210.962 410.785 225.798C406.252 247.112 399.893 266.894 401.247 284.852C401.718 290.916 404.25 295.508 408.489 297.922C415.319 301.867 425.799 302.986 434.395 294.095C439.87 288.443 445.228 275.078 443.403 239.811C442.932 230.921 440.93 219.087 439.988 213.847C438.81 207.252 438.339 206.428 438.516 203.896C439.105 194.947 442.52 198.892 448.584 182.995C452.175 173.634 435.101 157.561 433.158 155.088C431.156 152.615 429.096 152.203 429.096 152.203Z" fill="#F28B7A"/>
<path d="M413.081 137.424L406.782 202.895C406.723 203.719 407.488 204.367 408.254 204.131L427.565 198.891C429.626 198.361 431.098 196.595 431.274 194.475L437.339 129.064C437.397 128.239 436.632 127.592 435.867 127.827L416.849 133.008C414.73 133.597 413.258 135.305 413.081 137.424Z" fill="#FF8591"/>
<path d="M416.143 136.6L409.843 202.071C409.784 202.895 410.55 203.542 411.315 203.307L430.627 198.067C432.688 197.537 434.159 195.771 434.336 193.651L440.4 128.239C440.459 127.415 439.694 126.768 438.928 127.003L419.911 132.184C417.792 132.773 416.32 134.48 416.143 136.6Z" fill="#FF0653"/>
<path d="M430.915 139.117C430.919 136.938 430.159 135.17 429.216 135.168C428.273 135.166 427.505 136.931 427.5 139.109C427.495 141.288 428.256 143.055 429.199 143.057C430.142 143.06 430.91 141.295 430.915 139.117Z" fill="#1A1730"/>
<path d="M445.581 153.792C440.93 150.848 437.574 149.906 435.042 150.554C432.511 151.143 430.627 153.144 425.681 158.09C420.735 163.036 424.15 168.688 428.566 165.509C432.982 162.329 437.456 159.032 437.574 159.503C437.692 159.974 444.58 163.86 444.58 163.86C444.58 163.86 435.984 164.92 432.216 165.921C428.448 166.922 423.915 168.393 419.204 170.749C414.494 173.104 412.198 175.753 412.198 177.284C412.198 178.815 411.845 181.935 419.087 179.227C426.388 176.46 427.447 175.812 431.51 174.811C435.572 173.81 438.987 173.104 440.93 173.045C442.873 172.927 442.343 173.751 439.988 174.34C437.633 174.929 430.568 176.695 427.271 177.814C424.032 178.874 420.912 180.169 418.38 181.17C415.79 182.229 415.436 183.878 415.966 185.644C416.496 187.411 418.263 188.412 423.208 186.586C428.154 184.82 432.393 184.172 434.984 183.937C437.574 183.643 441.048 183.996 441.99 184.114C442.932 184.172 442.166 185.35 439.929 185.468C437.692 185.527 435.631 185.527 431.981 186.056C428.33 186.586 424.68 187.411 423.09 187.882C421.501 188.353 422.796 191.296 424.503 191.532C426.211 191.767 427.624 192.474 430.45 192.768C433.276 193.063 434.159 193.652 434.159 193.652C434.159 193.652 439.046 196.065 441.283 194.652C443.52 193.239 447.701 190.119 446.935 187.823C446.641 186.998 445.993 185.291 446.288 185.409C446.935 185.644 450.232 183.642 450.703 181.052C451.057 178.991 449.467 175.871 449.526 175.341C449.585 174.811 449.29 173.751 450.174 173.162C451.057 172.574 452.116 170.807 451.057 168.276C449.997 165.862 449.585 165.155 449.526 164.743C449.467 164.272 450.939 162.682 451.116 161.623C451.41 159.209 449.879 156.559 445.581 153.792Z" fill="#F5A07E"/>
<path d="M264.124 269.602C252.231 264.657 229.151 273.783 216.964 280.082C208.073 284.675 194.061 292.152 186.407 298.393C183.581 300.689 183.169 301.926 183.169 301.926H278.431C278.49 301.867 280.197 276.256 264.124 269.602Z" fill="#F28B7A"/>
<path d="M53.464 301.865C53.464 301.865 46.8699 292.916 44.9859 289.03C43.1018 285.144 40.8645 280.552 41.1589 271.426C41.4533 262.3 38.6271 258.591 35.0945 253.115C31.5619 247.64 29.3836 247.169 29.3247 238.926C29.2658 230.684 27.6171 228.858 24.7321 224.972C21.8472 221.087 23.437 214.434 23.437 214.434C23.437 214.434 25.262 217.613 27.676 219.674C30.0899 221.734 32.033 220.969 34.0348 226.091C36.3899 232.038 37.9795 235.099 44.6326 240.987C51.6389 247.169 52.5809 254.705 55.2303 261.358C58.6452 269.895 63.3551 269.836 72.7165 281.494C82.0778 293.151 83.55 301.865 83.55 301.865H53.464Z" fill="#0F43C1"/>
<path d="M31.8563 230.448C34.1524 235.688 33.4459 237.513 35.3888 241.87C37.3318 246.227 43.2195 247.346 44.927 255.589C46.6344 263.831 49.1071 268.188 59.8226 279.846C66.5345 287.146 70.0673 296.096 71.7747 301.807H53.464C53.464 301.807 46.8699 292.857 44.9859 288.972C43.1018 285.086 40.8645 280.493 41.1589 271.367C41.4533 262.242 38.6271 258.532 35.0945 253.057C31.5619 247.581 29.3836 247.11 29.3247 238.868C29.2658 230.625 27.6171 228.8 24.7321 224.914C21.8472 221.028 23.437 214.375 23.437 214.375C23.437 214.375 25.4387 219.851 26.263 222.147C27.0873 224.502 29.5012 225.208 31.8563 230.448Z" fill="url(#paint1_linear_15015_287436)"/>
<path d="M3.12439 47.2253C-0.76146 47.814 0.710394 60.6491 6.30366 68.3619C11.8969 76.0748 15.0173 81.197 14.7229 90.9116C14.4285 100.626 15.9595 106.043 22.0238 114.344C28.0881 122.646 24.4377 125.178 24.6732 132.066C24.9087 138.896 29.2066 150.024 39.5099 157.442C49.8133 164.861 54.759 180.286 56.0543 188.823C57.3496 197.36 61.5887 215.082 70.2436 225.386C78.8984 235.689 89.614 239.869 87.3767 261.359C86.258 272.192 106.512 301.866 106.512 301.866L124.41 301.807C124.41 301.807 116.167 289.443 118.993 274.076C120.701 264.774 122.467 249.113 114.342 240.281C106.217 231.45 101.154 229.684 102.685 216.907C104.333 203.189 107.1 192.061 98.4454 181.758C89.7905 171.455 82.7252 165.803 82.7252 153.792C82.6664 141.781 83.9028 134.068 71.892 124.942C59.8812 115.816 61.5886 111.224 60.0578 103.217C58.5859 95.2096 51.403 87.2613 44.8088 84.6707C38.2147 82.0802 34.0345 75.6037 31.6795 65.5947C29.03 54.4082 8.65878 46.401 3.12439 47.2253Z" fill="#9CCEFF"/>
<path d="M24.6734 132.007C24.4379 125.178 28.0882 122.587 22.0239 114.285C15.9596 105.984 14.4286 100.567 14.723 90.8526C15.0174 81.138 11.897 76.0157 6.30378 68.3029C0.710517 60.5901 -0.761338 47.8139 3.12451 47.1662C3.6544 47.1074 4.24299 47.1074 5.00839 47.1662C9.01199 49.9334 14.0754 54.1725 16.4893 59.177C20.7873 68.0085 16.666 76.0157 27.7348 86.849C38.8036 97.6823 43.6904 100.567 44.9268 116.523C46.1632 132.478 50.4611 135.658 62.7663 148.493C75.0715 161.328 74.9537 164.743 74.836 179.579C74.7182 194.416 75.4838 203.542 88.8487 217.849C102.214 232.097 109.514 245.227 109.573 261.241C109.632 272.016 109.514 280.965 115.52 294.094C115.991 295.095 116.462 296.096 116.933 297.097C117.58 299.864 118.051 301.748 118.051 301.748L106.512 301.807C106.512 301.807 88.1422 272.31 87.3768 261.3C85.846 238.75 78.8986 235.63 70.2437 225.326C61.5889 215.023 57.3497 197.36 56.0544 188.764C54.7591 180.168 49.8135 164.801 39.5101 157.383C29.2656 150.023 24.9089 138.896 24.6734 132.007Z" fill="url(#paint2_linear_15015_287436)"/>
<path d="M108.749 300.865C108.749 300.865 92.0281 254.117 94.7953 235.689C97.6213 217.26 106.688 218.026 100.801 202.423C94.9131 186.821 86.1405 175.223 90.4385 158.089C94.7953 140.956 94.3243 139.426 88.3778 130.947C82.4312 122.41 80.0174 117.877 83.4911 108.633C86.9649 99.3896 90.6741 97.2112 89.4377 85.6714C88.2013 74.1316 82.6669 64.8291 82.6669 64.8291C82.6669 64.8291 102.096 70.2457 106.159 90.2049C108.455 101.568 105.158 107.279 113.577 115.345C121.996 123.411 120.348 129.181 121.29 137.777C122.232 146.373 133.713 152.261 134.773 159.974C135.891 167.686 134.655 170.807 131.652 181.876C128.649 192.885 128.296 200.481 135.95 212.668C143.604 224.855 147.254 224.502 146.254 246.64C145.253 268.777 134.243 301.925 134.243 301.925L108.749 300.865Z" fill="url(#paint3_linear_15015_287436)"/>
<path d="M98.8578 99.9788C97.5037 107.868 93.6176 111.342 96.267 117.524C98.681 123.176 107.336 121.881 108.808 129.594C110.28 137.306 105.805 141.84 108.749 153.144C111.104 162.388 117.816 163.153 116.226 173.574C114.166 187.175 109.691 193.534 116.109 209.136C122.526 224.738 129.415 242.401 131.534 259.593C132.83 270.367 126.883 289.208 122.232 301.513L108.808 300.865C108.808 300.865 92.0869 254.176 94.8541 235.807C97.6801 217.379 106.747 218.144 100.86 202.542C94.9719 186.939 86.1993 175.341 90.4973 158.208C94.8541 141.075 90.7326 141.722 84.7861 133.185C78.8396 124.648 75.3071 117.465 79.3107 108.516C83.7853 98.5069 90.7326 97.3293 89.4962 85.7895C88.2598 74.2497 82.7254 64.9473 82.7254 64.9473C82.7254 64.9473 100.506 90.1464 98.8578 99.9788Z" fill="#0A40CF"/>
<path d="M88.0831 301.747C88.0831 301.747 85.7869 286.203 76.8377 276.018C67.8884 265.773 64.0615 265.479 57.9972 248.405C51.9329 231.389 47.8117 225.561 37.5672 215.375C27.3227 205.189 22.7892 193.885 21.0818 186.408C19.3744 178.93 15.7829 166.979 15.7829 166.979C15.7829 166.979 23.79 169.746 26.5572 177.046C29.3244 184.347 32.2683 189.116 45.1622 195.239C58.0562 201.362 73.3053 218.201 81.7835 231.684C89.2608 243.636 90.6148 256.353 93.0287 266.421C96.1491 279.55 102.979 289.854 106.512 294.976C110.044 300.098 111.693 301.865 111.693 301.865L88.0831 301.747Z" fill="url(#paint4_linear_15015_287436)"/>
<path d="M25.5565 186.349C28.5592 197.948 32.6215 200.656 43.9258 204.719C55.2889 208.781 61.4711 218.672 65.8869 230.624C70.2437 242.576 70.008 248.876 80.959 260.592C88.9074 269.13 92.4989 282.2 95.2073 297.449C95.5016 298.98 95.6193 300.452 95.6782 301.747L88.1421 301.688C88.1421 301.688 85.8458 286.145 76.8966 275.959C67.9474 265.715 64.1204 265.42 58.0561 248.346C51.9919 231.331 47.8707 225.502 37.6262 215.316C27.3817 205.072 22.8482 193.826 21.1407 186.349C19.4333 178.872 15.8419 166.92 15.8419 166.92C15.8419 166.92 22.3183 173.926 25.5565 186.349Z" fill="#0A40CF"/>
<path d="M205.13 114.698C233.517 114.698 256.529 91.6856 256.529 63.2986C256.529 34.9116 233.517 11.8994 205.13 11.8994C176.743 11.8994 153.73 34.9116 153.73 63.2986C153.73 91.6856 176.743 114.698 205.13 114.698Z" fill="#82BCFF"/>
<path d="M205.13 96.0929C204.482 96.0929 203.952 95.563 203.952 94.9154V64.594C203.952 64.2996 204.07 64.0052 204.305 63.7697L237.512 30.3279C237.983 29.8569 238.689 29.8569 239.16 30.3279C239.631 30.7989 239.631 31.5054 239.16 31.9764L206.307 65.065V94.9154C206.307 95.563 205.777 96.0929 205.13 96.0929Z" fill="white"/>
<path d="M236.864 301.512H156.498V290.855H228.798C233.273 290.855 236.864 294.447 236.864 298.922V301.512Z" fill="#246AFD"/>
<path d="M109.632 301.512H177.752C179.872 301.512 181.402 298.333 180.637 295.271L157.557 196.83C154.613 182.464 143.015 184.642 143.015 184.642H87.3766C82.3133 184.642 78.7805 192.237 80.488 199.42L102.802 294.212C103.803 298.568 106.57 301.512 109.632 301.512Z" fill="#246AFD"/>
<path d="M100.212 301.512H170.216C172.335 301.512 173.866 298.332 173.101 295.271L148.785 191.943C147.725 187.527 145.017 184.583 141.896 184.583H77.8975C72.8341 184.583 69.3014 192.178 71.0088 199.361L93.323 294.152C94.3828 298.568 97.1501 301.512 100.212 301.512Z" fill="white"/>
<path d="M119.422 252.669C121.773 252.023 122.499 247.204 121.043 241.905C119.586 236.606 116.5 232.835 114.148 233.481C111.797 234.127 111.071 238.947 112.527 244.245C113.984 249.544 117.07 253.315 119.422 252.669Z" fill="#9CCEFF"/>
<path d="M43.1017 320H443.05C446.347 320 448.996 317.35 448.996 314.053V307.871C448.996 304.574 446.347 301.925 443.05 301.925H43.1017C39.8046 301.925 37.1551 304.574 37.1551 307.871V314.053C37.1551 317.35 39.8046 320 43.1017 320Z" fill="#FFC701"/>
<path d="M195.238 201.659C217.611 202.483 218.259 220.382 215.08 233.04C213.549 239.163 206.425 255.178 206.425 255.178H182.168C182.168 255.178 174.749 241.636 170.628 228.389C166.507 215.142 172.394 200.835 195.238 201.659Z" fill="#66A4FF"/>
<path d="M201.303 301.513H189.233C179.047 301.513 170.687 293.153 170.687 282.967V258.004C170.687 254.883 173.218 252.352 176.339 252.352H214.256C217.376 252.352 219.908 254.883 219.908 258.004V282.967C219.849 293.153 211.488 301.513 201.303 301.513Z" fill="#FF0653"/>
<path d="M186.112 252.293C185.759 251.527 177.87 233.747 177.634 220.97C177.399 209.902 181.402 203.543 189.351 201.836L190.823 201.718C183.522 203.249 178.694 210.549 178.93 220.97C179.165 233.511 187.467 252.116 187.525 252.352H186.112V252.293Z" fill="white"/>
<path d="M202.421 252.293H201.067C201.126 252.116 209.369 233.511 209.604 220.971C209.84 210.549 205.601 203.425 198.3 201.895L199.242 201.953C207.19 203.661 211.135 209.902 210.9 220.971C210.605 233.806 202.775 251.527 202.421 252.293Z" fill="white"/>
<path d="M192.471 252.293C192.471 252.116 191.117 235.454 190.352 220.264C189.586 204.662 194.532 201.777 194.767 201.659L195.886 201.718C195.827 201.777 190.94 205.545 191.647 220.205C192.353 235.395 193.707 252.175 193.707 252.293H192.471Z" fill="white"/>
<path d="M203.187 229.803L203.01 228.507L208.25 227.919L205.306 223.679L206.366 222.914L210.429 228.684L203.187 229.803Z" fill="white"/>
<path d="M196.71 215.495L190.411 213.788L196.416 207.605L197.299 208.547L192.353 213.199L197.005 214.259L196.71 215.495Z" fill="white"/>
<path d="M173.689 223.915L173.454 222.678L177.104 221.972L171.629 215.26L172.63 214.436L179.047 222.855L173.689 223.915Z" fill="white"/>
<path d="M214.379 226.347L209.332 227.756L209.68 229.003L214.727 227.594L214.379 226.347Z" fill="white"/>
<mask id="mask0_15015_287436" style="mask-type:luminance" maskUnits="userSpaceOnUse" x="170" y="252" width="50" height="50">
<path d="M201.303 301.513H189.233C179.047 301.513 170.687 293.153 170.687 282.967V258.004C170.687 254.883 173.218 252.352 176.339 252.352H214.256C217.376 252.352 219.908 254.883 219.908 258.004V282.967C219.849 293.153 211.488 301.513 201.303 301.513Z" fill="white"/>
</mask>
<g mask="url(#mask0_15015_287436)">
<path d="M225.442 257.356H168.038V260.536H225.442V257.356Z" fill="white"/>
<path d="M225.442 265.6H168.038V268.779H225.442V265.6Z" fill="white"/>
<path d="M225.442 273.783H168.038V276.963H225.442V273.783Z" fill="white"/>
<path d="M225.442 282.026H168.038V285.206H225.442V282.026Z" fill="white"/>
<path d="M225.442 290.269H168.038V293.448H225.442V290.269Z" fill="white"/>
</g>
<defs>
<linearGradient id="paint0_linear_15015_287436" x1="300.005" y1="317.346" x2="273.645" y2="131.324" gradientUnits="userSpaceOnUse">
<stop offset="0.5075" stop-color="#0353E2"/>
<stop offset="0.8713" stop-color="#246AFD"/>
</linearGradient>
<linearGradient id="paint1_linear_15015_287436" x1="66.1415" y1="258.144" x2="27.4806" y2="262.635" gradientUnits="userSpaceOnUse">
<stop offset="0.3508" stop-color="#0A31A9"/>
<stop offset="0.7154" stop-color="#0F3FCE"/>
</linearGradient>
<linearGradient id="paint2_linear_15015_287436" x1="76.3082" y1="170.136" x2="43.9841" y2="183.316" gradientUnits="userSpaceOnUse">
<stop offset="0.3471" stop-color="#4E8DEA"/>
<stop offset="0.7421" stop-color="#82BCFF"/>
</linearGradient>
<linearGradient id="paint3_linear_15015_287436" x1="82.0473" y1="183.47" x2="137.427" y2="172.579" gradientUnits="userSpaceOnUse">
<stop offset="0.6851" stop-color="#0A31A9"/>
<stop offset="0.8793" stop-color="#0F3FCE"/>
</linearGradient>
<linearGradient id="paint4_linear_15015_287436" x1="45.1357" y1="244.726" x2="82.6441" y2="216.472" gradientUnits="userSpaceOnUse">
<stop offset="0.5623" stop-color="#0A31A9"/>
<stop offset="0.8535" stop-color="#0F3FCE"/>
</linearGradient>
</defs>
</svg>
