<svg width="552" height="416" viewBox="0 0 552 416" fill="none" xmlns="http://www.w3.org/2000/svg">
<path d="M337.539 0.10538C331.354 1.0508 327.738 22.039 332.686 34.613C337.634 47.1869 340.013 55.6012 335.065 71.4841C330.117 87.3669 330.022 96.1594 335.351 109.679C340.679 123.198 334.114 127.358 331.259 138.608C328.499 149.765 329.926 168.011 342.107 180.112C354.285 192.213 354.764 217.456 352.764 231.448C350.765 245.44 336.112 273.897 344.39 290.631C352.764 307.459 366.278 332.135 366.943 349.814C367.515 367.494 377.314 415.993 377.314 415.993L404.434 415.899C404.434 415.899 397.584 395.762 409.001 370.517C415.855 355.392 425.654 329.677 417.473 315.306C409.192 300.841 402.435 298.005 410.526 277.111C419.278 254.705 428.509 236.459 420.231 219.725C411.856 202.897 403.769 193.632 409.192 174.062C414.618 154.491 419.947 141.917 405.959 126.98C391.971 112.042 396.631 104.574 398.059 91.5269C399.486 78.4801 392.348 65.4333 383.499 61.2737C374.649 57.1137 371.416 46.3362 372.366 30.075C373.412 11.734 346.294 -1.31274 337.539 0.10538Z" fill="#0A40CF"/>
<path d="M331.354 138.615C334.114 127.459 340.775 123.204 335.446 109.685C330.117 96.1656 330.213 87.2784 335.161 71.4902C340.109 55.6073 337.635 47.2877 332.782 34.619C327.929 21.9505 331.45 1.05685 337.635 0.111433C338.396 0.016892 339.348 0.016892 340.49 0.111433C345.247 4.64943 350.956 11.5509 352.384 19.6815C354.858 34.1463 344.962 47.193 356.763 64.8723C368.562 82.5516 374.65 87.2784 369.133 113.372C363.707 139.465 368.752 144.571 381.406 165.559C394.064 186.547 392.446 192.125 385.405 216.422C378.458 240.625 375.412 255.562 389.116 278.914C402.817 302.266 407.862 323.632 400.63 349.821C395.776 367.404 391.493 381.964 394.539 403.426C394.729 405.031 395.013 406.734 395.301 408.342C395.013 412.88 394.92 415.903 394.92 415.903L377.505 416C377.505 416 367.799 367.498 367.134 349.821C366.562 332.141 352.955 307.371 344.581 290.637C336.208 273.903 350.956 245.446 352.955 231.454C354.955 217.462 354.476 192.314 342.298 180.118C330.022 168.017 328.595 149.77 331.354 138.615Z" fill="url(#paint0_linear_584_24)"/>
<path d="M416.285 415.906C416.285 415.906 409.632 336.656 423.603 304.408C437.574 272.16 453.253 272.727 450.495 246.059C447.74 219.39 437.952 200.003 454.012 169.836C470.072 139.668 470.072 137.115 463.707 122.74C457.339 108.366 455.343 100.706 466.081 84.3453C476.819 68.0794 484.421 64.013 487.938 44.0588C491.455 24.1048 491.646 11.8108 491.646 11.8108C491.646 11.8108 516.639 31.0083 515.117 50.5841C513.596 70.1601 504.948 80.3736 515.876 93.6131C526.805 106.853 521.008 117.161 518.444 132.008C515.876 146.856 528.042 152.435 526.237 165.769C524.431 179.104 519.3 188.75 508.465 208.231C497.727 227.712 500.007 240.384 507.515 260.906C515.02 281.427 521.673 280.576 509.036 319.066C496.396 357.555 460.759 415.906 460.759 415.906H416.285Z" fill="#0D1E7A"/>
<path d="M497.345 68.0805C491.074 81.9822 482.522 88.3182 484.137 98.8153C485.658 108.461 501.527 105.435 500.294 118.769C499.057 132.104 488.984 140.237 488.603 159.718C488.225 175.605 499.722 176.362 491.739 194.614C481.382 218.445 470.36 229.794 474.064 256.462C477.674 283.036 481.191 313.204 476.534 342.898C473.589 361.528 453.821 394.25 439.57 416H416.191C416.191 416 409.539 336.751 423.51 304.503C437.477 272.255 453.16 272.823 450.401 246.154C447.647 219.58 437.858 200.099 453.918 169.931C469.979 139.764 469.979 137.21 463.61 122.836C457.338 108.556 455.249 100.801 465.987 84.4408C476.819 68.0805 484.424 64.0138 487.938 44.06C491.455 24.1057 491.645 11.8118 491.645 11.8118C491.645 11.8118 505.044 50.8689 497.345 68.0805Z" fill="url(#paint1_linear_584_24)"/>
<path d="M413.548 415.823C413.548 415.823 419.372 386.284 407.37 359.303C395.367 332.319 396.867 315.83 391.749 269.713C386.628 223.597 378.95 201.023 358.648 186.209C338.349 171.396 338.261 166.193 336.407 149.704C334.554 133.215 326.523 131.451 318.049 127.131C309.576 122.81 309.664 109.76 300.132 101.03C290.6 92.3004 283.804 99.2667 283.539 113.199C283.274 127.131 288.57 130.57 291.306 134.978C294.042 139.387 291.835 148.91 290.6 157.552C289.364 166.281 288.57 166.281 300.132 178.45C311.694 190.618 314.254 195.821 313.989 209.752C313.725 223.685 316.372 234.089 328.199 244.583C340.026 254.988 341.086 259.397 340.379 275.885C339.762 292.375 352.384 302.868 361.209 322.884C370.034 342.9 370.478 345.457 367.917 369.883C365.357 394.219 382.214 416 382.214 416H413.548V415.823Z" fill="#02C8DC"/>
<path d="M290.511 157.458C291.747 148.728 293.865 139.205 291.217 134.884C288.481 130.564 283.185 127.037 283.45 113.104C283.538 106.932 284.95 102.171 287.334 99.5251C292.541 106.403 301.897 116.367 302.25 127.037C302.691 142.115 305.957 146.524 314.959 152.255C324.58 158.34 320.255 166.804 322.903 174.829C328.022 190.348 341.703 192.641 350.793 207.366C359.885 222.092 347.969 232.761 366.24 256.481C384.511 280.112 385.567 284.521 382.743 304.537C379.919 324.553 370.564 338.486 388.305 359.296C406.132 380.193 403.928 383.632 399.251 411.497C398.984 412.994 398.807 414.405 398.63 415.816H382.127C382.127 415.816 365.269 394.039 367.827 369.699C370.387 345.363 369.947 342.718 361.122 322.702C352.293 302.686 339.673 292.281 340.291 275.703C340.908 259.214 339.937 254.805 328.11 244.4C316.283 233.995 313.635 223.503 313.9 209.57C314.165 195.638 311.606 190.436 300.043 178.267C288.481 166.187 289.364 166.187 290.511 157.458Z" fill="url(#paint2_linear_584_24)"/>
<path d="M351.119 415.716C351.119 415.716 351.119 401.08 341.519 391.446C331.919 381.815 326.882 381.531 322.32 365.477C317.758 349.423 313.481 343.947 302.075 334.315C290.765 324.683 286.963 314.107 286.203 307.025C285.443 299.942 283.066 288.705 283.066 288.705C283.066 288.705 292.951 291.349 295.137 298.243C297.323 305.136 300.269 309.574 315.857 315.429C331.444 321.189 347.983 337.054 356.441 349.801C363.856 361.04 363.191 373.031 364.331 382.571C365.852 394.94 372.692 404.668 376.306 409.483C379.916 414.298 381.722 415.997 381.722 415.997L351.119 415.716Z" fill="#0A40CF"/>
<path d="M292.001 307.025C293.712 317.979 298.369 320.528 312.34 324.4C326.312 328.272 332.49 337.526 335.911 348.764C339.333 360 337.717 365.948 349.691 376.997C358.343 385.025 360.526 397.394 361.098 411.75C361.191 413.164 361.004 414.582 360.907 415.809L351.119 415.716C351.119 415.716 351.119 401.08 341.519 391.446C331.919 381.815 326.882 381.531 322.32 365.477C317.758 349.423 313.481 343.947 302.075 334.315C290.765 324.683 286.963 314.107 286.203 307.025C285.443 299.942 283.066 288.705 283.066 288.705C283.066 288.705 290.195 295.221 292.001 307.025Z" fill="url(#paint3_linear_584_24)"/>
<path d="M451.534 416.004C451.534 416.004 452.48 390.721 468.644 360.156C484.805 329.588 492.085 326.758 497.66 293.456C503.332 260.06 508.343 244.777 520.443 227.607C532.542 210.437 523.845 206.853 534.147 192.419C544.452 177.985 550.973 168.079 550.973 168.079C550.973 168.079 552.393 183.079 550.124 192.23C547.854 201.192 543.79 200.343 544.358 213.173C544.923 226.004 547.477 229.4 546.531 245.249C545.585 261.098 540.387 268.551 533.96 281.098C527.532 293.645 527.341 299.022 525.075 333.173C522.806 367.325 521.576 375.059 516 390.624C510.422 406.193 505.131 416.004 505.131 416.004H451.534Z" fill="url(#paint4_linear_584_24)"/>
<path d="M468.644 360.052C484.808 329.392 492.085 326.656 497.664 293.355C503.332 259.958 508.343 244.675 520.442 227.506C532.636 210.336 523.845 206.751 534.15 192.317C544.451 177.883 550.973 167.978 550.973 167.978C550.973 167.978 550.973 168.166 550.973 168.355C550.408 171.185 549.746 175.053 548.991 179.393C547.289 189.204 541.995 191.657 537.078 200.147C532.826 207.6 534.434 219.11 535.754 227.883C538.308 244.487 533.111 247.128 526.399 257.6C519.687 268.072 520.158 267.789 514.77 293.732C505.886 336.185 479.701 360.336 475.734 398.164C474.975 405.43 474.126 411.372 473.558 415.712H451.44C451.534 415.997 452.386 390.714 468.644 360.052Z" fill="#3F69CB"/>
<path d="M292.599 200.768C292.599 200.768 302.272 174.477 307.626 164.393C312.885 154.31 336.646 136.122 340.591 131.882C344.535 127.641 344.723 134.238 339.652 141.211C334.674 148.09 327.16 157.231 327.16 157.231C327.16 157.231 338.337 164.865 340.872 166.938C343.408 168.917 342.375 171.178 342.938 179C343.408 185.502 343.878 194.738 343.032 194.549C342.469 194.455 341.342 194.266 340.403 192.853C338.431 189.837 337.585 181.638 337.492 181.262C337.209 180.131 338.712 195.585 337.773 195.491C335.613 195.209 334.486 193.606 334.11 191.533C333.641 189.272 333.171 184.183 332.983 185.219C332.795 186.35 332.702 195.114 332.702 195.114C332.702 195.114 329.79 194.266 329.321 191.722C328.851 189.177 328.757 189.648 326.972 193.041C321.901 202.842 310.443 212.736 310.443 212.736L292.599 200.768Z" fill="#F4A078"/>
<path d="M162.613 48.645C162.613 48.645 175.932 50.819 183.489 56.4346C190.95 61.9598 194.351 66.7604 190.384 76.9958C187.834 83.5176 179.427 92.6658 177.254 94.8397C175.082 97.0137 179.521 116.579 190.1 125.727C200.68 134.875 205.591 141.578 207.008 151.361C209.37 167.664 203.041 173.643 202.474 179.168C201.907 184.693 201.53 183.063 214.47 189.222C250.364 206.251 243.374 253.804 240.54 263.405C215.604 347.01 196.901 267.301 196.901 267.301C196.901 267.301 160.441 199.004 155.057 197.918C149.578 196.831 163.275 160.509 154.396 155.799C145.517 151.089 120.675 126.814 138.338 85.6916C156.001 44.5689 162.613 48.645 162.613 48.645Z" fill="#FCE3C4"/>
<path d="M166.097 59.3112C173.892 62.8922 179.715 69.3943 187.698 86.3571C195.681 103.319 196.056 113.78 197.183 127.255C198.31 140.731 194.178 153.924 188.449 157.411C182.72 160.898 176.334 160.898 166.097 158.919C155.86 156.94 131.629 140.637 131.629 140.637C131.629 140.637 122.425 133.664 117.541 132.156C112.657 130.648 101.669 135.831 102.89 121.13C104.111 106.429 145.998 49.9817 166.097 59.3112Z" fill="#F4A078"/>
<path d="M159.896 43.9477C159.896 43.9477 170.696 53.7483 168.161 70.8993C165.625 87.956 159.614 103.599 148.532 114.06C137.45 124.52 126.555 133.284 126.555 133.284C126.555 133.284 125.428 136.676 125.898 140.634C127.964 158.068 132.378 192.182 122.047 202.925C111.716 213.667 62.8789 273.884 62.8789 273.884L35.6429 291.318C35.6429 291.318 -21.741 242.127 10.0971 196.516C37.3331 157.503 42.9683 168.717 73.3979 137.148C101.197 108.311 92.7447 90.5005 97.2527 74.8572C104.391 50.5441 124.865 52.8061 140.455 45.9265C152.57 40.6495 156.515 40.4609 159.896 43.9477Z" fill="#FCE3C4"/>
<path d="M190.984 133.196C190.984 133.196 188.918 133.196 183.189 133.573C178.587 133.855 170.322 133.949 170.322 133.949C170.322 133.949 175.206 143.467 180.653 144.221C186.194 144.974 187.979 142.148 189.669 138.661C190.984 135.929 190.984 133.196 190.984 133.196Z" fill="#E63891"/>
<path d="M190.984 133.196C190.984 133.196 187.133 136.023 182.813 136.211C178.493 136.4 170.322 133.949 170.322 133.949C170.322 133.949 175.863 140.546 182.532 140.075C188.448 139.604 190.984 133.196 190.984 133.196Z" fill="#E63891"/>
<path d="M161.237 142.02C166.703 140.568 169.821 134.416 168.202 128.278C166.584 122.141 160.841 118.341 155.375 119.792C149.91 121.244 146.791 127.396 148.41 133.534C150.029 139.671 155.771 143.471 161.237 142.02Z" fill="#ED8C7D"/>
<path d="M173.357 127.473C180.029 125.519 183.151 116.077 180.33 106.385C177.509 96.6932 169.814 90.4213 163.143 92.3758C156.471 94.3307 153.349 103.772 156.17 113.464C158.99 123.156 166.685 129.428 173.357 127.473Z" fill="#6248DD"/>
<path d="M202.195 121.021C206.172 119.832 207.065 111.024 204.19 101.348C201.315 91.6719 195.761 84.7927 191.784 85.9821C187.808 87.1718 186.915 95.9796 189.79 105.655C192.665 115.331 198.219 122.211 202.195 121.021Z" fill="#6248DD"/>
<path d="M178.677 103.519C178.396 103.519 178.208 103.425 177.926 103.331C177.269 102.954 176.987 102.011 177.363 101.352C177.457 101.257 179.335 98.0535 183.467 97.2995C187.224 96.6398 189.384 98.8072 189.478 98.9015C190.041 99.4669 190.041 100.409 189.478 100.975C188.914 101.54 187.975 101.54 187.412 100.975C187.412 100.975 186.191 99.8437 183.937 100.221C181.213 100.692 179.898 102.765 179.805 102.859C179.617 103.236 179.147 103.519 178.677 103.519Z" fill="#6248DD"/>
<path d="M184.97 100.959C184.97 100.959 190.981 108.592 195.77 112.55C202.063 117.733 201.499 121.125 196.991 121.973C192.483 122.821 190.323 123.292 188.539 120.465C186.191 116.696 183.937 104.917 183.561 102.75C183.279 100.677 184.125 99.8286 184.97 100.959Z" fill="#ED8C7D"/>
<path d="M170.695 109.811L171.164 109.717C172.573 109.434 173.512 108.021 173.136 106.607L172.949 105.477C172.667 104.063 171.258 103.121 169.849 103.403L169.38 103.498C167.971 103.781 167.032 105.194 167.407 106.607L167.595 107.738C167.877 109.246 169.286 110.094 170.695 109.811Z" fill="black"/>
<path d="M103.639 177.849C103.639 177.849 52.0787 195.283 43.5319 197.545C34.9855 199.901 29.0687 209.607 31.0409 233.637C33.0132 257.668 32.6375 275.761 39.8691 298.189C47.1009 320.618 50.6698 334.659 50.6698 334.659L47.2887 393.935C46.6314 405.902 55.9293 415.889 67.6688 415.889H218.407C218.407 415.889 202.817 345.308 209.109 319.581C215.402 293.854 253.25 302.901 247.334 279.154C238.224 242.496 231.743 205.838 214.275 199.241C211.551 198.205 172.669 182.844 172.669 182.844L103.639 177.849Z" fill="#6248DD"/>
<path d="M287.529 193.981C287.529 193.981 261.138 243.738 250.338 260.512C240.664 275.59 231.648 296.133 231.648 296.133L224.886 243.644L196.898 320.446C196.898 320.446 219.345 361.91 231.272 371.523C242.167 380.38 259.072 371.145 265.552 358.519L289.032 313.002C289.22 312.625 289.407 312.154 289.595 311.776L330.544 216.315C330.544 216.315 325.002 211.792 310.539 202.934C297.015 194.641 287.529 193.981 287.529 193.981Z" fill="#6248DD"/>
<path d="M179.528 343.153L169.573 394.51L129.846 415.997V382.637L179.528 343.153Z" fill="#E63891"/>
<path d="M121.11 161.186C124.116 154.873 125.243 141.774 125.9 135.366C129.187 138.758 131.629 140.549 131.629 140.549C131.629 140.549 148.628 152.045 160.18 156.852C160.744 160.244 161.589 164.391 162.81 168.82C166.097 180.222 172.671 182.861 172.671 182.861C172.671 182.861 174.644 205.289 175.583 228C176.522 250.711 172.953 277.851 172.953 277.851L133.507 281.715C133.507 281.715 130.22 259.475 120.735 230.639C111.249 201.803 103.642 177.772 103.642 177.772C103.642 177.772 118.105 167.406 121.11 161.186Z" fill="#E48E72"/>
<path d="M115.193 213.95C122.143 214.516 131.159 215.175 139.706 215.175C151.821 215.175 166.848 212.819 174.737 211.406C175.019 216.683 175.395 222.337 175.582 228.086C176.522 250.797 172.953 277.937 172.953 277.937L133.507 281.801C133.507 281.801 130.22 259.561 120.735 230.724C118.762 224.882 116.978 219.228 115.193 213.95Z" fill="#FFC701"/>
<path fill-rule="evenodd" clip-rule="evenodd" d="M104.798 308.342C105.327 310.025 105.61 311.005 105.61 311.005C105.61 311.005 166.187 257.573 175.485 247.867C184.783 238.161 187.037 235.428 187.037 235.428C187.037 235.428 194.55 242.307 208.732 254.369C222.82 266.526 224.51 268.505 224.51 270.861C224.51 273.217 194.175 328.345 159.143 361.14C124.112 393.935 102.323 398.927 95.7487 398.927C89.1745 398.927 74.4296 394.216 61.2809 369.526C59.8669 366.87 58.5027 364.156 57.1895 361.397C58.2671 360.364 59.4282 359.313 60.6655 358.193C65.3225 353.978 71.0623 348.785 77.5252 339.733C88.477 324.394 98.7074 313.816 104.798 308.342Z" fill="#6248DD"/>
<path d="M197.538 240.153C197.538 240.153 200.262 229.787 205.333 221.494C210.405 213.201 215.288 206.416 216.697 199.631C218.106 192.846 217.448 188.417 220.078 191.244C222.708 193.977 221.956 201.893 220.83 207.924C219.796 214.049 218.857 219.704 218.857 219.704C218.857 219.704 222.896 217.442 228.719 215.934C234.542 214.426 237.641 215.84 236.796 214.521C235.95 213.201 238.111 200.951 240.458 194.26C242.806 187.569 244.309 185.59 244.873 188.511C245.436 191.433 241.961 208.866 242.806 211.882C243.651 214.897 241.773 224.321 244.403 212.165C247.033 200.008 256.049 194.825 256.988 194.354C257.927 193.977 258.209 196.898 255.485 203.212C252.762 209.526 249.193 218.667 249.193 218.667C249.193 218.667 256.425 207.641 260.651 204.154C264.877 200.668 268.54 202.081 267.413 202.458C266.192 202.835 262.905 207.358 260.745 212.165C258.491 216.876 254.452 224.51 254.452 224.51L257.082 223.85C257.082 223.85 261.12 216.594 264.22 213.107C267.319 209.62 270.23 211.034 270.23 211.034C270.23 211.034 265.159 219.609 263.468 224.415C261.778 229.221 259.054 230.729 249.193 235.912C239.331 241.001 229.376 245.053 221.581 252.78C213.786 260.508 209.747 262.958 209.747 262.958L197.068 242.886L197.538 240.153Z" fill="#F4A078"/>
<path d="M160.367 100.39C160.367 100.39 161.118 97.658 164.969 96.904C168.82 96.15 172.201 96.904 172.201 96.904C172.201 96.904 168.162 97.1865 165.251 98.6945C162.339 100.108 160.367 100.39 160.367 100.39Z" fill="black"/>
<path d="M151.793 416H67.2609C55.2266 416 45.5215 406.411 45.5215 394.638V322.961C45.5215 311.189 55.3236 301.6 67.3579 301.6H151.89C163.924 301.6 173.726 311.189 173.726 322.961V394.638C173.629 406.411 163.827 416 151.793 416Z" fill="#59CEE7"/>
<path d="M307.815 416H223.283C211.248 416 201.446 406.456 201.446 394.739V250.062C201.446 238.344 211.248 228.8 223.283 228.8H307.815C319.849 228.8 329.651 238.344 329.651 250.062V394.833C329.554 406.456 319.849 416 307.815 416Z" fill="#59CEE7"/>
<path d="M463.787 416H379.161C367.099 416 357.373 406.508 357.373 394.735V90.5964C357.373 78.8257 367.099 69.3333 379.161 69.3333H463.787C475.848 69.3333 485.578 78.8257 485.578 90.5964V394.642C485.578 406.411 475.848 416 463.787 416Z" fill="#E63891"/>
<path d="M405.415 156.581V164.34H435.187V175.843H405.415V188.32H382.959V175.843H369.598V164.34H382.959V91.2537H424.726C437.869 91.2537 448.135 94.0263 455.523 99.5716C462.91 105.117 466.618 113.265 466.618 123.99C466.618 134.619 462.91 142.718 455.523 148.263C448.135 153.808 437.844 156.581 424.726 156.581H405.415ZM438.967 113.313C435.602 110.808 430.821 109.568 424.556 109.568H405.391V138.972H424.556C430.796 138.972 435.602 137.708 438.967 135.154C442.331 132.6 443.988 128.928 443.988 124.136C444.012 119.418 442.331 115.794 438.967 113.313Z" fill="white"/>
<defs>
<linearGradient id="paint0_linear_584_24" x1="392.29" y1="201.328" x2="332.711" y2="209.013" gradientUnits="userSpaceOnUse">
<stop offset="0.0704572" stop-color="#0A31A9"/>
<stop offset="0.7154" stop-color="#0F3FCE"/>
</linearGradient>
<linearGradient id="paint1_linear_584_24" x1="499.196" y1="213.845" x2="439.343" y2="203.338" gradientUnits="userSpaceOnUse">
<stop offset="0.3508" stop-color="#030C67"/>
<stop offset="0.7154" stop-color="#0D1E7A"/>
</linearGradient>
<linearGradient id="paint2_linear_584_24" x1="369.743" y1="245.927" x2="323.194" y2="261.14" gradientUnits="userSpaceOnUse">
<stop offset="0.0652654" stop-color="#0784C0"/>
<stop offset="0.7036" stop-color="#02C8DC"/>
</linearGradient>
<linearGradient id="paint3_linear_584_24" x1="334.439" y1="340.263" x2="305.271" y2="368.597" gradientUnits="userSpaceOnUse">
<stop offset="0.0704572" stop-color="#0A31A9"/>
<stop offset="0.7154" stop-color="#0F3FCE"/>
</linearGradient>
<linearGradient id="paint4_linear_584_24" x1="554.701" y1="317.307" x2="487.772" y2="283.694" gradientUnits="userSpaceOnUse">
<stop offset="0.3508" stop-color="#3F69CB"/>
<stop offset="0.7154" stop-color="#2A48B4"/>
</linearGradient>
</defs>
</svg>
