<svg width="200" height="120" viewBox="0 0 200 120" fill="none" xmlns="http://www.w3.org/2000/svg">
<g clip-path="url(#clip0_1345_63758)">
<path d="M36.0527 69.1801C36.0527 69.1801 43.3949 70.2176 48.3429 68.5417C53.2909 66.8657 57.6004 64.5713 60.7927 68.0229C63.9849 71.4745 67.4166 78.7968 67.4166 78.7968L36.0527 69.1801Z" fill="#097896"/>
<path d="M33.7374 63.2546C33.7374 63.2546 35.3535 58.6059 36.7102 55.8326C38.0669 53.0593 45.8679 47.6525 49.5989 46.9342C53.3298 46.2159 54.7464 46.2359 54.7464 46.2359C54.7464 46.2359 50.8359 46.9142 44.5112 52.8399C38.1866 58.7655 34.5554 63.9928 34.3758 65.0901C34.1963 66.1875 33.8172 67.8035 33.3384 66.5865C32.8396 65.3694 33.7374 63.2546 33.7374 63.2546Z" fill="#097896"/>
<path d="M24.0224 36.2003C24.0224 36.2003 23.2841 41.5872 23.9625 45.7571C24.6409 49.9269 25.8978 55.4336 26.7956 56.7703C27.6735 58.1071 30.4667 57.1893 33.5592 56.8302C36.6517 56.471 39.4449 57.708 39.4449 57.708L45.8893 47.7921L40.3826 50.9644L44.0138 37.7365L41.041 42.9838L41.9389 36.8188L38.2877 47.014L40.4425 35.7214L37.6892 43.7619L38.607 34.9433C38.607 34.9433 36.5918 40.0709 36.6317 39.9112C36.6716 39.7516 36.6916 35.1029 36.6916 35.1029C36.6916 35.1029 35.0556 43.8417 34.9758 43.702C34.896 43.5624 34.6366 34.7837 34.6366 34.7837L33.22 39.4524L32.6015 36.0805C32.6015 36.0805 31.9631 39.7915 31.6838 39.3326C31.4044 38.8738 30.4069 36.5793 30.4069 36.5793L30.2273 42.2655C30.2273 42.2655 29.3095 37.3175 28.9703 36.3798C28.6312 35.462 27.5937 37.7964 27.5937 38.6742C27.5937 39.5521 27.1148 43.5424 27.1148 43.5424L25.9776 36.2003L25.6783 46.9342L24.0224 36.2003Z" fill="#097896"/>
<path d="M34.0569 63.554C34.0569 63.554 32.6603 55.1544 32.4807 53.7778C32.3011 52.4011 33.3985 52.5208 33.598 53.6381C33.7975 54.7354 34.3163 56.9501 34.2963 56.0323C34.2763 55.1145 34.3562 54.3963 34.6355 53.3388C34.9348 52.2814 36.3114 51.3237 35.8725 53.279C35.4335 55.2342 35.4734 62.4766 35.4734 62.4766L34.0569 63.554Z" fill="#097896"/>
<path d="M21.9456 71.5346C24.1802 67.2849 25.6566 67.4645 25.6566 67.4645C25.6566 67.4645 33.7968 68.2027 34.9341 70.6966C36.0713 73.1906 36.1711 78.358 35.5326 79.3556C35.1535 79.9342 34.1559 80.6126 32.4601 81.1113C32.4401 79.0563 32.4202 75.0261 32.4002 74.7667C32.3603 74.4874 31.8815 79.1361 31.662 81.3308C31.4824 81.3707 31.3029 81.4106 31.1233 81.4505L31.263 74.9264L29.9861 81.6301C29.607 81.67 29.208 81.7099 28.789 81.7498L28.9685 75.6047L27.6916 81.7897C27.6517 81.7897 27.6118 81.7897 27.5719 81.7897C27.1929 81.7897 26.8138 81.7897 26.4546 81.7697L26.4746 74.7268C26.4746 74.7268 25.6965 79.8544 25.3174 81.67C24.9184 81.6101 24.5592 81.5503 24.2001 81.4705L24.26 75.4251L22.5042 80.9517C22.205 80.832 21.9057 80.6924 21.6463 80.5727L22.1451 77.3006L20.6886 79.9941C20.0502 79.5352 19.6711 79.0563 19.6113 78.7172C19.4317 77.6597 19.711 75.7843 21.9456 71.5346Z" fill="#097896"/>
<path d="M35.2944 63.534C35.2944 63.534 35.1348 63.4542 34.8555 63.3345C35.0749 63.3345 35.2944 63.534 35.2944 63.534Z" fill="#097896"/>
<path d="M0.937723 67.0054L1.87545 66.9655L1.15719 66.4268C1.237 66.2273 1.3168 66.0278 1.39661 65.8482L3.7908 66.7261L1.71583 65.0701C1.83554 64.8107 1.95525 64.5713 2.09491 64.312L4.01026 65.549L2.35428 63.8331C2.45404 63.6735 2.5538 63.4939 2.67351 63.3343L6.58402 65.948L3.2122 62.5762C3.37181 62.3567 3.55138 62.1572 3.73094 61.9377L7.96067 65.1499L4.36939 61.2793C4.54896 61.1197 4.72852 60.9601 4.92804 60.8005L8.49937 63.7733L5.48668 60.3815C5.52658 60.3615 5.56649 60.3216 5.58644 60.3017L8.25995 62.0375L6.3845 59.8428C6.52416 59.763 6.66382 59.7031 6.82343 59.6433L12.4498 64.691L8.02053 59.2243C8.63903 59.0647 9.27748 58.945 9.93588 58.8652L13.6868 61.7183L11.0532 58.7455C11.3325 58.7255 11.6118 58.7056 11.9111 58.7056L15.6221 62.2769L13.0882 58.7056C18.555 58.7654 24.1214 60.581 27.3536 61.1397C30.7454 61.7182 33.758 62.8754 34.8554 63.3343C34.4763 63.3343 34.1172 63.8531 34.8753 66.746C36.0724 71.3349 36.2719 72.8911 33.8778 72.2128C31.4836 71.5344 20.5302 64.9305 14.5447 65.4492C8.55922 65.9679 8.41956 64.8307 4.92804 66.746C1.43651 68.6414 0 70.8361 0 70.8361C0 70.8361 0.199516 69.1203 0.937723 67.0054Z" fill="#097896"/>
<path d="M19.313 67.1454L16.9986 69.1804L14.9037 69.4597L15.3625 68.1429L14.2652 69.5395L13.0881 69.6992L14.3251 67.8038L12.2501 69.8189L11.2525 69.9585L12.4297 68.3225L10.235 70.0982L8.45931 70.3376L14.1056 66.1278L7.98047 69.2004L8.23984 68.7614L12.9484 65.1502L9.21747 67.1055L10.5343 64.9108C10.5343 64.9108 16.5197 64.0928 19.4327 64.8509C22.3456 65.6091 25.897 67.9833 25.897 67.9833L17.8365 69.0607L19.313 67.1454Z" fill="#097896"/>
<path d="M12.478 50.8993L2.47006 45.9626C2.4631 45.8019 2.47764 45.623 2.51207 45.4456L12.4469 50.2963L2.7374 44.6432C2.8116 44.4691 2.8858 44.2949 2.99815 44.1439L16.3886 51.0569L3.62655 43.5544C3.77383 43.4663 3.93938 43.3997 4.12159 43.3745L13.9344 48.4954L4.94338 43.3612C5.36098 43.3951 5.81675 43.4521 6.25101 43.5274L14.2494 47.8204L9.57782 44.2181C9.81322 44.2773 9.96908 44.33 9.96908 44.33C9.96908 44.33 9.95566 44.2488 9.94708 44.108L15.4335 47.5363L9.96012 43.2083C9.97305 43.0492 10.0059 42.8917 10.0403 42.7143L13.3239 44.9228L10.2495 42.1108C10.3435 41.9383 10.4559 41.7873 10.5865 41.6578L16.4379 45.2759L11.2783 41.2736C11.3197 41.2569 11.3396 41.2586 11.3611 41.2403C11.5648 41.1968 11.8067 41.1764 12.0668 41.1775L16.028 44.1616L13.4174 41.3073C15.4479 41.6924 18.3054 42.9855 21.6136 45.8765C26.2497 49.9164 27.8461 55.8911 29.34 57.2135C30.834 58.5359 32.4326 63.9904 32.4326 63.9904L31.3894 63.5253L28.84 58.1938C28.84 58.1938 4.32768 48.4756 3.15129 47.6794C2.96051 47.5638 2.81758 47.352 2.71765 47.1037L12.478 50.8993Z" fill="#097896"/>
<path d="M63.8451 62.2569C63.6057 62.2968 63.3464 62.3566 63.067 62.3965L60.8125 60.541C61.4709 60.6807 62.1094 60.8203 62.668 60.96L63.8451 62.2569Z" fill="#097896"/>
<path d="M47.6234 60.0023C51.7534 59.1444 56.6016 59.723 60.2527 60.4413L62.4275 62.5162C62.2279 62.5561 62.0085 62.596 61.789 62.6359L58.5968 60.2816L61.2902 62.7357C61.0309 62.7756 60.7515 62.8354 60.4722 62.8953L56.7413 60.1021L59.4347 63.0948C59.315 63.1148 59.1953 63.1347 59.0956 63.1547L54.4069 60.4014L57.7588 63.3941C57.5593 63.434 57.3398 63.4739 57.1203 63.5138L54.2274 61.359L56.422 63.6335C51.6137 64.5513 46.3864 65.5688 44.3913 66.0476C40.3411 67.0253 35.832 67.7635 35.832 67.7635C35.832 67.7635 39.7824 61.6184 47.6234 60.0023Z" fill="#097896"/>
<path d="M63.5859 61.2192C65.0025 61.5983 65.8804 61.8776 65.8804 61.8776C65.8804 61.8776 65.3616 61.9774 64.5037 62.137L63.5859 61.2192Z" fill="#097896"/>
<path d="M125.387 12.1069V116.214H101.655V31.7418H55.0861V116.214H31.3535V12.1069H125.387Z" fill="#85D3B7"/>
<path d="M123.121 38.2525C123.121 38.2525 111.126 36.3744 104.169 31.4017C97.2111 26.4289 91.5554 20.7732 84.8967 24.6789C78.2379 28.5845 69.3809 38.4019 69.3809 38.4019L123.121 38.2525Z" fill="#097896"/>
<path d="M125.554 37.9325C125.554 37.9325 125.874 31.4231 125.597 27.3254C125.298 23.2277 118.383 12.6846 114.136 9.95284C109.889 7.22104 108.139 6.53809 108.139 6.53809C108.139 6.53809 112.599 9.31257 117.465 19.7703C122.331 30.228 124.167 38.466 123.847 39.896C123.526 41.3259 123.185 43.5242 124.38 42.2436C125.575 40.9631 125.554 37.9325 125.554 37.9325Z" fill="#097896"/>
<path d="M157.677 9.52068C157.677 9.52068 156.752 15.1293 154.499 18.7819C152.226 22.4345 148.746 27.0451 147.197 27.8435C145.628 28.6419 142.45 26.2268 138.708 24.1909C134.966 22.1551 131.044 21.7758 131.044 21.7758L126.377 8.66243L132.17 14.77V0L134.081 6.70639L135.067 0.259474L136.153 12.1154L137.32 0.039919L138.024 9.30113L139.875 0.299393C139.875 0.299393 140.639 6.34712 140.659 6.16749C140.679 5.98785 142.228 1.49696 142.228 1.49696C142.228 1.49696 141.283 10.838 141.424 10.7183C141.564 10.5985 144.884 2.29534 144.884 2.29534L145.065 7.58461L146.996 4.67052C146.996 4.67052 146.533 8.58259 147.036 8.30315C147.539 8.02372 149.571 6.36708 149.571 6.36708L147.861 11.9557C147.861 11.9557 150.697 7.68441 151.441 6.98583C152.186 6.28724 152.669 9.12149 152.367 9.93983C152.065 10.7582 151.301 14.8898 151.301 14.8898L155.243 8.44287L151.944 18.9615L157.677 9.52068Z" fill="#097896"/>
<path d="M126.765 38.9352C126.765 38.9352 134.704 25.9378 135.942 23.7822C137.18 21.6267 135.259 21.0931 134.192 22.7792C133.125 24.4652 130.799 27.7946 131.439 26.2793C132.079 24.764 132.442 23.5475 132.677 21.584C132.911 19.6205 131.247 17.1448 130.67 20.6663C130.094 24.1877 125.186 36.2034 125.186 36.2034L126.765 38.9352Z" fill="#097896"/>
<path d="M137.057 50.4816C136.417 44.1429 134.496 43.6307 134.496 43.6307C134.496 43.6307 124.102 40.4934 121.456 42.9905C118.81 45.4875 116.12 51.8048 116.419 53.3628C116.59 54.2592 117.486 55.6037 119.343 57.055C120.389 54.5153 122.416 49.5639 122.587 49.2651C122.758 48.9449 121.051 54.8994 120.24 57.6953C120.432 57.8233 120.645 57.9727 120.858 58.1008L123.91 50.0121L122.16 58.8904C122.609 59.1252 123.078 59.3813 123.569 59.6161L126.386 51.9542L124.892 60.2136C124.935 60.235 124.978 60.2563 125.042 60.2777C125.511 60.4697 125.959 60.6405 126.429 60.8112L129.908 52.1249C129.908 52.1249 128.328 58.8264 127.88 61.2381C128.392 61.3661 128.883 61.4728 129.353 61.5582L132.277 54.0884L131.7 61.7716C132.149 61.7716 132.554 61.7503 132.938 61.7289L133.963 57.4605L134.432 61.4942C135.457 61.2381 136.139 60.8539 136.396 60.4484C137.143 59.2746 137.719 56.8202 137.057 50.4816Z" fill="#097896"/>
<path d="M124.615 37.9539C124.615 37.9539 124.85 37.9539 125.256 37.9326C124.978 37.8259 124.615 37.9539 124.615 37.9539Z" fill="#097896"/>
<path d="M167.834 55.2625L166.639 54.7076L167.855 54.3875C167.855 54.0887 167.855 53.7899 167.855 53.4911L164.249 53.363L167.813 52.2959C167.791 51.8904 167.749 51.5063 167.706 51.1008L164.569 51.6983L167.642 50.3324C167.599 50.055 167.557 49.7775 167.493 49.5001L160.983 50.866L167.194 48.2196C167.087 47.8567 166.98 47.4726 166.852 47.1098L159.617 49.0733L166.361 45.8933C166.212 45.5731 166.063 45.2743 165.892 44.9755L159.617 47.0031L165.358 44.1645C165.316 44.1219 165.294 44.0578 165.252 44.0151L160.834 44.8688L164.462 42.9907C164.313 42.82 164.163 42.6492 164.014 42.4998L153.94 46.1494L162.648 41.326C161.901 40.7925 161.133 40.2803 160.343 39.8321L153.919 41.6035L158.934 39.1064C158.572 38.9357 158.209 38.7436 157.846 38.5942L151.102 41.2833L156.309 37.954C149.096 35.1581 140.857 34.5819 136.312 33.5788C131.552 32.533 126.985 32.469 125.299 32.4903C125.79 32.6824 125.982 33.5788 123.485 36.9722C119.494 42.3718 118.384 44.2926 121.906 44.6554C125.406 45.0182 143.291 42.1797 150.846 46.0213C158.422 49.8629 159.212 48.4543 162.776 52.8081C166.34 57.162 167.044 60.8115 167.044 60.8115C167.044 60.8115 167.685 58.4211 167.834 55.2625Z" fill="#097896"/>
<path d="M142.884 45.5302L144.869 49.4572L147.473 50.9298L147.558 48.945L148.263 51.378L149.735 52.2104L149.116 49.0517L150.802 52.8079L152.061 53.5336L151.379 50.7591L153.342 54.2806L155.54 55.5397L150.311 46.9602L156.757 54.2806L156.65 53.5549L152.339 46.2772L156.223 50.8445L155.647 47.259C155.647 47.259 148.156 42.9905 143.93 42.4356C139.683 41.8594 133.729 43.1186 133.729 43.1186L143.823 48.8596L142.884 45.5302Z" fill="#097896"/>
<path d="M157.483 34.7736L173.447 34.8376C173.553 34.6242 173.66 34.3894 173.724 34.1546L157.888 34.0266L173.959 32.9808C173.98 32.7034 173.98 32.4259 173.959 32.1698L152.403 32.4686L173.575 30.9746C173.447 30.7612 173.276 30.5905 173.062 30.4197L157.205 30.7185L172.017 29.8862C171.44 29.6728 170.843 29.4593 170.245 29.2673L157.227 29.6728L165.529 28.0508C165.166 27.9654 164.952 27.9227 164.952 27.9227C164.952 27.9227 165.016 27.816 165.123 27.6666L155.903 28.563L165.699 26.5141C165.785 26.3007 165.849 26.0659 165.913 25.8312L160.279 26.5568L166.02 24.8921C166.02 24.6147 165.977 24.3372 165.87 24.0811L156.053 24.9775L165.23 23.142C165.187 23.1207 165.166 23.078 165.123 23.0567C164.888 22.8646 164.59 22.6939 164.27 22.5231L157.291 23.825L162.455 21.8188C159.617 21.0078 155.114 20.8584 149.031 22.4378C140.494 24.6573 134.604 31.3161 131.829 32.0631C129.055 32.8101 123.506 38.8072 123.506 38.8072L125.149 38.8926L131.851 33.6851C131.851 33.6851 169.477 36.8864 171.505 36.609C171.825 36.5663 172.123 36.3956 172.422 36.1608L157.483 34.7736Z" fill="#097896"/>
<path d="M85.7305 17.294C86.0719 17.4647 86.4561 17.6568 86.8403 17.8702L91.5569 14.8823C90.4258 14.925 89.38 15.0104 88.4196 15.0957L85.7305 17.294Z" fill="#097896"/>
<path d="M112.237 18.4469C106.411 15.2242 98.5567 14.6693 92.4315 14.8614L87.7148 18.3401C88.0136 18.4895 88.3124 18.6603 88.6326 18.8097L95.0993 15.1175L89.3369 19.1725C89.721 19.3646 90.1052 19.578 90.5107 19.7701L98.1085 15.3522L91.9833 20.5384C92.154 20.6238 92.3034 20.7091 92.4742 20.7945L101.502 16.8249L94.3523 21.7762C94.6511 21.9256 94.9499 22.0964 95.2487 22.2458L101.118 18.8737L96.2304 22.758C103.039 26.3221 110.466 30.2704 113.219 31.9565C118.832 35.3926 125.277 38.5085 125.277 38.5085C125.277 38.5085 123.271 24.5507 112.237 18.4469Z" fill="#097896"/>
<path d="M86.7978 15.2456C84.3648 15.5017 82.8281 15.8005 82.8281 15.8005C82.8281 15.8005 83.5538 16.1633 84.7916 16.8036L86.7978 15.2456Z" fill="#097896"/>
<path d="M88.8185 116.194L61.8653 85.7046L52.8809 116.194H88.8185Z" fill="#FFC701"/>
<path d="M61.8629 85.7046L52.8785 116.194L40.9766 109.895L61.8629 85.7046Z" fill="#F1A17E"/>
<path d="M73.1325 116.194L31.4565 68.0259L17.5645 116.194H73.1325Z" fill="#FFC701"/>
<path d="M31.4551 68.0259L17.5631 116.194H0L31.4551 68.0259Z" fill="#F1A17E"/>
<path d="M36.6172 84.0046L39.0516 82.1691L44.6162 83.2317L31.4584 68.0259L27.8066 80.662L36.6172 84.0046Z" fill="white"/>
<path d="M26.5867 79.1936L27.8039 80.662L31.4556 68.0259L23.418 80.3335L26.5867 79.1936Z" fill="#FEE4A1"/>
<path d="M43.3051 53.2981C47.1594 53.2981 50.284 50.1736 50.284 46.3192C50.284 42.4649 47.1594 39.3403 43.3051 39.3403C39.4507 39.3403 36.3262 42.4649 36.3262 46.3192C36.3262 50.1736 39.4507 53.2981 43.3051 53.2981Z" fill="#FEE4A1"/>
<path d="M82.5925 53.2348L80.6504 35.8408L97.0839 34.3042L115.502 37.3135L133.174 34.6884L147.665 35.8408L150.354 63.479L103.935 83.6474L86.4982 94.6814L82.5925 53.2348Z" fill="white"/>
<path d="M83.5547 37.826L98.0461 36.6948L115.589 39.7468L133.047 37.1217L145.554 38.4235L147.603 63.1592L88.1646 87.8308L83.5547 37.826Z" fill="#59CEE7"/>
<path d="M116.505 52.8936H116.441L98.5993 50.0124L84.5347 51.0795L84.4707 50.2258L98.6419 49.1587H98.6846L116.505 52.0399L132.939 49.8416L146.662 50.61L146.619 51.4637L132.96 50.6953L116.505 52.8936Z" fill="white"/>
<path d="M86.1578 66.1683L86.0938 65.3146L99.8808 64.0981L97.6185 36.7374L98.4722 36.6733L100.799 64.8878L86.1578 66.1683Z" fill="white"/>
<path d="M116.002 39.543L115.15 39.5977L116.271 57.0615L117.123 57.0069L116.002 39.543Z" fill="white"/>
<path d="M81.5239 88.4921C81.5239 88.4921 80.158 74.8118 79.5817 70.3299C79.0055 65.848 79.4537 59.5521 79.6244 55.9025C79.7525 52.9787 82.5696 52.5945 82.6123 53.2348C82.6764 54.7714 83.3166 63.0095 83.3166 63.0095C83.3166 63.0095 85.024 58.8905 86.0057 56.1586C86.6887 54.2592 89.0577 56.2867 88.0546 58.7197C86.9875 61.3448 86.6033 62.4119 86.7741 64.8663C86.9021 66.8084 87.0088 68.281 86.7527 69.5616C86.582 70.4579 86.2618 71.1409 86.2618 71.1409L90.6583 83.434C90.6583 83.434 90.6583 91.5014 86.8167 91.3093C82.9751 91.1172 81.5239 88.4921 81.5239 88.4921Z" fill="#F1A17E"/>
<path d="M153.041 63.4787C153.041 63.4787 152.934 56.6705 152.209 54.6857C151.12 51.6764 149.093 52.4661 149.093 52.4661L148.901 62.1768C148.901 62.1768 146.532 56.329 146.147 55.326C146.062 55.0912 144.483 55.1339 144.504 56.0516C144.525 57.3962 144.718 58.6127 144.952 59.7438C145.187 60.8749 145.251 62.4969 145.251 62.4969L153.382 64.8659L153.041 63.4787Z" fill="#F1A17E"/>
<path d="M136.693 55.3264C136.052 47.3871 136.052 44.2925 136.693 40.9631C137.333 37.6337 138.741 33.1518 136.693 30.3133C134.644 27.4961 131.442 24.807 126.171 24.9351C120.921 25.0631 120.024 27.4961 119 30.0572C117.975 32.6183 118.36 40.1948 118.36 43.0119C118.36 45.8291 118.744 50.1829 119.896 50.5671C121.049 50.9512 121.305 50.6951 121.177 52.3598C121.049 54.0245 121.049 55.305 121.049 55.305H136.693V55.3264Z" fill="#F1A17E"/>
<path d="M127.474 48.6461C126.663 47.1308 125.297 43.3959 125.041 42.2434C124.785 41.0909 125.297 41.347 126.258 39.1701C127.218 36.9932 126.578 35.7127 124.977 35.0724C123.376 34.4321 122.096 35.9688 121.712 37.7615C121.328 39.5543 121.328 40.3226 121.712 42.4995C122.096 44.6764 122.245 47.1734 121.413 48.9662C120.602 50.7803 119.642 51.6553 118.297 50.6309C116.952 49.6065 117.209 48.1979 117.465 46.7253C117.721 45.2526 117.977 46.021 117.593 44.9965C117.209 43.9721 117.593 43.2251 117.977 42.9904C118.361 42.7556 118.425 44.5483 119.129 43.9081C119.834 43.2678 120.474 42.4995 120.602 41.0909C120.73 39.6823 120.858 37.8896 120.794 36.417C120.73 34.9444 120.154 35.8407 119.834 34.048C119.514 32.2552 119.77 31.4869 119.834 30.2064C119.898 28.9258 119.001 30.0783 119.001 30.0783C119.001 30.0783 117.209 28.3496 118.297 25.8526C119.385 23.3555 123.376 21.6268 130.035 22.6512C136.715 23.6757 138.551 26.6849 138.295 27.7093C138.039 28.7338 138.423 27.7093 138.807 29.6942C139.191 31.679 139.895 36.2889 138.231 40.9842C136.566 45.6795 136.224 47.8351 136.246 48.3046C136.288 49.4144 127.944 49.5424 127.474 48.6461Z" fill="#FCE3C4"/>
<path d="M107.923 60.4485C114.198 58.2076 117.079 57.7594 118.295 56.735C119.512 55.7105 119.213 53.7897 120.152 53.6617C121.091 53.5336 137.418 53.1495 137.759 53.6617C138.101 54.1739 137.845 56.735 138.741 57.2472C139.253 57.546 143.372 59.1253 147.321 60.6406C150.18 61.7291 152.976 62.4974 154.107 64.1621C156.797 68.1317 158.312 79.9767 161.257 89.3459C164.202 98.7151 165.995 107.7 160.595 108.404C153.36 109.365 154.748 111.328 154.748 111.328L149.177 116.194H105.405L104.764 87.2117C104.764 87.2117 97.3371 97.2212 93.9864 101.319C90.657 105.417 85.4709 103.944 83.8489 101.639C82.2482 99.3341 81.2238 94.34 80.7116 92.2057C80.1993 90.0929 82.1842 86.2299 85.0013 84.7573C87.8185 83.2847 88.3307 84.4372 88.8429 83.925C89.3552 83.4128 96.8463 69.7537 98.2122 67.2567C99.5781 64.8023 101.392 62.7748 107.923 60.4485Z" fill="#E63891"/>
<path d="M137.761 63.9051C137.761 63.9051 138.614 58.4201 138.721 57.2463C138.785 56.6274 139.937 57.417 141.709 58.1C143.139 58.6335 143.864 58.7402 143.864 59.1884C143.864 60.1915 143.608 62.1977 143.48 63.9477C143.352 65.6978 143.075 68.1522 143.075 68.1522L136.992 67.5759L137.761 63.9051Z" fill="white"/>
<path d="M124.335 67.1279C124.335 67.1279 117.869 56.9263 117.677 56.6062C117.485 56.286 116.417 56.9903 114.497 57.6306C112.576 58.2709 111.765 58.3989 112.405 59.7435C113.259 61.4722 118.253 70.2012 118.253 70.2012L124.335 67.1279Z" fill="white"/>
<path d="M119.9 120C110.707 120 109.613 109.292 109.95 107.154C111.17 99.1071 113.274 86.219 114.599 81.4619C116.05 76.2857 115.419 70.2294 116.24 66.9183C117.06 63.6072 120.762 62.3498 123.308 62.4127C125.853 62.4755 136.476 62.3498 138.853 62.4127C141.23 62.4755 145.858 62.266 147.752 68.0709C149.645 73.8967 156.124 104.954 156.65 109.019C157.323 114.3 152.8 120 147.036 120C142.493 120 128.882 120 119.9 120Z" fill="#59CEE7"/>
<path d="M121.055 79.0097C121.245 73.163 123.79 62.4333 123.327 62.4124C120.761 62.3495 117.08 63.6069 116.259 66.918C115.439 70.2291 116.07 76.2854 114.618 81.4616C113.272 86.2397 111.19 99.1277 109.969 107.154C109.633 109.292 110.727 120 119.919 120C126.651 120 120.319 100.804 121.055 79.0097Z" fill="#59CEE7"/>
<path d="M147.772 68.0913C146.741 64.9479 144.932 63.5648 143.102 62.957C143.102 62.957 145.184 64.3821 147.056 78.5066C148.192 86.9939 150.759 105.372 150.717 109.648C150.675 112.414 150.338 114.635 149.917 116.395C149.56 117.904 151.285 119.078 152.547 118.156C155.387 116.039 157.112 112.456 156.691 109.04C156.165 104.953 149.665 73.8962 147.772 68.0913Z" fill="#59CEE7"/>
<path d="M141.883 62.5381C144.513 63.1458 146.848 64.3404 147.394 71.8846C147.941 79.4289 149.898 86.8264 144.029 87.2874C138.16 87.7485 129.177 87.7066 125.517 87.6228C121.836 87.5389 120.826 85.5062 121.036 80.0366C121.247 74.546 122.656 67.9029 121.015 65.5977C119.375 63.2925 120.973 62.1819 123.561 62.1819C126.106 62.2028 137.991 61.6579 141.883 62.5381Z" fill="white"/>
<path d="M135.237 83.4106C138.153 83.4106 140.517 82.3129 140.517 80.9587C140.517 79.6046 138.153 78.5068 135.237 78.5068C132.321 78.5068 129.957 79.6046 129.957 80.9587C129.957 82.3129 132.321 83.4106 135.237 83.4106Z" fill="#FFC701"/>
<path d="M122.196 98.3316C130.294 98.2897 141.296 98.0173 145.735 98.3316C150.173 98.646 151.099 99.8614 151.393 104.723C151.709 109.606 153.644 115.264 144.662 115.872C135.68 116.48 125.372 116.04 122.932 115.788C116.6 115.159 116.705 111.01 117.021 106.232C117.336 101.475 118.893 98.3316 122.196 98.3316Z" fill="white"/>
<path d="M125.076 100.071C132.396 100.05 142.325 99.7983 146.322 100.071C150.34 100.343 151.16 101.454 151.434 105.855C151.707 110.255 153.453 115.369 145.354 115.914C137.255 116.458 127.958 116.06 125.749 115.851C120.048 115.285 120.132 111.534 120.406 107.238C120.7 102.9 122.088 100.071 125.076 100.071Z" fill="#59CEE7"/>
</g>
<defs>
<clipPath id="clip0_1345_63758">
<rect width="200" height="120" fill="white"/>
</clipPath>
</defs>
</svg>
