<svg width="200" height="120" viewBox="0 0 200 120" fill="none" xmlns="http://www.w3.org/2000/svg">
<path d="M149.176 68.5693C152.936 73.4636 154.817 79.1568 154.819 85.6489C154.819 92.6888 152.53 98.7949 147.951 103.967C143.373 109.139 137.184 113.1 129.384 115.848C121.587 118.599 113.053 119.974 103.784 119.974C95.867 119.966 87.9821 118.968 80.3126 117.004C72.5357 115.032 65.0747 111.976 58.1484 107.927L66.3259 88.7844C71.4851 91.9262 77.08 94.2892 82.9295 95.7967C88.7171 97.3577 94.6825 98.1625 100.677 98.191C108.527 98.191 115.042 96.7606 120.224 93.8998C125.406 91.039 127.995 87.0233 127.992 81.8527C127.992 77.5614 126.22 74.3162 122.678 72.1169C119.135 69.9176 114.309 68.8172 108.201 68.8156H80.2297V48.6858H106.237C111.58 48.6858 115.751 47.5854 118.751 45.3845C121.751 43.1836 123.251 40.1578 123.251 36.3071C123.251 31.798 121.097 28.2781 116.79 25.7472C112.483 23.2164 106.949 21.9534 100.189 21.9581C94.9428 21.9888 89.7214 22.6819 84.6488 24.0208C79.3228 25.389 74.2062 27.4705 69.4377 30.209L61.4213 9.41603C73.5229 3.13868 86.6081 0 100.677 0C109.618 0 117.85 1.31989 125.375 3.95966C132.9 6.59943 138.899 10.4501 143.373 15.5118C147.841 20.5751 150.077 26.4609 150.08 33.1692C150.08 38.673 148.608 43.5673 145.663 47.8522C142.719 52.1371 138.684 55.4376 133.56 57.7537C140.206 60.0682 145.412 63.6734 149.176 68.5693Z" fill="#59CEE7"/>
<path d="M50.3941 119.996C50.3941 119.996 50.8678 111.771 46.2829 104.273C41.698 96.7753 41.4446 92.1786 38.0581 79.3594C34.6715 66.5403 31.5265 60.2503 24.9974 56.1391C18.4682 52.0278 18.2361 50.5761 17.0141 45.9794C15.7921 41.3827 13.386 40.8996 10.7265 39.6894C8.067 38.4793 7.57914 34.8535 4.43652 32.4451C1.2939 30.0366 -0.401746 31.9714 0.0813705 35.8316C0.564487 39.6918 2.26013 40.6699 3.22636 41.88C4.19259 43.0902 3.9534 45.7497 3.9534 48.1677C3.9534 50.5856 3.71658 50.588 7.58151 53.9722C11.4464 57.3563 12.4198 58.8104 12.9029 62.6801C13.386 66.5498 14.5962 69.4532 18.4658 72.3566C22.3355 75.26 22.8186 76.4678 23.3041 81.0645C23.7896 85.6613 27.8984 88.5623 31.285 94.1253C34.6715 99.6882 34.9131 100.415 35.157 107.188C35.4009 113.961 41.2078 119.996 41.2078 119.996H50.3941Z" fill="#02C8DC"/>
<path d="M3.95303 48.1555C3.95303 45.7375 4.18985 43.0756 3.22599 41.8678C2.26212 40.6601 0.566479 39.6891 0.0809948 35.8194C-0.132145 34.1096 0.0809948 32.781 0.654103 32.0303C2.44684 33.9248 5.5942 36.7051 6.12942 39.6843C6.88488 43.8879 8.02399 45.1005 10.8659 46.699C13.9137 48.3994 12.9972 50.751 14.1032 52.989C16.218 57.3133 20.3103 57.948 23.5761 62.0285C26.8418 66.1089 23.7868 69.0952 30.0768 75.6765C36.3668 82.2578 36.8475 83.4656 36.8475 89.0285C36.8475 94.5914 34.6712 98.4635 40.7196 104.268C46.768 110.072 46.2825 111.041 46.041 118.78C46.0268 119.19 46.0244 119.59 46.0244 119.991H41.2074C41.2074 119.991 35.4029 113.944 35.1614 107.171C34.9198 100.398 34.6877 99.6736 31.2893 94.1083C27.891 88.543 23.7916 85.6443 23.3085 81.0476C22.8253 76.4509 22.3351 75.2478 18.4726 72.3444C14.61 69.441 13.3856 66.547 12.9025 62.6679C12.4194 58.7887 11.4508 57.3465 7.57877 53.96C3.70673 50.5734 3.95303 50.5758 3.95303 48.1555Z" fill="url(#paint0_linear_11005_372585)"/>
<path d="M18.2788 12.1157C16.6542 12.3715 16.4647 17.7995 18.2788 21.0652C20.0928 24.331 21.0614 26.5121 20.3344 30.6186C19.6073 34.7251 19.9057 37.0294 21.8737 40.5367C23.8417 44.044 22.2029 45.131 21.8737 48.0345C21.5445 50.9379 22.6315 55.653 26.3733 58.798C30.1151 61.943 31.2092 68.4746 31.2092 72.1027C31.2092 75.7308 28.3081 83.1078 31.2092 87.4629C34.1103 91.8181 38.7165 98.2359 39.5548 102.821C40.3932 107.406 44.8762 119.995 44.8762 119.995L52.2058 119.964C52.2058 119.964 49.6008 114.735 51.7109 108.204C52.985 104.27 54.6735 97.6202 51.8908 93.8713C49.1082 90.1224 47.1544 89.3717 48.5588 83.9698C50.0744 78.1487 51.8908 73.4336 48.9898 69.0784C46.0887 64.7233 43.5429 62.3054 44.2723 57.2255C45.0017 52.1457 45.9656 48.8823 41.6104 45.0103C37.2553 41.1382 38.2452 39.2034 38.1291 35.8169C38.0131 32.4303 35.5786 29.0461 33.0375 27.9591C30.4964 26.8721 29.201 24.1037 28.8434 19.8788C28.4384 15.1376 20.5759 11.751 18.2788 12.1157Z" fill="#0A40CF"/>
<path d="M21.8755 48.0341C22.2047 45.1307 23.8435 44.0436 21.8755 40.5363C19.9075 37.029 19.6115 34.7294 20.3362 30.6182C21.0609 26.507 20.0994 24.3306 18.2806 21.0648C16.4618 17.7991 16.656 12.3711 18.2806 12.1154C18.533 12.0839 18.7883 12.0839 19.0408 12.1154C20.4996 13.2805 22.316 15.0851 22.9981 17.1928C24.2059 20.9441 22.0295 24.3306 25.8991 28.9249C29.7688 33.5193 31.5828 34.7294 31.1092 41.5025C30.6356 48.2756 32.1986 49.6066 36.4306 55.0487C40.6626 60.4909 40.4234 61.9426 39.4548 68.2326C38.4862 74.5226 38.2494 78.3899 42.8437 84.4383C47.4381 90.4867 49.6144 96.0426 48.6458 102.82C47.997 107.384 47.4025 111.166 49.0532 116.729C49.1763 117.153 49.3066 117.579 49.4392 118.005C49.5245 119.19 49.6144 119.964 49.6144 119.964L44.897 119.995C44.897 119.995 40.4139 107.408 39.5756 102.82C38.7372 98.2332 34.1287 91.8153 31.23 87.4625C28.3313 83.1097 31.23 75.7304 31.23 72.1023C31.23 68.4742 30.143 61.9426 26.3941 58.7976C22.6452 55.6526 21.5535 50.9375 21.8755 48.0341Z" fill="url(#paint1_linear_11005_372585)"/>
<path d="M45.5645 119.995C45.5645 119.995 40.4966 101.249 42.5403 93.63C44.5841 86.0114 48.4964 86.1322 46.6681 79.8422C44.8399 73.5522 41.5741 68.9484 44.2336 61.8224C46.8931 54.6965 46.7747 54.0831 44.5959 50.6918C42.4172 47.3006 41.5741 45.4818 43.5089 41.6192C45.4438 37.7566 47.1489 36.7833 47.1418 32.0658C47.1347 27.3483 46.6681 24.4473 46.6681 24.4473C46.6681 24.4473 53.6686 28.9895 54.1517 33.6123C54.6348 38.235 52.9415 40.653 56.2073 43.7956C59.4731 46.9382 58.5045 49.3585 58.5045 52.8659C58.5045 56.3732 61.7702 57.7041 61.891 60.8467C62.0118 63.9894 61.1663 66.2936 59.3523 70.8856C57.5382 75.4776 58.6655 78.4923 61.4079 83.3424C64.1503 88.1925 65.7631 88.0031 64.3113 97.097C62.8596 106.191 56.5696 119.986 56.5696 119.986L45.5645 119.995Z" fill="#0D1E7A"/>
<path d="M50.5236 37.7543C49.5763 41.0343 47.7267 42.531 48.5888 45.0105C49.3797 47.2911 53.1831 46.583 53.4531 49.728C53.7231 52.873 51.5988 54.8102 52.3376 59.4045C52.9415 63.1676 55.8 63.35 54.6348 67.6459C53.1097 73.2775 50.8859 75.9725 52.9415 82.2625C54.9972 88.5525 57.1759 95.6856 57.2967 102.7C57.3725 107.105 53.922 114.844 51.3406 119.988H45.5645C45.5645 119.988 40.4966 101.249 42.5403 93.63C44.5841 86.0114 48.4964 86.1322 46.6681 79.8422C44.8399 73.5522 41.5741 68.9484 44.2336 61.8224C46.8931 54.6965 46.7747 54.0808 44.5959 50.6918C42.4172 47.3029 41.5741 45.4818 43.5089 41.6192C45.4438 37.7566 47.1489 36.7833 47.1418 32.0658C47.1347 27.3483 46.6681 24.4473 46.6681 24.4473C46.6681 24.4473 51.684 33.6928 50.5236 37.7543Z" fill="url(#paint2_linear_11005_372585)"/>
<path d="M33.427 119.948C33.427 119.948 33.247 114.432 29.7397 110.804C26.2323 107.176 24.4775 107.055 22.6634 101.007C20.8494 94.9582 19.2769 92.905 15.1657 89.2816C11.0544 85.6582 9.60272 81.6559 9.23328 78.9964C8.86384 76.3369 7.90234 72.1025 7.90234 72.1025C7.90234 72.1025 11.4097 73.0925 12.2551 75.6809C13.1006 78.2694 14.2065 79.9627 19.7624 82.1414C25.3182 84.3202 31.3501 90.2857 34.4808 95.0813C37.2422 99.3133 37.1261 103.844 37.6613 107.417C38.3576 112.088 40.8869 115.737 42.2178 117.551C42.818 118.411 43.478 119.228 44.1929 119.995L33.427 119.948Z" fill="#6245DD"/>
<path d="M11.296 78.9964C12.0207 83.1076 13.7139 84.0762 18.673 85.528C23.632 86.9797 25.9292 90.4846 27.2601 94.7285C28.5911 98.9723 28.1174 101.196 32.4702 105.371C35.6199 108.398 36.5222 113.051 36.913 118.444C36.9423 118.954 36.9367 119.465 36.8964 119.974L33.4364 119.957C33.4364 119.957 33.2565 114.442 29.7491 110.813C26.2418 107.185 24.487 107.065 22.6729 101.016C20.8589 94.9677 19.2769 92.905 15.1657 89.2816C11.0544 85.6582 9.60272 81.6559 9.23328 78.9964C8.86384 76.3369 7.90234 72.1025 7.90234 72.1025C7.90234 72.1025 10.5169 74.575 11.296 78.9964Z" fill="url(#paint3_linear_11005_372585)"/>
<path d="M11.7748 119.995C11.7748 119.995 9.00158 115.278 8.26744 113.222C7.53329 111.166 6.69494 108.748 7.42198 103.91C8.14902 99.0719 6.94834 97.137 5.48478 94.2336C4.02122 91.3302 2.94605 91.091 3.42917 86.7358C3.91229 82.3807 3.19235 81.4145 1.97745 79.3588C0.762558 77.3032 1.97745 73.7959 1.97745 73.7959C1.97745 73.7959 2.7045 75.4892 3.79151 76.5762C4.87852 77.6632 5.9229 77.2701 6.60732 79.9627C7.42198 83.1077 8.04482 84.7394 11.0501 87.8252C14.2282 91.091 14.2282 95.0814 15.1589 98.5888C16.3596 103.1 18.7515 103.065 22.7775 109.232C26.8035 115.398 27.0119 119.995 27.0119 119.995H11.7748Z" fill="#0F43C1"/>
<path d="M5.24371 82.2623C6.09153 85.0426 5.60841 86.0112 6.33309 88.3083C7.05776 90.6055 9.9612 91.2118 10.3235 95.5645C10.6859 99.9173 11.6545 102.217 16.372 108.386C19.3204 112.242 20.5519 116.983 21.0634 119.99H11.7752C11.7752 119.99 9.00207 115.28 8.26792 113.222C7.53377 111.164 6.69543 108.748 7.42247 103.91C8.14951 99.0719 6.94882 97.137 5.48527 94.2336C4.02171 91.3302 2.94654 91.091 3.42966 86.7358C3.91277 82.3807 3.19283 81.4145 1.98031 79.3588C0.76778 77.3032 1.98031 73.7959 1.98031 73.7959C1.98031 73.7959 2.65525 76.6993 2.92759 77.9071C3.19994 79.1149 4.39826 79.4796 5.24371 82.2623Z" fill="url(#paint4_linear_11005_372585)"/>
<path d="M46.168 119.996C46.168 119.996 46.168 113.223 50.2792 105C54.3904 96.778 56.3252 96.051 57.5354 87.0991C58.7456 78.1472 59.9534 74.0384 63.0984 69.4417C66.2433 64.845 63.8254 63.8787 66.4849 60.0091C69.1444 56.1394 70.84 53.4775 70.84 53.4775C70.84 53.4775 71.3847 57.5035 70.84 59.9475C70.3072 62.3418 69.206 62.1263 69.4783 65.572C69.7507 69.0178 70.4753 69.9272 70.3853 74.19C70.2954 78.4527 68.9336 80.4492 67.3067 83.8049C65.6797 87.1607 65.6726 88.6124 65.4121 97.7774C65.1516 106.942 64.8674 109.026 63.5057 113.199C62.7665 115.53 61.8571 117.803 60.7846 120.001L46.168 119.996Z" fill="url(#paint5_linear_11005_372585)"/>
<path d="M50.2792 105C54.3904 96.7756 56.3252 96.051 57.5354 87.0991C58.7456 78.1472 59.9557 74.0384 63.0984 69.4417C66.241 64.845 63.8254 63.8787 66.4849 60.0091C69.1444 56.1394 70.84 53.4775 70.84 53.4775C70.84 53.4775 70.84 53.5178 70.8519 53.5723C70.7358 54.3419 70.589 55.365 70.4256 56.5444C70.0633 59.1755 68.6471 59.8267 67.3919 62.1263C66.3049 64.1203 66.8472 67.2061 67.3019 69.5625C68.1592 74.0171 66.7572 74.7346 65.0332 77.5457C63.3091 80.3568 63.4465 80.2739 62.2221 87.2554C60.2257 98.6394 53.3318 105.126 52.6071 115.286C52.4674 117.237 52.3111 118.819 52.1785 120.001H46.168C46.168 120.001 46.168 113.223 50.2792 105Z" fill="#3F69CB"/>
<path d="M55.7407 61.3647C57.1535 61.2179 58.1478 59.6446 57.9614 57.8507C57.7751 56.0567 56.4787 54.7213 55.0659 54.8681C53.6531 55.0148 52.6589 56.5881 52.8452 58.3821C53.0315 60.1761 54.3279 61.5114 55.7407 61.3647Z" fill="white"/>
<path d="M120.039 41.1884C122.722 40.8284 125.294 37.3045 125.521 34.9434C125.81 31.931 124.811 29.0916 122.097 27.7322C119.527 26.4463 118.651 27.6422 117.597 24.3954C116.543 21.1486 116.098 17.6033 113.154 14.8325C110.211 12.0617 106.727 11.4128 102.971 12.2275C101.406 12.5709 100.418 13.1748 99.7999 13.7431C98.8571 14.5875 97.7087 15.169 96.4702 15.4293C95.1298 15.7372 92.5058 17.061 91.4685 19.1995C89.4366 23.3913 90.9333 26.1858 91.7527 27.7251C92.5721 29.2644 95.3358 31.1353 97.8556 31.6398C100.375 32.1442 102.118 34.5266 101.645 37.063C101.171 39.5993 100.108 40.3785 100.56 42.408C101.012 44.4376 103.513 45.4204 105.152 45.4867C112.714 45.8017 119.148 41.3092 120.039 41.1884Z" fill="#0D42C8"/>
<path d="M109.312 28.6562L104.102 37.9349C104.102 37.9349 106.446 42.1361 106.636 43.7584C106.851 45.634 106.33 49.4421 106.162 50.458C105.845 52.4426 104.954 59.9143 104.954 59.9143C104.954 59.9143 112.509 51.8435 115.687 47.4504C118.865 43.0574 117.477 38.257 117.477 38.257C117.477 38.257 119.845 39.2043 116.798 37.897C114.193 36.7911 111.336 33.9847 110.576 31.4579C110.275 30.4743 109.85 29.5329 109.312 28.6562Z" fill="#E48E72"/>
<path d="M95.8141 33.7049C95.5512 33.7049 95.2646 33.4799 94.9591 33.0347C94.284 31.9644 93.8583 30.756 93.7135 29.4989C93.6637 28.8524 93.794 28.4711 94.0971 28.3645C94.8076 28.1277 95.5796 29.7192 95.9277 30.7067C96.2735 31.6919 96.6737 33.4278 95.968 33.6764C95.9188 33.695 95.8666 33.7046 95.8141 33.7049ZM94.2771 28.8737C94.1729 29.0726 94.2013 29.937 94.6323 31.1614C95.0633 32.3858 95.5796 33.0773 95.788 33.1696C95.8922 32.9683 95.8638 32.1039 95.4328 30.8796C95.0018 29.6552 94.4926 28.9637 94.2771 28.8737Z" fill="#E63891"/>
<path d="M107.42 26.9244C107.42 26.9244 106.878 25.0298 107.998 23.8457C109.118 22.6616 111.688 22.6024 112.843 24.9635C113.812 26.9434 113.336 28.6153 112.517 29.681C111.427 31.102 110.504 31.6324 110.589 31.4667C110.589 31.4667 111.108 33.5033 109.519 35.701C107.929 37.8987 106.127 39.9141 104.072 40.499C102.016 41.084 100.519 41.2095 99.7686 40.454C99.0178 39.6986 99.4465 39.2155 99.2002 38.685C98.9539 38.1545 98.3334 37.7614 98.4376 37.5719C98.5418 37.3825 99.4228 37.1504 100.107 36.4304C100.353 36.1615 100.571 35.8679 100.756 35.5542C100.245 35.9206 99.6677 36.183 99.0557 36.3262C98.6882 36.4016 98.3152 36.4468 97.9403 36.4612C97.8539 36.4647 97.7692 36.4366 97.702 36.3821C97.6349 36.3276 97.5899 36.2505 97.5756 36.1652L97.4217 35.2345C96.8728 35.3145 96.3133 35.2806 95.7781 35.135C94.8521 34.8982 94.4756 34.6827 94.594 34.4246C95.0685 33.5529 95.3655 32.5959 95.4679 31.6088C95.6218 30.0457 95.2121 29.2761 94.7858 28.2246C94.2399 26.9294 93.901 25.5564 93.7817 24.156C93.7203 23.3623 93.8352 22.565 94.118 21.8209C94.8125 21.6484 95.5404 21.6641 96.2268 21.8664C96.9132 22.0687 97.5333 22.4503 98.0232 22.9719C99.1339 24.156 99.9178 25.1767 101.576 24.812C102.951 24.5112 103.816 24.3217 104.728 25.7403C105.639 27.1589 107.42 26.9244 107.42 26.9244Z" fill="#F4A078"/>
<path d="M109.589 29.5202C109.654 29.6084 109.751 29.6675 109.859 29.6848C109.967 29.7021 110.078 29.6761 110.167 29.6125C110.612 29.3047 111.351 28.7008 111.588 27.9832C111.922 26.9364 111.322 24.9543 109.854 25.0253C108.386 25.0963 107.917 26.4107 108.687 27.8387C109.089 28.5895 109.35 29.2028 109.589 29.5202Z" fill="#EC7B7C"/>
<path d="M102.591 34.7848C103.719 34.7848 104.634 33.8698 104.634 32.741C104.634 31.6123 103.719 30.6973 102.591 30.6973C101.462 30.6973 100.547 31.6123 100.547 32.741C100.547 33.8698 101.462 34.7848 102.591 34.7848Z" fill="#ED8C7D"/>
<path d="M95.7262 28.3361C95.7262 28.3361 96.4201 27.2183 97.4029 26.7802C98.3857 26.3421 99.2312 26.6381 99.8066 26.8844C100.382 27.1307 100.261 27.4267 99.3898 27.2633C99.0671 27.1918 98.7333 27.1854 98.408 27.2444C98.0827 27.3033 97.7724 27.4265 97.4953 27.6067C97.0216 27.8885 96.4769 28.7553 96.2922 28.9968C96.1075 29.2384 95.3662 28.8216 95.7262 28.3361Z" fill="#0D42C8"/>
<path d="M97.8541 29.413L97.8356 29.4168C97.5359 29.4789 97.3433 29.7722 97.4054 30.0719L97.4569 30.3201C97.519 30.6197 97.8123 30.8123 98.112 30.7502L98.1305 30.7464C98.4302 30.6842 98.6228 30.3909 98.5607 30.0913L98.5092 29.8431C98.4471 29.5435 98.1538 29.3509 97.8541 29.413Z" fill="#532611"/>
<path d="M97.7309 33.0723C97.4775 33.0723 97.1199 32.9539 96.7007 32.4755C95.8795 31.442 95.4292 30.1627 95.4219 28.8427C95.4598 27.9546 95.8458 27.687 96.0708 27.6088C96.9044 27.3152 97.8185 28.5253 98.2945 29.8728C98.7682 31.2204 98.8108 32.7384 97.9795 33.032C97.8994 33.0587 97.8154 33.0723 97.7309 33.0723ZM96.3265 28.2056C96.3124 28.2031 96.298 28.2031 96.2839 28.2056C96.1892 28.2388 96.0802 28.459 96.0613 28.864C96.079 30.0177 96.4722 31.1343 97.1815 32.0445C97.4491 32.35 97.6717 32.4518 97.7664 32.4187C98.0032 32.3358 98.1477 31.3861 97.6883 30.0789C97.2549 28.8521 96.5965 28.2056 96.3265 28.2056Z" fill="#E63891"/>
<path d="M97.8199 29.4613L97.4766 28.9214C97.7442 28.7509 104.027 24.7794 105.322 24.1849C106.717 23.5432 107.764 23.9339 107.809 23.9481L107.572 24.5473C107.539 24.5331 106.72 24.2418 105.581 24.7651C104.333 25.3406 97.8839 29.4211 97.8199 29.4613Z" fill="#E63891"/>
<path d="M95.361 30.3134C95.2801 30.3159 95.2012 30.2876 95.1403 30.2343C95.0794 30.1809 95.041 30.1064 95.0329 30.0259C95.0247 29.9453 95.0475 29.8646 95.0965 29.8002C95.1456 29.7358 95.2172 29.6923 95.297 29.6787C95.4868 29.6322 95.682 29.6115 95.8773 29.6171C95.962 29.624 96.0406 29.6643 96.0957 29.7292C96.1508 29.794 96.1778 29.8781 96.1709 29.9629C96.164 30.0477 96.1237 30.1262 96.0589 30.1813C95.994 30.2364 95.9099 30.2634 95.8252 30.2565C95.6902 30.2569 95.5558 30.2736 95.4249 30.3063C95.4039 30.311 95.3825 30.3133 95.361 30.3134Z" fill="#E63891"/>
<path d="M109.962 29.6246C110.655 29.6246 111.217 29.0626 111.217 28.3694C111.217 27.6762 110.655 27.1143 109.962 27.1143C109.269 27.1143 108.707 27.6762 108.707 28.3694C108.707 29.0626 109.269 29.6246 109.962 29.6246Z" fill="#0D42C8"/>
<path d="M108.647 101.641C108.647 101.641 107.617 80.9596 106.407 76.73C105.052 71.9936 99.7474 66.5632 103.198 60.3893C107.48 52.7471 107.726 46.8076 110.62 42.3459C113.163 38.4265 116.81 37.896 116.81 37.896C116.81 37.896 118.757 37.1382 124.642 44.527C130.527 51.9158 134.352 61.9926 135.804 71.2026C137.255 80.4126 139.548 99.4199 139.548 99.4199L108.647 101.641Z" fill="#E63891"/>
<path d="M104.201 51.3571C104.117 51.3566 104.032 51.3503 103.948 51.3381C103.403 51.2505 102.667 50.8384 102.252 49.3583C101.648 47.2009 101.873 44.4561 102.394 40.9938L103.448 41.1524C103.015 44.0298 102.695 46.9806 103.28 49.0717C103.481 49.7822 103.785 50.2322 104.116 50.2843C104.303 50.3151 105.014 50.2843 106.198 48.4939C107.976 45.8297 110.108 36.6812 109.404 28.4162L110.465 28.3262C111.199 36.9441 108.992 46.2251 107.086 49.086C106.068 50.5945 105.099 51.3571 104.201 51.3571Z" fill="#0D42C8"/>
<path d="M78.5671 80.5341C74.4738 80.5078 70.4666 79.3558 66.9842 77.2044C62.8445 74.6704 57.4403 69.5906 55.207 59.798L56.2467 59.5612C58.3947 68.9938 63.5739 73.8676 67.5407 76.295C72.3624 79.2482 78.0485 80.2026 83.1378 78.9142C92.9635 76.4252 99.4003 67.4521 103.398 50.6709L104.435 50.9077C100.336 68.1175 93.6527 77.3417 83.3983 79.9373C81.8188 80.3355 80.196 80.5359 78.5671 80.5341Z" fill="#0D42C8"/>
<path d="M56.1094 59.6801C56.9501 59.917 57.4546 59.7796 57.5801 59.2065C57.9448 57.5085 57.3882 56.817 56.9667 56.5873C56.2705 56.2131 54.6577 57.6932 54.3475 57.0396C54.2717 56.8785 54.3261 55.6186 56.171 54.7093C56.7986 54.399 57.94 54.8585 60.0122 55.8342C61.8452 56.6962 61.8287 57.7287 62.1863 59.1497C62.6125 60.8548 61.7742 61.7405 66.8209 63.5238C80.6441 68.407 91.3058 66.0885 100.03 61.229L108.703 69.7545C103.945 73.3448 92.0139 76.1487 82.7684 76.5134C77.6531 76.7195 70.9273 75.2133 65.0518 71.3625C61.8192 69.2312 57.8429 64.1205 56.9999 63.1804C55.8513 61.8897 53.7222 60.9827 53.3765 60.4356C53.0307 59.8885 54.7737 59.2989 56.1094 59.6801Z" fill="#F1A180"/>
<path d="M105.267 75.6178C105 75.8342 104.671 75.9608 104.328 75.9795C103.985 75.9982 103.644 75.9081 103.355 75.722C102.204 74.9783 100.305 73.4366 98.6189 70.6066C97.3623 68.5291 96.2223 66.3834 95.204 64.1793C95.108 63.964 95.091 63.7218 95.156 63.4953C95.221 63.2688 95.3637 63.0724 95.5592 62.9407C96.4923 62.306 98.3537 60.9135 101.124 58.2919C105.274 54.3607 108.063 51.353 112.189 49.719C115.315 48.478 119.454 49.1364 121.108 53.321C122.562 57.0036 120.906 60.994 119.031 63.5375C117.451 65.6831 108.153 73.278 105.267 75.6178Z" fill="#E63891"/>
<path d="M135.206 119.995H112.367L108.645 101.641L139.457 99.292C139.457 99.292 140.426 102.939 138.946 108.817C137.918 112.893 136.045 116.966 135.206 119.995Z" fill="#E63891"/>
<path d="M129.72 119.995H107.871L108.643 101.504L138.956 99.4131C138.956 99.4131 133.618 112.836 131.184 116.329C130.585 117.179 130.106 118.494 129.72 119.995Z" fill="#E63891"/>
<path d="M56.1745 59.7335C57.026 59.7335 57.7162 58.9351 57.7162 57.9503C57.7162 56.9654 57.026 56.167 56.1745 56.167C55.3231 56.167 54.6328 56.9654 54.6328 57.9503C54.6328 58.9351 55.3231 59.7335 56.1745 59.7335Z" fill="#0D42C8"/>
<path d="M80.0769 119.995C79.6696 117.662 79.2244 114.626 79.2244 112.44C79.2244 108.388 80.0509 106.212 80.0509 106.212C80.0509 106.212 78.6299 106.586 73.0244 106.595C67.4188 106.605 57.0887 106.595 57.0887 106.595L53.5742 93.0704C53.5742 93.0704 67.5183 93.3073 76.0723 93.0704C84.6263 92.8336 89.358 97.3474 90.1253 102.977C90.6581 106.884 90.4521 115.242 90.2745 119.985L80.0769 119.995Z" fill="#EA7879"/>
<path d="M86.3707 119.995C85.4857 118.006 84.8241 115.925 84.3979 113.79C82.6028 105.184 82.8231 101.184 82.8231 101.184C82.8231 101.184 72.9287 102.309 69.3242 102.986C65.7198 103.664 58.6507 105.385 58.6507 105.385C58.6507 105.385 54.7479 100.507 55.7283 94.88C56.7088 89.2532 62.6151 87.3018 62.6151 87.3018C63.6879 87.9009 91.0455 88.8008 93.2361 90.828C95.4267 92.8552 95.403 98.2548 96.2035 103.659C96.7553 107.382 96.5469 115.379 96.3645 120L86.3707 119.995Z" fill="#EDA285"/>
<path d="M35.6088 53.4977C35.6088 53.4977 33.9747 47.8779 36.5277 42.3671C39.0806 36.8562 42.5548 35.4211 44.3949 30.1092C46.235 24.7973 47.5612 19.9969 50.422 17.0343C53.2828 14.0716 58.7984 13.2451 62.9736 14.3771C67.1487 15.5091 69.9195 19.0757 71.0444 21.0081C72.1693 22.9406 71.8615 25.2994 71.6554 25.8085C71.4494 26.3177 66.919 25.3159 64.404 26.3201C62.237 27.1845 58.9902 29.2827 56.9985 31.632C55.0069 33.9812 54.8008 36.1316 50.6044 38.9876C46.4079 41.8437 41.5128 46.4428 39.3672 48.3847C37.2216 50.3267 35.6088 53.4977 35.6088 53.4977Z" fill="#FF0653"/>
<path d="M70.1386 25.7115C70.1386 25.7115 69.935 27.7553 69.5276 28.5723C69.1203 29.3894 68.5046 29.3894 68.8172 30.7179C69.1298 32.0465 69.6532 33.169 69.44 33.4745C69.2269 33.78 67.5904 34.0879 67.5904 34.0879L67.3299 35.523C67.3299 35.523 66.7213 35.5515 65.8498 35.523C65.2941 35.4929 64.7448 35.3902 64.2157 35.2175C64.6619 35.6441 65.1367 36.0397 65.6367 36.4017C66.2477 36.809 67.2471 37.015 66.584 37.626C66.0843 38.0997 65.9374 39.0919 65.8356 39.8071C65.7338 40.5223 65.9374 41.4815 63.4863 41.176C61.0352 40.8705 60.2253 40.3447 58.6931 40.6502C57.1608 40.9557 56.1306 41.8485 55.4154 44.5057C54.7002 47.1628 54.8021 54.8619 54.8021 54.8619C54.8021 54.8619 53.6582 50.1089 51.0129 46.9568C47.2001 42.3932 43.8633 42.6656 43.8633 42.6656C43.8633 42.6656 44.4767 41.8485 47.4393 39.9587C50.4019 38.0689 51.7802 36.7616 53.5682 34.8007C54.2038 34.089 54.6873 33.2549 54.9892 32.3496C54.9892 32.3496 52.2302 30.7653 52.5357 28.3237C52.8412 25.882 53.9992 25.1029 55.4202 24.7927C56.8411 24.4824 58.262 25.0461 58.2384 26.8341C58.2033 27.6291 58.0802 28.4178 57.8713 29.1857C57.8713 29.1857 60.5166 26.4125 64.1921 25.6973C67.8675 24.9821 70.1386 25.7115 70.1386 25.7115Z" fill="#EDA381"/>
<path d="M56.8653 29.1055C56.8653 29.1055 57.7273 26.9883 56.6095 26.4152C55.7143 25.9581 54.6013 26.6828 54.3976 27.4998C54.1939 28.3169 54.2531 28.98 54.6107 29.9509C54.9683 30.9219 55.172 31.3292 55.4799 31.0237C55.9925 30.4226 56.4558 29.7811 56.8653 29.1055Z" fill="#E27C6E"/>
<path d="M62.4024 33.9981C63.658 33.9981 64.6759 32.9803 64.6759 31.7247C64.6759 30.469 63.658 29.4512 62.4024 29.4512C61.1468 29.4512 60.1289 30.469 60.1289 31.7247C60.1289 32.9803 61.1468 33.9981 62.4024 33.9981Z" fill="#ED8C7D"/>
<path d="M64.9288 26.8864C65.6593 26.6035 66.4468 26.4988 67.2259 26.5809C68.4527 26.7324 68.86 27.0403 69.1679 27.2913C69.4757 27.5424 69.3194 27.8005 68.8103 27.6987C68.3011 27.5968 67.7825 27.2558 67.1265 27.1327C66.4848 27.0119 65.8262 27.0119 65.1845 27.1327C64.6943 27.2605 64.5167 27.0261 64.9288 26.8864Z" fill="#FF0653"/>
<path d="M67.3283 29.2003C67.3283 28.923 67.1036 28.6982 66.8263 28.6982C66.549 28.6982 66.3242 28.923 66.3242 29.2003V29.4987C66.3242 29.776 66.549 30.0008 66.8263 30.0008C67.1036 30.0008 67.3283 29.776 67.3283 29.4987V29.2003Z" fill="#48263E"/>
<path d="M67.4475 34.8597C67.0051 34.8254 66.5603 34.8404 66.1213 34.9047C65.2687 35.0065 64.2148 35.2126 64.2148 35.2126C64.7406 35.3861 65.2867 35.4904 65.8394 35.5228C66.7109 35.5583 67.3196 35.5228 67.3196 35.5228L67.4475 34.8597Z" fill="#E63891"/>
<path d="M65.6397 36.4038C65.1397 36.0419 64.6649 35.6462 64.2188 35.2197C64.2188 35.2197 64.2188 36.3375 65.6136 37.4316C65.8575 37.633 66.1561 37.7567 66.4709 37.7869C66.5106 37.7332 66.5541 37.6826 66.6012 37.6353C67.2548 37.0172 66.2507 36.8112 65.6397 36.4038Z" fill="#E63891"/>
<path d="M59.3705 65.2871C59.3705 65.2871 59.5505 73.4101 59.3705 77.2892C59.1905 81.1684 59.3705 87.7567 59.3705 87.7567L50.4258 86.9421C50.4258 86.9421 53.9568 72.0555 54.0468 71.5203C54.1368 70.985 56.3037 65.2942 56.3037 65.2942L59.3705 65.2871Z" fill="#EA7879"/>
<path d="M56.9837 65.2862H60.1524C60.1524 65.2862 59.3566 55.1811 56.6498 50.3073C53.9429 45.4335 48.5291 42.0067 44.1977 42.729C39.8662 43.4513 36.7994 45.334 32.4679 59.2402C28.1364 73.1464 26.1495 82.0698 25.2472 89.1081C24.3449 96.1465 29.2187 106.074 38.0616 106.434C46.9046 106.794 58.6343 106.434 58.6343 106.434C58.634 102.929 58.9024 99.43 59.4371 95.9665C60.4389 89.8304 62.6058 87.3035 62.6058 87.3035C62.6058 87.3035 59.3566 86.5931 56.6498 86.2213C53.9429 85.8495 51.056 85.6813 51.056 85.6813C51.056 85.6813 53.0477 80.5186 55.217 74.6123C57.3863 68.7059 56.9837 65.2862 56.9837 65.2862Z" fill="#59CEE7"/>
<mask id="mask0_11005_372585" style="mask-type:alpha" maskUnits="userSpaceOnUse" x="25" y="42" width="38" height="65">
<path d="M56.9837 65.2872H60.1524C60.1524 65.2872 59.3566 55.182 56.6498 50.3083C53.9429 45.4345 48.5291 42.0077 44.1977 42.73C39.8662 43.4523 36.7994 45.335 32.4679 59.2412C28.1364 73.1473 26.1495 82.0708 25.2472 89.1091C24.3449 96.1474 29.2187 106.075 38.0616 106.435C46.9046 106.795 58.6343 106.435 58.6343 106.435C58.634 102.93 58.9024 99.431 59.4371 95.9675C60.4389 89.8314 62.6058 87.3045 62.6058 87.3045C62.6058 87.3045 59.3566 86.5941 56.6498 86.2222C53.9429 85.8504 51.056 85.6823 51.056 85.6823C51.056 85.6823 53.0477 80.5196 55.217 74.6133C57.3863 68.7069 56.9837 65.2872 56.9837 65.2872Z" fill="#59CEE7"/>
</mask>
<g mask="url(#mask0_11005_372585)">
<path d="M29.2305 49.4955C29.2305 49.4955 35.6247 45.273 43.9134 44.5223C52.2022 43.7716 64.0977 48.9769 64.0977 48.9769" stroke="white" stroke-width="1.5" stroke-miterlimit="12"/>
<path d="M28.5977 52.6005C28.5977 52.6005 35.2287 48.7356 43.534 48.4277C51.8393 48.1199 63.446 53.9765 63.446 53.9765" stroke="white" stroke-width="1.5" stroke-miterlimit="12"/>
<path d="M26.3438 56.6C26.3438 56.6 33.0269 52.8416 41.3464 52.664C49.6659 52.4864 61.166 58.5301 61.166 58.5301" stroke="white" stroke-width="1.5" stroke-miterlimit="12"/>
<path d="M25.5078 60.2045C25.5078 60.2045 32.3756 56.7942 40.6928 57.0476C49.01 57.301 60.1832 63.9273 60.1832 63.9273" stroke="white" stroke-width="1.5" stroke-miterlimit="12"/>
<path d="M24.6719 64.9621C24.6719 64.9621 31.5776 61.6324 39.8924 61.9829C48.2072 62.3334 59.3118 69.0875 59.3118 69.0875" stroke="white" stroke-width="1.5" stroke-miterlimit="12"/>
<path d="M23.8594 69.402C23.8594 69.402 30.8527 66.2594 39.1533 66.8325C47.4539 67.4056 58.3666 74.4606 58.3666 74.4606" stroke="white" stroke-width="1.5" stroke-miterlimit="12"/>
<path d="M22.1875 74.1628C22.1875 74.1628 29.2306 71.1338 37.5217 71.8443C45.8128 72.5547 56.5977 79.7849 56.5977 79.7849" stroke="white" stroke-width="1.5" stroke-miterlimit="12"/>
<path d="M21.3125 79.406C21.3125 79.406 28.3106 76.2728 36.6112 76.8554C44.9118 77.438 55.815 84.5071 55.815 84.5071" stroke="white" stroke-width="1.5" stroke-miterlimit="12"/>
<path d="M19.6016 86.8348C19.6016 86.8348 25.9531 82.5436 34.2324 81.6911C42.5117 80.8385 54.4688 85.9254 54.4688 85.9254" stroke="white" stroke-width="1.5" stroke-miterlimit="12"/>
<path d="M20.7773 96.5899C20.7773 96.5899 25.6819 90.7025 33.3928 87.5717C41.1037 84.4409 53.9963 85.5611 53.9963 85.5611" stroke="white" stroke-width="1.5" stroke-miterlimit="12"/>
<path d="M26.6641 104.867C26.6641 104.867 29.6528 97.8051 36.1369 92.5784C42.6211 87.3518 55.4071 85.0996 55.4071 85.0996" stroke="white" stroke-width="1.5" stroke-miterlimit="12"/>
<path d="M35.793 108.024C35.793 108.024 37.3584 100.517 42.6963 94.1368C48.0343 87.7569 60.1524 83.0654 60.1524 83.0654" stroke="white" stroke-width="1.5" stroke-miterlimit="12"/>
<path d="M45.2514 111.614C45.2514 111.614 44.9648 103.953 48.6142 96.4739C52.2637 88.995 62.9017 81.5352 62.9017 81.5352" stroke="white" stroke-width="1.5" stroke-miterlimit="12"/>
<path d="M54.3781 111.806C54.3781 111.806 52.8791 104.287 55.2923 96.3225C57.7055 88.3582 67.022 79.2998 67.022 79.2998" stroke="white" stroke-width="1.5" stroke-miterlimit="12"/>
</g>
<path d="M50.7022 55.3619C50.7022 55.3619 48.7295 54.2512 45.2884 54.4596C40.822 54.7296 40.0547 55.3619 40.0547 55.3619C40.0547 55.3619 41.4993 67.2741 42.2216 80.6284C42.9439 93.9828 44.5661 99.9389 45.3784 102.556C46.1907 105.173 47.4554 106.596 47.4554 106.596H60.4474C60.4474 106.596 57.9229 104.18 55.306 103.728C53.8256 103.488 52.374 103.095 50.9745 102.556C50.9745 102.556 50.1622 84.5976 50.2522 73.8601C50.3422 63.1226 50.7022 55.3619 50.7022 55.3619Z" fill="#EDA285"/>
<path d="M28.9171 112.263H72.8025C74.3786 112.263 75.6562 110.986 75.6562 109.41C75.6562 107.835 74.3786 106.558 72.8025 106.558H28.9171C27.3411 106.558 26.0634 107.835 26.0634 109.41C26.0634 110.986 27.3411 112.263 28.9171 112.263Z" fill="#E63891"/>
<defs>
<linearGradient id="paint0_linear_11005_372585" x1="30.792" y1="72.541" x2="17.8545" y2="78.5728" gradientUnits="userSpaceOnUse">
<stop offset="0.07" stop-color="#0784C0"/>
<stop offset="0.7" stop-color="#02C8DC"/>
</linearGradient>
<linearGradient id="paint1_linear_11005_372585" x1="40.6839" y1="64.2303" x2="25.7002" y2="68.2444" gradientUnits="userSpaceOnUse">
<stop offset="0.07" stop-color="#0A31A9"/>
<stop offset="0.72" stop-color="#0F3FCE"/>
</linearGradient>
<linearGradient id="paint2_linear_11005_372585" x1="57.2967" y1="72.2237" x2="42.0501" y2="72.2237" gradientUnits="userSpaceOnUse">
<stop offset="0.35" stop-color="#030C67"/>
<stop offset="0.72" stop-color="#0D1E7A"/>
</linearGradient>
<linearGradient id="paint3_linear_11005_372585" x1="27.7598" y1="93.5325" x2="17.5505" y2="98.2926" gradientUnits="userSpaceOnUse">
<stop offset="0.07" stop-color="#2E34C9"/>
<stop offset="0.72" stop-color="#6245DD"/>
</linearGradient>
<linearGradient id="paint4_linear_11005_372585" x1="21.061" y1="96.8955" x2="1.44035" y2="96.8955" gradientUnits="userSpaceOnUse">
<stop offset="0.35" stop-color="#0A31A9"/>
<stop offset="0.72" stop-color="#0F3FCE"/>
</linearGradient>
<linearGradient id="paint5_linear_11005_372585" x1="73.1135" y1="93.5501" x2="54.6888" y2="84.9582" gradientUnits="userSpaceOnUse">
<stop offset="0.35" stop-color="#3F69CB"/>
<stop offset="0.72" stop-color="#2A48B4"/>
</linearGradient>
</defs>
</svg>
