<svg width="405" height="312" viewBox="0 0 405 312" fill="none" xmlns="http://www.w3.org/2000/svg">
<g clip-path="url(#clip0_1989_20373)">
<path d="M106.092 4.5094H169.83V186.644L302.075 4.5094H362.259V284.103H298.893V102.369L166.666 284.103H106.092V4.5094Z" fill="#FFC701"/>
<path d="M312.406 33.2246H315.404C316.125 33.2292 316.815 33.5196 317.322 34.0322C317.829 34.5447 318.112 35.2376 318.109 35.9587V50.7354H309.684V35.9587C309.682 35.6002 309.751 35.2449 309.888 34.9133C310.024 34.5816 310.224 34.2801 310.477 34.0261C310.73 33.7721 311.031 33.5705 311.362 33.4329C311.693 33.2954 312.048 33.2246 312.406 33.2246Z" fill="#8C80FF"/>
<path d="M298.02 123.828H329.791V126.86C329.791 127.371 329.588 127.861 329.227 128.222C328.866 128.583 328.376 128.786 327.865 128.786H299.945C299.435 128.786 298.945 128.583 298.584 128.222C298.222 127.861 298.02 127.371 298.02 126.86V123.828Z" fill="#8C80FF"/>
<path d="M325.605 50.7352H302.219C287.784 50.7352 276.082 62.4372 276.082 76.8724V98.0859C276.082 112.521 287.784 124.223 302.219 124.223H325.605C340.04 124.223 351.742 112.521 351.742 98.0859V76.8724C351.742 62.4372 340.04 50.7352 325.605 50.7352Z" fill="white"/>
<path d="M315.341 4.46204H312.475V33.2416H315.341V4.46204Z" fill="white"/>
<path d="M318.956 125.169H308.863C302.734 125.163 296.857 122.726 292.523 118.392C288.19 114.058 285.752 108.182 285.746 102.053V72.9008C285.752 66.7718 288.19 60.8955 292.523 56.5617C296.857 52.2278 302.734 49.7904 308.863 49.7843H318.956C325.085 49.7904 330.962 52.2278 335.295 56.5617C339.629 60.8955 342.067 66.7718 342.073 72.9008V102.053C342.067 108.182 339.629 114.058 335.295 118.392C330.962 122.726 325.085 125.163 318.956 125.169ZM308.863 51.6873C303.241 51.6964 297.852 53.9337 293.876 57.9089C289.901 61.8842 287.664 67.2732 287.655 72.8951V102.047C287.665 107.669 289.903 113.057 293.878 117.032C297.853 121.007 303.241 123.244 308.863 123.255H318.956C324.578 123.244 329.966 121.007 333.941 117.032C337.916 113.057 340.153 107.669 340.164 102.047V72.9008C340.155 67.2789 337.918 61.8899 333.942 57.9147C329.967 53.9394 324.578 51.7021 318.956 51.693L308.863 51.6873Z" fill="#FFC701"/>
<path d="M313.9 125.17C310.167 125.166 306.59 123.681 303.95 121.042C301.311 118.403 299.827 114.825 299.822 111.093V63.8624C299.897 60.1772 301.413 56.6681 304.045 54.0883C306.678 51.5084 310.217 50.0634 313.903 50.0634C317.588 50.0634 321.127 51.5084 323.76 54.0883C326.392 56.6681 327.908 60.1772 327.983 63.8624V111.093C327.978 114.826 326.493 118.405 323.853 121.044C321.212 123.683 317.633 125.167 313.9 125.17ZM313.9 51.688C310.672 51.6925 307.578 52.9766 305.296 55.2588C303.014 57.5409 301.73 60.6349 301.725 63.8624V111.093C301.69 112.714 301.979 114.326 302.575 115.834C303.171 117.343 304.063 118.717 305.197 119.876C306.331 121.035 307.686 121.956 309.18 122.584C310.675 123.213 312.281 123.537 313.903 123.537C315.524 123.537 317.13 123.213 318.625 122.584C320.12 121.956 321.474 121.035 322.608 119.876C323.742 118.717 324.634 117.343 325.23 115.834C325.826 114.326 326.115 112.714 326.08 111.093V63.8624C326.075 60.6339 324.79 57.5391 322.507 55.2568C320.224 52.9744 317.128 51.691 313.9 51.688Z" fill="#FFC701"/>
<path d="M239.63 45.9841C238.627 45.9841 237.699 45.9841 236.862 45.9439C217.689 45.3708 202.224 44.19 177.738 34.3427C161.265 27.7224 150.965 20.208 145.221 15.0723C138.916 9.43788 136.572 5.37401 136.475 5.20779L138.962 3.78629C139.048 3.94105 148.225 19.3941 178.804 31.6831C202.901 41.3757 217.477 42.4876 236.948 43.078C252.424 43.548 298.061 40.0058 322.776 18.2592C331.907 10.2346 335.994 3.7691 336.034 3.70032L338.464 5.21925C338.292 5.49438 334.148 12.0975 324.668 20.4143C300.606 41.582 257.56 45.9841 239.63 45.9841Z" fill="white"/>
<path d="M348.279 182.254C347.449 174.994 344.655 168.098 340.197 162.308C332.849 152.999 315.877 145.639 315.877 145.639C315.877 145.639 314.157 148.803 316.542 155.619C318.926 162.434 325.994 176.024 326.704 178.701C327.415 181.377 342.685 217.425 342.685 217.425L348.279 182.254Z" fill="#0D1E7A"/>
<path d="M327.412 202.223C327.412 202.223 320.574 197.351 314.143 195.436C310.459 194.297 306.585 193.907 302.748 194.29C302.748 194.29 305.671 203.828 306.921 206.361C307.579 207.74 308.316 209.079 309.128 210.373L314.659 208.9L311.139 212.913C311.139 212.913 311.713 217.338 317.364 221.952C323.016 226.566 330.295 228.744 338.245 231.484C343.1 233.182 347.512 235.945 351.159 239.571C351.159 239.571 345.628 225.442 339.323 216.071C333.018 206.699 327.412 202.223 327.412 202.223Z" fill="#59CEE7"/>
<path d="M345.14 226.418C345.14 226.418 352.592 211.257 351.033 203.359C350.099 198.577 348.298 194.006 345.719 189.872L343.34 196.813C343.34 196.813 337.609 181.005 326.34 171.163C312.406 159.017 307.161 157.584 299.973 155.653C292.786 153.721 289.307 154.644 289.307 154.644C289.307 154.644 289.209 160.049 291.101 164.119C292.565 167.248 294.392 170.193 296.546 172.894L303.298 173.656L297.566 175.76L308.697 188.559C308.697 188.559 311.437 186.301 314.229 187.464C315.081 187.859 315.84 188.43 316.457 189.138C317.075 189.846 317.536 190.676 317.811 191.574L313.701 192.291C313.701 192.291 315.255 195.982 318.39 201.639C321.525 207.297 324.236 213.55 329.326 218.686C334.416 223.821 343.77 226.303 345.14 226.418Z" fill="#0A40CF"/>
<path d="M348.916 236.299C348.916 236.299 363.354 209.818 365.509 206.087L367.67 202.361L364.936 200.705L372.256 197.73L371.683 195.678L374.176 195.013C374.176 195.013 380.034 182.569 381.283 179.371C382.533 176.172 382.355 175.169 382.355 175.169L374.468 176.029C374.468 176.029 379.271 174.338 381.346 173.467C382.57 172.949 383.861 172.605 385.181 172.447C385.181 172.447 391.601 162.766 391.916 154.26C392.231 145.753 391.882 141.569 391.52 138.784C391.159 135.998 390.191 136.651 387.342 137.792C384.493 138.933 382.183 140.589 378.217 142.612C375.322 144.097 371.814 145.748 369.103 148.023C364.174 152.173 363.257 155.291 361.147 158.14C359.038 160.989 356.602 162.221 356.562 163.184C356.522 164.147 356.47 168.916 356.47 168.916L354.951 165.018C351.706 168.507 349.325 172.708 347.999 177.284C345.706 185.062 340.599 191.098 341.47 206.912C342.341 222.726 348.916 236.299 348.916 236.299Z" fill="url(#paint0_linear_1989_20373)"/>
<path d="M289.258 154.644C289.258 154.644 292.726 153.721 299.925 155.652C304.046 156.753 307.525 157.699 312.346 160.565C314.123 165.993 317.372 175.955 317.814 177.628C318.433 179.95 320.049 180.282 320.049 180.282C320.049 180.282 317.017 181.09 309.193 181.835C307.143 182.054 305.08 182.125 303.02 182.047L297.552 175.742L303.284 173.639L296.486 172.871C294.472 170.353 292.742 167.622 291.327 164.726C294.267 165.775 297.993 167.059 300.716 167.827C305.937 169.3 308.918 168.698 308.918 168.698C308.918 168.698 307.445 166.033 301.524 162.45C295.603 158.868 289.258 154.644 289.258 154.644Z" fill="url(#paint1_linear_1989_20373)"/>
<path d="M323.144 195.499C327.73 194.846 329.684 195.665 329.684 195.665C328.756 193.846 328.05 191.922 327.581 189.934C327.105 187.515 324.142 173.518 322.583 168.009C323.729 168.978 324.99 170.027 326.308 171.173C330.112 174.587 333.427 178.508 336.161 182.826C335.978 184.947 335.772 187.916 335.691 191.183C335.531 197.534 340.076 211.245 340.076 211.245L323.271 210.62C321.499 207.628 319.992 204.556 318.381 201.638C317.046 199.231 316.003 197.184 315.24 195.625C317.873 195.846 320.52 195.804 323.144 195.499Z" fill="url(#paint2_linear_1989_20373)"/>
<path d="M343.453 212.512L343.631 188.868C345.07 184.535 346.869 181.136 348.004 177.324C348.552 175.495 349.262 173.719 350.125 172.016L352.55 181.107C352.55 181.107 355.576 175.948 358.109 171.856C360.643 167.763 367.349 164.238 374.199 161.263C378.916 159.223 387.244 154.763 391.967 152.184C391.967 152.849 391.927 153.531 391.899 154.253C391.601 162.203 385.972 171.179 385.255 172.297L384.212 172.561C383.655 172.672 383.104 172.814 382.561 172.985C378.068 174.131 372.817 175.553 369.304 176.642C362.07 178.883 353.369 185.664 353.369 185.664L350.922 194.399C355.309 191.536 359.856 188.925 364.541 186.581C368.794 184.466 374.955 183.847 379.443 183.715C378.234 186.403 376.755 189.607 375.677 191.911C370.479 194.049 360.907 199.902 357.169 201.931C352.297 204.544 343.453 212.512 343.453 212.512Z" fill="#6245DD"/>
<path d="M404.251 198.262C404.251 198.262 394.088 195.236 383.398 198.836C372.708 202.435 362.764 209.336 357.565 216.604C349.013 228.641 347.248 240.942 347.62 245.235C347.993 249.528 350.159 250.479 350.159 250.479C350.159 250.479 348.245 245.447 356.023 238.792C363.801 232.137 373.402 230.154 379.134 227.288C384.866 224.422 384.757 223.305 384.757 223.305L379.168 221.322L380.888 220.869L388.402 219.671C388.402 219.671 396.295 214.89 397.332 212.323C398.37 209.755 398.358 208.998 398.358 208.998L395.957 207.152L399.877 206.109L404.251 198.262Z" fill="#0A40CF"/>
<path d="M395.012 214.97C393.297 216.396 391.492 217.709 389.607 218.902C387.512 217.357 385.058 216.371 382.477 216.036C376.745 215.268 374.057 215.984 364.164 218.999C360.261 220.2 356.536 221.914 353.084 224.095C354.391 221.501 355.893 219.01 357.578 216.644C358.974 214.72 360.551 212.935 362.289 211.313C369.351 208.332 378.912 204.567 384.151 203.661C389.519 202.748 395.038 203.622 399.861 206.149L395.941 207.192C392.094 206.717 388.2 206.771 384.368 207.352C378.522 208.338 370.876 211.903 370.876 211.903C375.396 210.957 380.033 210.69 384.632 211.112C388.348 211.561 391.905 212.883 395.012 214.97Z" fill="url(#paint3_linear_1989_20373)"/>
<path d="M347.614 245.246C347.503 242.667 347.741 240.086 348.319 237.571C350.5 234.682 353.188 232.213 356.252 230.286C366.111 223.895 372.685 221.166 379.18 221.332L384.768 223.316C384.768 223.316 384.877 224.433 379.145 227.299C373.413 230.165 363.813 232.148 356.034 238.803C348.256 245.458 350.171 250.49 350.171 250.49C350.171 250.49 347.993 249.539 347.614 245.246Z" fill="url(#paint4_linear_1989_20373)"/>
<path d="M381.213 232.012L374.57 292.15C374.03 297.043 371.692 301.56 368.009 304.825C364.326 308.09 359.562 309.871 354.64 309.822L339.479 309.667C334.571 309.617 329.855 307.751 326.242 304.428C322.629 301.105 320.376 296.562 319.917 291.675L314.242 231.33L381.213 232.012Z" fill="white"/>
<mask id="mask0_1989_20373" style="mask-type:alpha" maskUnits="userSpaceOnUse" x="314" y="231" width="68" height="79">
<path d="M381.213 232.012L374.57 292.15C374.03 297.043 371.692 301.56 368.009 304.825C364.326 308.09 359.562 309.871 354.64 309.822L339.479 309.667C334.571 309.617 329.855 307.751 326.242 304.428C322.629 301.105 320.376 296.562 319.917 291.675L314.242 231.33L381.213 232.012Z" fill="white"/>
</mask>
<g mask="url(#mask0_1989_20373)">
<path d="M396.173 250.49H300.371V254.84H396.173V250.49Z" fill="#E63891"/>
<path d="M396.173 261.18H300.371V265.531H396.173V261.18Z" fill="#E63891"/>
<path d="M396.173 271.87H300.371V276.22H396.173V271.87Z" fill="#E63891"/>
<path d="M396.173 282.56H300.371V286.91H396.173V282.56Z" fill="#E63891"/>
<path d="M396.173 293.25H300.371V297.6H396.173V293.25Z" fill="#E63891"/>
<path d="M396.173 303.945H300.371V308.296H396.173V303.945Z" fill="#E63891"/>
</g>
<path d="M47.3886 90.2062H185.6C189.042 90.2062 192.343 91.5734 194.776 94.007C197.21 96.4407 198.577 99.7414 198.577 103.183V178.717C198.577 179.718 198.38 180.708 197.997 181.632C197.614 182.557 197.053 183.396 196.346 184.104C195.639 184.811 194.799 185.372 193.875 185.755C192.95 186.138 191.96 186.335 190.96 186.335H42.0236C41.0223 186.336 40.0305 186.14 39.1049 185.758C38.1794 185.376 37.3383 184.815 36.6297 184.108C35.9212 183.4 35.359 182.56 34.9755 181.635C34.5919 180.71 34.3945 179.718 34.3945 178.717V103.183C34.3945 101.477 34.7308 99.7886 35.384 98.2131C36.0372 96.6375 36.9946 95.2062 38.2014 94.0009C39.4083 92.7957 40.8409 91.8402 42.4173 91.1891C43.9937 90.5379 45.683 90.2039 47.3886 90.2062Z" fill="#59CEE7"/>
<path d="M36.9976 130.965C31.1683 130.318 28.2565 130.644 17.2457 135.499C6.23482 140.354 0.577501 138.738 0.245055 148.614C-0.0873916 158.49 -0.075928 239.928 0.245055 244.622C0.566037 249.316 2.83584 249.781 8.34414 249.781L230.476 249.62C234.522 249.62 235.009 247.19 235.009 242.169C235.009 237.148 234.689 153.933 234.362 148.591C234.035 143.249 233.875 143.639 229.988 141.822C226.102 140.005 196.962 128.392 196.962 128.392L36.9976 130.965Z" fill="#59CEE7"/>
<path d="M187.38 227.943C169.165 227.943 142.615 227.943 116.575 227.943C71.8667 227.943 25.6051 227.903 23.9256 227.943C23.351 227.985 22.774 227.908 22.2306 227.716C21.6872 227.525 21.1891 227.224 20.7674 226.831C19.0479 225.163 19.0479 222.097 19.0479 217.849V203.984C19.0479 199.628 20.7674 197.518 24.3441 194.051C25.8401 192.606 26.952 191.517 27.8863 190.612C29.2505 189.282 30.2364 188.319 31.4917 187.173C33.9277 184.92 40.3932 184.926 47.8847 184.926H188.773C192.906 184.616 197.331 184.605 202.008 187.969C206.02 190.881 213.879 198.086 215.541 201.152C216.899 203.646 216.808 209.028 216.722 214.233C216.722 215.344 216.687 216.411 216.687 217.385C216.687 222.045 216.687 227.846 210.485 227.96C209.499 227.937 200.655 227.943 187.38 227.943ZM46.2683 225.031C63.8765 225.031 89.7959 225.031 116.575 225.031C161.576 225.031 208.112 225.071 210.44 225.031C213.38 224.98 213.827 223.249 213.827 217.322C213.827 216.336 213.827 215.247 213.861 214.118C213.93 209.974 214.028 204.288 213.03 202.465C211.723 200.092 204.352 193.145 200.334 190.279C196.792 187.729 193.456 187.413 188.945 187.774H47.8904C41.872 187.774 35.0511 187.774 33.4405 189.259C32.2139 190.405 31.2452 191.34 29.8982 192.658C28.9582 193.575 27.8405 194.67 26.3387 196.097C22.7048 199.593 21.9195 200.992 21.9195 203.967V217.809C21.9195 220.95 21.9195 223.914 22.7678 224.745C22.8595 224.825 23.0888 225.048 23.8511 225.037C24.6135 225.026 33.1023 225.031 46.2683 225.031Z" fill="url(#paint5_linear_1989_20373)"/>
<path d="M34.399 136.635C34.399 136.635 27.2801 140.744 24.5231 141.845C22.4363 142.584 20.2669 143.065 18.0633 143.278C18.0633 143.278 16.1202 201.399 16.7679 208.523C17.4156 215.648 20.4879 217.832 20.4879 217.832C20.4879 217.832 19.032 203.462 23.7264 198.619C28.4207 193.775 33.8259 187.103 34.399 184.392C34.9722 181.681 34.399 136.635 34.399 136.635Z" fill="url(#paint6_linear_1989_20373)"/>
<path d="M192.423 249.677H184.897V291.657H192.423V249.677Z" fill="url(#paint7_linear_1989_20373)"/>
<path d="M46.7954 249.677H39.2695V291.657H46.7954V249.677Z" fill="url(#paint8_linear_1989_20373)"/>
<path d="M42.0236 186.336H190.965C191.966 186.336 192.956 186.139 193.88 185.756C194.805 185.373 195.644 184.812 196.352 184.105C197.059 183.397 197.62 182.557 198.003 181.633C198.386 180.709 198.583 179.718 198.583 178.718V103.184C198.581 101.722 198.333 100.27 197.849 98.8908C195.717 97.4005 193.08 96.5522 188.833 95.9962C180.614 94.9187 156.809 97.9393 156.809 97.9393C156.809 97.9393 157.457 112.183 148.212 133.07C138.966 153.957 69.0549 165.632 55.1323 157.35C41.2097 149.067 34.3945 138.274 34.3945 138.274V178.718C34.3945 179.719 34.5919 180.711 34.9755 181.636C35.359 182.561 35.9212 183.401 36.6297 184.109C37.3383 184.816 38.1794 185.377 39.1049 185.759C40.0305 186.141 41.0223 186.337 42.0236 186.336Z" fill="url(#paint9_linear_1989_20373)"/>
<path d="M20.4798 215.803C18.6972 214.995 19.024 211.596 19.024 207.205C19.024 202.815 19.6315 200.688 20.4798 199.049C21.3282 197.41 22.1994 196.017 22.2395 193.77C22.2796 191.523 22.2395 152.541 22.1822 147.749C22.1249 142.957 19.024 142.59 17.2643 142.527C15.5046 142.464 7.06162 142.281 4.574 142.527C2.5392 142.722 1.37564 143.846 0.527329 145.835C0.360088 146.747 0.264267 147.67 0.240737 148.597C-0.0802457 158.473 -0.0802457 239.911 0.240737 244.606C0.56172 249.3 2.83153 249.764 8.33982 249.764H23.5063C23.042 239.401 21.8555 216.428 20.4798 215.803Z" fill="#D0EFF4"/>
<path d="M234.361 148.614C234.04 143.272 233.874 143.662 229.988 141.845C226.658 140.291 204.768 131.527 198.583 129.063V138.537C202.63 140.83 208.505 144.12 211.25 145.656C214.861 147.68 215.263 148.098 216.982 146.304C218.759 144.401 221.229 144.688 228.515 144.928C232.745 145.072 233.811 146.917 234.401 148.941C234.373 148.826 234.367 148.706 234.361 148.614Z" fill="#D0EFF4"/>
<path d="M87.5186 241.222L90.2756 270.85L105.178 270.202L106.474 241.222C102.982 239.578 99.162 238.747 95.3024 238.792C89.1407 238.958 87.5186 241.222 87.5186 241.222Z" fill="#F28B7A"/>
<path d="M69.0588 203.335C69.2136 204.562 62.1004 210.787 58.8619 215.481C55.6234 220.175 53.3536 224.222 52.0582 229.083C50.7628 233.943 51.25 238.632 47.2033 236.368C43.1567 234.104 32.4668 221.31 32.4668 221.31C32.4668 221.31 40.5659 210.947 44.6126 203.335C48.6592 195.723 49.7712 191.872 50.7628 191.516C51.7544 191.161 59.5096 193.947 63.2296 197.345C66.9495 200.744 68.8983 202.04 69.0588 203.335Z" fill="#F28B7A"/>
<path d="M128.323 73.3491C132.696 73.8363 149.209 76.2666 156.495 79.1784C163.78 82.0902 159.899 132.123 160.381 138.921C160.862 145.719 163.052 170.005 160.988 178.265C158.925 186.524 79.7511 184.57 79.2696 175.834C78.7881 167.099 78.2952 150.07 76.8221 133.533C75.349 116.997 69.5369 85.9592 70.9928 82.5201C72.4487 79.081 90.4237 75.2349 96.253 75.2349C102.082 75.2349 128.323 73.3491 128.323 73.3491Z" fill="#6245DD"/>
<path d="M155.91 78.9308C159.579 80.8166 167.185 87.0471 169.856 96.5218C172.527 105.997 171.432 108.782 177.261 123.353C183.091 137.923 190.009 150.556 188.674 156.505C187.338 162.455 163.786 173.947 162.691 174.114C161.596 174.28 158.318 171.076 157.71 168.772C157.103 166.467 154.357 151.404 155.91 147.398C157.464 143.391 158.077 142.904 158.077 142.904C158.077 142.904 157.057 139.625 155.44 123.112C153.824 106.598 152.976 90.9333 153.342 86.0784C153.709 81.2236 153.847 77.8704 155.91 78.9308Z" fill="#6245DD"/>
<path d="M72.453 81.1489C72.453 81.1489 68.9394 82.1921 65.5405 90.9331C62.1415 99.6742 59.1036 115.099 57.4012 119.833C55.6989 124.568 51.4516 135.131 49.755 142.296C48.0584 149.461 46.8375 157.606 53.8876 160.392C60.9378 163.177 78.9014 162.575 79.2682 161.36C79.635 160.145 79.9274 135.722 78.1734 132.581C76.4195 129.44 77.5658 129.061 78.2938 120.544C79.0217 112.026 77.3251 95.0429 75.1355 88.8525C72.946 82.6621 72.9689 80.9999 72.453 81.1489Z" fill="#6245DD"/>
<path fill-rule="evenodd" clip-rule="evenodd" d="M116.176 144.515L114.232 80.1581L116.175 80.0995L118.118 144.457L116.176 144.515Z" fill="#4431AF"/>
<path d="M148.24 133.07L145.265 124.873C143.187 125.786 141.004 126.439 138.765 126.816C135.899 127.189 128.832 126.535 125.582 127.24C124.016 127.574 122.553 128.278 121.313 129.292C120.074 130.305 119.095 131.601 118.457 133.07C118.457 133.07 118.761 129.527 114.067 127.424C109.372 125.32 105.584 125.945 99.164 124.649C95.3523 123.881 94.0053 123.033 94.0053 123.033L92.0508 128.994L122.676 143.278L148.24 133.07Z" fill="#FCE3C4"/>
<path d="M150.186 171.649V131.125L123.82 136.467C123.82 136.467 123.109 138.76 118.088 138.106C113.996 137.579 115.927 136.003 114.145 135.682C112.362 135.361 90.1396 128.414 90.1396 128.414L90.7873 169.987L150.186 171.649Z" fill="#59CEE7"/>
<path d="M72.6263 309.225C77.5213 311.059 86.8699 314.079 96.2643 309.872C105.659 305.665 105.166 305.172 107.109 301.452C109.052 297.732 107.917 298.053 110.026 296.592C112.136 295.13 112.015 293.101 110.995 282.996C109.975 272.891 109.379 273.601 106.788 270.69C104.197 267.778 105.974 266.477 101.629 266.477C97.2846 266.477 91.5872 265.668 90.2975 268.099C89.0079 270.529 86.5718 273.767 85.7636 278.296C84.9554 282.824 79.9344 290.441 76.0482 293.198C72.162 295.955 71.8353 297.893 71.1876 302.266C70.5399 306.64 70.6029 308.468 72.6263 309.225Z" fill="#6245DD"/>
<path d="M3.81154 227.621C5.05535 224.915 7.21052 220.983 10.1166 220.169C13.0226 219.355 22.2623 219.843 25.5008 219.023C28.7393 218.203 34.9067 213.692 37.1594 212.718C39.412 211.743 41.6932 211.904 44.7655 215.63C47.8378 219.355 50.2738 223.562 49.6261 225.345C48.9784 227.128 46.7143 226.961 47.5225 229.254C48.3307 231.547 48.5141 233.84 49.735 234.109C50.9559 234.378 52.7041 232.206 51.5749 236.975C50.472 241.511 49.0645 245.967 47.362 250.313C45.7456 254.474 43.3153 257.575 40.7016 258.544C38.0879 259.513 32.6083 259.518 26.2918 252.72C19.9753 245.922 13.848 244.444 8.50591 238.786C3.16384 233.129 3.05494 229.254 3.81154 227.621Z" fill="#6245DD"/>
<path d="M153.247 168.497C153.247 168.497 120.547 147.152 102.09 138.405C83.6339 129.658 74.8929 124.482 69.0636 134.845C63.2343 145.209 46.1019 194.457 43.9811 198.635C41.8603 202.814 39.2695 207.055 39.2695 207.055C39.2695 207.055 45.1791 207.777 51.9369 214.214C58.6947 220.651 58.047 223.248 58.047 223.248C58.047 223.248 74.9617 199.925 77.8046 195.076C80.6476 190.226 121.315 180.07 140.62 176.161C159.925 172.251 153.247 168.497 153.247 168.497Z" fill="#FCE3C4"/>
<path d="M158.278 145.695C156.325 144.931 154.411 144.069 152.546 143.11C149.715 141.649 148.012 141.649 146.963 142.136C145.914 142.623 144.779 144.079 142.75 145.695C140.721 147.312 138.95 148.452 139.798 149.1C140.59 149.779 141.576 150.191 142.615 150.277C143.654 150.364 144.695 150.12 145.588 149.581C148.178 148.045 148.499 146.991 148.499 146.991C148.499 146.991 153.308 148.853 153.601 149.283C153.893 149.713 155.057 150.011 154.655 150.092C154.254 150.172 150.769 150.487 148.58 150.613C146.39 150.739 142.98 151.714 139.793 152.843C136.606 153.972 137.168 155.6 137.575 156.408C137.981 157.216 141.214 156.889 142.836 156.809C144.458 156.729 147.45 156.649 148.339 156.569C149.227 156.488 154.552 155.032 154.277 155.6C154.002 156.167 149.48 157.377 147.777 157.457C146.075 157.537 140.326 157.216 138.95 157.457C137.574 157.698 137.328 160.294 138.87 160.862C140.412 161.429 144.693 160.695 148.987 160.862C153.28 161.028 154.81 161.102 153.274 161.509C151.738 161.916 144.046 162.478 142.189 162.478C140.332 162.478 140.807 163.773 140.973 165.149C141.14 166.525 145.507 166.204 146.963 166.123L152.695 165.797C154.071 165.717 152.529 166.605 151.073 166.685C149.617 166.765 145.083 166.284 145.811 167.172C146.539 168.061 145.57 169.115 150.672 169.603C155.773 170.09 159.086 170.331 159.734 169.196C161.08 167.082 162.112 164.784 162.8 162.375C163.947 158.082 162.325 147.398 158.278 145.695Z" fill="#EEA281"/>
<path d="M115.328 84.2965C115.328 84.2965 120.739 90.2061 122.287 92.6593C123.359 94.3788 126.54 93.4503 131.641 86.8931C136.742 80.3358 136.227 74.1798 136.227 74.1798C136.227 74.1798 118.899 74.3919 114.405 74.1798C109.912 73.9678 93.4384 75.0969 93.4384 75.0969C93.4384 75.0969 91.8106 78.6163 97.2271 85.6149C102.81 92.8427 109.184 94.482 110.038 94.1152C110.892 93.7483 115.328 84.2965 115.328 84.2965Z" fill="#4431AF"/>
<path d="M115.219 80.1295C116.515 81.1383 118.865 83.0413 120.2 84.9844C121.171 86.4573 122.049 87.9887 122.831 89.5698C122.831 89.5698 129.784 84.7436 132.386 81.1268C134.88 77.6591 136.834 75.5039 136.232 74.1684C135.63 72.8329 133.515 66.6711 132.22 65.0605C130.5 62.9397 117.162 60.9966 106.478 62.7678C98.6315 64.0574 98.4079 65.4159 97.2386 67.3131C96.2069 68.9811 94.2925 73.8875 93.4441 75.1027C92.5958 76.3178 93.8511 78.6449 98.7862 82.8693C102.443 85.9989 109.396 90.2118 109.396 90.2118C110.02 88.2674 110.81 86.3804 111.757 84.5717C112.678 82.9229 113.845 81.4249 115.219 80.1295Z" fill="#6245DD"/>
<path d="M42.0244 255.833C37.8173 252.595 34.9284 250.611 27.6949 241.223C20.4613 231.834 13.3653 226.32 7.5188 226.492C6.39239 226.504 5.26968 226.623 4.16568 226.847C4.03385 227.111 3.91348 227.375 3.79884 227.621C3.04224 229.26 3.15115 233.129 8.49322 238.787C13.8353 244.444 19.9855 245.917 26.302 252.715C32.6185 259.513 38.1383 259.519 40.7061 258.544C41.633 258.173 42.4781 257.624 43.1937 256.928C42.8404 256.526 42.4488 256.159 42.0244 255.833Z" fill="white"/>
<path d="M114.862 202.04C123.522 204.406 132.603 204.798 141.434 203.187C155.684 200.435 160.097 195.093 161.857 187.642C163.617 180.191 166.528 173.398 158.888 170.275C151.247 167.151 103.862 157.046 96.7489 157.366C89.6357 157.687 83.9612 160.444 81.6914 169.977C79.4216 179.509 81.3704 208.019 81.6914 216.118C82.0124 224.217 85.7438 266.145 85.7438 266.145C85.7438 266.145 90.5758 264.07 94.7715 263.795C103.369 263.222 108.568 266.145 108.568 266.145C108.568 266.145 111.325 233.118 112.294 221.62C113.262 210.122 114.862 202.04 114.862 202.04Z" fill="#FCE3C4"/>
<path d="M97.617 37.6566C97.617 37.6566 95.4733 39.2787 93.4786 33.5641C91.484 27.8495 91.9597 25.0581 92.6418 23.5678L93.7022 21.2751C93.7022 21.2751 92.6303 16.1794 93.9486 11.978C95.267 7.77658 97.5712 3.621 99.2449 4.78456C100.337 5.62088 101.212 6.70814 101.796 7.95427C101.766 6.02549 101.974 4.1004 102.415 2.22243C103.131 -0.643483 104.707 -0.3225 106.284 1.5862C107.264 2.82755 108.059 4.20405 108.645 5.673C108.645 5.673 108.072 4.35468 108.857 2.14219C109.642 -0.0702995 111.201 -1.16508 112.996 1.8384C114.79 4.84188 114.641 5.99971 118.223 7.43267C121.805 8.86563 124.385 13.6632 124.385 13.6632C124.385 13.6632 128.712 13.8409 131.154 18.5639C133.596 23.2869 133.005 34.229 133.005 34.229C130.9 35.8403 128.519 37.0543 125.978 37.8114C121.547 39.1928 99.8008 38.161 97.617 37.6566Z" fill="#FCE3C4"/>
<path d="M127.433 51.2697C127.433 51.2697 126.86 54.4795 128.178 60.6871C129.009 64.5847 130.339 66.6252 130.339 69.7204C130.339 71.3425 123.942 82.3305 111.951 80.7829C107.796 80.2498 99.175 74.2428 100.161 69.7204C100.689 67.7234 100.974 65.6699 101.009 63.6046C101.091 61.1984 100.986 58.7894 100.694 56.3996L127.433 51.2697Z" fill="#F28B7A"/>
<path d="M127.2 32.9622C127.2 32.9622 131.212 30.3657 134.76 33.0712C138.463 35.9371 138.968 39.3762 136.612 44.4947C134.944 48.1401 127.871 47.6873 127.871 47.6873L127.2 32.9622Z" fill="#F68A84"/>
<path d="M95.984 24.1404C95.4644 24.5037 95.0512 24.9991 94.7872 25.5755C94.5232 26.1519 94.4179 26.7883 94.4822 27.419C94.6427 29.7118 95.5885 45.1419 97.4456 49.4006C99.3027 53.6594 108.858 63.4264 116.659 58.1818C124.46 52.9372 126.128 44.4884 125.973 37.8109C125.818 31.1333 124.305 29.643 122.7 25.7052C121.738 23.4329 121.622 20.8909 122.373 18.5404C122.373 18.5404 115.977 18.4201 112.389 20.1855C108.8 21.9509 106.76 24.1977 102.702 24.7709C100.445 25.1326 98.1338 24.9156 95.984 24.1404Z" fill="#EEA281"/>
<path d="M109.66 46.776C105.762 47.0855 103.819 47.5097 102.61 49.0687C101.4 50.6278 100.431 49.6763 99.0558 48.742C98.4065 48.2445 97.6609 47.8873 96.8662 47.6931C98.0745 50.42 99.1139 53.2186 99.9786 56.073C101.182 60.2286 101.503 62.3781 107.098 65.0376C112.692 67.6972 118.836 65.1981 123.061 59.0192C127.285 52.8403 127.979 50.6966 127.841 47.6874L127.371 37.3242L125.95 37.8114C125.95 37.8114 126.379 41.9154 124.803 44.4947C123.227 47.0741 122.43 48.8165 119.914 47.9682C117.398 47.1199 115.707 46.4436 113.993 46.4608C112.279 46.478 111.654 46.6155 109.66 46.776Z" fill="#FCE3C4"/>
<path d="M110.436 32.6062C110.808 31.5745 111.857 30.153 115.342 29.5454C118.827 28.9379 118.409 29.5454 120.787 30.7319C123.166 31.9184 122.92 33.1106 120.988 32.526C119.056 31.9413 118.695 31.6089 115.726 31.9872C112.757 32.3655 111.404 33.552 110.826 33.2883C110.247 33.0247 110.436 32.6062 110.436 32.6062Z" fill="#FCE3C4"/>
<path d="M107.236 33.2262C106.05 31.885 104.405 30.2285 102.164 30.3087C99.9224 30.389 97.4234 31.7359 96.1681 32.4696C94.9128 33.2033 95.314 33.6848 96.7413 33.4268C98.5161 33.1556 100.311 33.0405 102.106 33.0829C104.514 33.0829 105.929 33.9255 106.795 34.2293C107.66 34.5331 107.236 33.2262 107.236 33.2262Z" fill="#FCE3C4"/>
<path d="M114.973 48.9194C113.076 49.1314 110.594 50.1976 108.031 49.8709C105.934 49.6072 104.151 49.2575 103.893 50.5415C103.635 51.8254 106.014 54.3875 109.671 54.3875C112.411 54.3875 114.531 53.608 115.976 52.4559C117.42 51.3038 117.208 48.7016 114.973 48.9194Z" fill="#F28B7A"/>
<path d="M101.246 37.6987L101.726 37.6201C102.333 37.5207 102.745 36.9478 102.645 36.3406L102.567 35.8608C102.467 35.2536 101.894 34.8419 101.287 34.9414L100.807 35.0199C100.2 35.1194 99.7884 35.6922 99.8879 36.2995L99.9664 36.7792C100.066 37.3865 100.639 37.7981 101.246 37.6987Z" fill="black"/>
<path d="M116.059 36.3315L116.556 36.2513C117.184 36.1497 117.611 35.558 117.509 34.9296L117.429 34.4331C117.328 33.8048 116.736 33.3777 116.108 33.4792L115.611 33.5595C114.983 33.661 114.556 34.2528 114.657 34.8811L114.737 35.3776C114.839 36.006 115.431 36.4331 116.059 36.3315Z" fill="black"/>
<path d="M108.278 34.224C107.733 36.3255 107.063 38.3926 106.272 40.4144C105 43.6357 104.363 44.249 106.272 44.3178C107.505 44.3441 108.737 44.2365 109.946 43.9968L108.278 34.224Z" fill="#E5897D"/>
<path d="M117.764 45.1021C119.654 45.1021 121.186 43.5701 121.186 41.6802C121.186 39.7903 119.654 38.2583 117.764 38.2583C115.874 38.2583 114.342 39.7903 114.342 41.6802C114.342 43.5701 115.874 45.1021 117.764 45.1021Z" fill="#F28B7A"/>
<path d="M99.9092 46.2599C101.799 46.2599 103.331 44.7279 103.331 42.838C103.331 40.9482 101.799 39.4161 99.9092 39.4161C98.0193 39.4161 96.4873 40.9482 96.4873 42.838C96.4873 44.7279 98.0193 46.2599 99.9092 46.2599Z" fill="#F28B7A"/>
<path d="M127.492 35.2033C127.492 35.2033 130.301 33.4379 132.731 35.3524C135.276 37.3528 135.597 39.7372 133.906 43.2852C132.72 45.7958 127.825 45.4174 127.825 45.4174L127.492 35.2033Z" fill="#DD623D"/>
<path d="M204.5 195.913C211.802 195.461 217.081 197.925 222.618 208.523C228.155 219.122 236.059 222.32 243.912 227.077C251.764 231.835 268.983 242.49 270.095 267.773C271.092 290.5 266.971 297.802 264.741 301.11C262.328 304.681 258.322 305.844 254.745 305.907C249.122 306.005 224.756 306.022 218.153 305.936C213.332 305.873 208.518 305.495 205.405 300.731C203.582 298.03 202.84 294.743 203.325 291.52C204.053 287.279 210.512 286.901 210.822 292.317C211 295.521 212.261 295.796 212.261 295.796C212.261 295.796 211.819 278.601 211.636 272.903C211.452 267.206 208.059 261.296 203.336 251.61C198.613 241.923 195.036 235.314 191.471 225.971C187.906 216.628 187.006 208.776 190.13 203.904C192.096 200.82 195.575 196.458 204.5 195.913Z" fill="#6248DD"/>
<path d="M217.227 204.277C217.227 204.277 217.577 199.611 216.528 196.086C215.479 192.561 213.845 192.074 213.845 192.074C213.845 192.074 212.269 192.309 210.98 194.825C210.19 196.404 209.658 198.099 209.403 199.846C210.684 200.078 211.923 200.501 213.077 201.101C214.588 201.982 215.982 203.049 217.227 204.277Z" fill="#6248DD"/>
<path d="M215.575 201.681C215.681 200.101 215.545 198.514 215.174 196.975C214.566 194.951 213.632 194.682 213.632 194.682C213.632 194.682 212.726 194.82 211.993 196.264C211.539 197.165 211.234 198.132 211.087 199.13C211.822 199.264 212.533 199.507 213.196 199.852C214.065 200.356 214.864 200.971 215.575 201.681Z" fill="white"/>
<path d="M191.935 204.127C191.935 204.127 191.585 199.461 192.634 195.93C193.683 192.4 195.317 191.918 195.317 191.918C195.317 191.918 196.887 192.159 198.183 194.67C198.972 196.251 199.504 197.948 199.759 199.696C198.477 199.925 197.238 200.348 196.085 200.952C194.571 201.828 193.177 202.896 191.935 204.127Z" fill="#6248DD"/>
<path d="M193.582 201.531C193.476 199.951 193.611 198.364 193.983 196.825C194.585 194.796 195.525 194.532 195.525 194.532C195.525 194.532 196.425 194.67 197.164 196.114C197.613 197.016 197.917 197.984 198.064 198.98C197.329 199.114 196.618 199.357 195.955 199.703C195.09 200.209 194.292 200.824 193.582 201.531Z" fill="white"/>
<path d="M211.732 215.345C214.29 215.345 216.363 213.217 216.363 210.593C216.363 207.969 214.29 205.841 211.732 205.841C209.174 205.841 207.101 207.969 207.101 210.593C207.101 213.217 209.174 215.345 211.732 215.345Z" fill="white"/>
<path d="M211.308 214.101C211.862 214.101 212.311 213.079 212.311 211.82C212.311 210.56 211.862 209.538 211.308 209.538C210.754 209.538 210.305 210.56 210.305 211.82C210.305 213.079 210.754 214.101 211.308 214.101Z" fill="#2782EE"/>
<path d="M197.082 215.345C199.639 215.345 201.713 213.217 201.713 210.593C201.713 207.969 199.639 205.841 197.082 205.841C194.524 205.841 192.45 207.969 192.45 210.593C192.45 213.217 194.524 215.345 197.082 215.345Z" fill="white"/>
<path d="M196.66 214.101C197.214 214.101 197.663 213.079 197.663 211.82C197.663 210.56 197.214 209.538 196.66 209.538C196.106 209.538 195.657 210.56 195.657 211.82C195.657 213.079 196.106 214.101 196.66 214.101Z" fill="#2782EE"/>
<path d="M204.459 213.207C206.969 213.207 207.101 213.78 206.368 214.273C205.634 214.766 204.963 215.15 204.992 215.328C205.021 215.506 205.599 216.021 206.001 216.64C206.402 217.259 205.852 217.569 205.611 217.328C205.37 217.087 204.625 216.331 204.625 216.331C204.625 216.331 204.224 216.904 203.926 217.259C203.628 217.615 202.779 217.397 203.089 216.847C203.398 216.296 204.052 215.763 204.052 215.5C204.052 215.236 203.868 215.018 203.009 214.399C202.149 213.78 202.017 213.207 204.459 213.207Z" fill="white"/>
<path d="M222.594 234.277C222.503 234.275 222.412 234.262 222.324 234.237C222.07 234.166 221.853 233.997 221.722 233.767C221.592 233.538 221.557 233.265 221.625 233.01C222.161 231.455 223.043 230.042 224.205 228.877C225.253 227.712 226.461 226.701 227.793 225.874C227.906 225.782 228.037 225.716 228.178 225.68C228.32 225.645 228.467 225.64 228.61 225.667C228.753 225.694 228.888 225.751 229.007 225.836C229.125 225.92 229.224 226.03 229.296 226.156C229.368 226.282 229.412 226.423 229.424 226.568C229.437 226.713 229.417 226.859 229.367 226.996C229.318 227.133 229.239 227.257 229.136 227.36C229.033 227.463 228.909 227.543 228.773 227.594C227.626 228.33 226.581 229.214 225.666 230.224C224.735 231.157 224.015 232.279 223.557 233.515C223.503 233.73 223.379 233.921 223.205 234.059C223.031 234.197 222.816 234.273 222.594 234.277Z" fill="white"/>
<path d="M211.45 271.941C211.192 271.941 210.945 271.841 210.759 271.663C210.573 271.484 210.463 271.241 210.453 270.983C210.276 266.028 210.583 261.068 211.37 256.172C212.78 248.337 214.574 246.715 214.918 246.468C215.13 246.319 215.393 246.257 215.65 246.297C215.907 246.337 216.139 246.476 216.296 246.683C216.453 246.891 216.523 247.151 216.491 247.41C216.46 247.668 216.329 247.904 216.127 248.068C216.036 248.159 214.574 249.701 213.342 256.528C212.596 261.277 212.299 266.087 212.453 270.892C212.459 271.024 212.439 271.155 212.395 271.279C212.35 271.403 212.281 271.517 212.192 271.615C212.103 271.712 211.996 271.791 211.876 271.847C211.757 271.903 211.628 271.935 211.496 271.941H211.45Z" fill="white"/>
<path d="M225.747 297.872C221.122 297.872 217.499 297.872 216.634 297.872C216.324 297.872 216.06 297.872 215.762 297.872C214.089 297.872 212.644 297.906 211.486 296.456C211.316 296.248 211.235 295.982 211.262 295.715C211.288 295.448 211.419 295.202 211.627 295.032C211.834 294.861 212.101 294.78 212.368 294.807C212.635 294.833 212.881 294.964 213.051 295.172C213.573 295.82 214.152 295.848 215.745 295.831C216.032 295.831 216.318 295.831 216.651 295.831C219.276 295.831 247.293 295.831 251.563 295.78C254.584 295.728 255.341 294.725 256.223 293.556C256.464 293.24 256.711 292.914 257.003 292.598C257.184 292.403 257.435 292.288 257.701 292.277C257.967 292.267 258.226 292.363 258.422 292.544C258.617 292.725 258.732 292.976 258.743 293.242C258.753 293.508 258.657 293.767 258.476 293.963C258.253 294.203 258.04 294.478 257.823 294.765C256.831 296.083 255.593 297.723 251.598 297.786C248.726 297.854 235.159 297.872 225.747 297.872Z" fill="white"/>
</g>
<defs>
<linearGradient id="paint0_linear_1989_20373" x1="362.662" y1="151.408" x2="308.977" y2="244.42" gradientUnits="userSpaceOnUse">
<stop offset="0.6" stop-color="#2E34C9"/>
<stop offset="0.99" stop-color="#6245DD"/>
</linearGradient>
<linearGradient id="paint1_linear_1989_20373" x1="288.713" y1="179.894" x2="265.695" y2="186.064" gradientUnits="userSpaceOnUse">
<stop offset="0.07" stop-color="#0A31A9"/>
<stop offset="0.72" stop-color="#0F3FCE"/>
</linearGradient>
<linearGradient id="paint2_linear_1989_20373" x1="310.531" y1="203.465" x2="287.73" y2="209.577" gradientUnits="userSpaceOnUse">
<stop offset="0.07" stop-color="#0A31A9"/>
<stop offset="0.72" stop-color="#0F3FCE"/>
</linearGradient>
<linearGradient id="paint3_linear_1989_20373" x1="373.558" y1="223.115" x2="325.226" y2="236.07" gradientUnits="userSpaceOnUse">
<stop offset="0.07" stop-color="#0A31A9"/>
<stop offset="0.72" stop-color="#0F3FCE"/>
</linearGradient>
<linearGradient id="paint4_linear_1989_20373" x1="359.71" y1="245.222" x2="319.256" y2="256.065" gradientUnits="userSpaceOnUse">
<stop offset="0.07" stop-color="#0A31A9"/>
<stop offset="0.72" stop-color="#0F3FCE"/>
</linearGradient>
<linearGradient id="paint5_linear_1989_20373" x1="19.0536" y1="206.357" x2="216.773" y2="206.357" gradientUnits="userSpaceOnUse">
<stop offset="0.41" stop-color="#0784C0"/>
<stop offset="0.84" stop-color="#0EB6CC"/>
</linearGradient>
<linearGradient id="paint6_linear_1989_20373" x1="16.6304" y1="177.233" x2="34.6799" y2="177.233" gradientUnits="userSpaceOnUse">
<stop offset="0.41" stop-color="#0784C0"/>
<stop offset="0.84" stop-color="#0EB6CC"/>
</linearGradient>
<linearGradient id="paint7_linear_1989_20373" x1="184.897" y1="270.667" x2="192.423" y2="270.667" gradientUnits="userSpaceOnUse">
<stop offset="0.41" stop-color="#0784C0"/>
<stop offset="0.84" stop-color="#0EB6CC"/>
</linearGradient>
<linearGradient id="paint8_linear_1989_20373" x1="39.2695" y1="270.667" x2="46.7954" y2="270.667" gradientUnits="userSpaceOnUse">
<stop offset="0.41" stop-color="#0784C0"/>
<stop offset="0.84" stop-color="#0EB6CC"/>
</linearGradient>
<linearGradient id="paint9_linear_1989_20373" x1="34.406" y1="141.048" x2="198.583" y2="141.048" gradientUnits="userSpaceOnUse">
<stop offset="0.41" stop-color="#0784C0"/>
<stop offset="0.84" stop-color="#0EB6CC"/>
</linearGradient>
<clipPath id="clip0_1989_20373">
<rect width="405" height="312" fill="white"/>
</clipPath>
</defs>
</svg>
