<svg width="430" height="348" viewBox="0 0 430 348" fill="none" xmlns="http://www.w3.org/2000/svg">
<path d="M80.5723 43.0836H150.005V241.492L294.048 43.0836H359.61V347.653H290.601V149.681L146.559 347.653H80.5723V43.0836Z" fill="#7067EF"/>
<path d="M119.673 50.3577H88.9218C87.9873 50.3577 87.2297 51.1153 87.2297 52.0498V64.4816C87.2297 65.4161 87.9873 66.1737 88.9218 66.1737H119.673C120.608 66.1737 121.366 65.4161 121.366 64.4816V52.0498C121.366 51.1153 120.608 50.3577 119.673 50.3577Z" fill="#6248DD"/>
<path d="M130.493 87.5093H99.7413C98.8067 87.5093 98.0491 88.2669 98.0491 89.2014V101.633C98.0491 102.568 98.8067 103.325 99.7413 103.325H130.493C131.427 103.325 132.185 102.568 132.185 101.633V89.2014C132.185 88.2669 131.427 87.5093 130.493 87.5093Z" fill="#7B7BEF"/>
<path d="M141.685 68.9335H110.934C109.999 68.9335 109.241 69.6911 109.241 70.6256V83.0574C109.241 83.9919 109.999 84.7495 110.934 84.7495H141.685C142.62 84.7495 143.377 83.9919 143.377 83.0574V70.6256C143.377 69.6911 142.62 68.9335 141.685 68.9335Z" fill="#7B7BEF"/>
<path d="M259.76 145.541H229.008C228.074 145.541 227.316 146.299 227.316 147.233V159.665C227.316 160.6 228.074 161.357 229.008 161.357H259.76C260.694 161.357 261.452 160.6 261.452 159.665V147.233C261.452 146.299 260.694 145.541 259.76 145.541Z" fill="#7B7BEF"/>
<path d="M260.117 126.928H241.66C240.925 126.928 240.33 127.523 240.33 128.258V141.414C240.33 142.148 240.925 142.744 241.66 142.744H260.117C260.851 142.744 261.447 142.148 261.447 141.414V128.258C261.447 127.523 260.851 126.928 260.117 126.928Z" fill="#7B7BEF"/>
<path d="M224.512 214.887H193.761C192.826 214.887 192.069 215.645 192.069 216.579V229.011C192.069 229.945 192.826 230.703 193.761 230.703H224.512C225.447 230.703 226.205 229.945 226.205 229.011V216.579C226.205 215.645 225.447 214.887 224.512 214.887Z" fill="#7B7BEF"/>
<path d="M235.705 196.311H204.953C204.019 196.311 203.261 197.069 203.261 198.003V210.435C203.261 211.369 204.019 212.127 204.953 212.127H235.705C236.639 212.127 237.397 211.369 237.397 210.435V198.003C237.397 197.069 236.639 196.311 235.705 196.311Z" fill="#6248DD"/>
<path d="M148.487 150.312H124.191C123.354 150.312 122.674 150.991 122.674 151.829V164.61C122.674 165.448 123.354 166.128 124.191 166.128H148.487C149.325 166.128 150.004 165.448 150.004 164.61V151.829C150.004 150.991 149.325 150.312 148.487 150.312Z" fill="#7B7BEF"/>
<path d="M128.065 169.512H97.3137C96.3792 169.512 95.6216 170.269 95.6216 171.204V183.636C95.6216 184.57 96.3792 185.328 97.3137 185.328H128.065C129 185.328 129.757 184.57 129.757 183.636V171.204C129.757 170.269 129 169.512 128.065 169.512Z" fill="#7B7BEF"/>
<path d="M117.735 150.312H86.9836C86.049 150.312 85.2914 151.069 85.2914 152.004V164.435C85.2914 165.37 86.049 166.128 86.9836 166.128H117.735C118.67 166.128 119.427 165.37 119.427 164.435V152.004C119.427 151.069 118.67 150.312 117.735 150.312Z" fill="#7B7BEF"/>
<path d="M422.479 39.8054H261.44V328.546H422.479V39.8054Z" fill="#D0EFF4"/>
<path d="M425.311 0H258.603C256.013 0 253.914 2.09944 253.914 4.68923V35.1162C253.914 37.706 256.013 39.8054 258.603 39.8054H425.311C427.901 39.8054 430 37.706 430 35.1162V4.68923C430 2.09944 427.901 0 425.311 0Z" fill="#59CEE7"/>
<path d="M423.345 328.546H260.57C258.811 328.546 257.386 329.972 257.386 331.73V344.468C257.386 346.227 258.811 347.653 260.57 347.653H423.345C425.103 347.653 426.529 346.227 426.529 344.468V331.73C426.529 329.972 425.103 328.546 423.345 328.546Z" fill="#7067EF"/>
<path d="M404.481 55.4342H279.432V328.546H404.481V55.4342Z" fill="#59CEE7"/>
<path d="M394.712 64.6691H289.207V319.311H394.712V64.6691Z" fill="#0D1E7A"/>
<mask id="mask0_7193_183753" style="mask-type:alpha" maskUnits="userSpaceOnUse" x="289" y="64" width="106" height="256">
<path d="M394.706 64.6691H289.202V319.311H394.706V64.6691Z" fill="#0D1E7A"/>
</mask>
<g mask="url(#mask0_7193_183753)">
<path d="M362.818 196.436C362.818 196.436 374.189 207.051 383.211 211.284C392.234 215.517 404.072 222.561 406.314 244.833C408.555 267.105 412.776 330.207 412.776 330.207H270.158C270.158 330.207 276.358 276.69 278.618 253.287C280.878 229.885 284.238 225.945 295.533 215.23C306.828 204.516 323.069 195.25 323.069 195.25L362.818 196.436Z" fill="white"/>
<path d="M366.671 165.99C365.997 170.026 365.68 174.112 365.722 178.203C365.815 183.592 367.42 187.32 370.717 188.069C372.077 188.385 373.491 188.385 374.85 188.069C374.85 188.069 374.164 192.771 369.855 194.744C365.547 196.717 365.079 196.998 361.32 196.617C357.561 196.236 353.334 192.577 352.678 187.688C352.022 182.799 350.805 179.983 351.642 177.354C352.478 174.725 360.758 168.332 361.507 167.576C362.256 166.821 366.671 165.99 366.671 165.99Z" fill="#FCE3C4"/>
<path d="M357.177 172.19C357.177 172.19 354.349 182.63 356.884 189.911C357.858 192.714 362.816 196.436 362.816 196.436C362.816 196.436 361.973 203.485 355.073 211.003C347.674 219.058 344.227 238.633 344.227 238.633C344.227 238.633 342.517 218.708 330.609 208.88C324.896 204.166 323.067 195.274 323.067 195.274C323.067 195.274 327.437 193.045 328.449 188.437C329.46 183.829 329.173 170.954 329.173 170.954L357.177 172.19Z" fill="#ED8879"/>
<path d="M368.938 155.744C368.938 155.744 371.842 156.118 371.842 159.49C371.842 162.862 369.4 167.382 366.847 168.794C365.132 169.658 363.218 170.049 361.302 169.924C361.302 169.924 360.084 174.151 355.57 178.565C352.13 181.937 346.96 185.74 339.879 184.297C333.86 183.08 331.256 178.053 329.002 174.376C326.748 170.698 325.218 164.385 325.218 164.385C325.218 164.385 322.021 163.349 320.61 161.657C319.199 159.965 318.968 155.525 319.249 153.54C319.53 151.554 321.834 149.244 323.526 147.264C325.218 145.285 324.556 139.372 329.352 133.172C334.147 126.971 342.32 123.587 353.597 126.403C364.874 129.219 368.189 135.707 368.926 142.194C369.358 146.7 369.362 151.237 368.938 155.744Z" fill="#F1A180"/>
<path d="M366.579 159.971C366.579 159.971 368.546 158.447 370.619 153.021C372.524 147.661 372.457 141.797 370.432 136.481C368.066 130.406 365.543 130.462 365.543 130.462C365.543 130.462 363.557 121.439 352.012 119.753C328.235 116.275 324.614 133.047 323.071 141.177C322.16 145.959 321.504 148.27 319.156 152.503C317.283 155.9 312.169 157.81 312.169 157.81C313.978 158.577 315.978 158.773 317.901 158.372C321.754 157.623 324.539 154.264 326.924 150.948C332.937 142.588 344.869 146.253 353.611 140.896C357.122 138.639 360.314 135.922 363.102 132.816C363.102 132.816 360.654 138.548 363.102 142.588C365.549 146.627 366.767 146.253 367.141 149.637C367.516 153.021 366.579 159.971 366.579 159.971Z" fill="#FCE3C4"/>
<path d="M350.412 148.507C352.245 147.713 354.248 147.391 356.237 147.57C359.247 147.945 361.857 150.199 361.976 150.692C362.094 151.186 360.764 150.842 357.086 149.843C352.834 148.663 349.569 150.105 350.412 148.507Z" fill="#9B6F68"/>
<path d="M342.516 148.039C341.976 147.058 341.113 146.295 340.075 145.878C338.202 144.979 337.371 145.104 336.366 145.348C335.361 145.591 332.395 146.596 332.395 146.596C334.68 146.761 336.942 147.163 339.144 147.795C341.773 148.707 342.329 149.543 342.516 148.039Z" fill="#9B6F68"/>
<path d="M356.138 154.231C356.224 153.665 355.837 153.137 355.273 153.05C354.709 152.964 354.181 153.353 354.095 153.919L353.982 154.66C353.895 155.226 354.283 155.754 354.847 155.84C355.411 155.927 355.938 155.538 356.025 154.972L356.138 154.231Z" fill="#191512"/>
<path d="M337.435 151.292C337.521 150.726 337.134 150.197 336.57 150.111C336.005 150.025 335.478 150.414 335.392 150.98L335.279 151.721C335.192 152.286 335.58 152.815 336.144 152.901C336.708 152.987 337.235 152.598 337.322 152.032L337.435 151.292Z" fill="#191512"/>
<path d="M346.181 153.764C346.181 153.764 346.649 159.19 347.498 160.52C348.347 161.85 347.779 163.168 346.836 163.262C345.131 163.333 343.424 163.207 341.747 162.887C339.681 162.231 340.78 160.495 341.385 159.971C342.384 159.157 343.156 158.099 343.627 156.899C344.189 155.588 344.957 151.592 346.181 153.764Z" fill="#F6857E"/>
<path d="M334.414 166.09C337.178 166.115 339.936 166.334 342.669 166.746C345.968 167.193 349.213 167.976 352.353 169.081C352.353 169.081 348.675 175.325 342.363 174.176C335.469 172.902 334.414 166.09 334.414 166.09Z" fill="#E63891"/>
<path d="M334.414 166.09C337.203 167.551 340.213 168.544 343.324 169.031C346.323 169.382 349.351 169.399 352.353 169.081C351.02 170.098 349.495 170.837 347.869 171.252C346.244 171.667 344.552 171.75 342.894 171.497C336 170.286 334.414 166.09 334.414 166.09Z" fill="white"/>
<path d="M364.05 166.59C364.05 166.59 366.548 166.408 367.99 163.286C369.302 160.47 369.801 156.499 368.365 156.687C366.929 156.874 366.854 157.617 365.355 161.632C364.244 164.61 363.026 166.533 364.05 166.59Z" fill="#E07E81"/>
<path d="M325.099 160.352C325.174 157.605 325.043 153.409 325.043 153.409L321.665 156.68C321.678 157.492 321.937 158.28 322.408 158.941C322.856 159.638 323.401 160.268 324.025 160.814C324.113 160.906 324.227 160.968 324.351 160.993C324.476 161.019 324.605 161.005 324.722 160.955C324.839 160.905 324.937 160.82 325.005 160.712C325.072 160.605 325.105 160.479 325.099 160.352Z" fill="#E07E81"/>
<path d="M331.375 166.34C334.044 166.34 336.208 164.176 336.208 161.507C336.208 158.838 334.044 156.674 331.375 156.674C328.706 156.674 326.542 158.838 326.542 161.507C326.542 164.176 328.706 166.34 331.375 166.34Z" fill="#ED8879"/>
<path d="M356.086 169.637C358.755 169.637 360.919 167.473 360.919 164.804C360.919 162.135 358.755 159.971 356.086 159.971C353.417 159.971 351.253 162.135 351.253 164.804C351.253 167.473 353.417 169.637 356.086 169.637Z" fill="#ED8879"/>
<path d="M355.025 161.095H354.725C350.285 161.014 347.969 157.586 347.713 155.762C347.507 153.893 347.532 152.006 347.788 150.143L347.838 149.787L348.187 149.681C348.287 149.681 350.685 148.969 355.268 149.537C358.024 149.868 360.689 150.735 363.111 152.091L363.417 152.278L363.379 152.628C363.212 154.054 362.885 155.458 362.405 156.811C361.337 159.677 358.921 161.095 355.025 161.095ZM348.856 150.674C348.664 152.312 348.664 153.968 348.856 155.606C349.055 157.049 351.06 159.902 354.769 159.977C358.353 160.04 360.451 158.909 361.375 156.418C361.78 155.27 362.069 154.084 362.236 152.878C360.026 151.723 357.629 150.971 355.156 150.655C353.068 150.331 350.943 150.333 348.856 150.661V150.674Z" fill="white"/>
<path d="M336.749 158.185C336.235 158.183 335.722 158.151 335.213 158.091C331.079 157.586 328.713 155.182 328.725 151.492C328.719 150.079 328.798 148.667 328.962 147.264L329 146.99L329.237 146.852C329.449 146.727 331.473 145.697 337.835 146.921C340.132 147.342 342.335 148.176 344.335 149.381L344.635 149.581L344.579 149.937C344.579 150.087 344.01 153.683 342.918 155.332C341.375 157.661 338.778 158.185 336.749 158.185ZM330.043 147.739C329.98 148.363 329.855 149.731 329.849 151.485C329.849 155.669 333.289 156.712 335.35 156.961C337.123 157.18 340.345 157.174 341.975 154.707C342.749 153.54 343.224 151.067 343.405 150.13C341.602 149.119 339.647 148.407 337.617 148.02C332.871 147.115 330.717 147.533 330.043 147.739Z" fill="white"/>
<path d="M347.933 150.586C347.352 150.124 346.628 149.879 345.885 149.893C345.366 149.835 344.843 149.966 344.412 150.262L343.638 149.444C344.284 148.938 345.098 148.695 345.917 148.763C346.961 148.752 347.974 149.127 348.758 149.818L347.933 150.586Z" fill="white"/>
<path d="M370.88 156.362C370.88 156.362 370.63 155.076 367.758 154.27C366.105 153.781 364.425 153.394 362.725 153.109L362.875 151.991C364.627 152.285 366.36 152.686 368.064 153.19C371.679 154.202 371.96 156.044 371.985 156.25L370.861 156.362H370.88Z" fill="white"/>
</g>
<path d="M288.244 271.301V278.138H395.591V271.301H288.244Z" fill="#59CEE7"/>
<path d="M288.248 104.805V111.643H395.595V104.805H288.248Z" fill="#59CEE7"/>
<path d="M371.147 317.3C371.777 311.703 372.077 306.074 372.046 300.442C372.046 278.126 361.55 260.037 348.606 260.037C335.662 260.037 325.16 278.144 325.16 300.442C325.16 301.884 325.678 310.12 326.178 317.3H371.147Z" fill="#0AA389"/>
<path d="M338.349 278.913C338.349 295.191 336.514 303.957 335.434 308.353C332.312 321.066 324.588 319.305 316.477 319.305C306.424 319.305 300.143 317.301 298.994 306.817C298.725 304.444 297.358 281.416 297.358 278.913C297.358 256.597 306.536 238.501 317.857 238.501C329.177 238.501 338.349 256.628 338.349 278.913Z" fill="#32BF00"/>
<path d="M369.761 246.968C374.494 249.672 378.428 255.354 383.498 270.221C388.568 285.088 387.688 295.821 386.738 300.473C385.789 305.125 384.035 313.105 378.621 316.345C373.208 319.586 361.513 317.113 359.889 313.492C358.266 309.87 359.889 297.095 359.889 291.014C359.889 284.932 360.651 270.808 360.651 262.041C360.651 253.275 364.422 243.921 369.761 246.968Z" fill="#32BF00"/>
<path d="M285.765 306.055H398.632V307.366C398.632 312.984 396.4 318.371 392.428 322.343C388.456 326.315 383.069 328.546 377.452 328.546H306.945C301.328 328.546 295.941 326.315 291.969 322.343C287.997 318.371 285.765 312.984 285.765 307.366V306.055Z" fill="#E63891"/>
<path d="M340.445 246.094C342.972 246.094 345.022 244.045 345.022 241.518C345.022 238.99 342.972 236.941 340.445 236.941C337.917 236.941 335.868 238.99 335.868 241.518C335.868 244.045 337.917 246.094 340.445 246.094Z" fill="#E63891"/>
<path d="M335.63 259.206C338.024 259.206 339.964 257.266 339.964 254.873C339.964 252.48 338.024 250.54 335.63 250.54C333.237 250.54 331.297 252.48 331.297 254.873C331.297 257.266 333.237 259.206 335.63 259.206Z" fill="#E63891"/>
<path d="M347.493 266.612C350.734 266.612 353.362 263.984 353.362 260.743C353.362 257.501 350.734 254.873 347.493 254.873C344.251 254.873 341.623 257.501 341.623 260.743C341.623 263.984 344.251 266.612 347.493 266.612Z" fill="#E63891"/>
<path d="M332.933 282.234C337.081 282.234 340.444 278.871 340.444 274.723C340.444 270.574 337.081 267.211 332.933 267.211C328.784 267.211 325.421 270.574 325.421 274.723C325.421 278.871 328.784 282.234 332.933 282.234Z" fill="#E63891"/>
<path d="M340.983 294.148L340.827 292.275C343.787 292.031 347.002 289.484 347.034 285.793H348.907C348.857 290.57 344.755 293.842 340.983 294.148Z" fill="#0D1E7A"/>
<path d="M345.184 286.711C350.46 286.711 354.738 282.434 354.738 277.158C354.738 271.882 350.46 267.605 345.184 267.605C339.908 267.605 335.631 271.882 335.631 277.158C335.631 282.434 339.908 286.711 345.184 286.711Z" fill="#E63891"/>
<path d="M341.375 246.094H339.515V306.055H341.375V246.094Z" fill="#0D1E7A"/>
<path d="M90.8293 347.653C90.8293 347.653 88.4191 296.158 73.5272 264.776C60.9893 238.339 37.3121 208.449 17.2064 216.491C-2.89919 224.534 13.1791 245.058 28.4456 260.749C42.8068 275.51 54.1958 284.888 64.6607 303.395C75.1256 321.902 76.7303 347.653 76.7303 347.653H90.8293Z" fill="url(#paint0_linear_7193_183753)"/>
<path d="M49.3189 252.301C69.743 277.033 74.3448 292.131 79.5772 313.055C82.1622 323.388 83.8606 336.782 84.9158 347.653H76.7487C76.7487 347.653 75.1378 321.902 64.6791 303.395C54.2204 284.888 42.8251 275.51 28.464 260.749C15.2205 247.162 1.39007 229.953 10.9808 220.356C25.6629 228.488 38.6716 239.327 49.3189 252.301Z" fill="#3CB594"/>
<path d="M111.198 347.963C111.198 347.963 114.433 306.646 120.645 272.473C129.424 224.163 143.598 189.971 165.096 192.506C186.594 195.042 178.29 218.812 168.293 238.3C156.679 260.941 141.307 275.096 129.424 309.75C125.23 322.119 122.549 334.95 121.438 347.963H111.198Z" fill="url(#paint1_linear_7193_183753)"/>
<path d="M170.491 193.805C160.813 209.378 144.422 237.944 132.521 270.169C118.229 308.882 115.094 337.823 114.414 347.963H121.438C122.549 334.95 125.23 322.119 129.424 309.75C141.288 275.096 156.679 260.94 168.293 238.3C177.316 220.686 184.996 199.575 170.491 193.805Z" fill="#3CB594"/>
<path d="M97.0021 347.009C97.0021 347.009 103.034 315.627 88.1481 279.019C73.2624 242.41 28.0872 191.69 11.2597 164.354C-5.56788 137.018 -5.19324 105.611 23.7788 119.291C52.7509 132.972 75.273 184.466 80.9051 198.559C86.5371 212.651 97.614 236.778 103.44 274.998C109.265 313.217 106.093 347.659 106.093 347.659L97.0021 347.009Z" fill="#3CB095"/>
<path d="M11.261 164.354C0.496365 146.883 -3.20632 127.796 3.04391 119.822C11.1923 126.978 29.175 144.392 48.7249 174.007C77.9967 218.34 81.9679 225.52 93.7815 267.349C101.68 295.309 102.798 328.477 102.667 347.409L97.0034 347.009C97.0034 347.009 103.035 315.627 88.1494 279.019C73.2638 242.41 28.0885 191.69 11.261 164.354Z" fill="url(#paint2_linear_7193_183753)"/>
<path d="M112.287 198.457C104.645 135.293 91.7759 65.2852 66.4254 46.3784C41.0748 27.4716 33.4321 50.3995 37.0786 70.9173C40.7251 91.435 61.58 145.283 72.6693 175.523C83.7587 205.762 101.648 255.596 103.964 278.742C106.281 301.889 106.125 347.963 106.125 347.963H114.011C114.011 347.963 117.133 327.982 115.94 281.34C114.748 234.697 112.287 198.457 112.287 198.457Z" fill="#38B696"/>
<path d="M72.6375 175.523C61.5544 145.283 40.6745 91.435 37.0468 70.9172C34.8364 58.3793 36.8282 44.8861 44.577 40.6776C50.9584 53.0719 69.2969 90.4609 82.1158 134.081C102.371 203.14 106.355 233.623 109.471 275.707C112.281 313.633 111.163 335.781 109.639 347.963H106.093C106.093 347.963 106.255 301.895 103.932 278.742C101.61 255.589 83.7205 205.769 72.6375 175.523Z" fill="url(#paint3_linear_7193_183753)"/>
<defs>
<linearGradient id="paint0_linear_7193_183753" x1="90.8293" y1="281.41" x2="7.78427" y2="281.41" gradientUnits="userSpaceOnUse">
<stop offset="0.07" stop-color="#3A8D88"/>
<stop offset="0.72" stop-color="#3AA88E"/>
</linearGradient>
<linearGradient id="paint1_linear_7193_183753" x1="111.198" y1="270.169" x2="178.589" y2="270.169" gradientUnits="userSpaceOnUse">
<stop offset="0.07" stop-color="#3A8D88"/>
<stop offset="0.72" stop-color="#3AA88E"/>
</linearGradient>
<linearGradient id="paint2_linear_7193_183753" x1="102.673" y1="233.619" x2="0.00309234" y2="233.619" gradientUnits="userSpaceOnUse">
<stop offset="0.07" stop-color="#3A8D88"/>
<stop offset="0.72" stop-color="#3AA88E"/>
</linearGradient>
<linearGradient id="paint3_linear_7193_183753" x1="111.2" y1="194.323" x2="36.2038" y2="194.323" gradientUnits="userSpaceOnUse">
<stop offset="0.07" stop-color="#3A8D88"/>
<stop offset="0.72" stop-color="#3AA88E"/>
</linearGradient>
</defs>
</svg>
