<svg width="120" height="100" viewBox="0 0 120 100" fill="none" xmlns="http://www.w3.org/2000/svg">
<path d="M79.8784 17.5285H50.4001V92.939H29.3411V17.5285H0V0H79.8784V17.5285Z" fill="#59CEE7"/>
<path d="M105.805 28.6646C106.813 28.8247 106.931 32.1951 105.805 34.2223C104.679 36.2495 104.077 37.6023 104.528 40.1572C104.98 42.7122 104.795 44.1373 103.576 46.317C102.356 48.4966 103.372 49.1749 103.576 50.9734C103.78 52.772 103.105 55.7042 100.775 57.6571C98.4449 59.61 97.7686 63.6663 97.7686 65.9222C97.7686 68.178 99.5709 72.7583 97.7686 75.4619C95.9662 78.1654 93.1045 82.1532 92.5843 85.0015C92.0642 87.8499 89.2806 95.6711 89.2806 95.6711L84.7289 95.652C85.714 93.3349 85.8231 90.7387 85.0356 88.3472C84.245 85.9046 83.1952 81.774 84.9232 79.4458C86.6513 77.1175 87.8669 76.6527 86.9924 73.2956C86.0512 69.6756 84.9232 66.7529 86.7256 64.0474C88.528 61.3419 90.1056 59.8425 89.6559 56.6873C89.2063 53.5322 88.6042 51.505 91.3078 49.1006C94.0114 46.6961 93.4036 45.4939 93.4798 43.3848C93.556 41.2756 95.0631 39.1798 96.6406 38.5035C98.2182 37.8271 99.0241 36.1104 99.2451 33.4869C99.4947 30.5432 104.378 28.4398 105.805 28.6646Z" fill="#0A40CF"/>
<path d="M103.572 50.9735C103.368 49.1711 102.349 48.4966 103.572 46.317C104.795 44.1374 104.978 42.7103 104.524 40.1573C104.071 37.6042 104.675 36.2515 105.801 34.2223C106.927 32.1932 106.809 28.8247 105.801 28.6647C105.644 28.6453 105.485 28.6453 105.328 28.6647C104.422 29.3925 103.294 30.5128 102.871 31.8236C102.12 34.1519 103.473 36.2553 101.068 39.1094C98.6638 41.9635 97.5378 42.7141 97.8293 46.921C98.1208 51.1278 97.1682 51.949 94.537 55.3289C91.9059 58.7089 92.0602 59.6101 92.6603 63.5216C93.2605 67.4331 93.4091 69.8318 90.5645 73.5871C87.72 77.3424 86.3596 80.789 86.9617 85.0054C87.3656 87.8385 87.7333 90.1877 86.7083 93.642C86.6321 93.9049 86.5501 94.1697 86.4682 94.4346C86.4168 95.17 86.3596 95.652 86.3596 95.652L89.2899 95.6711C89.2899 95.6711 92.0735 87.8595 92.5937 85.0016C93.1138 82.1437 95.9736 78.1655 97.7779 75.4619C99.5822 72.7583 97.7779 68.1761 97.7779 65.9222C97.7779 63.6683 98.4524 59.612 100.781 57.6591C103.109 55.7062 103.776 52.7759 103.572 50.9735Z" fill="url(#paint0_linear_7193_184558)"/>
<path d="M88.6069 95.6655C88.6069 95.6655 91.7621 84.0224 90.4836 79.2897C89.2052 74.5571 86.7855 74.6333 87.921 70.7275C89.0566 66.8217 91.0857 63.9676 89.4338 59.5359C87.782 55.1043 87.8563 54.7289 89.2071 52.6255C90.5579 50.5221 91.0857 49.3961 89.8835 46.9916C88.6812 44.5872 87.6238 43.987 87.6257 41.0586C87.6106 39.476 87.7093 37.8944 87.921 36.3259C87.921 36.3259 83.5732 39.1476 83.2741 42.0189C82.975 44.8901 84.0248 46.401 81.9975 48.3444C79.9703 50.2877 80.5705 51.7986 80.5705 53.9782C80.5705 56.1579 78.5414 56.9829 78.4747 58.9319C78.408 60.881 78.9244 62.3119 80.0523 65.166C81.1802 68.0201 80.4771 69.8891 78.7738 72.9014C77.0705 75.9136 76.0703 75.7917 76.9715 81.4446C77.8726 87.0975 81.7784 95.6617 81.7784 95.6617L88.6069 95.6655Z" fill="#0D1E7A"/>
<path d="M85.5279 44.5832C86.109 46.62 87.2636 47.5497 86.7282 49.0892C86.2367 50.5067 83.8703 50.0666 83.7065 52.0195C83.5426 53.9724 84.8592 55.1746 84.4 58.0287C84.019 60.3665 82.2509 60.4789 82.973 63.1463C83.9256 66.6443 85.3012 68.3191 84.0247 72.2249C82.7481 76.1307 81.3954 80.5623 81.3211 84.9178C81.2735 87.6537 83.4169 92.4588 85.0192 95.6597H88.6068C88.6068 95.6597 91.762 84.0166 90.4835 79.2839C89.2051 74.5512 86.7854 74.6274 87.9209 70.7216C89.0565 66.8158 91.0856 63.9617 89.4337 59.5301C87.7819 55.0984 87.8562 54.7231 89.207 52.6196C90.5578 50.5162 91.0856 49.3902 89.8834 46.9858C88.6811 44.5813 87.6237 43.9812 87.6256 41.0528C87.6105 39.4702 87.7092 37.8885 87.9209 36.3201C87.9209 36.3201 84.8058 42.0664 85.5279 44.5832Z" fill="url(#paint1_linear_7193_184558)"/>
<path d="M87.9273 95.6655C87.9273 95.6655 87.6263 90.5575 90.4804 85.901C93.3345 81.2446 93.485 78.3886 95.5884 70.4264C97.6919 62.4643 99.6447 58.5604 103.701 56.015C107.757 53.4695 107.908 52.5607 108.655 49.7066C109.402 46.8525 110.909 46.5515 112.561 45.8008C114.212 45.0502 114.513 42.7962 116.466 41.293C118.419 39.7897 119.471 40.9919 119.17 43.3888C118.869 45.7856 117.819 46.3934 117.217 47.1441C116.615 47.8947 116.767 49.5485 116.767 51.0499C116.767 52.5512 116.916 52.5531 114.513 54.6565C112.111 56.7599 111.509 57.6592 111.208 60.0637C110.907 62.4681 110.156 64.2705 107.754 66.0729C105.351 67.8753 105.05 68.626 104.749 71.4801C104.448 74.3341 101.891 76.1384 99.7953 79.5927C97.6995 83.0469 97.5413 83.4985 97.3908 87.7053C97.2403 91.9122 93.6355 95.6674 93.6355 95.6674L87.9273 95.6655Z" fill="#02C8DC"/>
<path d="M116.772 51.0481C116.772 49.5467 116.621 47.8929 117.221 47.1423C117.821 46.3916 118.873 45.7914 119.174 43.387C119.307 42.3258 119.174 41.5008 118.82 41.0359C117.707 42.2172 115.752 43.9395 115.419 45.7991C114.95 48.4093 114.249 49.1619 112.471 50.1545C110.579 51.21 111.138 52.6714 110.461 54.0603C109.147 56.7467 106.607 57.1411 104.584 59.6751C102.56 62.2091 104.452 64.0573 100.546 68.1517C96.6405 72.2461 96.3413 72.9892 96.3413 76.4434C96.3413 79.8977 97.6922 82.3021 93.9369 85.9088C90.1816 89.5155 90.4807 90.1137 90.6312 94.9207C90.6312 95.176 90.6408 95.4256 90.6408 95.6733H93.6359C93.6359 95.6733 97.2425 91.918 97.3911 87.7112C97.5398 83.5043 97.6922 83.0547 99.7956 79.5985C101.899 76.1424 104.452 74.34 104.749 71.4859C105.047 68.6318 105.349 67.8811 107.754 66.0787C110.158 64.2764 110.909 62.474 111.208 60.0695C111.507 57.6651 112.109 56.7639 114.514 54.6624C116.918 52.5609 116.772 52.5513 116.772 51.0481Z" fill="url(#paint2_linear_7193_184558)"/>
<path d="M110.376 95.6654C110.376 95.6654 111.759 93.3181 112.121 92.295C112.483 91.2718 112.902 90.0677 112.542 87.6595C112.182 85.2512 112.782 84.289 113.495 82.8448C114.207 81.4006 114.76 81.2806 114.518 79.1143C114.276 76.948 114.64 76.466 115.24 75.4429C115.84 74.4197 115.24 72.6726 115.24 72.6726C115.017 73.1801 114.712 73.6479 114.339 74.0577C113.796 74.5988 113.283 74.4026 112.937 75.7439C112.533 77.3081 112.222 78.1198 110.726 79.6554C109.145 81.2806 109.145 83.2659 108.68 85.0111C108.082 87.2574 106.893 87.2384 104.889 90.3078C102.884 93.3772 102.781 95.6654 102.781 95.6654H110.376Z" fill="#0F43C1"/>
<path d="M113.626 76.887C113.204 78.2702 113.445 78.7523 113.083 79.8954C112.721 81.0386 111.279 81.3396 111.098 83.5154C110.917 85.6913 110.435 86.8249 108.088 89.8943C106.621 91.8129 106.007 94.1735 105.754 95.673H110.376C110.376 95.673 111.759 93.3257 112.121 92.3025C112.483 91.2794 112.902 90.0753 112.542 87.667C112.182 85.2588 112.782 84.2966 113.495 82.8524C114.208 81.4082 114.76 81.2882 114.518 79.1219C114.276 76.9556 114.64 76.4736 115.24 75.4504C115.84 74.4273 115.24 72.6802 115.24 72.6802C115.24 72.6802 114.905 74.1263 114.764 74.7283C114.623 75.3304 114.048 75.5019 113.626 76.887Z" fill="url(#paint3_linear_7193_184558)"/>
<path d="M84.0202 95.6652C84.0202 95.6652 84.0202 91.4584 81.4672 86.3504C78.9141 81.2423 77.71 80.7927 76.9593 75.235C76.2086 69.6774 75.4579 67.1224 73.505 64.2683C71.5521 61.4142 73.0535 60.8121 71.4092 58.4096C69.765 56.007 68.7057 54.3533 68.7057 54.3533C68.7057 54.3533 68.3665 56.8511 68.7057 58.3715C69.0353 59.8576 69.7193 59.7242 69.5497 61.8638C69.3801 64.0035 68.9305 64.5674 68.9781 67.2157C69.0257 69.8641 69.8812 71.1025 70.8948 73.1869C71.9084 75.2712 71.9084 76.1724 72.078 81.8635C72.2476 87.5545 72.4152 88.8482 73.2612 91.4393C73.7201 92.8875 74.2849 94.2999 74.9511 95.6652H84.0202Z" fill="url(#paint4_linear_7193_184558)"/>
<path d="M81.4688 86.3504C78.9138 81.2423 77.7116 80.7927 76.9609 75.235C76.2102 69.6774 75.4595 67.1224 73.5066 64.2683C71.5537 61.4142 73.0551 60.8121 71.4109 58.4096C69.7666 56.007 68.7073 54.3533 68.7073 54.3533C68.7073 54.3533 68.7073 54.378 68.7073 54.4104C68.7778 54.8906 68.8692 55.525 68.9702 56.2585C69.1969 57.8914 70.0772 58.2953 70.8545 59.7242C71.5309 60.9627 71.1937 62.8774 70.9117 64.3426C70.3801 67.109 71.2489 67.5549 72.3197 69.2963C73.3904 71.0377 73.3066 70.9901 74.0668 75.3246C75.3052 82.395 79.5921 86.4228 80.0379 92.7311C80.1236 93.9448 80.2284 94.926 80.3027 95.6614H84.0218C84.0218 95.6614 84.0218 91.4527 81.4688 86.3504Z" fill="#3F69CB"/>
<path d="M98.4006 95.6443C98.4006 95.6443 98.513 92.2148 100.687 89.9666C102.861 87.7184 103.954 87.6365 105.08 83.8812C106.206 80.1259 107.188 78.8398 109.745 76.5916C112.301 74.3434 113.199 71.8608 113.424 70.2071C113.648 68.5533 114.249 65.9221 114.249 65.9221C114.249 65.9221 112.071 66.5375 111.545 68.1456C111.019 69.7536 110.343 70.8129 106.889 72.1466C103.434 73.4803 99.6904 77.2051 97.7433 80.185C96.0285 82.8123 96.099 85.6226 95.7675 87.8461C95.335 90.7459 93.7632 93.0131 92.9363 94.1334C92.5648 94.6701 92.1554 95.1795 91.7112 95.6577L98.4006 95.6443Z" fill="#6245DD"/>
<path d="M112.144 70.2014C111.695 72.7563 110.643 73.3565 107.562 74.2577C104.481 75.1589 103.056 77.3366 102.227 79.9735C101.398 82.6104 101.694 83.9917 98.9978 86.5848C97.0411 88.4653 96.481 91.3479 96.239 94.7031C96.2196 95.0205 96.2234 95.3389 96.2504 95.6557L98.3977 95.6443C98.3977 95.6443 98.5101 92.2148 100.684 89.9666C102.858 87.7184 103.952 87.6365 105.078 83.8812C106.204 80.1259 107.187 78.8398 109.744 76.5916C112.3 74.3434 113.198 71.8589 113.423 70.2071C113.647 68.5552 114.248 65.9221 114.248 65.9221C113.14 67.1102 112.409 68.5989 112.144 70.2014Z" fill="url(#paint5_linear_7193_184558)"/>
<path d="M53.3259 53.2388L99.5153 53.2388C100.148 53.2388 100.66 52.7261 100.66 52.0937V49.6759C100.66 49.0435 100.148 48.5309 99.5153 48.5309L53.3259 48.5309C52.6935 48.5309 52.1808 49.0435 52.1808 49.6759V52.0937C52.1808 52.7261 52.6935 53.2388 53.3259 53.2388Z" fill="#E7338E"/>
<path d="M88.1745 95.9038H91.1448V53.2639H88.1745V95.9038Z" fill="#D0EFF4"/>
<path d="M61.7838 95.9038H64.7542V53.2639H61.7838L61.7838 95.9038Z" fill="#D0EFF4"/>
<path d="M62.0354 83.226V86.1963H90.7535V83.226H62.0354Z" fill="#D0EFF4"/>
<path d="M96.6956 48.5368H63.7821C63.1229 48.5368 62.6637 47.7747 62.8847 47.045L70.3858 22.3908C70.7059 21.341 71.5556 20.6379 72.5082 20.6379L102.573 19.6853C105.431 19.6853 106.218 22.4537 105.696 24.1722L98.8105 46.7897C98.5018 47.8376 97.6464 48.5368 96.6956 48.5368Z" fill="#AADDE0"/>
<path d="M95.1211 48.5369H61.0397C60.3576 48.5369 59.8794 47.7462 60.1099 46.9936L67.8777 21.463C68.2073 20.3751 69.0875 19.6492 70.0744 19.6492H102.243C103.855 19.6492 104.981 21.5182 104.44 23.2978L97.3103 46.7326C96.9768 47.8224 96.1042 48.5369 95.1211 48.5369Z" fill="#0276FF"/>
<path d="M95.222 44.2959H63.5507C62.9162 44.2959 62.4742 43.5605 62.6876 42.8612L68.9274 22.3263C69.2341 21.3146 70.0515 20.6382 70.9679 20.6382H100.862C102.361 20.6382 103.407 22.3777 102.904 24.0296L97.2568 42.6155C96.9501 43.631 96.1365 44.2959 95.222 44.2959Z" fill="white"/>
<path d="M56.8253 46.0068H87.2295C87.8238 46.0068 88.3937 46.2429 88.8139 46.6631C89.2341 47.0833 89.4701 47.6532 89.4701 48.2474V48.537H54.5828V48.2474C54.5828 47.953 54.6408 47.6615 54.7535 47.3896C54.8662 47.1176 55.0314 46.8705 55.2397 46.6624C55.4479 46.4543 55.6952 46.2893 55.9672 46.1768C56.2393 46.0644 56.5309 46.0066 56.8253 46.0068Z" fill="#59CEE7"/>
<mask id="mask0_7193_184558" style="mask-type:alpha" maskUnits="userSpaceOnUse" x="62" y="20" width="42" height="25">
<path d="M95.222 44.2959H63.5507C62.9162 44.2959 62.4742 43.5605 62.6876 42.8612L68.9274 22.3263C69.2341 21.3146 70.0515 20.6382 70.9679 20.6382H100.862C102.361 20.6382 103.407 22.3777 102.904 24.0296L97.2568 42.6155C96.9501 43.631 96.1365 44.2959 95.222 44.2959Z" fill="white"/>
</mask>
<g mask="url(#mask0_7193_184558)">
<path d="M80.4028 31.8811C80.8293 31.9215 81.2579 31.8311 81.6317 31.622C82.2033 31.2752 82.7254 30.2483 82.7901 29.3852C82.8644 28.3964 81.4812 28.2554 81.4812 28.2554L80.4028 31.8811Z" fill="#EA867C"/>
<path d="M80.3208 31.3173C80.6889 31.3453 81.0584 31.2859 81.3992 31.144C81.885 30.9153 82.2813 30.237 82.2794 29.6674C82.2794 29.0139 81.0315 28.9243 81.0315 28.9243L80.3208 31.3173Z" fill="#E67B81"/>
<path d="M73.8942 31.946C73.8942 31.946 73.1798 32.0451 72.812 31.7078C72.4443 31.3706 72.532 30.3494 72.9816 29.4825C73.496 28.4879 74.9726 28.3184 74.9726 28.3184L73.8942 31.946Z" fill="#EA867C"/>
<path d="M74.5417 31.2088C74.5417 31.2088 73.8977 31.2736 73.5357 31.0602C73.1737 30.8468 73.168 30.1933 73.5071 29.637C73.8977 29.0006 75.2333 28.8882 75.2333 28.8882L74.5417 31.2088Z" fill="#E67B81"/>
<path d="M80.932 30.2067C81.6484 30.0162 81.9799 29.0845 82.6068 27.3488C83.2336 25.6131 83.2336 25.0625 83.0793 24.3785C83.0673 24.293 83.0355 24.2116 82.9864 24.1406C82.9373 24.0697 82.8723 24.0112 82.7966 23.9699C82.7208 23.9286 82.6365 23.9057 82.5502 23.9028C82.464 23.9 82.3783 23.9174 82.3 23.9536C82.3502 23.4061 82.2013 22.8589 81.8809 22.4123C81.3512 21.7073 80.2671 22.3056 79.606 22.5894C78.9448 22.8733 78.6171 22.2274 77.8912 22.2655C77.1653 22.3037 76.8548 22.8009 76.2298 23.1477C75.6049 23.4944 74.5151 23.5287 74.5151 23.5287C74.4894 23.989 74.5541 24.4499 74.7056 24.8853C74.8514 25.2617 74.9468 25.6557 74.9895 26.057C74.9895 26.057 74.4351 27.8232 74.0864 28.9149C73.7377 30.0067 74.2293 30.2734 74.2293 30.2734L80.932 30.2067Z" fill="#143ECB"/>
<path d="M79.2941 38.4734C79.2941 38.4734 81.1879 40.9502 82.775 42.3849C84.3621 43.8196 84.9108 44.2902 85.2023 45.7801C85.4938 47.27 83.337 57.4594 83.337 57.4594L57.0786 57.7185C57.0786 57.7185 60.811 48.0016 62.0857 45.5553C62.8478 44.0958 64.1929 43.3928 66.0029 42.4668C67.8129 41.5409 70.6136 40.0891 70.6136 40.0891L79.2941 38.4734Z" fill="#0276FF"/>
<path d="M79.889 33.1216C79.889 33.1216 78.7287 36.6882 78.7268 37.1055C78.7249 37.5228 79.2984 38.4735 79.2984 38.4735C79.2984 38.4735 77.7951 41.5029 76.61 43.09C75.4249 44.677 73.7521 45.9136 73.4454 46.0717C73.1386 46.2298 72.2336 44.9876 71.4067 42.8785C70.5798 40.7693 70.6179 40.0892 70.6179 40.0892C70.6179 40.0892 71.8259 39.2127 72.1288 38.3744C72.4318 37.5361 73.7788 33.2435 73.7788 33.2435L79.889 33.1216Z" fill="#EA867C"/>
<path d="M81.8403 24.5786C81.8485 25.1008 81.895 25.6217 81.9794 26.1371C82.1032 26.7392 82.0556 27.0783 81.825 28.0424C81.5945 29.0065 80.8724 31.792 79.8912 33.44C79.2853 34.5006 78.4364 35.4024 77.4143 36.0712C76.8428 36.418 76.4617 36.416 75.8901 36.4103C75.3186 36.4046 75.0899 36.4389 74.7241 36.1017C74.0706 35.5015 73.7143 34.2421 73.6705 33.3771C73.6267 32.5122 74.2992 29.8791 74.787 28.3282C75.1264 27.3126 75.5903 26.3431 76.1683 25.4417C77.056 25.6629 77.9802 25.696 78.8814 25.5389C79.9015 25.3341 80.8944 25.0119 81.8403 24.5786Z" fill="#F1A17E"/>
<path d="M78.6675 28.4062C78.6675 28.4062 79.239 27.705 80.0583 27.6974C80.8776 27.6898 81.2453 28.0251 81.3101 28.269C81.3749 28.5128 80.929 28.3185 80.2507 28.2937C79.5725 28.269 78.6046 28.6234 78.6675 28.4062Z" fill="#143ECB"/>
<path d="M77.6972 28.4156C77.6398 28.2056 77.511 28.0222 77.3329 27.897C77.1549 27.7718 76.9387 27.7127 76.7217 27.7297C75.8968 27.7297 75.3309 28.0841 75.1194 28.3336C74.9079 28.5832 75.4738 28.3756 76.1692 28.3336C76.8646 28.2917 77.6325 28.6328 77.6972 28.4156Z" fill="#143ECB"/>
<path d="M75.5329 32.4549C76.0258 32.3769 76.5238 32.3355 77.0228 32.3311C77.6953 32.3311 78.4193 32.4263 78.4193 32.4263C78.4193 32.4263 77.8992 33.76 76.5789 33.7733C75.3557 33.7848 75.5329 32.4549 75.5329 32.4549Z" fill="white"/>
<path d="M77.8199 28.8613C77.8199 28.8613 77.1626 30.1036 76.6615 31.0448C76.3223 31.6811 77.1187 31.5916 77.3531 31.6354L77.8199 28.8613Z" fill="#ED8878"/>
<path d="M79.5585 29.7492H79.4406C79.275 29.7492 79.1879 29.6033 79.2441 29.418L79.2834 29.2861C79.3079 29.1972 79.3584 29.1176 79.4284 29.0576C79.4984 28.9976 79.5848 28.9599 79.6764 28.9492H79.7943C79.9571 28.9492 80.0469 29.0952 79.9907 29.2776L79.9515 29.4124C79.9273 29.5014 79.8769 29.5812 79.8068 29.6413C79.7367 29.7013 79.6502 29.7389 79.5585 29.7492Z" fill="black"/>
<path d="M76.0571 29.7893H75.942C75.7764 29.7893 75.6894 29.6433 75.7427 29.458L75.7848 29.3261C75.81 29.2376 75.8607 29.1584 75.9306 29.0985C76.0005 29.0386 76.0864 29.0006 76.1778 28.9893H76.2957C76.4585 28.9893 76.5483 29.1352 76.4922 29.3205L76.4529 29.4524C76.4275 29.5413 76.3764 29.6208 76.3059 29.6807C76.2355 29.7406 76.1489 29.7784 76.0571 29.7893Z" fill="black"/>
<path d="M65.8557 51.6847H65.8119C65.7815 51.6795 65.7524 51.6682 65.7263 51.6516C65.7002 51.635 65.6777 51.6135 65.66 51.5882C65.6423 51.5628 65.6297 51.5343 65.6231 51.5041C65.6165 51.4739 65.6159 51.4427 65.6214 51.4123C65.6309 51.3704 66.4483 47.0511 68.0697 43.1834C69.5939 39.5634 71.5944 38.4336 71.6782 38.386C71.7053 38.3683 71.7357 38.3563 71.7675 38.3509C71.7994 38.3456 71.832 38.3468 71.8634 38.3546C71.8947 38.3624 71.9241 38.3767 71.9497 38.3964C71.9753 38.4161 71.9965 38.4409 72.0121 38.4693C72.0276 38.4976 72.0372 38.5288 72.0401 38.561C72.043 38.5932 72.0392 38.6256 72.0289 38.6563C72.0187 38.6869 72.0022 38.7151 71.9806 38.7391C71.9589 38.7631 71.9325 38.7823 71.9031 38.7956C71.884 38.807 69.9521 39.9064 68.5003 43.3682C66.8979 47.1788 66.0882 51.4599 66.0806 51.5018C66.0693 51.5533 66.041 51.5994 66.0001 51.6326C65.9593 51.6659 65.9084 51.6842 65.8557 51.6847Z" fill="white"/>
<path d="M78.6053 45.9842C78.5738 45.9843 78.5426 45.9778 78.5138 45.9651C78.4856 45.9533 78.4601 45.936 78.4386 45.9142C78.4172 45.8925 78.4002 45.8667 78.3887 45.8384C78.3772 45.8101 78.3714 45.7798 78.3716 45.7492C78.3718 45.7187 78.3781 45.6884 78.39 45.6603C78.39 45.647 78.9978 44.1951 79.5427 41.1086C80.0533 38.2183 78.8663 37.2714 78.8549 37.2619C78.8043 37.225 78.7705 37.1695 78.7609 37.1077C78.7512 37.0459 78.7665 36.9828 78.8034 36.9323C78.8403 36.8817 78.8958 36.8479 78.9576 36.8383C79.0194 36.8286 79.0825 36.8439 79.133 36.8808C79.1921 36.9246 80.5677 37.9802 80.0018 41.181C79.4455 44.3285 78.8453 45.7746 78.8206 45.8337C78.804 45.8775 78.7746 45.9154 78.7362 45.9423C78.6978 45.9691 78.6521 45.9837 78.6053 45.9842Z" fill="white"/>
<path d="M80.0069 31.5517C80.3685 31.1093 80.408 30.5434 80.0951 30.2877C79.7823 30.032 79.2355 30.1833 78.8739 30.6257C78.5124 31.0681 78.4729 31.634 78.7857 31.8898C79.0986 32.1455 79.6453 31.9941 80.0069 31.5517Z" fill="#EE8A7B"/>
<path d="M75.8624 31.5849C76.224 31.1425 76.2635 30.5766 75.9506 30.3209C75.6378 30.0652 75.091 30.2165 74.7294 30.6589C74.3678 31.1013 74.3283 31.6673 74.6412 31.923C74.954 32.1787 75.5008 32.0273 75.8624 31.5849Z" fill="#EE8A7B"/>
<path opacity="0.8" d="M103.554 21.488L96.849 43.4539C96.7157 43.8864 96.308 44.2389 95.9383 44.2389H81.4888L88.6716 20.7012H103.121C103.493 20.7012 103.685 21.0536 103.554 21.488Z" fill="white"/>
<path d="M85.6775 42.2153H92.8813C93.4529 42.2153 94.0912 41.6704 94.2969 40.9959L94.3884 40.6949C94.5942 40.0204 94.2931 39.4736 93.7177 39.4736H86.5139C85.9423 39.4736 85.3041 40.0204 85.0983 40.6949L85.0069 40.9959C84.8011 41.6704 85.1002 42.2153 85.6775 42.2153Z" fill="#D0EFF4"/>
<path d="M92.9966 42.2155H95.4639L93.2614 41.3467L92.9966 42.2155Z" fill="#D0EFF4"/>
<path d="M88.115 34.2382H95.3188C95.8904 34.2382 96.5287 33.6914 96.7344 33.0169L96.8259 32.7159C97.0317 32.0414 96.7325 31.4946 96.1552 31.4946H88.9514C88.3798 31.4946 87.7416 32.0414 87.5358 32.7159L87.4444 33.0169C87.2386 33.6914 87.5377 34.2382 88.115 34.2382Z" fill="#D0EFF4"/>
<path d="M95.4302 34.2379H97.8975L95.695 33.3672L95.4302 34.2379Z" fill="#D0EFF4"/>
<path d="M95.6445 38.2275H88.433C87.8614 38.2275 87.5585 37.6807 87.7643 37.0062L87.8557 36.7052C88.0615 36.0307 88.6959 35.4839 89.2713 35.4839H96.4752C97.0467 35.4839 97.3516 36.0307 97.1458 36.7052L97.0544 37.0062C96.8467 37.6807 96.216 38.2275 95.6445 38.2275Z" fill="#59CEE7"/>
<path d="M89.1592 35.4839H86.6919L88.8944 36.3546L89.1592 35.4839Z" fill="#59CEE7"/>
<path d="M98.076 30.2485H90.8722C90.3006 30.2485 89.9958 29.7017 90.2016 29.0272L90.293 28.7262C90.4988 28.0517 91.1332 27.5049 91.7086 27.5049H98.9124C99.484 27.5049 99.7889 28.0517 99.5831 28.7262L99.4916 29.0272C99.2859 29.7017 98.6514 30.2485 98.076 30.2485Z" fill="#59CEE7"/>
<path d="M91.5928 27.5068H89.1255L91.328 28.3756L91.5928 27.5068Z" fill="#59CEE7"/>
<path d="M97.2559 24.6188C97.7586 24.0036 97.8135 23.2167 97.3784 22.8611C96.9434 22.5055 96.1831 22.7159 95.6803 23.331C95.1776 23.9462 95.1227 24.7331 95.5578 25.0887C95.9929 25.4443 96.7531 25.2339 97.2559 24.6188Z" fill="#0276FF"/>
<path d="M96.3377 23.4146L96.0005 24.5177L96.9798 23.9671L96.3377 23.4146Z" fill="white"/>
<path d="M100.686 24.6109C101.188 23.9958 101.243 23.2089 100.808 22.8533C100.373 22.4977 99.6128 22.7081 99.11 23.3232C98.6073 23.9384 98.5524 24.7253 98.9875 25.0809C99.4225 25.4365 100.183 25.2261 100.686 24.6109Z" fill="#FF0653"/>
<path d="M100.142 24.4126H99.395L99.6522 23.5686H100.399L100.142 24.4126Z" fill="white"/>
<path d="M96.5412 27.0054C96.5725 26.9671 96.5761 26.9182 96.5492 26.8962C96.5223 26.8743 96.4752 26.8875 96.4439 26.9258C96.4126 26.9641 96.409 27.0129 96.4359 27.0349C96.4628 27.0569 96.5099 27.0437 96.5412 27.0054Z" stroke="#82BCFF" stroke-width="0.67" stroke-miterlimit="10"/>
</g>
<path d="M96.7534 48.5388H83.8166V48.3483C83.8166 47.7283 84.0629 47.1337 84.5013 46.6952C84.9397 46.2568 85.5343 46.0105 86.1544 46.0105H96.3609C96.7222 46.0105 97.0687 46.1541 97.3241 46.4095C97.5796 46.665 97.7231 47.0115 97.7231 47.3728V47.5633C97.7231 47.8211 97.6212 48.0683 97.4395 48.2511C97.2577 48.4339 97.0111 48.5373 96.7534 48.5388Z" fill="#AADDE0"/>
<path d="M37.5487 92.9995C37.5487 92.9995 36.7313 95.3811 36.4893 96.1413C36.0835 97.4045 36.6151 98.2238 37.5487 98.5038C38.4822 98.7839 43.0739 99.9995 44.2876 99.9995H48.4297C48.5041 100 48.5779 99.986 48.6466 99.9573C48.7153 99.9286 48.7774 99.8863 48.8291 99.8327C48.8808 99.7792 48.9211 99.7157 48.9474 99.6461C48.9737 99.5765 48.9856 99.5022 48.9822 99.4279C48.9745 99.0895 48.8699 98.7605 48.6808 98.4799C48.4917 98.1992 48.226 97.9787 47.9152 97.8446C46.513 97.1911 44.8382 96.4271 44.1047 95.7355C43.4017 95.0763 42.891 93.6854 42.891 93.6854L37.5487 92.9995Z" fill="#6248DD"/>
<path d="M23.9464 51.2515C23.9464 51.2515 22.4851 58.9945 23.15 62.041C23.8149 65.0875 25.7717 66.1792 32.5601 66.1792C39.3486 66.1792 42.4008 70.71 42.4008 70.71C41.0863 73.5514 40.116 76.5397 39.5105 79.6114C38.5751 84.5327 37.1766 93.7942 37.1766 93.7942L45.032 93.8266C45.032 93.8266 46.8611 87.3049 48.3643 84.0316C51.2108 77.8376 55.6768 68.5989 52.8665 64.3826C50.0562 60.1662 23.9464 51.2515 23.9464 51.2515Z" fill="#E7338E"/>
<path d="M27.1945 4.96278C30.0239 4.6446 33.6153 6.37077 34.0535 8.46466C34.4917 10.5586 35.5415 10.9834 35.8349 11.2025C36.1283 11.4216 35.6882 12.1552 35.1528 12.3457C34.9147 12.4333 34.9623 13.2126 35.0061 13.5651C35.0115 13.6148 34.9988 13.6648 34.9705 13.706C34.9422 13.7472 34.9001 13.777 34.8518 13.7899C34.7203 13.8242 34.5127 13.8718 34.2135 13.9214C33.8992 13.9795 33.5775 13.9866 33.2609 13.9423C33.5006 14.1809 33.8055 14.3433 34.1373 14.4091C34.3677 14.4692 34.603 14.5087 34.8404 14.5272C34.8638 14.5287 34.8866 14.5348 34.9076 14.5452C34.9286 14.5556 34.9473 14.5701 34.9625 14.5879C34.9778 14.6057 34.9894 14.6263 34.9965 14.6486C35.0037 14.6709 35.0063 14.6944 35.0042 14.7178C34.9528 15.1998 34.7242 16.5106 33.7334 17.288C33.0304 17.8386 31.9025 18.1072 31.066 18.2406C30.7649 18.2879 30.4921 18.4456 30.3009 18.683C30.1096 18.9204 30.0136 19.2204 30.0315 19.5247C30.0734 20.2678 30.1248 21.2071 30.1534 21.8587C30.2049 23.0952 30.3935 24.3927 30.3935 24.3927H23.2278C23.2278 24.3927 23.3306 23.4401 23.403 19.6562C23.4431 17.0631 18.1464 5.98209 27.1945 4.96278Z" fill="#F29170"/>
<path d="M40.8397 49.7158C40.8397 49.7158 61.0813 57.5865 60.1953 67.1929C59.3703 76.1476 60.0753 73.0878 58.5549 81.8234C57.0612 90.4143 56.6153 94.8402 56.6153 94.8402H49.3524C49.3524 94.8402 48.4398 84.9423 48.3846 81.8234C48.2588 75.0025 50.0421 74.0671 48.6418 70.1174C47.3652 66.5203 25.3651 67.5892 23.5818 64.615C21.707 61.4942 22.3357 57.8913 22.9778 54.3075C23.1188 53.5168 23.9476 51.2496 23.9476 51.2496L40.8397 49.7158Z" fill="#FF0653"/>
<path d="M43.4144 34.0183C43.4144 34.0183 38.495 26.7897 36.525 24.7549C33.8785 22.0209 31.5579 22.9659 26.0822 22.541C20.6064 22.1161 19.0327 24.7054 18.5678 27.6852C18.1029 30.6651 20.8541 35.7731 22.4926 39.7703C24.1312 43.7676 23.9483 51.2515 23.9483 51.2515C23.9483 51.2515 27.5683 52.0879 32.9202 51.6764C38.2721 51.2648 40.8404 49.7178 40.8404 49.7178C40.8404 49.7178 40.768 42.2624 40.5889 40.944C40.3012 38.8196 38.8437 37.3678 38.8437 37.3678L43.4144 34.0183Z" fill="#6248DD"/>
<mask id="mask1_7193_184558" style="mask-type:alpha" maskUnits="userSpaceOnUse" x="18" y="22" width="26" height="30">
<path d="M43.4105 34.0179C43.4105 34.0179 38.4911 26.7893 36.521 24.7544C33.8746 22.0204 31.554 22.9654 26.0783 22.5405C20.6025 22.1156 19.0288 24.7049 18.5639 27.6847C18.099 30.6646 20.8502 35.7726 22.4887 39.7699C24.1273 43.7671 23.9444 51.251 23.9444 51.251C23.9444 51.251 27.5644 52.0874 32.9163 51.6759C38.2682 51.2643 40.8365 49.7173 40.8365 49.7173C40.8365 49.7173 40.7641 42.2619 40.585 40.9435C40.2973 38.8191 38.8398 37.3673 38.8398 37.3673L43.4105 34.0179Z" fill="#6248DD"/>
</mask>
<g mask="url(#mask1_7193_184558)">
<path d="M18.8789 22.8494C18.8789 22.8494 21.4053 23.9354 30.0362 23.8249C38.667 23.7144 44.8782 19.1074 44.8782 19.1074" stroke="white" stroke-miterlimit="10"/>
<path d="M18.8594 25.086C18.8594 25.086 21.3858 26.174 30.0147 26.0634C38.6437 25.9529 44.8587 21.3384 44.8587 21.3384" stroke="white" stroke-miterlimit="10"/>
<path d="M18.8359 27.3248C18.8359 27.3248 21.3642 28.4108 29.9932 28.3022C38.6222 28.1936 44.8352 23.5847 44.8352 23.5847" stroke="white" stroke-miterlimit="10"/>
<path d="M18.8164 29.5637C18.8164 29.5637 21.3428 30.6497 29.9718 30.5411C38.6007 30.4325 44.8214 25.8218 44.8214 25.8218" stroke="white" stroke-miterlimit="10"/>
<path d="M18.793 31.8025C18.793 31.8025 21.3213 32.8885 29.9502 32.7799C38.5792 32.6713 44.7942 28.0605 44.7942 28.0605" stroke="white" stroke-miterlimit="10"/>
<path d="M18.7695 34.0411C18.7695 34.0411 21.2959 35.1271 29.9249 35.0166C38.5538 34.9061 44.7688 30.2935 44.7688 30.2935" stroke="white" stroke-miterlimit="10"/>
<path d="M18.75 36.2795C18.75 36.2795 21.2783 37.3655 29.9073 37.255C38.5362 37.1445 44.7512 32.5376 44.7512 32.5376" stroke="white" stroke-miterlimit="10"/>
<path d="M18.7266 38.5164C18.7266 38.5164 21.2529 39.6043 29.8819 39.4938C38.5109 39.3833 44.7259 34.7764 44.7259 34.7764" stroke="white" stroke-miterlimit="10"/>
<path d="M18.707 40.7552C18.707 40.7552 21.2334 41.8412 29.8624 41.7326C38.4913 41.624 44.7063 37.0151 44.7063 37.0151" stroke="white" stroke-miterlimit="10"/>
<path d="M18.6836 42.9938C18.6836 42.9938 21.21 44.0798 29.8408 43.9712C38.4717 43.8626 44.6829 39.248 44.6829 39.248" stroke="white" stroke-miterlimit="10"/>
<path d="M18.6641 45.2327C18.6641 45.2327 21.1904 46.3187 29.8194 46.2101C38.4484 46.1015 44.6634 41.4907 44.6634 41.4907" stroke="white" stroke-miterlimit="10"/>
<path d="M18.6406 47.471C18.6406 47.471 21.1689 48.557 29.7979 48.4464C38.4268 48.3359 44.6399 43.729 44.6399 43.729" stroke="white" stroke-miterlimit="10"/>
<path d="M18.6211 49.7097C18.6211 49.7097 21.1475 50.7957 29.7764 50.6852C38.4054 50.5747 44.6204 45.9678 44.6204 45.9678" stroke="white" stroke-miterlimit="10"/>
<path d="M18.5977 51.9465C18.5977 51.9465 21.1259 53.0344 29.7549 52.9239C38.3839 52.8134 44.5989 48.2026 44.5989 48.2026" stroke="white" stroke-miterlimit="10"/>
<path d="M18.5742 54.1854C18.5742 54.1854 21.1006 55.2714 29.7296 55.1628C38.3585 55.0542 44.5735 50.4453 44.5735 50.4453" stroke="white" stroke-miterlimit="10"/>
</g>
<path d="M33.5202 9.89313L33.5026 9.89905C33.3243 9.95912 33.2284 10.1524 33.2885 10.3307L33.3284 10.4493C33.3885 10.6277 33.5817 10.7235 33.7601 10.6635L33.7777 10.6575C33.956 10.5975 34.0519 10.4042 33.9918 10.2259L33.9518 10.1073C33.8918 9.92893 33.6985 9.83306 33.5202 9.89313Z" fill="#072440"/>
<path d="M31.7836 13.552C32.5054 13.552 33.0906 12.9668 33.0906 12.245C33.0906 11.5232 32.5054 10.938 31.7836 10.938C31.0617 10.938 30.4766 11.5232 30.4766 12.245C30.4766 12.9668 31.0617 13.552 31.7836 13.552Z" fill="#F27970"/>
<path d="M28.8055 37.7697C30.6021 33.7153 24.4234 32.8617 27.8376 28.8931C31.0118 25.2064 24.1966 19.3667 26.9288 17.128C34.9862 10.5187 32.515 6.42615 32.515 6.42615C32.9182 6.68903 33.2858 7.00281 33.6087 7.35973C33.9611 7.81128 35.2548 6.66811 35.2834 5.55925C35.312 4.45038 34.7232 3.54919 33.4791 3.53585C32.235 3.52252 32.1988 3.64445 30.6402 2.90902C23.7432 -0.345181 18.4465 2.36411 18.1931 8.53718C18.1093 10.633 19.1458 12.8278 15.6286 14.051C11.5437 15.4705 15.5639 21.6283 13.3252 23.3602C7.75606 27.6623 14.2054 31.6024 12.7002 34.8566C9.68991 41.3631 17.3872 45.829 20.7024 42.1252C24.1166 38.2956 26.9459 41.9651 28.8055 37.7697Z" fill="#FF0653"/>
<path d="M33.7513 14.5561C34.1187 14.7863 34.5394 14.9176 34.9726 14.9371C34.9897 14.8342 34.9992 14.7466 35.0069 14.6628C35.0087 14.6429 35.0064 14.6229 35.0001 14.604C34.9937 14.5851 34.9835 14.5677 34.97 14.553C34.9566 14.5383 34.9402 14.5265 34.9219 14.5185C34.9036 14.5105 34.8839 14.5064 34.864 14.5065C34.6178 14.5098 34.3723 14.4797 34.1342 14.417C33.8025 14.3512 33.4975 14.1888 33.2578 13.9502C33.336 14.2093 33.5134 14.427 33.7513 14.5561Z" fill="#D83445"/>
<path d="M34.2295 13.7026C33.9647 13.7884 33.2578 13.9446 33.2578 13.9446C33.5744 13.9889 33.8961 13.9818 34.2104 13.9236C34.4307 13.8846 34.6537 13.8629 34.8773 13.8589C34.8997 13.8586 34.9219 13.8539 34.9424 13.8448C34.9629 13.8358 34.9814 13.8227 34.9968 13.8063C35.0121 13.7899 35.0239 13.7706 35.0315 13.7495C35.0392 13.7284 35.0424 13.706 35.0411 13.6836C35.0393 13.5967 35.0219 13.5109 34.9897 13.4302C34.9897 13.4302 34.4924 13.6169 34.2295 13.7026Z" fill="#D83445"/>
<path d="M62.7143 99.2012C62.7311 99.2851 62.7289 99.3717 62.7078 99.4546C62.6868 99.5375 62.6473 99.6146 62.5925 99.6803C62.5376 99.7459 62.4687 99.7984 62.3909 99.8339C62.3131 99.8693 62.2282 99.8869 62.1427 99.8852H50.8559C49.3603 99.8852 49.6422 97.9228 49.6422 97.174C49.6422 96.4252 49.8594 94.8877 49.8594 94.8877H55.8706C55.8706 94.8877 58.2655 96.7587 60.6966 97.3874C62.1579 97.7666 62.6 98.6011 62.7143 99.2012Z" fill="#6248DD"/>
<path d="M43.0858 34.2715C43.606 35.066 45.5627 39.5472 51.8863 42.0145C56.7142 43.8969 60.1475 44.2056 61.706 44.2075C63.1102 44.2075 66.8941 44.779 68.0429 45.1601C70.7427 46.0727 71.8211 48.8373 71.8211 48.8373H60.5343C57.2648 48.9192 54.9594 48.8049 50.1086 47.5379C40.4851 45.0267 37.9835 37.861 37.8711 37.5085L43.0858 34.2715Z" fill="#F29170"/>
<path d="M19.0795 69.8486H39.4163C40.3255 69.8486 41.0625 69.1116 41.0625 68.2025V68.1053C41.0625 67.1962 40.3255 66.4592 39.4163 66.4592H19.0795C18.1704 66.4592 17.4334 67.1962 17.4334 68.1053V68.2025C17.4334 69.1116 18.1704 69.8486 19.0795 69.8486Z" fill="white"/>
<path d="M20.9836 82.5423C26.4974 82.5423 30.9672 80.948 30.9672 78.9814C30.9672 77.0147 26.4974 75.4204 20.9836 75.4204C15.4698 75.4204 11 77.0147 11 78.9814C11 80.948 15.4698 82.5423 20.9836 82.5423Z" fill="url(#paint6_linear_7193_184558)"/>
<path d="M14.7266 68.569C14.7266 68.569 15.7249 67.6831 16.2336 63.8554C16.3822 62.7294 16.4718 59.4028 15.5306 54.0909C15.2658 52.5914 15.3153 50.6614 16.7176 52.2771C18.1198 53.8927 20.4405 57.1317 21.4122 60.9079C22.3838 64.6842 22.5172 69.6474 22.5172 69.6474L20.6234 76.2111L14.7266 68.569Z" fill="url(#paint7_linear_7193_184558)"/>
<path d="M23.1943 64.4689C23.1943 64.4689 23.7335 62.7179 25.6217 58.6559C27.5098 54.5939 29.7218 53.1935 29.3141 54.6549C28.8244 56.3963 28.552 58.1644 28.2662 61.5138C27.9728 64.9281 28.2357 70.1542 28.2357 70.1542L26.0065 79.8006C26.0065 79.8006 23.2553 71.1697 22.6856 68.8491C22.116 66.5285 23.1943 64.4689 23.1943 64.4689Z" fill="url(#paint8_linear_7193_184558)"/>
<path d="M19.3634 68.8927C19.3634 68.8927 18.7689 67.4352 15.8119 64.3067C12.855 61.1783 10.5153 59.6141 9.6522 59.073C8.78911 58.5319 8.57382 59.2902 9.16636 60.2599C9.75889 61.2297 10.5705 61.8242 11.5403 64.3601C12.5101 66.896 13.3217 72.0193 13.3217 72.0193L18.9004 81.2484C18.9004 81.2484 20.7828 76.2813 20.6151 74.7705C20.4475 73.2596 19.3634 68.8927 19.3634 68.8927Z" fill="url(#paint9_linear_7193_184558)"/>
<path d="M19.3637 72.1298C19.3637 72.1298 21.269 66.9856 21.3052 63.7962C21.3681 59.536 20.9394 58.5701 22.0197 58.8939C23.0999 59.2178 24.2717 61.5728 25.0814 65.3852C25.8912 69.1976 25.8912 71.4287 25.9998 74.8811C26.1084 78.3334 24.788 80.1129 24.788 80.1129C24.788 80.1129 21.4671 74.9344 20.3887 74.0161C19.3104 73.0977 19.3637 72.1298 19.3637 72.1298Z" fill="url(#paint10_linear_7193_184558)"/>
<path d="M11.0003 72.4004C9.32752 69.11 7.17075 65.9073 6.19907 64.9184C5.22738 63.9296 6.25241 63.4457 7.27745 64.0935C8.30248 64.7412 12.0292 66.8752 14.8852 70.9962C18.6614 76.4453 19.0768 82.5955 19.0768 82.5955H12.8694C12.8694 82.5955 12.5893 75.5251 11.0003 72.4004Z" fill="url(#paint11_linear_7193_184558)"/>
<path d="M23.8418 82.5955C23.8418 82.5955 23.3559 76.4986 24.4896 73.4235C25.6232 70.3484 29.1822 66.3569 32.5812 65.2785C35.9802 64.2001 34.9019 65.8177 33.8768 66.5188C32.8518 67.22 30.9637 68.5689 30.3159 71.2115C29.6681 73.8541 29.2832 76.8759 29.3137 78.602C29.3442 80.3282 29.3137 82.2221 29.3137 82.2221L23.8418 82.5955Z" fill="url(#paint12_linear_7193_184558)"/>
<path d="M24.4879 85.6155C24.4879 85.6155 25.5663 79.5739 23.6248 75.0431C21.6834 70.5124 19.5247 68.3537 18.0138 67.2734C16.5029 66.1932 15.918 66.8924 16.9888 69.918C18.0595 72.9435 18.2653 76.5045 18.1758 78.9261C18.0081 83.4644 17.366 85.6155 17.366 85.6155H24.4879Z" fill="url(#paint13_linear_7193_184558)"/>
<path d="M20.9826 82.1843C26.1058 82.1843 30.3184 80.963 30.89 79.3931L28.2969 97.9123L14.5618 97.9409L11.1133 79.4921C11.8335 81.0144 15.9717 82.1843 20.9826 82.1843Z" fill="#D0EFF4"/>
<defs>
<linearGradient id="paint0_linear_7193_184558" x1="91.8906" y1="61.0314" x2="101.196" y2="63.5254" gradientUnits="userSpaceOnUse">
<stop offset="0.07" stop-color="#0A31A9"/>
<stop offset="0.72" stop-color="#0F3FCE"/>
</linearGradient>
<linearGradient id="paint1_linear_7193_184558" x1="81.3192" y1="65.9946" x2="90.7884" y2="65.9946" gradientUnits="userSpaceOnUse">
<stop offset="0.35" stop-color="#030C67"/>
<stop offset="0.72" stop-color="#0D1E7A"/>
</linearGradient>
<linearGradient id="paint2_linear_7193_184558" x1="100.1" y1="66.1931" x2="108.135" y2="69.9388" gradientUnits="userSpaceOnUse">
<stop offset="0.07" stop-color="#0784C0"/>
<stop offset="0.7" stop-color="#02C8DC"/>
</linearGradient>
<linearGradient id="paint3_linear_7193_184558" x1="105.754" y1="84.1689" x2="115.518" y2="84.1689" gradientUnits="userSpaceOnUse">
<stop offset="0.35" stop-color="#0A31A9"/>
<stop offset="0.72" stop-color="#0F3FCE"/>
</linearGradient>
<linearGradient id="paint4_linear_7193_184558" x1="67.2843" y1="79.2399" x2="78.7274" y2="73.9051" gradientUnits="userSpaceOnUse">
<stop offset="0.35" stop-color="#3F69CB"/>
<stop offset="0.72" stop-color="#2A48B4"/>
</linearGradient>
<linearGradient id="paint5_linear_7193_184558" x1="101.919" y1="79.2304" x2="108.259" y2="82.1855" gradientUnits="userSpaceOnUse">
<stop offset="0.07" stop-color="#2E34C9"/>
<stop offset="0.72" stop-color="#6245DD"/>
</linearGradient>
<linearGradient id="paint6_linear_7193_184558" x1="30.9691" y1="78.9814" x2="11" y2="78.9814" gradientUnits="userSpaceOnUse">
<stop offset="0.07" stop-color="#0784C0"/>
<stop offset="0.7" stop-color="#02C8DC"/>
</linearGradient>
<linearGradient id="paint7_linear_7193_184558" x1="18.6209" y1="76.2072" x2="18.6209" y2="51.6636" gradientUnits="userSpaceOnUse">
<stop offset="0.48" stop-color="#0A31A9"/>
<stop offset="0.72" stop-color="#0F3FCE"/>
</linearGradient>
<linearGradient id="paint8_linear_7193_184558" x1="29.1331" y1="79.2385" x2="24.8329" y2="54.8473" gradientUnits="userSpaceOnUse">
<stop offset="0.55" stop-color="#0A31A9"/>
<stop offset="0.83" stop-color="#0F3FCE"/>
</linearGradient>
<linearGradient id="paint9_linear_7193_184558" x1="10.3381" y1="76.308" x2="17.6296" y2="63.678" gradientUnits="userSpaceOnUse">
<stop offset="0.54" stop-color="#0A31A9"/>
<stop offset="0.78" stop-color="#0F3FCE"/>
</linearGradient>
<linearGradient id="paint10_linear_7193_184558" x1="19.9696" y1="78.3601" x2="26.4666" y2="60.5115" gradientUnits="userSpaceOnUse">
<stop offset="0.43" stop-color="#2E34C9"/>
<stop offset="0.67" stop-color="#6245DD"/>
</linearGradient>
<linearGradient id="paint11_linear_7193_184558" x1="8.54445" y1="80.0977" x2="15.1595" y2="68.6394" gradientUnits="userSpaceOnUse">
<stop offset="0.39" stop-color="#2E34C9"/>
<stop offset="0.72" stop-color="#6245DD"/>
</linearGradient>
<linearGradient id="paint12_linear_7193_184558" x1="32.0173" y1="74.7877" x2="24.9316" y2="72.208" gradientUnits="userSpaceOnUse">
<stop offset="0.36" stop-color="#2E34C9"/>
<stop offset="0.75" stop-color="#6245DD"/>
</linearGradient>
<linearGradient id="paint13_linear_7193_184558" x1="23.8706" y1="85.9717" x2="13.8032" y2="68.5347" gradientUnits="userSpaceOnUse">
<stop offset="0.32" stop-color="#2E34C9"/>
<stop offset="0.64" stop-color="#6245DD"/>
</linearGradient>
</defs>
</svg>
